%TF.GenerationSoftware,KiCad,Pcbnew,9.0.0-rc3-5ca7abf2c1~182~ubuntu24.04.1*%
%TF.CreationDate,2025-03-09T20:59:23-04:00*%
%TF.ProjectId,jlink-uart-mod,6a6c696e-6b2d-4756-9172-742d6d6f642e,rev?*%
%TF.SameCoordinates,Original*%
%TF.FileFunction,Legend,Bot*%
%TF.FilePolarity,Positive*%
%FSLAX46Y46*%
G04 Gerber Fmt 4.6, Leading zero omitted, Abs format (unit mm)*
G04 Created by KiCad (PCBNEW 9.0.0-rc3-5ca7abf2c1~182~ubuntu24.04.1) date 2025-03-09 20:59:23*
%MOMM*%
%LPD*%
G01*
G04 APERTURE LIST*
%ADD10C,0.120000*%
G04 APERTURE END LIST*
D10*
%TO.C,TP103*%
X149550000Y-95200000D02*
X151950000Y-95200000D01*
X149550000Y-92800000D02*
X149550000Y-95200000D01*
X151950000Y-95200000D02*
X151950000Y-92800000D01*
X151950000Y-92800000D02*
X149550000Y-92800000D01*
%TO.C,TP102*%
X151950000Y-87800000D02*
X149550000Y-87800000D01*
X151950000Y-90200000D02*
X151950000Y-87800000D01*
X149550000Y-87800000D02*
X149550000Y-90200000D01*
X149550000Y-90200000D02*
X151950000Y-90200000D01*
%TO.C,TP101*%
X151950000Y-96050000D02*
X149550000Y-96050000D01*
X151950000Y-98450000D02*
X151950000Y-96050000D01*
X149550000Y-96050000D02*
X149550000Y-98450000D01*
X149550000Y-98450000D02*
X151950000Y-98450000D01*
%TO.C,J101*%
X152919998Y-85679998D02*
X158120000Y-85680000D01*
X152919998Y-109869999D02*
X152920000Y-111200000D01*
X152920000Y-111200000D02*
X154249999Y-111200002D01*
X152920001Y-108600000D02*
X152919998Y-85679998D01*
X152920001Y-108600000D02*
X155519999Y-108600000D01*
X155519999Y-108600000D02*
X155520001Y-111200002D01*
X155520001Y-111200002D02*
X158120001Y-111199999D01*
X158120001Y-111199999D02*
X158120000Y-85680000D01*
%TD*%
M02*
