%TF.GenerationSoftware,KiCad,Pcbnew,9.0.6*%
%TF.CreationDate,2026-01-23T17:12:39-05:00*%
%TF.ProjectId,TagMod,5461674d-6f64-42e6-9b69-6361645f7063,rev?*%
%TF.SameCoordinates,Original*%
%TF.FileFunction,Soldermask,Bot*%
%TF.FilePolarity,Negative*%
%FSLAX46Y46*%
G04 Gerber Fmt 4.6, Leading zero omitted, Abs format (unit mm)*
G04 Created by KiCad (PCBNEW 9.0.6) date 2026-01-23 17:12:39*
%MOMM*%
%LPD*%
G01*
G04 APERTURE LIST*
G04 Aperture macros list*
%AMRoundRect*
0 Rectangle with rounded corners*
0 $1 Rounding radius*
0 $2 $3 $4 $5 $6 $7 $8 $9 X,Y pos of 4 corners*
0 Add a 4 corners polygon primitive as box body*
4,1,4,$2,$3,$4,$5,$6,$7,$8,$9,$2,$3,0*
0 Add four circle primitives for the rounded corners*
1,1,$1+$1,$2,$3*
1,1,$1+$1,$4,$5*
1,1,$1+$1,$6,$7*
1,1,$1+$1,$8,$9*
0 Add four rect primitives between the rounded corners*
20,1,$1+$1,$2,$3,$4,$5,0*
20,1,$1+$1,$4,$5,$6,$7,0*
20,1,$1+$1,$6,$7,$8,$9,0*
20,1,$1+$1,$8,$9,$2,$3,0*%
G04 Aperture macros list end*
%ADD10C,0.650000*%
%ADD11O,1.000000X2.100000*%
%ADD12O,1.000000X1.800000*%
%ADD13R,1.700000X1.700000*%
%ADD14O,1.700000X1.700000*%
%ADD15C,1.700000*%
%ADD16RoundRect,0.200000X0.200000X0.275000X-0.200000X0.275000X-0.200000X-0.275000X0.200000X-0.275000X0*%
%ADD17R,2.000000X2.000000*%
%ADD18RoundRect,0.200000X-0.200000X-0.275000X0.200000X-0.275000X0.200000X0.275000X-0.200000X0.275000X0*%
%ADD19RoundRect,0.200000X-0.275000X0.200000X-0.275000X-0.200000X0.275000X-0.200000X0.275000X0.200000X0*%
G04 APERTURE END LIST*
D10*
%TO.C,U4*%
X146699998Y-91197499D03*
X140909999Y-91197498D03*
D11*
X148119998Y-91697500D03*
X139479999Y-91697499D03*
D12*
X139480000Y-87517500D03*
X148120002Y-87517500D03*
%TD*%
D13*
%TO.C,J103*%
X142304999Y-107075001D03*
D14*
X139764996Y-107075000D03*
X142305000Y-104534998D03*
X139764999Y-104535001D03*
X142304999Y-101995001D03*
X139764998Y-101995003D03*
X142304999Y-99455001D03*
X139764999Y-99455001D03*
X142305001Y-96915002D03*
X139764999Y-96915001D03*
%TD*%
D13*
%TO.C,J1*%
X146040000Y-110000000D03*
D15*
X148580001Y-110000001D03*
X151120000Y-110000000D03*
%TD*%
D16*
%TO.C,R69*%
X149005000Y-100130000D03*
X147355000Y-100130000D03*
%TD*%
D17*
%TO.C,TP103*%
X150790000Y-94000000D03*
%TD*%
D18*
%TO.C,R5*%
X140175000Y-110260000D03*
X141825000Y-110260000D03*
%TD*%
D16*
%TO.C,R67*%
X151730000Y-106680000D03*
X150080000Y-106680000D03*
%TD*%
D13*
%TO.C,J101*%
X154250000Y-109870000D03*
D14*
X156790001Y-109869998D03*
X154249998Y-107329999D03*
X156790000Y-107330000D03*
X154250000Y-104790000D03*
X156790001Y-104790000D03*
X154250000Y-102250000D03*
X156789999Y-102250000D03*
X154250000Y-99710001D03*
X156790000Y-99710000D03*
X154250000Y-97170001D03*
X156789999Y-97170000D03*
X154250000Y-94630000D03*
X156790001Y-94630000D03*
X154250000Y-92090000D03*
X156790000Y-92090000D03*
X154250000Y-89550000D03*
X156790000Y-89550000D03*
X154250000Y-87010002D03*
X156790001Y-87009999D03*
%TD*%
D17*
%TO.C,TP101*%
X150850000Y-97240000D03*
%TD*%
D18*
%TO.C,R68*%
X149995000Y-102520000D03*
X151645000Y-102520000D03*
%TD*%
%TO.C,R70*%
X146985000Y-98180000D03*
X148635000Y-98180000D03*
%TD*%
D19*
%TO.C,R4*%
X150070000Y-89305000D03*
X150070000Y-90955000D03*
%TD*%
D17*
%TO.C,TP102*%
X150740000Y-87030000D03*
%TD*%
M02*
