%TF.GenerationSoftware,KiCad,Pcbnew,9.0.6*%
%TF.CreationDate,2026-01-23T17:12:39-05:00*%
%TF.ProjectId,TagMod,5461674d-6f64-42e6-9b69-6361645f7063,rev?*%
%TF.SameCoordinates,Original*%
%TF.FileFunction,Soldermask,Top*%
%TF.FilePolarity,Negative*%
%FSLAX46Y46*%
G04 Gerber Fmt 4.6, Leading zero omitted, Abs format (unit mm)*
G04 Created by KiCad (PCBNEW 9.0.6) date 2026-01-23 17:12:39*
%MOMM*%
%LPD*%
G01*
G04 APERTURE LIST*
G04 Aperture macros list*
%AMRoundRect*
0 Rectangle with rounded corners*
0 $1 Rounding radius*
0 $2 $3 $4 $5 $6 $7 $8 $9 X,Y pos of 4 corners*
0 Add a 4 corners polygon primitive as box body*
4,1,4,$2,$3,$4,$5,$6,$7,$8,$9,$2,$3,0*
0 Add four circle primitives for the rounded corners*
1,1,$1+$1,$2,$3*
1,1,$1+$1,$4,$5*
1,1,$1+$1,$6,$7*
1,1,$1+$1,$8,$9*
0 Add four rect primitives between the rounded corners*
20,1,$1+$1,$2,$3,$4,$5,0*
20,1,$1+$1,$4,$5,$6,$7,0*
20,1,$1+$1,$6,$7,$8,$9,0*
20,1,$1+$1,$8,$9,$2,$3,0*%
%AMFreePoly0*
4,1,163,1.032127,0.998507,1.066155,0.990000,1.110000,0.990000,1.122127,0.988507,1.162127,0.978507,1.172361,0.974721,1.207451,0.957176,1.240971,0.948796,1.289806,0.939029,1.302361,0.934721,1.422361,0.874721,1.427735,0.871603,1.457735,0.851603,1.460000,0.850000,1.538884,0.790837,1.567735,0.771603,1.570000,0.770000,1.610000,0.740000,1.615355,0.735355,1.645355,0.705355,
1.650000,0.700000,1.677870,0.662840,1.705355,0.635355,1.714721,0.622361,1.731093,0.589617,1.755355,0.565355,1.764721,0.552361,1.782704,0.516394,1.810000,0.480000,1.814721,0.472361,1.834721,0.432361,1.839614,0.416202,1.844139,0.380000,3.500000,0.380000,3.535355,0.365355,3.550000,0.330000,3.550000,-0.330000,3.535355,-0.365355,3.500000,-0.380000,1.844139,-0.380000,
1.839614,-0.416202,1.834721,-0.432361,1.814721,-0.472361,1.810000,-0.480000,1.780837,-0.518884,1.761603,-0.547735,1.760000,-0.550000,1.730837,-0.588884,1.711603,-0.617735,1.710000,-0.620000,1.680000,-0.660000,1.675355,-0.665355,1.615355,-0.725355,1.610000,-0.730000,1.572840,-0.757870,1.545355,-0.785355,1.540000,-0.790000,1.500000,-0.820000,1.492361,-0.824721,1.455149,-0.843327,
1.428884,-0.860837,1.390000,-0.890000,1.372127,-0.898507,1.337451,-0.907176,1.302361,-0.924721,1.298570,-0.926424,1.248570,-0.946424,1.242127,-0.948507,1.122127,-0.978507,1.119806,-0.979029,1.069806,-0.989029,1.060000,-0.990000,1.024951,-0.990000,0.979806,-0.999029,0.970000,-1.000000,-0.970000,-1.000000,-0.979806,-0.999029,-1.024951,-0.990000,-1.060000,-0.990000,-1.072127,-0.988507,
-1.110971,-0.978796,-1.159806,-0.969029,-1.162127,-0.968507,-1.242127,-0.948507,-1.252361,-0.944721,-1.290495,-0.925654,-1.335421,-0.907683,-1.372127,-0.898507,-1.395355,-0.885355,-1.419617,-0.861093,-1.492361,-0.824721,-1.500000,-0.820000,-1.540000,-0.790000,-1.545355,-0.785355,-1.602840,-0.727870,-1.640000,-0.700000,-1.645355,-0.695355,-1.675355,-0.665355,-1.680000,-0.660000,-1.710000,-0.620000,
-1.711603,-0.617735,-1.730837,-0.588884,-1.760000,-0.550000,-1.761603,-0.547735,-1.781603,-0.517735,-1.784721,-0.512361,-1.844721,-0.392361,-1.846424,-0.388570,-1.866424,-0.338570,-1.868507,-0.332127,-1.887176,-0.257451,-1.904721,-0.222361,-1.910000,-0.200000,-1.910000,-0.156155,-1.918507,-0.122127,-1.920000,-0.110000,-1.920000,-0.066155,-1.928507,-0.032127,-1.930000,-0.020000,-1.930000,0.020000,
-1.929029,0.029806,-1.920000,0.074951,-1.920000,0.110000,-1.919029,0.119806,-1.910000,0.164951,-1.910000,0.200000,-1.904721,0.222361,-1.887716,0.256371,-1.879029,0.299806,-1.878507,0.302127,-1.868507,0.342127,-1.864721,0.352361,-1.764721,0.552361,-1.755355,0.565355,-1.731093,0.589617,-1.714721,0.622361,-1.705355,0.635355,-1.677870,0.662840,-1.650000,0.700000,-1.640000,0.710000,
-1.602840,0.737870,-1.575355,0.765355,-1.567735,0.771603,-1.538884,0.790837,-1.460000,0.850000,-1.452361,0.854721,-1.415149,0.873327,-1.387735,0.891603,-1.382361,0.894721,-1.342361,0.914721,-1.338570,0.916424,-1.288570,0.936424,-1.282127,0.938507,-1.207451,0.957176,-1.172361,0.974721,-1.159806,0.979029,-1.109806,0.989029,-1.100000,0.990000,-1.066155,0.990000,-1.032127,0.998507,
-1.020000,1.000000,1.020000,1.000000,1.032127,0.998507,1.032127,0.998507,$1*%
G04 Aperture macros list end*
%ADD10R,1.580000X0.670000*%
%ADD11FreePoly0,0.000000*%
%ADD12R,0.800000X0.900000*%
%ADD13R,1.350000X1.410000*%
%ADD14R,0.750000X1.000000*%
%ADD15R,0.800000X0.800000*%
%ADD16RoundRect,0.200000X-0.275000X0.200000X-0.275000X-0.200000X0.275000X-0.200000X0.275000X0.200000X0*%
%ADD17C,0.650000*%
%ADD18O,1.000000X2.100000*%
%ADD19O,1.000000X1.800000*%
%ADD20R,0.600000X1.120000*%
%ADD21R,0.300000X1.240000*%
%ADD22R,1.700000X1.700000*%
%ADD23O,1.700000X1.700000*%
%ADD24RoundRect,0.200000X0.275000X-0.200000X0.275000X0.200000X-0.275000X0.200000X-0.275000X-0.200000X0*%
%ADD25C,1.700000*%
%ADD26RoundRect,0.200000X-0.200000X-0.275000X0.200000X-0.275000X0.200000X0.275000X-0.200000X0.275000X0*%
G04 APERTURE END LIST*
D10*
%TO.C,U1*%
X149210001Y-97780000D03*
D11*
X146490000Y-96280000D03*
D10*
X149210000Y-94780000D03*
%TD*%
D12*
%TO.C,C2*%
X151630000Y-100360000D03*
X150230000Y-100360000D03*
%TD*%
D13*
%TO.C,C1*%
X151670000Y-98380000D03*
X151670000Y-96380000D03*
%TD*%
D14*
%TO.C,D1*%
X151830000Y-92110000D03*
X151830000Y-89770000D03*
%TD*%
D15*
%TO.C,U3*%
X151650000Y-87650000D03*
X151650000Y-86050000D03*
%TD*%
D16*
%TO.C,R7*%
X151270000Y-105775000D03*
X151270000Y-107425000D03*
%TD*%
D17*
%TO.C,U4*%
X146699998Y-91197499D03*
X140909999Y-91197498D03*
D18*
X148119998Y-91697500D03*
X139479999Y-91697499D03*
D19*
X139480000Y-87517500D03*
X148120002Y-87517500D03*
D20*
X147000000Y-92377500D03*
X146200000Y-92377500D03*
D21*
X145050000Y-92317500D03*
X144049999Y-92317499D03*
X143549999Y-92317498D03*
X142550000Y-92317500D03*
D20*
X140600000Y-92377500D03*
X141400000Y-92377500D03*
D21*
X142050001Y-92317501D03*
X143050000Y-92317500D03*
X144550000Y-92317500D03*
X145550002Y-92317501D03*
%TD*%
D22*
%TO.C,J103*%
X142304999Y-107075001D03*
D23*
X139764996Y-107075000D03*
X142305000Y-104534998D03*
X139764999Y-104535001D03*
X142304999Y-101995001D03*
X139764998Y-101995003D03*
X142304999Y-99455001D03*
X139764999Y-99455001D03*
X142305001Y-96915002D03*
X139764999Y-96915001D03*
%TD*%
D24*
%TO.C,R6*%
X148480000Y-107255000D03*
X148480000Y-105605000D03*
%TD*%
D16*
%TO.C,R8*%
X145980000Y-105605000D03*
X145980000Y-107255000D03*
%TD*%
D14*
%TO.C,D2*%
X149790000Y-88390000D03*
X149790000Y-86050000D03*
%TD*%
D22*
%TO.C,J1*%
X146040000Y-110000000D03*
D25*
X148580001Y-110000001D03*
X151120000Y-110000000D03*
%TD*%
D26*
%TO.C,R3*%
X143495000Y-94170000D03*
X145145000Y-94170000D03*
%TD*%
%TO.C,R2*%
X140340000Y-94160000D03*
X141990000Y-94160000D03*
%TD*%
D15*
%TO.C,U2*%
X140180000Y-110220001D03*
X141780000Y-110220001D03*
%TD*%
D22*
%TO.C,J101*%
X154250000Y-109870000D03*
D23*
X156790001Y-109869998D03*
X154249998Y-107329999D03*
X156790000Y-107330000D03*
X154250000Y-104790000D03*
X156790001Y-104790000D03*
X154250000Y-102250000D03*
X156789999Y-102250000D03*
X154250000Y-99710001D03*
X156790000Y-99710000D03*
X154250000Y-97170001D03*
X156789999Y-97170000D03*
X154250000Y-94630000D03*
X156790001Y-94630000D03*
X154250000Y-92090000D03*
X156790000Y-92090000D03*
X154250000Y-89550000D03*
X156790000Y-89550000D03*
X154250000Y-87010002D03*
X156790001Y-87009999D03*
%TD*%
M02*
