%TF.GenerationSoftware,KiCad,Pcbnew,9.0.0-rc3-5ca7abf2c1~182~ubuntu24.04.1*%
%TF.CreationDate,2025-03-09T20:59:23-04:00*%
%TF.ProjectId,jlink-uart-mod,6a6c696e-6b2d-4756-9172-742d6d6f642e,rev?*%
%TF.SameCoordinates,Original*%
%TF.FileFunction,Copper,L1,Top*%
%TF.FilePolarity,Positive*%
%FSLAX46Y46*%
G04 Gerber Fmt 4.6, Leading zero omitted, Abs format (unit mm)*
G04 Created by KiCad (PCBNEW 9.0.0-rc3-5ca7abf2c1~182~ubuntu24.04.1) date 2025-03-09 20:59:23*
%MOMM*%
%LPD*%
G01*
G04 APERTURE LIST*
G04 Aperture macros list*
%AMRoundRect*
0 Rectangle with rounded corners*
0 $1 Rounding radius*
0 $2 $3 $4 $5 $6 $7 $8 $9 X,Y pos of 4 corners*
0 Add a 4 corners polygon primitive as box body*
4,1,4,$2,$3,$4,$5,$6,$7,$8,$9,$2,$3,0*
0 Add four circle primitives for the rounded corners*
1,1,$1+$1,$2,$3*
1,1,$1+$1,$4,$5*
1,1,$1+$1,$6,$7*
1,1,$1+$1,$8,$9*
0 Add four rect primitives between the rounded corners*
20,1,$1+$1,$2,$3,$4,$5,0*
20,1,$1+$1,$4,$5,$6,$7,0*
20,1,$1+$1,$6,$7,$8,$9,0*
20,1,$1+$1,$8,$9,$2,$3,0*%
G04 Aperture macros list end*
%TA.AperFunction,SMDPad,CuDef*%
%ADD10RoundRect,0.200000X-0.200000X-0.275000X0.200000X-0.275000X0.200000X0.275000X-0.200000X0.275000X0*%
%TD*%
%TA.AperFunction,SMDPad,CuDef*%
%ADD11RoundRect,0.200000X0.200000X0.275000X-0.200000X0.275000X-0.200000X-0.275000X0.200000X-0.275000X0*%
%TD*%
%TA.AperFunction,ComponentPad*%
%ADD12R,1.700000X1.700000*%
%TD*%
%TA.AperFunction,ComponentPad*%
%ADD13O,1.700000X1.700000*%
%TD*%
%TA.AperFunction,SMDPad,CuDef*%
%ADD14RoundRect,0.200000X0.275000X-0.200000X0.275000X0.200000X-0.275000X0.200000X-0.275000X-0.200000X0*%
%TD*%
%TA.AperFunction,ViaPad*%
%ADD15C,0.600000*%
%TD*%
%TA.AperFunction,Conductor*%
%ADD16C,0.152400*%
%TD*%
%TA.AperFunction,Conductor*%
%ADD17C,0.200000*%
%TD*%
G04 APERTURE END LIST*
D10*
%TO.P,R70,1*%
%TO.N,/nRF52_TX*%
X150350000Y-89750000D03*
%TO.P,R70,2*%
%TO.N,/JLINK_RX*%
X152000000Y-89750000D03*
%TD*%
D11*
%TO.P,R69,1*%
%TO.N,/JLINK_TX*%
X152150000Y-104750000D03*
%TO.P,R69,2*%
%TO.N,/nRF52_RX*%
X150500000Y-104750000D03*
%TD*%
D10*
%TO.P,R68,2*%
%TO.N,Net-(J101-~{TRST})*%
X152000000Y-106250000D03*
%TO.P,R68,1*%
%TO.N,/RESET_N*%
X150350000Y-106250000D03*
%TD*%
D12*
%TO.P,J103,1,VTref*%
%TO.N,VCC*%
X142750000Y-103330000D03*
D13*
%TO.P,J103,2,SWDIO/TMS*%
%TO.N,/SWDIO*%
X140209997Y-103329999D03*
%TO.P,J103,3,GND*%
%TO.N,GND*%
X142750001Y-100789997D03*
%TO.P,J103,4,SWCLK/TCK*%
%TO.N,/SWCLK*%
X140210000Y-100790000D03*
%TO.P,J103,5,GND*%
%TO.N,GND*%
X142750000Y-98250000D03*
%TO.P,J103,6,SWO/TDO*%
%TO.N,unconnected-(J103-SWO{slash}TDO-Pad6)*%
X140209999Y-98250002D03*
%TO.P,J103,7,TX*%
%TO.N,/nRF52_TX*%
X142750000Y-95710000D03*
%TO.P,J103,8,NC/TDI/RX*%
%TO.N,/nRF52_RX*%
X140210000Y-95710000D03*
%TO.P,J103,9,GNDDetect*%
%TO.N,GND*%
X142750002Y-93170001D03*
%TO.P,J103,10,~{RESET}*%
%TO.N,/RESET_N*%
X140210000Y-93170000D03*
%TD*%
D14*
%TO.P,R67,1*%
%TO.N,Net-(J101-VCC{slash}NC)*%
X151000000Y-110075000D03*
%TO.P,R67,2*%
%TO.N,VCC*%
X151000000Y-108425000D03*
%TD*%
D12*
%TO.P,J101,1,VTREF*%
%TO.N,VCC*%
X154250000Y-109870000D03*
D13*
%TO.P,J101,2,VCC/NC*%
%TO.N,Net-(J101-VCC{slash}NC)*%
X156790001Y-109869998D03*
%TO.P,J101,3,~{TRST}*%
%TO.N,Net-(J101-~{TRST})*%
X154249998Y-107329999D03*
%TO.P,J101,4,GND*%
%TO.N,GND*%
X156790000Y-107330000D03*
%TO.P,J101,5,TDI*%
%TO.N,/JLINK_TX*%
X154250000Y-104790000D03*
%TO.P,J101,6,GND*%
%TO.N,GND*%
X156790001Y-104790000D03*
%TO.P,J101,7,TMS/SWDIO*%
%TO.N,/SWDIO*%
X154250000Y-102250000D03*
%TO.P,J101,8,GND*%
%TO.N,GND*%
X156789999Y-102250000D03*
%TO.P,J101,9,TCK/SWCLK*%
%TO.N,/SWCLK*%
X154250000Y-99710001D03*
%TO.P,J101,10,GND*%
%TO.N,GND*%
X156790000Y-99710000D03*
%TO.P,J101,11,RTCK*%
%TO.N,Net-(J101-RTCK)*%
X154250000Y-97170001D03*
%TO.P,J101,12,GND*%
%TO.N,GND*%
X156789999Y-97170000D03*
%TO.P,J101,13,TDO/SWO*%
%TO.N,Net-(J101-TDO{slash}SWO)*%
X154250000Y-94630000D03*
%TO.P,J101,14,GND*%
%TO.N,GND*%
X156790001Y-94630000D03*
%TO.P,J101,15,~{SRST}*%
%TO.N,/RESET_N*%
X154250000Y-92090000D03*
%TO.P,J101,16,GND*%
%TO.N,GND*%
X156790000Y-92090000D03*
%TO.P,J101,17,DBGRQ/NC*%
%TO.N,/JLINK_RX*%
X154250000Y-89550000D03*
%TO.P,J101,18,GND*%
%TO.N,GND*%
X156790000Y-89550000D03*
%TO.P,J101,19,DBGACK/NC*%
%TO.N,/5V_Supply*%
X154250000Y-87010002D03*
%TO.P,J101,20,GND*%
%TO.N,GND*%
X156790001Y-87009999D03*
%TD*%
D15*
%TO.N,GND*%
X150250000Y-100250000D03*
X148000000Y-95500000D03*
X145000000Y-96750000D03*
X145000000Y-94250000D03*
%TO.N,/RESET_N*%
X146250000Y-100750000D03*
%TO.N,GND*%
X153500000Y-103500000D03*
X147500000Y-106250000D03*
X145000000Y-100500000D03*
X152500000Y-95500000D03*
X147000000Y-91000000D03*
X152000000Y-91250000D03*
%TD*%
D16*
%TO.N,Net-(J101-VCC{slash}NC)*%
X151000000Y-110075000D02*
X151874600Y-110949600D01*
X151874600Y-110949600D02*
X155710399Y-110949600D01*
X155710399Y-110949600D02*
X156790001Y-109869998D01*
%TO.N,Net-(J101-~{TRST})*%
X152000000Y-106250000D02*
X153169999Y-106250000D01*
X153169999Y-106250000D02*
X154249998Y-107329999D01*
D17*
%TO.N,/RESET_N*%
X150350000Y-106250000D02*
X146250000Y-102150000D01*
X146250000Y-102150000D02*
X146250000Y-100750000D01*
%TO.N,VCC*%
X142750000Y-103330000D02*
X145830000Y-103330000D01*
X145830000Y-103330000D02*
X152370000Y-109870000D01*
X152370000Y-109870000D02*
X154250000Y-109870000D01*
%TO.N,/JLINK_RX*%
X152000000Y-89750000D02*
X154050000Y-89750000D01*
X154050000Y-89750000D02*
X154250000Y-89550000D01*
%TO.N,/nRF52_RX*%
X150500000Y-104750000D02*
X150500000Y-103750000D01*
X150500000Y-103750000D02*
X143611000Y-96861000D01*
X143611000Y-96861000D02*
X141361000Y-96861000D01*
X141361000Y-96861000D02*
X140210000Y-95710000D01*
%TO.N,/JLINK_TX*%
X152150000Y-104750000D02*
X154210000Y-104750000D01*
X154210000Y-104750000D02*
X154250000Y-104790000D01*
%TO.N,/nRF52_TX*%
X150350000Y-89750000D02*
X150350000Y-90900000D01*
X145540000Y-95710000D02*
X142750000Y-95710000D01*
X150350000Y-90900000D02*
X145540000Y-95710000D01*
%TD*%
%TA.AperFunction,Conductor*%
%TO.N,GND*%
G36*
X157040001Y-106190050D02*
G01*
X157040000Y-106190052D01*
X157040000Y-106896988D01*
X156982993Y-106864075D01*
X156855826Y-106830000D01*
X156724174Y-106830000D01*
X156597007Y-106864075D01*
X156540000Y-106896988D01*
X156540000Y-105929950D01*
X156540001Y-105929947D01*
X156540001Y-105223012D01*
X156597008Y-105255925D01*
X156724175Y-105290000D01*
X156855827Y-105290000D01*
X156982994Y-105255925D01*
X157040001Y-105223012D01*
X157040001Y-106190050D01*
G37*
%TD.AperFunction*%
%TA.AperFunction,Conductor*%
G36*
X157039999Y-103389905D02*
G01*
X157040001Y-103389951D01*
X157040001Y-104356988D01*
X156982994Y-104324075D01*
X156855827Y-104290000D01*
X156724175Y-104290000D01*
X156597008Y-104324075D01*
X156540001Y-104356988D01*
X156540001Y-103650094D01*
X156539999Y-103650049D01*
X156539999Y-102683012D01*
X156597006Y-102715925D01*
X156724173Y-102750000D01*
X156855825Y-102750000D01*
X156982992Y-102715925D01*
X157039999Y-102683012D01*
X157039999Y-103389905D01*
G37*
%TD.AperFunction*%
%TA.AperFunction,Conductor*%
G36*
X157040000Y-101110050D02*
G01*
X157039999Y-101110052D01*
X157039999Y-101816988D01*
X156982992Y-101784075D01*
X156855825Y-101750000D01*
X156724173Y-101750000D01*
X156597006Y-101784075D01*
X156539999Y-101816988D01*
X156539999Y-100849950D01*
X156540000Y-100849947D01*
X156540000Y-100143012D01*
X156597007Y-100175925D01*
X156724174Y-100210000D01*
X156855826Y-100210000D01*
X156982993Y-100175925D01*
X157040000Y-100143012D01*
X157040000Y-101110050D01*
G37*
%TD.AperFunction*%
%TA.AperFunction,Conductor*%
G36*
X157039999Y-98309927D02*
G01*
X157040000Y-98309950D01*
X157040000Y-99276988D01*
X156982993Y-99244075D01*
X156855826Y-99210000D01*
X156724174Y-99210000D01*
X156597007Y-99244075D01*
X156540000Y-99276988D01*
X156540000Y-98570072D01*
X156539999Y-98570050D01*
X156539999Y-97603012D01*
X156597006Y-97635925D01*
X156724173Y-97670000D01*
X156855825Y-97670000D01*
X156982992Y-97635925D01*
X157039999Y-97603012D01*
X157039999Y-98309927D01*
G37*
%TD.AperFunction*%
%TA.AperFunction,Conductor*%
G36*
X157040001Y-96030049D02*
G01*
X157039999Y-96030054D01*
X157039999Y-96736988D01*
X156982992Y-96704075D01*
X156855825Y-96670000D01*
X156724173Y-96670000D01*
X156597006Y-96704075D01*
X156539999Y-96736988D01*
X156539999Y-95769951D01*
X156540001Y-95769945D01*
X156540001Y-95063012D01*
X156597008Y-95095925D01*
X156724175Y-95130000D01*
X156855827Y-95130000D01*
X156982994Y-95095925D01*
X157040001Y-95063012D01*
X157040001Y-96030049D01*
G37*
%TD.AperFunction*%
%TA.AperFunction,Conductor*%
G36*
X157040000Y-93229927D02*
G01*
X157040001Y-93229950D01*
X157040001Y-94196988D01*
X156982994Y-94164075D01*
X156855827Y-94130000D01*
X156724175Y-94130000D01*
X156597008Y-94164075D01*
X156540001Y-94196988D01*
X156540001Y-93490072D01*
X156540000Y-93490050D01*
X156540000Y-92523012D01*
X156597007Y-92555925D01*
X156724174Y-92590000D01*
X156855826Y-92590000D01*
X156982993Y-92555925D01*
X157040000Y-92523012D01*
X157040000Y-93229927D01*
G37*
%TD.AperFunction*%
%TA.AperFunction,Conductor*%
G36*
X157040000Y-91656988D02*
G01*
X156982993Y-91624075D01*
X156855826Y-91590000D01*
X156724174Y-91590000D01*
X156597007Y-91624075D01*
X156540000Y-91656988D01*
X156540000Y-89983012D01*
X156597007Y-90015925D01*
X156724174Y-90050000D01*
X156855826Y-90050000D01*
X156982993Y-90015925D01*
X157040000Y-89983012D01*
X157040000Y-91656988D01*
G37*
%TD.AperFunction*%
%TA.AperFunction,Conductor*%
G36*
X157040001Y-88410049D02*
G01*
X157040000Y-88410051D01*
X157040000Y-89116988D01*
X156982993Y-89084075D01*
X156855826Y-89050000D01*
X156724174Y-89050000D01*
X156597007Y-89084075D01*
X156540000Y-89116988D01*
X156540000Y-88149950D01*
X156540001Y-88149947D01*
X156540001Y-87443011D01*
X156597008Y-87475924D01*
X156724175Y-87509999D01*
X156855827Y-87509999D01*
X156982994Y-87475924D01*
X157040001Y-87443011D01*
X157040001Y-88410049D01*
G37*
%TD.AperFunction*%
%TA.AperFunction,Conductor*%
G36*
X143000000Y-99389924D02*
G01*
X143000001Y-99389947D01*
X143000001Y-100356985D01*
X142942994Y-100324072D01*
X142815827Y-100289997D01*
X142684175Y-100289997D01*
X142557008Y-100324072D01*
X142500001Y-100356985D01*
X142500001Y-99650072D01*
X142500000Y-99650050D01*
X142500000Y-98683012D01*
X142557007Y-98715925D01*
X142684174Y-98750000D01*
X142815826Y-98750000D01*
X142942993Y-98715925D01*
X143000000Y-98683012D01*
X143000000Y-99389924D01*
G37*
%TD.AperFunction*%
%TA.AperFunction,Conductor*%
G36*
X158472638Y-85268093D02*
G01*
X158498358Y-85312642D01*
X158499500Y-85325700D01*
X158499500Y-111424300D01*
X158481907Y-111472638D01*
X158437358Y-111498358D01*
X158424300Y-111499500D01*
X151009357Y-111499500D01*
X150961019Y-111481907D01*
X150953032Y-111474126D01*
X146832539Y-106816179D01*
X145413269Y-105211786D01*
X145408254Y-105206117D01*
X145400500Y-105192686D01*
X145364739Y-105156925D01*
X145363214Y-105155201D01*
X145363213Y-105155200D01*
X145331216Y-105119031D01*
X145331215Y-105119030D01*
X145331214Y-105119029D01*
X145324587Y-105114641D01*
X145318279Y-105110465D01*
X145307314Y-105099500D01*
X145263512Y-105074210D01*
X145261589Y-105072937D01*
X145261582Y-105072933D01*
X145221327Y-105046285D01*
X145221321Y-105046282D01*
X145213790Y-105043762D01*
X145200064Y-105037579D01*
X145193183Y-105033606D01*
X145146545Y-105021108D01*
X145146545Y-105021109D01*
X145144307Y-105020509D01*
X145096355Y-105004462D01*
X145080876Y-105003514D01*
X145073564Y-105001555D01*
X145073563Y-105001554D01*
X145065893Y-104999500D01*
X145065892Y-104999500D01*
X145015305Y-104999500D01*
X144964816Y-104996409D01*
X144949618Y-104999500D01*
X138450700Y-104999500D01*
X138402362Y-104981907D01*
X138376642Y-104937358D01*
X138375500Y-104924300D01*
X138375500Y-103231221D01*
X139207097Y-103231221D01*
X139207097Y-103428776D01*
X139245638Y-103622536D01*
X139245639Y-103622537D01*
X139319273Y-103800307D01*
X139321238Y-103805050D01*
X139430993Y-103969311D01*
X139430994Y-103969312D01*
X139430997Y-103969316D01*
X139570679Y-104108998D01*
X139570682Y-104109000D01*
X139570685Y-104109003D01*
X139734946Y-104218758D01*
X139917458Y-104294356D01*
X139917459Y-104294357D01*
X139917460Y-104294357D01*
X139917462Y-104294358D01*
X140020980Y-104314949D01*
X140111219Y-104332899D01*
X140111220Y-104332899D01*
X140308775Y-104332899D01*
X140399014Y-104314949D01*
X140502532Y-104294358D01*
X140685048Y-104218758D01*
X140849309Y-104109003D01*
X140989001Y-103969311D01*
X141098756Y-103805050D01*
X141174356Y-103622534D01*
X141212897Y-103428776D01*
X141212897Y-103231222D01*
X141174356Y-103037464D01*
X141098756Y-102854948D01*
X140989001Y-102690687D01*
X140988998Y-102690684D01*
X140988996Y-102690681D01*
X140849314Y-102550999D01*
X140849310Y-102550996D01*
X140849309Y-102550995D01*
X140720521Y-102464942D01*
X141747100Y-102464942D01*
X141747100Y-104195055D01*
X141747101Y-104195057D01*
X141755972Y-104239659D01*
X141789764Y-104290232D01*
X141789765Y-104290232D01*
X141789766Y-104290234D01*
X141840342Y-104324028D01*
X141884943Y-104332900D01*
X143615056Y-104332899D01*
X143659658Y-104324028D01*
X143710234Y-104290234D01*
X143744028Y-104239658D01*
X143752900Y-104195057D01*
X143752900Y-103658100D01*
X143770493Y-103609762D01*
X143815042Y-103584042D01*
X143828100Y-103582900D01*
X145694098Y-103582900D01*
X145742436Y-103600493D01*
X145747272Y-103604926D01*
X150350074Y-108207728D01*
X150371814Y-108254348D01*
X150372100Y-108260902D01*
X150372100Y-108658502D01*
X150382094Y-108727088D01*
X150433822Y-108832900D01*
X150517099Y-108916177D01*
X150517100Y-108916177D01*
X150517102Y-108916179D01*
X150622912Y-108967906D01*
X150673180Y-108975230D01*
X150691497Y-108977899D01*
X150691502Y-108977899D01*
X150691506Y-108977900D01*
X151089097Y-108977900D01*
X151137435Y-108995493D01*
X151142271Y-108999926D01*
X152151308Y-110008963D01*
X152151321Y-110008978D01*
X152226738Y-110084395D01*
X152226741Y-110084397D01*
X152226743Y-110084399D01*
X152253968Y-110095675D01*
X152319695Y-110122901D01*
X152429057Y-110122901D01*
X152429065Y-110122900D01*
X153171901Y-110122900D01*
X153220239Y-110140493D01*
X153245959Y-110185042D01*
X153247101Y-110198100D01*
X153247101Y-110645300D01*
X153229508Y-110693638D01*
X153184959Y-110719358D01*
X153171901Y-110720500D01*
X152000645Y-110720500D01*
X151952307Y-110702907D01*
X151947471Y-110698474D01*
X151645626Y-110396629D01*
X151623886Y-110350009D01*
X151624386Y-110332612D01*
X151627899Y-110308501D01*
X151627900Y-110308492D01*
X151627900Y-109841507D01*
X151627899Y-109841497D01*
X151625230Y-109823180D01*
X151617906Y-109772912D01*
X151566179Y-109667102D01*
X151566177Y-109667100D01*
X151566177Y-109667099D01*
X151482900Y-109583822D01*
X151469884Y-109577459D01*
X151377088Y-109532094D01*
X151308502Y-109522100D01*
X151308494Y-109522100D01*
X150691506Y-109522100D01*
X150691497Y-109522100D01*
X150622911Y-109532094D01*
X150517099Y-109583822D01*
X150433822Y-109667099D01*
X150382094Y-109772911D01*
X150372100Y-109841497D01*
X150372100Y-110308502D01*
X150382094Y-110377088D01*
X150433822Y-110482900D01*
X150517099Y-110566177D01*
X150517100Y-110566177D01*
X150517102Y-110566179D01*
X150622912Y-110617906D01*
X150673180Y-110625230D01*
X150691497Y-110627899D01*
X150691502Y-110627899D01*
X150691506Y-110627900D01*
X151197755Y-110627900D01*
X151246093Y-110645493D01*
X151250929Y-110649926D01*
X151744823Y-111143821D01*
X151744824Y-111143821D01*
X151744825Y-111143822D01*
X151804366Y-111168484D01*
X151829029Y-111178700D01*
X155755969Y-111178700D01*
X155755970Y-111178700D01*
X155780630Y-111168484D01*
X155780633Y-111168484D01*
X155840172Y-111143823D01*
X155840172Y-111143822D01*
X155840174Y-111143822D01*
X156217533Y-110766460D01*
X156264152Y-110744722D01*
X156312486Y-110757110D01*
X156314950Y-110758757D01*
X156497462Y-110834355D01*
X156497463Y-110834356D01*
X156497464Y-110834356D01*
X156497466Y-110834357D01*
X156627219Y-110860166D01*
X156691223Y-110872898D01*
X156691224Y-110872898D01*
X156888779Y-110872898D01*
X156936890Y-110863327D01*
X157082536Y-110834357D01*
X157265052Y-110758757D01*
X157429313Y-110649002D01*
X157569005Y-110509310D01*
X157678760Y-110345049D01*
X157754360Y-110162533D01*
X157792901Y-109968775D01*
X157792901Y-109771221D01*
X157754360Y-109577463D01*
X157678760Y-109394947D01*
X157569005Y-109230686D01*
X157569002Y-109230683D01*
X157569000Y-109230680D01*
X157429318Y-109090998D01*
X157429314Y-109090995D01*
X157429313Y-109090994D01*
X157265052Y-108981239D01*
X157256991Y-108977900D01*
X157082539Y-108905640D01*
X157082538Y-108905639D01*
X156888779Y-108867098D01*
X156888778Y-108867098D01*
X156691224Y-108867098D01*
X156691223Y-108867098D01*
X156497463Y-108905639D01*
X156497462Y-108905640D01*
X156314951Y-108981238D01*
X156150683Y-109090998D01*
X156011001Y-109230680D01*
X155901241Y-109394948D01*
X155825643Y-109577459D01*
X155825642Y-109577460D01*
X155787101Y-109771220D01*
X155787101Y-109968775D01*
X155825642Y-110162535D01*
X155825643Y-110162536D01*
X155896090Y-110332612D01*
X155901243Y-110345051D01*
X155902893Y-110347521D01*
X155915113Y-110397488D01*
X155893536Y-110442466D01*
X155637527Y-110698474D01*
X155590908Y-110720214D01*
X155584354Y-110720500D01*
X155328100Y-110720500D01*
X155279762Y-110702907D01*
X155254042Y-110658358D01*
X155252900Y-110645300D01*
X155252899Y-109004944D01*
X155252899Y-109004943D01*
X155244028Y-108960342D01*
X155210234Y-108909766D01*
X155159658Y-108875972D01*
X155159656Y-108875971D01*
X155115057Y-108867100D01*
X153384944Y-108867100D01*
X153384942Y-108867101D01*
X153340340Y-108875972D01*
X153289767Y-108909764D01*
X153255972Y-108960342D01*
X153255971Y-108960343D01*
X153247100Y-109004942D01*
X153247100Y-109541900D01*
X153229507Y-109590238D01*
X153184958Y-109615958D01*
X153171900Y-109617100D01*
X152505903Y-109617100D01*
X152457565Y-109599507D01*
X152452729Y-109595074D01*
X151640368Y-108782714D01*
X151618628Y-108736094D01*
X151619127Y-108718701D01*
X151627900Y-108658494D01*
X151627900Y-108191506D01*
X151617906Y-108122912D01*
X151566179Y-108017102D01*
X151566177Y-108017100D01*
X151566177Y-108017099D01*
X151482900Y-107933822D01*
X151482898Y-107933821D01*
X151377088Y-107882094D01*
X151308502Y-107872100D01*
X151308494Y-107872100D01*
X150760903Y-107872100D01*
X150712565Y-107854507D01*
X150707729Y-107850074D01*
X146050595Y-103192941D01*
X146050585Y-103192928D01*
X145973258Y-103115601D01*
X145918806Y-103093047D01*
X145880305Y-103077099D01*
X145779695Y-103077099D01*
X145770943Y-103077099D01*
X145770935Y-103077100D01*
X143828099Y-103077100D01*
X143779761Y-103059507D01*
X143754041Y-103014958D01*
X143752899Y-103001900D01*
X143752899Y-102464944D01*
X143752899Y-102464943D01*
X143744028Y-102420342D01*
X143710781Y-102370585D01*
X143710235Y-102369767D01*
X143710231Y-102369764D01*
X143659658Y-102335972D01*
X143659656Y-102335971D01*
X143615057Y-102327100D01*
X141884944Y-102327100D01*
X141884942Y-102327101D01*
X141840340Y-102335972D01*
X141789767Y-102369764D01*
X141755972Y-102420342D01*
X141755971Y-102420343D01*
X141747100Y-102464942D01*
X140720521Y-102464942D01*
X140685048Y-102441240D01*
X140634598Y-102420343D01*
X140502535Y-102365641D01*
X140502534Y-102365640D01*
X140308775Y-102327099D01*
X140308774Y-102327099D01*
X140111220Y-102327099D01*
X140111219Y-102327099D01*
X139917459Y-102365640D01*
X139917458Y-102365641D01*
X139734947Y-102441239D01*
X139570679Y-102550999D01*
X139430997Y-102690681D01*
X139321237Y-102854949D01*
X139245639Y-103037460D01*
X139245638Y-103037461D01*
X139207097Y-103231221D01*
X138375500Y-103231221D01*
X138375500Y-100691222D01*
X139207100Y-100691222D01*
X139207100Y-100888777D01*
X139245641Y-101082537D01*
X139245642Y-101082538D01*
X139321240Y-101265049D01*
X139321241Y-101265051D01*
X139430996Y-101429312D01*
X139430997Y-101429313D01*
X139431000Y-101429317D01*
X139570682Y-101568999D01*
X139570685Y-101569001D01*
X139570688Y-101569004D01*
X139734949Y-101678759D01*
X139917461Y-101754357D01*
X139917462Y-101754358D01*
X139917463Y-101754358D01*
X139917465Y-101754359D01*
X140020978Y-101774949D01*
X140111222Y-101792900D01*
X140111223Y-101792900D01*
X140308778Y-101792900D01*
X140399022Y-101774949D01*
X140502535Y-101754359D01*
X140685051Y-101678759D01*
X140849312Y-101569004D01*
X140989004Y-101429312D01*
X141098759Y-101265051D01*
X141174359Y-101082535D01*
X141212900Y-100888777D01*
X141212900Y-100691223D01*
X141212731Y-100690375D01*
X141189819Y-100575186D01*
X141174359Y-100497465D01*
X141098759Y-100314949D01*
X140989004Y-100150688D01*
X140989001Y-100150685D01*
X140988999Y-100150682D01*
X140849317Y-100011000D01*
X140849313Y-100010997D01*
X140849312Y-100010996D01*
X140685051Y-99901241D01*
X140685049Y-99901240D01*
X140502538Y-99825642D01*
X140502537Y-99825641D01*
X140308778Y-99787100D01*
X140308777Y-99787100D01*
X140111223Y-99787100D01*
X140111222Y-99787100D01*
X139917462Y-99825641D01*
X139917461Y-99825642D01*
X139734950Y-99901240D01*
X139570682Y-100011000D01*
X139431000Y-100150682D01*
X139321240Y-100314950D01*
X139245642Y-100497461D01*
X139245641Y-100497462D01*
X139207100Y-100691222D01*
X138375500Y-100691222D01*
X138375500Y-98151224D01*
X139207099Y-98151224D01*
X139207099Y-98348779D01*
X139245640Y-98542539D01*
X139245641Y-98542540D01*
X139255409Y-98566121D01*
X139321240Y-98725053D01*
X139430995Y-98889314D01*
X139430996Y-98889315D01*
X139430999Y-98889319D01*
X139570681Y-99029001D01*
X139570684Y-99029003D01*
X139570687Y-99029006D01*
X139734948Y-99138761D01*
X139917460Y-99214359D01*
X139917461Y-99214360D01*
X139917462Y-99214360D01*
X139917464Y-99214361D01*
X140020972Y-99234950D01*
X140111221Y-99252902D01*
X140111222Y-99252902D01*
X140308777Y-99252902D01*
X140399026Y-99234950D01*
X140502534Y-99214361D01*
X140685050Y-99138761D01*
X140849311Y-99029006D01*
X140989003Y-98889314D01*
X141098758Y-98725053D01*
X141174358Y-98542537D01*
X141212899Y-98348779D01*
X141212899Y-98151225D01*
X141174358Y-97957467D01*
X141098758Y-97774951D01*
X140989003Y-97610690D01*
X140989000Y-97610687D01*
X140988998Y-97610684D01*
X140849316Y-97471002D01*
X140849312Y-97470999D01*
X140849311Y-97470998D01*
X140685050Y-97361243D01*
X140685048Y-97361242D01*
X140502537Y-97285644D01*
X140502536Y-97285643D01*
X140308777Y-97247102D01*
X140308776Y-97247102D01*
X140111222Y-97247102D01*
X140111221Y-97247102D01*
X139917461Y-97285643D01*
X139917460Y-97285644D01*
X139734949Y-97361242D01*
X139570681Y-97471002D01*
X139430999Y-97610684D01*
X139321239Y-97774952D01*
X139245641Y-97957463D01*
X139245640Y-97957464D01*
X139207099Y-98151224D01*
X138375500Y-98151224D01*
X138375500Y-95611222D01*
X139207100Y-95611222D01*
X139207100Y-95808777D01*
X139245641Y-96002537D01*
X139245642Y-96002538D01*
X139302694Y-96140274D01*
X139321241Y-96185051D01*
X139430996Y-96349312D01*
X139430997Y-96349313D01*
X139431000Y-96349317D01*
X139570682Y-96488999D01*
X139570685Y-96489001D01*
X139570688Y-96489004D01*
X139734949Y-96598759D01*
X139917461Y-96674357D01*
X139917462Y-96674358D01*
X139917463Y-96674358D01*
X139917465Y-96674359D01*
X140020983Y-96694950D01*
X140111222Y-96712900D01*
X140111223Y-96712900D01*
X140308778Y-96712900D01*
X140399017Y-96694950D01*
X140502535Y-96674359D01*
X140678267Y-96601568D01*
X140729656Y-96599325D01*
X140760217Y-96617871D01*
X141142306Y-96999960D01*
X141142323Y-96999980D01*
X141217741Y-97075398D01*
X141217742Y-97075398D01*
X141217743Y-97075399D01*
X141267680Y-97096083D01*
X141310695Y-97113901D01*
X141420057Y-97113901D01*
X141420065Y-97113900D01*
X141795363Y-97113900D01*
X141843701Y-97131493D01*
X141869421Y-97176042D01*
X141860488Y-97226700D01*
X141848537Y-97242274D01*
X141720286Y-97370524D01*
X141720274Y-97370538D01*
X141595379Y-97542441D01*
X141498905Y-97731780D01*
X141433244Y-97933861D01*
X141433240Y-97933878D01*
X141422768Y-97999999D01*
X141422769Y-98000000D01*
X142316988Y-98000000D01*
X142284075Y-98057007D01*
X142250000Y-98184174D01*
X142250000Y-98315826D01*
X142284075Y-98442993D01*
X142316988Y-98500000D01*
X141422769Y-98500000D01*
X141433240Y-98566121D01*
X141433244Y-98566138D01*
X141498905Y-98768219D01*
X141595379Y-98957558D01*
X141720274Y-99129461D01*
X141720286Y-99129475D01*
X141870524Y-99279713D01*
X141870538Y-99279725D01*
X142042441Y-99404620D01*
X142137381Y-99452994D01*
X142172463Y-99490615D01*
X142175155Y-99541984D01*
X142144198Y-99583066D01*
X142137382Y-99587001D01*
X142042444Y-99635374D01*
X141870539Y-99760271D01*
X141870525Y-99760283D01*
X141720287Y-99910521D01*
X141720275Y-99910535D01*
X141595380Y-100082438D01*
X141498906Y-100271777D01*
X141433245Y-100473858D01*
X141433241Y-100473875D01*
X141422769Y-100539996D01*
X141422770Y-100539997D01*
X142316989Y-100539997D01*
X142284076Y-100597004D01*
X142250001Y-100724171D01*
X142250001Y-100855823D01*
X142284076Y-100982990D01*
X142316989Y-101039997D01*
X141422770Y-101039997D01*
X141433241Y-101106118D01*
X141433245Y-101106135D01*
X141498906Y-101308216D01*
X141595380Y-101497555D01*
X141720275Y-101669458D01*
X141720287Y-101669472D01*
X141870525Y-101819710D01*
X141870539Y-101819722D01*
X142042442Y-101944617D01*
X142231781Y-102041091D01*
X142433862Y-102106752D01*
X142433879Y-102106756D01*
X142500000Y-102117228D01*
X142500001Y-102117227D01*
X142500001Y-101223009D01*
X142557008Y-101255922D01*
X142684175Y-101289997D01*
X142815827Y-101289997D01*
X142942994Y-101255922D01*
X143000001Y-101223009D01*
X143000001Y-102117228D01*
X143066122Y-102106756D01*
X143066139Y-102106752D01*
X143268220Y-102041091D01*
X143457559Y-101944617D01*
X143629462Y-101819722D01*
X143629476Y-101819710D01*
X143779714Y-101669472D01*
X143779726Y-101669458D01*
X143904621Y-101497555D01*
X144001095Y-101308216D01*
X144066756Y-101106135D01*
X144066760Y-101106118D01*
X144077232Y-101039997D01*
X143183013Y-101039997D01*
X143215926Y-100982990D01*
X143250001Y-100855823D01*
X143250001Y-100724171D01*
X143240945Y-100690375D01*
X145797100Y-100690375D01*
X145797100Y-100809625D01*
X145824798Y-100912996D01*
X145827964Y-100924813D01*
X145827964Y-100924814D01*
X145887589Y-101028087D01*
X145975074Y-101115572D01*
X145996814Y-101162192D01*
X145997100Y-101168746D01*
X145997100Y-102093626D01*
X145997099Y-102093640D01*
X145997099Y-102099695D01*
X145997099Y-102200305D01*
X146013047Y-102238806D01*
X146013047Y-102238807D01*
X146035600Y-102293257D01*
X146112928Y-102370585D01*
X146112941Y-102370595D01*
X149775074Y-106032728D01*
X149796814Y-106079348D01*
X149797100Y-106085902D01*
X149797100Y-106558502D01*
X149807094Y-106627088D01*
X149858822Y-106732900D01*
X149942099Y-106816177D01*
X149942100Y-106816177D01*
X149942102Y-106816179D01*
X150047912Y-106867906D01*
X150098180Y-106875230D01*
X150116497Y-106877899D01*
X150116502Y-106877899D01*
X150116506Y-106877900D01*
X150116508Y-106877900D01*
X150583492Y-106877900D01*
X150583494Y-106877900D01*
X150583498Y-106877899D01*
X150583502Y-106877899D01*
X150593245Y-106876479D01*
X150652088Y-106867906D01*
X150757898Y-106816179D01*
X150841179Y-106732898D01*
X150892906Y-106627088D01*
X150902900Y-106558494D01*
X150902900Y-105941506D01*
X150902899Y-105941497D01*
X151447100Y-105941497D01*
X151447100Y-106558502D01*
X151457094Y-106627088D01*
X151508822Y-106732900D01*
X151592099Y-106816177D01*
X151592100Y-106816177D01*
X151592102Y-106816179D01*
X151697912Y-106867906D01*
X151748180Y-106875230D01*
X151766497Y-106877899D01*
X151766502Y-106877899D01*
X151766506Y-106877900D01*
X151766508Y-106877900D01*
X152233492Y-106877900D01*
X152233494Y-106877900D01*
X152233498Y-106877899D01*
X152233502Y-106877899D01*
X152243245Y-106876479D01*
X152302088Y-106867906D01*
X152407898Y-106816179D01*
X152491179Y-106732898D01*
X152542906Y-106627088D01*
X152552900Y-106558494D01*
X152552900Y-106554300D01*
X152570493Y-106505962D01*
X152615042Y-106480242D01*
X152628100Y-106479100D01*
X153043954Y-106479100D01*
X153092292Y-106496693D01*
X153097128Y-106501126D01*
X153353532Y-106757530D01*
X153375272Y-106804150D01*
X153362893Y-106852470D01*
X153361243Y-106854940D01*
X153361240Y-106854945D01*
X153285640Y-107037460D01*
X153285639Y-107037461D01*
X153247098Y-107231221D01*
X153247098Y-107428776D01*
X153285639Y-107622536D01*
X153285640Y-107622537D01*
X153357459Y-107795925D01*
X153361239Y-107805050D01*
X153470994Y-107969311D01*
X153470995Y-107969312D01*
X153470998Y-107969316D01*
X153610680Y-108108998D01*
X153610683Y-108109000D01*
X153610686Y-108109003D01*
X153774947Y-108218758D01*
X153957459Y-108294356D01*
X153957460Y-108294357D01*
X153957461Y-108294357D01*
X153957463Y-108294358D01*
X154087216Y-108320167D01*
X154151220Y-108332899D01*
X154151221Y-108332899D01*
X154348776Y-108332899D01*
X154396887Y-108323328D01*
X154542533Y-108294358D01*
X154725049Y-108218758D01*
X154889310Y-108109003D01*
X155029002Y-107969311D01*
X155138757Y-107805050D01*
X155214357Y-107622534D01*
X155252898Y-107428776D01*
X155252898Y-107231222D01*
X155214357Y-107037464D01*
X155138757Y-106854948D01*
X155029002Y-106690687D01*
X155028999Y-106690684D01*
X155028997Y-106690681D01*
X154889315Y-106550999D01*
X154889311Y-106550996D01*
X154889310Y-106550995D01*
X154725049Y-106441240D01*
X154706443Y-106433533D01*
X154542536Y-106365641D01*
X154542535Y-106365640D01*
X154348776Y-106327099D01*
X154348775Y-106327099D01*
X154151221Y-106327099D01*
X154151220Y-106327099D01*
X153957460Y-106365640D01*
X153957459Y-106365641D01*
X153774944Y-106441241D01*
X153772475Y-106442891D01*
X153722508Y-106455111D01*
X153677530Y-106433533D01*
X153299779Y-106055782D01*
X153299776Y-106055780D01*
X153299774Y-106055778D01*
X153240232Y-106031115D01*
X153240231Y-106031114D01*
X153215572Y-106020900D01*
X153215570Y-106020900D01*
X152628100Y-106020900D01*
X152579762Y-106003307D01*
X152554042Y-105958758D01*
X152552900Y-105945700D01*
X152552900Y-105941507D01*
X152552899Y-105941497D01*
X152550230Y-105923180D01*
X152542906Y-105872912D01*
X152491179Y-105767102D01*
X152491177Y-105767100D01*
X152491177Y-105767099D01*
X152407900Y-105683822D01*
X152397543Y-105678759D01*
X152302088Y-105632094D01*
X152233502Y-105622100D01*
X152233494Y-105622100D01*
X151766506Y-105622100D01*
X151766497Y-105622100D01*
X151697911Y-105632094D01*
X151592099Y-105683822D01*
X151508822Y-105767099D01*
X151457094Y-105872911D01*
X151447100Y-105941497D01*
X150902899Y-105941497D01*
X150892906Y-105872912D01*
X150841179Y-105767102D01*
X150841177Y-105767100D01*
X150841177Y-105767099D01*
X150757900Y-105683822D01*
X150747543Y-105678759D01*
X150652088Y-105632094D01*
X150583502Y-105622100D01*
X150583494Y-105622100D01*
X150116506Y-105622100D01*
X150113785Y-105622100D01*
X150113785Y-105621324D01*
X150067032Y-105608031D01*
X150057923Y-105600268D01*
X146524926Y-102067271D01*
X146503186Y-102020651D01*
X146502900Y-102014097D01*
X146502900Y-101168746D01*
X146520493Y-101120408D01*
X146524926Y-101115572D01*
X146612410Y-101028087D01*
X146638447Y-100982990D01*
X146672036Y-100924813D01*
X146702900Y-100809625D01*
X146702900Y-100690375D01*
X146672036Y-100575187D01*
X146651719Y-100539997D01*
X146612410Y-100471912D01*
X146528087Y-100387589D01*
X146424813Y-100327964D01*
X146309625Y-100297100D01*
X146190375Y-100297100D01*
X146123757Y-100314950D01*
X146075186Y-100327964D01*
X146075185Y-100327964D01*
X145971912Y-100387589D01*
X145887589Y-100471912D01*
X145827964Y-100575185D01*
X145827964Y-100575186D01*
X145822118Y-100597004D01*
X145797100Y-100690375D01*
X143240945Y-100690375D01*
X143215926Y-100597004D01*
X143183013Y-100539997D01*
X144077232Y-100539997D01*
X144077232Y-100539996D01*
X144066760Y-100473875D01*
X144066756Y-100473858D01*
X144001095Y-100271777D01*
X143904621Y-100082438D01*
X143779726Y-99910535D01*
X143779714Y-99910521D01*
X143629476Y-99760283D01*
X143629462Y-99760271D01*
X143457559Y-99635376D01*
X143362619Y-99587002D01*
X143327537Y-99549381D01*
X143324845Y-99498012D01*
X143355802Y-99456930D01*
X143362619Y-99452994D01*
X143457558Y-99404620D01*
X143629461Y-99279725D01*
X143629475Y-99279713D01*
X143779713Y-99129475D01*
X143779725Y-99129461D01*
X143904620Y-98957558D01*
X144001094Y-98768219D01*
X144066755Y-98566138D01*
X144066759Y-98566121D01*
X144077231Y-98500000D01*
X143183012Y-98500000D01*
X143215925Y-98442993D01*
X143250000Y-98315826D01*
X143250000Y-98184174D01*
X143215925Y-98057007D01*
X143183012Y-98000000D01*
X144077231Y-98000000D01*
X144077231Y-97999999D01*
X144066759Y-97933878D01*
X144066755Y-97933865D01*
X144038671Y-97847431D01*
X144040466Y-97796022D01*
X144074885Y-97757795D01*
X144125824Y-97750635D01*
X144163364Y-97771018D01*
X150225074Y-103832728D01*
X150246814Y-103879348D01*
X150247100Y-103885902D01*
X150247100Y-104061423D01*
X150229507Y-104109761D01*
X150202321Y-104127816D01*
X150203159Y-104129529D01*
X150092099Y-104183822D01*
X150008822Y-104267099D01*
X149957094Y-104372911D01*
X149947100Y-104441497D01*
X149947100Y-105058502D01*
X149957094Y-105127088D01*
X150008822Y-105232900D01*
X150092099Y-105316177D01*
X150092100Y-105316177D01*
X150092102Y-105316179D01*
X150197912Y-105367906D01*
X150248180Y-105375230D01*
X150266497Y-105377899D01*
X150266502Y-105377899D01*
X150266506Y-105377900D01*
X150266508Y-105377900D01*
X150733492Y-105377900D01*
X150733494Y-105377900D01*
X150733498Y-105377899D01*
X150733502Y-105377899D01*
X150743245Y-105376479D01*
X150802088Y-105367906D01*
X150907898Y-105316179D01*
X150991179Y-105232898D01*
X151042906Y-105127088D01*
X151052900Y-105058494D01*
X151052900Y-104441506D01*
X151052899Y-104441497D01*
X151597100Y-104441497D01*
X151597100Y-105058502D01*
X151607094Y-105127088D01*
X151658822Y-105232900D01*
X151742099Y-105316177D01*
X151742100Y-105316177D01*
X151742102Y-105316179D01*
X151847912Y-105367906D01*
X151898180Y-105375230D01*
X151916497Y-105377899D01*
X151916502Y-105377899D01*
X151916506Y-105377900D01*
X151916508Y-105377900D01*
X152383492Y-105377900D01*
X152383494Y-105377900D01*
X152383498Y-105377899D01*
X152383502Y-105377899D01*
X152393245Y-105376479D01*
X152452088Y-105367906D01*
X152557898Y-105316179D01*
X152641179Y-105232898D01*
X152692906Y-105127088D01*
X152699397Y-105082536D01*
X152701624Y-105067257D01*
X152726003Y-105021961D01*
X152773794Y-105002933D01*
X152776038Y-105002900D01*
X153208086Y-105002900D01*
X153256424Y-105020493D01*
X153281841Y-105063429D01*
X153285641Y-105082536D01*
X153347923Y-105232898D01*
X153361241Y-105265051D01*
X153470996Y-105429312D01*
X153470997Y-105429313D01*
X153471000Y-105429317D01*
X153610682Y-105568999D01*
X153610685Y-105569001D01*
X153610688Y-105569004D01*
X153774949Y-105678759D01*
X153957461Y-105754357D01*
X153957462Y-105754358D01*
X153957463Y-105754358D01*
X153957465Y-105754359D01*
X154087218Y-105780168D01*
X154151222Y-105792900D01*
X154151223Y-105792900D01*
X154348778Y-105792900D01*
X154396889Y-105783329D01*
X154542535Y-105754359D01*
X154725051Y-105678759D01*
X154889312Y-105569004D01*
X155029004Y-105429312D01*
X155138759Y-105265051D01*
X155214359Y-105082535D01*
X155252900Y-104888777D01*
X155252900Y-104691223D01*
X155214359Y-104497465D01*
X155138759Y-104314949D01*
X155029004Y-104150688D01*
X155029001Y-104150685D01*
X155028999Y-104150682D01*
X154889317Y-104011000D01*
X154889313Y-104010997D01*
X154889312Y-104010996D01*
X154725051Y-103901241D01*
X154725049Y-103901240D01*
X154542538Y-103825642D01*
X154542537Y-103825641D01*
X154348778Y-103787100D01*
X154348777Y-103787100D01*
X154151223Y-103787100D01*
X154151222Y-103787100D01*
X153957462Y-103825641D01*
X153957461Y-103825642D01*
X153774950Y-103901240D01*
X153610682Y-104011000D01*
X153471000Y-104150682D01*
X153361240Y-104314950D01*
X153353805Y-104332900D01*
X153308820Y-104441507D01*
X153305021Y-104450678D01*
X153270269Y-104488603D01*
X153235545Y-104497100D01*
X152776038Y-104497100D01*
X152727700Y-104479507D01*
X152701980Y-104434958D01*
X152701624Y-104432743D01*
X152695381Y-104389901D01*
X152692906Y-104372912D01*
X152641179Y-104267102D01*
X152641177Y-104267100D01*
X152641177Y-104267099D01*
X152557900Y-104183822D01*
X152557898Y-104183821D01*
X152452088Y-104132094D01*
X152383502Y-104122100D01*
X152383494Y-104122100D01*
X151916506Y-104122100D01*
X151916497Y-104122100D01*
X151847911Y-104132094D01*
X151742099Y-104183822D01*
X151658822Y-104267099D01*
X151607094Y-104372911D01*
X151597100Y-104441497D01*
X151052899Y-104441497D01*
X151042906Y-104372912D01*
X150991179Y-104267102D01*
X150991177Y-104267100D01*
X150991177Y-104267099D01*
X150907900Y-104183822D01*
X150796841Y-104129529D01*
X150797954Y-104127251D01*
X150764902Y-104102179D01*
X150752900Y-104061423D01*
X150752900Y-103809065D01*
X150752901Y-103809056D01*
X150752901Y-103699695D01*
X150736952Y-103661194D01*
X150736951Y-103661190D01*
X150714399Y-103606743D01*
X150714398Y-103606741D01*
X150638980Y-103531323D01*
X150638960Y-103531306D01*
X149258876Y-102151222D01*
X153247100Y-102151222D01*
X153247100Y-102348777D01*
X153285641Y-102542537D01*
X153285642Y-102542538D01*
X153347007Y-102690687D01*
X153361241Y-102725051D01*
X153470996Y-102889312D01*
X153470997Y-102889313D01*
X153471000Y-102889317D01*
X153610682Y-103028999D01*
X153610685Y-103029001D01*
X153610688Y-103029004D01*
X153774949Y-103138759D01*
X153957461Y-103214357D01*
X153957462Y-103214358D01*
X153957463Y-103214358D01*
X153957465Y-103214359D01*
X154042236Y-103231221D01*
X154151222Y-103252900D01*
X154151223Y-103252900D01*
X154348778Y-103252900D01*
X154396889Y-103243329D01*
X154542535Y-103214359D01*
X154725051Y-103138759D01*
X154889312Y-103029004D01*
X155029004Y-102889312D01*
X155138759Y-102725051D01*
X155214359Y-102542535D01*
X155252900Y-102348777D01*
X155252900Y-102151223D01*
X155242650Y-102099695D01*
X155230209Y-102037148D01*
X155229968Y-102035939D01*
X155214359Y-101957465D01*
X155138759Y-101774949D01*
X155029004Y-101610688D01*
X155029001Y-101610685D01*
X155028999Y-101610682D01*
X154889317Y-101471000D01*
X154889313Y-101470997D01*
X154889312Y-101470996D01*
X154725051Y-101361241D01*
X154725049Y-101361240D01*
X154542538Y-101285642D01*
X154542537Y-101285641D01*
X154348778Y-101247100D01*
X154348777Y-101247100D01*
X154151223Y-101247100D01*
X154151222Y-101247100D01*
X153957462Y-101285641D01*
X153957461Y-101285642D01*
X153774950Y-101361240D01*
X153610682Y-101471000D01*
X153471000Y-101610682D01*
X153361240Y-101774950D01*
X153285642Y-101957461D01*
X153285641Y-101957462D01*
X153247100Y-102151222D01*
X149258876Y-102151222D01*
X146718877Y-99611223D01*
X153247100Y-99611223D01*
X153247100Y-99808778D01*
X153285641Y-100002538D01*
X153285642Y-100002539D01*
X153361240Y-100185050D01*
X153361241Y-100185052D01*
X153470996Y-100349313D01*
X153470997Y-100349314D01*
X153471000Y-100349318D01*
X153610682Y-100489000D01*
X153610685Y-100489002D01*
X153610688Y-100489005D01*
X153774949Y-100598760D01*
X153957461Y-100674358D01*
X153957462Y-100674359D01*
X153957463Y-100674359D01*
X153957465Y-100674360D01*
X154037978Y-100690375D01*
X154151222Y-100712901D01*
X154151223Y-100712901D01*
X154348778Y-100712901D01*
X154396889Y-100703330D01*
X154542535Y-100674360D01*
X154725051Y-100598760D01*
X154889312Y-100489005D01*
X155029004Y-100349313D01*
X155138759Y-100185052D01*
X155214359Y-100002536D01*
X155252900Y-99808778D01*
X155252900Y-99611224D01*
X155214359Y-99417466D01*
X155138759Y-99234950D01*
X155029004Y-99070689D01*
X155029001Y-99070686D01*
X155028999Y-99070683D01*
X154889317Y-98931001D01*
X154889313Y-98930998D01*
X154889312Y-98930997D01*
X154725051Y-98821242D01*
X154725049Y-98821241D01*
X154542538Y-98745643D01*
X154542537Y-98745642D01*
X154348778Y-98707101D01*
X154348777Y-98707101D01*
X154151223Y-98707101D01*
X154151222Y-98707101D01*
X153957462Y-98745642D01*
X153957461Y-98745643D01*
X153774950Y-98821241D01*
X153610682Y-98931001D01*
X153471000Y-99070683D01*
X153361240Y-99234951D01*
X153285642Y-99417462D01*
X153285641Y-99417463D01*
X153247100Y-99611223D01*
X146718877Y-99611223D01*
X144178877Y-97071223D01*
X153247100Y-97071223D01*
X153247100Y-97268778D01*
X153285641Y-97462538D01*
X153285642Y-97462539D01*
X153361240Y-97645050D01*
X153361241Y-97645052D01*
X153470996Y-97809313D01*
X153470997Y-97809314D01*
X153471000Y-97809318D01*
X153610682Y-97949000D01*
X153610685Y-97949002D01*
X153610688Y-97949005D01*
X153774949Y-98058760D01*
X153957461Y-98134358D01*
X153957462Y-98134359D01*
X153957463Y-98134359D01*
X153957465Y-98134360D01*
X154042246Y-98151224D01*
X154151222Y-98172901D01*
X154151223Y-98172901D01*
X154348778Y-98172901D01*
X154396889Y-98163330D01*
X154542535Y-98134360D01*
X154725051Y-98058760D01*
X154889312Y-97949005D01*
X155029004Y-97809313D01*
X155138759Y-97645052D01*
X155214359Y-97462536D01*
X155252900Y-97268778D01*
X155252900Y-97071224D01*
X155252900Y-97071223D01*
X155230209Y-96957148D01*
X155226136Y-96936676D01*
X155222819Y-96919999D01*
X155462767Y-96919999D01*
X155462768Y-96920000D01*
X156356987Y-96920000D01*
X156324074Y-96977007D01*
X156289999Y-97104174D01*
X156289999Y-97235826D01*
X156324074Y-97362993D01*
X156356987Y-97420000D01*
X155462768Y-97420000D01*
X155473239Y-97486121D01*
X155473243Y-97486138D01*
X155538904Y-97688219D01*
X155635378Y-97877558D01*
X155760273Y-98049461D01*
X155760285Y-98049475D01*
X155910523Y-98199713D01*
X155910537Y-98199725D01*
X156082440Y-98324620D01*
X156177382Y-98372996D01*
X156212464Y-98410617D01*
X156215156Y-98461987D01*
X156184199Y-98503068D01*
X156177383Y-98507003D01*
X156082443Y-98555377D01*
X155910538Y-98680274D01*
X155910524Y-98680286D01*
X155760286Y-98830524D01*
X155760274Y-98830538D01*
X155635379Y-99002441D01*
X155538905Y-99191780D01*
X155473244Y-99393861D01*
X155473240Y-99393878D01*
X155462768Y-99459999D01*
X155462769Y-99460000D01*
X156356988Y-99460000D01*
X156324075Y-99517007D01*
X156290000Y-99644174D01*
X156290000Y-99775826D01*
X156324075Y-99902993D01*
X156356988Y-99960000D01*
X155462769Y-99960000D01*
X155473240Y-100026121D01*
X155473244Y-100026138D01*
X155538905Y-100228219D01*
X155635379Y-100417558D01*
X155760274Y-100589461D01*
X155760286Y-100589475D01*
X155910524Y-100739713D01*
X155910538Y-100739725D01*
X156082441Y-100864620D01*
X156177383Y-100912995D01*
X156212465Y-100950616D01*
X156215157Y-101001985D01*
X156184200Y-101043067D01*
X156177384Y-101047002D01*
X156082442Y-101095377D01*
X155910537Y-101220274D01*
X155910523Y-101220286D01*
X155760285Y-101370524D01*
X155760273Y-101370538D01*
X155635378Y-101542441D01*
X155538904Y-101731780D01*
X155473243Y-101933861D01*
X155473239Y-101933878D01*
X155462767Y-101999999D01*
X155462768Y-102000000D01*
X156356987Y-102000000D01*
X156324074Y-102057007D01*
X156289999Y-102184174D01*
X156289999Y-102315826D01*
X156324074Y-102442993D01*
X156356987Y-102500000D01*
X155462768Y-102500000D01*
X155473239Y-102566121D01*
X155473243Y-102566138D01*
X155538904Y-102768219D01*
X155635378Y-102957558D01*
X155760273Y-103129461D01*
X155760285Y-103129475D01*
X155910523Y-103279713D01*
X155910537Y-103279725D01*
X156082440Y-103404620D01*
X156177383Y-103452996D01*
X156212465Y-103490617D01*
X156215157Y-103541986D01*
X156184200Y-103583068D01*
X156177384Y-103587003D01*
X156082444Y-103635377D01*
X155910539Y-103760274D01*
X155910525Y-103760286D01*
X155760287Y-103910524D01*
X155760275Y-103910538D01*
X155635380Y-104082441D01*
X155538906Y-104271780D01*
X155473245Y-104473861D01*
X155473241Y-104473878D01*
X155462769Y-104539999D01*
X155462770Y-104540000D01*
X156356989Y-104540000D01*
X156324076Y-104597007D01*
X156290001Y-104724174D01*
X156290001Y-104855826D01*
X156324076Y-104982993D01*
X156356989Y-105040000D01*
X155462770Y-105040000D01*
X155473241Y-105106121D01*
X155473245Y-105106138D01*
X155538906Y-105308219D01*
X155635380Y-105497558D01*
X155760275Y-105669461D01*
X155760287Y-105669475D01*
X155910525Y-105819713D01*
X155910539Y-105819725D01*
X156082442Y-105944620D01*
X156177384Y-105992995D01*
X156212466Y-106030616D01*
X156215158Y-106081985D01*
X156184201Y-106123067D01*
X156177385Y-106127002D01*
X156082443Y-106175377D01*
X155910538Y-106300274D01*
X155910524Y-106300286D01*
X155760286Y-106450524D01*
X155760274Y-106450538D01*
X155635379Y-106622441D01*
X155538905Y-106811780D01*
X155473244Y-107013861D01*
X155473240Y-107013878D01*
X155462768Y-107079999D01*
X155462769Y-107080000D01*
X156356988Y-107080000D01*
X156324075Y-107137007D01*
X156290000Y-107264174D01*
X156290000Y-107395826D01*
X156324075Y-107522993D01*
X156356988Y-107580000D01*
X155462769Y-107580000D01*
X155473240Y-107646121D01*
X155473244Y-107646138D01*
X155538905Y-107848219D01*
X155635379Y-108037558D01*
X155760274Y-108209461D01*
X155760286Y-108209475D01*
X155910524Y-108359713D01*
X155910538Y-108359725D01*
X156082441Y-108484620D01*
X156271780Y-108581094D01*
X156473861Y-108646755D01*
X156473878Y-108646759D01*
X156539999Y-108657231D01*
X156540000Y-108657230D01*
X156540000Y-107763012D01*
X156597007Y-107795925D01*
X156724174Y-107830000D01*
X156855826Y-107830000D01*
X156982993Y-107795925D01*
X157040000Y-107763012D01*
X157040000Y-108657231D01*
X157106121Y-108646759D01*
X157106138Y-108646755D01*
X157308219Y-108581094D01*
X157497558Y-108484620D01*
X157669461Y-108359725D01*
X157669475Y-108359713D01*
X157819713Y-108209475D01*
X157819725Y-108209461D01*
X157944620Y-108037558D01*
X158041094Y-107848219D01*
X158106755Y-107646138D01*
X158106759Y-107646121D01*
X158117231Y-107580000D01*
X157223012Y-107580000D01*
X157255925Y-107522993D01*
X157290000Y-107395826D01*
X157290000Y-107264174D01*
X157255925Y-107137007D01*
X157223012Y-107080000D01*
X158117231Y-107080000D01*
X158117231Y-107079999D01*
X158106759Y-107013878D01*
X158106755Y-107013861D01*
X158041094Y-106811780D01*
X157944620Y-106622441D01*
X157819725Y-106450538D01*
X157819713Y-106450524D01*
X157669475Y-106300286D01*
X157669461Y-106300274D01*
X157497558Y-106175379D01*
X157402617Y-106127004D01*
X157367535Y-106089383D01*
X157364843Y-106038013D01*
X157395800Y-105996932D01*
X157402617Y-105992996D01*
X157497559Y-105944620D01*
X157669462Y-105819725D01*
X157669476Y-105819713D01*
X157819714Y-105669475D01*
X157819726Y-105669461D01*
X157944621Y-105497558D01*
X158041095Y-105308219D01*
X158106756Y-105106138D01*
X158106760Y-105106121D01*
X158117232Y-105040000D01*
X157223013Y-105040000D01*
X157255926Y-104982993D01*
X157290001Y-104855826D01*
X157290001Y-104724174D01*
X157255926Y-104597007D01*
X157223013Y-104540000D01*
X158117232Y-104540000D01*
X158117232Y-104539999D01*
X158106760Y-104473878D01*
X158106756Y-104473861D01*
X158041095Y-104271780D01*
X157944621Y-104082441D01*
X157819726Y-103910538D01*
X157819714Y-103910524D01*
X157669476Y-103760286D01*
X157669462Y-103760274D01*
X157497559Y-103635379D01*
X157402616Y-103587003D01*
X157367534Y-103549382D01*
X157364842Y-103498012D01*
X157395799Y-103456931D01*
X157402616Y-103452995D01*
X157497557Y-103404620D01*
X157669460Y-103279725D01*
X157669474Y-103279713D01*
X157819712Y-103129475D01*
X157819724Y-103129461D01*
X157944619Y-102957558D01*
X158041093Y-102768219D01*
X158106754Y-102566138D01*
X158106758Y-102566121D01*
X158117230Y-102500000D01*
X157223011Y-102500000D01*
X157255924Y-102442993D01*
X157289999Y-102315826D01*
X157289999Y-102184174D01*
X157255924Y-102057007D01*
X157223011Y-102000000D01*
X158117230Y-102000000D01*
X158117230Y-101999999D01*
X158106758Y-101933878D01*
X158106754Y-101933861D01*
X158041093Y-101731780D01*
X157944619Y-101542441D01*
X157819724Y-101370538D01*
X157819712Y-101370524D01*
X157669474Y-101220286D01*
X157669460Y-101220274D01*
X157497557Y-101095379D01*
X157402616Y-101047004D01*
X157367534Y-101009383D01*
X157364842Y-100958013D01*
X157395799Y-100916932D01*
X157402616Y-100912996D01*
X157497558Y-100864620D01*
X157669461Y-100739725D01*
X157669475Y-100739713D01*
X157819713Y-100589475D01*
X157819725Y-100589461D01*
X157944620Y-100417558D01*
X158041094Y-100228219D01*
X158106755Y-100026138D01*
X158106759Y-100026121D01*
X158117231Y-99960000D01*
X157223012Y-99960000D01*
X157255925Y-99902993D01*
X157290000Y-99775826D01*
X157290000Y-99644174D01*
X157255925Y-99517007D01*
X157223012Y-99460000D01*
X158117231Y-99460000D01*
X158117231Y-99459999D01*
X158106759Y-99393878D01*
X158106755Y-99393861D01*
X158041094Y-99191780D01*
X157944620Y-99002441D01*
X157819725Y-98830538D01*
X157819713Y-98830524D01*
X157669475Y-98680286D01*
X157669461Y-98680274D01*
X157497558Y-98555379D01*
X157402615Y-98507003D01*
X157367533Y-98469382D01*
X157364841Y-98418012D01*
X157395798Y-98376931D01*
X157402615Y-98372995D01*
X157497557Y-98324620D01*
X157669460Y-98199725D01*
X157669474Y-98199713D01*
X157819712Y-98049475D01*
X157819724Y-98049461D01*
X157944619Y-97877558D01*
X158041093Y-97688219D01*
X158106754Y-97486138D01*
X158106758Y-97486121D01*
X158117230Y-97420000D01*
X157223011Y-97420000D01*
X157255924Y-97362993D01*
X157289999Y-97235826D01*
X157289999Y-97104174D01*
X157255924Y-96977007D01*
X157223011Y-96920000D01*
X158117230Y-96920000D01*
X158117230Y-96919999D01*
X158106758Y-96853878D01*
X158106754Y-96853861D01*
X158041093Y-96651780D01*
X157944619Y-96462441D01*
X157819724Y-96290538D01*
X157819712Y-96290524D01*
X157669474Y-96140286D01*
X157669460Y-96140274D01*
X157497557Y-96015379D01*
X157402616Y-95967004D01*
X157367534Y-95929383D01*
X157364842Y-95878013D01*
X157395799Y-95836932D01*
X157402616Y-95832996D01*
X157497559Y-95784620D01*
X157669462Y-95659725D01*
X157669476Y-95659713D01*
X157819714Y-95509475D01*
X157819726Y-95509461D01*
X157944621Y-95337558D01*
X158041095Y-95148219D01*
X158106756Y-94946138D01*
X158106760Y-94946121D01*
X158117232Y-94880000D01*
X157223013Y-94880000D01*
X157255926Y-94822993D01*
X157290001Y-94695826D01*
X157290001Y-94564174D01*
X157255926Y-94437007D01*
X157223013Y-94380000D01*
X158117232Y-94380000D01*
X158117232Y-94379999D01*
X158106760Y-94313878D01*
X158106756Y-94313861D01*
X158041095Y-94111780D01*
X157944621Y-93922441D01*
X157819726Y-93750538D01*
X157819714Y-93750524D01*
X157669476Y-93600286D01*
X157669462Y-93600274D01*
X157497559Y-93475379D01*
X157402616Y-93427003D01*
X157367534Y-93389382D01*
X157364842Y-93338012D01*
X157395799Y-93296931D01*
X157402616Y-93292995D01*
X157497558Y-93244620D01*
X157669461Y-93119725D01*
X157669475Y-93119713D01*
X157819713Y-92969475D01*
X157819725Y-92969461D01*
X157944620Y-92797558D01*
X158041094Y-92608219D01*
X158106755Y-92406138D01*
X158106759Y-92406121D01*
X158117231Y-92340000D01*
X157223012Y-92340000D01*
X157255925Y-92282993D01*
X157290000Y-92155826D01*
X157290000Y-92024174D01*
X157255925Y-91897007D01*
X157223012Y-91840000D01*
X158117231Y-91840000D01*
X158117231Y-91839999D01*
X158106759Y-91773878D01*
X158106755Y-91773861D01*
X158041094Y-91571780D01*
X157944620Y-91382441D01*
X157819725Y-91210538D01*
X157819713Y-91210524D01*
X157669475Y-91060286D01*
X157669461Y-91060274D01*
X157497558Y-90935379D01*
X157402616Y-90887004D01*
X157367534Y-90849383D01*
X157364842Y-90798014D01*
X157395799Y-90756932D01*
X157402616Y-90752996D01*
X157497558Y-90704620D01*
X157669461Y-90579725D01*
X157669475Y-90579713D01*
X157819713Y-90429475D01*
X157819725Y-90429461D01*
X157944620Y-90257558D01*
X158041094Y-90068219D01*
X158106755Y-89866138D01*
X158106759Y-89866121D01*
X158117231Y-89800000D01*
X157223012Y-89800000D01*
X157255925Y-89742993D01*
X157290000Y-89615826D01*
X157290000Y-89484174D01*
X157255925Y-89357007D01*
X157223012Y-89300000D01*
X158117231Y-89300000D01*
X158117231Y-89299999D01*
X158106759Y-89233878D01*
X158106755Y-89233861D01*
X158041094Y-89031780D01*
X157944620Y-88842441D01*
X157819725Y-88670538D01*
X157819713Y-88670524D01*
X157669475Y-88520286D01*
X157669461Y-88520274D01*
X157497558Y-88395379D01*
X157402615Y-88347003D01*
X157367533Y-88309382D01*
X157364841Y-88258012D01*
X157395798Y-88216931D01*
X157402615Y-88212995D01*
X157497559Y-88164619D01*
X157669462Y-88039724D01*
X157669476Y-88039712D01*
X157819714Y-87889474D01*
X157819726Y-87889460D01*
X157944621Y-87717557D01*
X158041095Y-87528218D01*
X158106756Y-87326137D01*
X158106760Y-87326120D01*
X158117232Y-87259999D01*
X157223013Y-87259999D01*
X157255926Y-87202992D01*
X157290001Y-87075825D01*
X157290001Y-86944173D01*
X157255926Y-86817006D01*
X157223013Y-86759999D01*
X158117232Y-86759999D01*
X158117232Y-86759998D01*
X158106760Y-86693877D01*
X158106756Y-86693860D01*
X158041095Y-86491779D01*
X157944621Y-86302440D01*
X157819726Y-86130537D01*
X157819714Y-86130523D01*
X157669476Y-85980285D01*
X157669462Y-85980273D01*
X157497559Y-85855378D01*
X157308220Y-85758904D01*
X157106127Y-85693241D01*
X157106124Y-85693240D01*
X157040001Y-85682766D01*
X157040001Y-86576987D01*
X156982994Y-86544074D01*
X156855827Y-86509999D01*
X156724175Y-86509999D01*
X156597008Y-86544074D01*
X156540001Y-86576987D01*
X156540001Y-85682767D01*
X156540000Y-85682766D01*
X156473877Y-85693240D01*
X156473874Y-85693241D01*
X156271781Y-85758904D01*
X156082442Y-85855378D01*
X155910539Y-85980273D01*
X155910525Y-85980285D01*
X155760287Y-86130523D01*
X155760275Y-86130537D01*
X155635380Y-86302440D01*
X155538906Y-86491779D01*
X155473245Y-86693860D01*
X155473241Y-86693877D01*
X155462769Y-86759998D01*
X155462770Y-86759999D01*
X156356989Y-86759999D01*
X156324076Y-86817006D01*
X156290001Y-86944173D01*
X156290001Y-87075825D01*
X156324076Y-87202992D01*
X156356989Y-87259999D01*
X155462770Y-87259999D01*
X155473241Y-87326120D01*
X155473245Y-87326137D01*
X155538906Y-87528218D01*
X155635380Y-87717557D01*
X155760275Y-87889460D01*
X155760287Y-87889474D01*
X155910525Y-88039712D01*
X155910539Y-88039724D01*
X156082442Y-88164619D01*
X156177384Y-88212995D01*
X156212466Y-88250616D01*
X156215158Y-88301986D01*
X156184201Y-88343067D01*
X156177385Y-88347002D01*
X156082443Y-88395377D01*
X155910538Y-88520274D01*
X155910524Y-88520286D01*
X155760286Y-88670524D01*
X155760274Y-88670538D01*
X155635379Y-88842441D01*
X155538905Y-89031780D01*
X155473244Y-89233861D01*
X155473240Y-89233878D01*
X155462768Y-89299999D01*
X155462769Y-89300000D01*
X156356988Y-89300000D01*
X156324075Y-89357007D01*
X156290000Y-89484174D01*
X156290000Y-89615826D01*
X156324075Y-89742993D01*
X156356988Y-89800000D01*
X155462769Y-89800000D01*
X155473240Y-89866121D01*
X155473244Y-89866138D01*
X155538905Y-90068219D01*
X155635379Y-90257558D01*
X155760274Y-90429461D01*
X155760286Y-90429475D01*
X155910524Y-90579713D01*
X155910538Y-90579725D01*
X156082441Y-90704620D01*
X156177383Y-90752996D01*
X156212465Y-90790617D01*
X156215157Y-90841987D01*
X156184200Y-90883068D01*
X156177383Y-90887004D01*
X156082441Y-90935379D01*
X155910538Y-91060274D01*
X155910524Y-91060286D01*
X155760286Y-91210524D01*
X155760274Y-91210538D01*
X155635379Y-91382441D01*
X155538905Y-91571780D01*
X155473244Y-91773861D01*
X155473240Y-91773878D01*
X155462768Y-91839999D01*
X155462769Y-91840000D01*
X156356988Y-91840000D01*
X156324075Y-91897007D01*
X156290000Y-92024174D01*
X156290000Y-92155826D01*
X156324075Y-92282993D01*
X156356988Y-92340000D01*
X155462769Y-92340000D01*
X155473240Y-92406121D01*
X155473244Y-92406138D01*
X155538905Y-92608219D01*
X155635379Y-92797558D01*
X155760274Y-92969461D01*
X155760286Y-92969475D01*
X155910524Y-93119713D01*
X155910538Y-93119725D01*
X156082441Y-93244620D01*
X156177383Y-93292996D01*
X156212465Y-93330617D01*
X156215157Y-93381987D01*
X156184200Y-93423068D01*
X156177384Y-93427003D01*
X156082444Y-93475377D01*
X155910539Y-93600274D01*
X155910525Y-93600286D01*
X155760287Y-93750524D01*
X155760275Y-93750538D01*
X155635380Y-93922441D01*
X155538906Y-94111780D01*
X155473245Y-94313861D01*
X155473241Y-94313878D01*
X155462769Y-94379999D01*
X155462770Y-94380000D01*
X156356989Y-94380000D01*
X156324076Y-94437007D01*
X156290001Y-94564174D01*
X156290001Y-94695826D01*
X156324076Y-94822993D01*
X156356989Y-94880000D01*
X155462770Y-94880000D01*
X155473241Y-94946121D01*
X155473245Y-94946138D01*
X155538906Y-95148219D01*
X155635380Y-95337558D01*
X155760275Y-95509461D01*
X155760287Y-95509475D01*
X155910525Y-95659713D01*
X155910539Y-95659725D01*
X156082442Y-95784620D01*
X156177383Y-95832995D01*
X156212465Y-95870616D01*
X156215157Y-95921985D01*
X156184200Y-95963067D01*
X156177384Y-95967002D01*
X156082442Y-96015377D01*
X155910537Y-96140274D01*
X155910523Y-96140286D01*
X155760285Y-96290524D01*
X155760273Y-96290538D01*
X155635378Y-96462441D01*
X155538904Y-96651780D01*
X155473243Y-96853861D01*
X155473239Y-96853878D01*
X155462767Y-96919999D01*
X155222819Y-96919999D01*
X155214359Y-96877466D01*
X155138759Y-96694950D01*
X155029004Y-96530689D01*
X155029001Y-96530686D01*
X155028999Y-96530683D01*
X154889317Y-96391001D01*
X154889313Y-96390998D01*
X154889312Y-96390997D01*
X154725051Y-96281242D01*
X154573947Y-96218653D01*
X154542538Y-96205643D01*
X154542537Y-96205642D01*
X154348778Y-96167101D01*
X154348777Y-96167101D01*
X154151223Y-96167101D01*
X154151222Y-96167101D01*
X153957462Y-96205642D01*
X153957461Y-96205643D01*
X153774950Y-96281241D01*
X153610682Y-96391001D01*
X153471000Y-96530683D01*
X153361240Y-96694951D01*
X153285642Y-96877462D01*
X153285641Y-96877463D01*
X153247100Y-97071223D01*
X144178877Y-97071223D01*
X143831595Y-96723941D01*
X143831585Y-96723928D01*
X143754258Y-96646601D01*
X143699806Y-96624047D01*
X143684896Y-96617871D01*
X143661305Y-96608099D01*
X143560695Y-96608099D01*
X143551943Y-96608099D01*
X143551935Y-96608100D01*
X143451765Y-96608100D01*
X143403427Y-96590507D01*
X143377707Y-96545958D01*
X143386640Y-96495300D01*
X143398591Y-96479726D01*
X143528998Y-96349318D01*
X143528999Y-96349317D01*
X143529004Y-96349312D01*
X143638759Y-96185051D01*
X143702960Y-96030054D01*
X143711548Y-96009322D01*
X143746300Y-95971397D01*
X143781024Y-95962900D01*
X145480935Y-95962900D01*
X145480943Y-95962901D01*
X145489695Y-95962901D01*
X145590306Y-95962901D01*
X145628806Y-95946952D01*
X145683257Y-95924399D01*
X145754399Y-95853257D01*
X145761620Y-95846036D01*
X145761629Y-95846023D01*
X147076430Y-94531222D01*
X153247100Y-94531222D01*
X153247100Y-94728777D01*
X153285641Y-94922537D01*
X153285642Y-94922538D01*
X153330195Y-95030099D01*
X153361241Y-95105051D01*
X153470996Y-95269312D01*
X153470997Y-95269313D01*
X153471000Y-95269317D01*
X153610682Y-95408999D01*
X153610685Y-95409001D01*
X153610688Y-95409004D01*
X153774949Y-95518759D01*
X153957461Y-95594357D01*
X153957462Y-95594358D01*
X153957463Y-95594358D01*
X153957465Y-95594359D01*
X154042241Y-95611222D01*
X154151222Y-95632900D01*
X154151223Y-95632900D01*
X154348778Y-95632900D01*
X154396889Y-95623329D01*
X154542535Y-95594359D01*
X154725051Y-95518759D01*
X154889312Y-95409004D01*
X155029004Y-95269312D01*
X155138759Y-95105051D01*
X155214359Y-94922535D01*
X155252900Y-94728777D01*
X155252900Y-94531223D01*
X155214359Y-94337465D01*
X155138759Y-94154949D01*
X155029004Y-93990688D01*
X155029001Y-93990685D01*
X155028999Y-93990682D01*
X154889317Y-93851000D01*
X154889313Y-93850997D01*
X154889312Y-93850996D01*
X154725051Y-93741241D01*
X154597046Y-93688220D01*
X154542538Y-93665642D01*
X154542537Y-93665641D01*
X154348778Y-93627100D01*
X154348777Y-93627100D01*
X154151223Y-93627100D01*
X154151222Y-93627100D01*
X153957462Y-93665641D01*
X153957461Y-93665642D01*
X153774950Y-93741240D01*
X153610682Y-93851000D01*
X153471000Y-93990682D01*
X153361240Y-94154950D01*
X153285642Y-94337461D01*
X153285641Y-94337462D01*
X153247100Y-94531222D01*
X147076430Y-94531222D01*
X149616430Y-91991222D01*
X153247100Y-91991222D01*
X153247100Y-92188777D01*
X153285641Y-92382537D01*
X153285642Y-92382538D01*
X153318739Y-92462442D01*
X153361241Y-92565051D01*
X153470996Y-92729312D01*
X153470997Y-92729313D01*
X153471000Y-92729317D01*
X153610682Y-92868999D01*
X153610685Y-92869001D01*
X153610688Y-92869004D01*
X153774949Y-92978759D01*
X153957461Y-93054357D01*
X153957462Y-93054358D01*
X153957463Y-93054358D01*
X153957465Y-93054359D01*
X154042241Y-93071222D01*
X154151222Y-93092900D01*
X154151223Y-93092900D01*
X154348778Y-93092900D01*
X154396889Y-93083329D01*
X154542535Y-93054359D01*
X154725051Y-92978759D01*
X154889312Y-92869004D01*
X155029004Y-92729312D01*
X155138759Y-92565051D01*
X155214359Y-92382535D01*
X155252900Y-92188777D01*
X155252900Y-91991223D01*
X155214359Y-91797465D01*
X155138759Y-91614949D01*
X155029004Y-91450688D01*
X155029001Y-91450685D01*
X155028999Y-91450682D01*
X154889317Y-91311000D01*
X154889313Y-91310997D01*
X154889312Y-91310996D01*
X154725051Y-91201241D01*
X154725049Y-91201240D01*
X154542538Y-91125642D01*
X154542537Y-91125641D01*
X154348778Y-91087100D01*
X154348777Y-91087100D01*
X154151223Y-91087100D01*
X154151222Y-91087100D01*
X153957462Y-91125641D01*
X153957461Y-91125642D01*
X153774950Y-91201240D01*
X153610682Y-91311000D01*
X153471000Y-91450682D01*
X153361240Y-91614950D01*
X153285642Y-91797461D01*
X153285641Y-91797462D01*
X153247100Y-91991222D01*
X149616430Y-91991222D01*
X150486023Y-91121629D01*
X150486036Y-91121620D01*
X150564398Y-91043258D01*
X150564399Y-91043257D01*
X150586952Y-90988806D01*
X150602901Y-90950305D01*
X150602901Y-90849695D01*
X150602901Y-90843640D01*
X150602900Y-90843626D01*
X150602900Y-90438576D01*
X150620493Y-90390238D01*
X150647680Y-90372188D01*
X150646841Y-90370471D01*
X150757898Y-90316179D01*
X150841177Y-90232900D01*
X150841179Y-90232898D01*
X150892906Y-90127088D01*
X150902900Y-90058494D01*
X150902900Y-89441506D01*
X150902899Y-89441497D01*
X151447100Y-89441497D01*
X151447100Y-90058502D01*
X151457094Y-90127088D01*
X151508822Y-90232900D01*
X151592099Y-90316177D01*
X151592100Y-90316177D01*
X151592102Y-90316179D01*
X151697912Y-90367906D01*
X151747096Y-90375072D01*
X151766497Y-90377899D01*
X151766502Y-90377899D01*
X151766506Y-90377900D01*
X151766508Y-90377900D01*
X152233492Y-90377900D01*
X152233494Y-90377900D01*
X152233498Y-90377899D01*
X152233502Y-90377899D01*
X152243245Y-90376479D01*
X152302088Y-90367906D01*
X152407898Y-90316179D01*
X152491179Y-90232898D01*
X152542906Y-90127088D01*
X152548173Y-90090936D01*
X152551624Y-90067257D01*
X152576003Y-90021961D01*
X152623794Y-90002933D01*
X152626038Y-90002900D01*
X153306245Y-90002900D01*
X153354583Y-90020493D01*
X153368769Y-90036318D01*
X153470996Y-90189312D01*
X153470997Y-90189313D01*
X153471000Y-90189317D01*
X153610682Y-90328999D01*
X153610685Y-90329001D01*
X153610688Y-90329004D01*
X153774949Y-90438759D01*
X153957461Y-90514357D01*
X153957462Y-90514358D01*
X153957463Y-90514358D01*
X153957465Y-90514359D01*
X154054236Y-90533608D01*
X154151222Y-90552900D01*
X154151223Y-90552900D01*
X154348778Y-90552900D01*
X154396889Y-90543329D01*
X154542535Y-90514359D01*
X154725051Y-90438759D01*
X154889312Y-90329004D01*
X155029004Y-90189312D01*
X155138759Y-90025051D01*
X155214359Y-89842535D01*
X155252900Y-89648777D01*
X155252900Y-89451223D01*
X155250967Y-89441507D01*
X155230209Y-89337148D01*
X155229968Y-89335939D01*
X155214359Y-89257465D01*
X155138759Y-89074949D01*
X155029004Y-88910688D01*
X155029001Y-88910685D01*
X155028999Y-88910682D01*
X154889317Y-88771000D01*
X154889313Y-88770997D01*
X154889312Y-88770996D01*
X154725051Y-88661241D01*
X154725049Y-88661240D01*
X154542538Y-88585642D01*
X154542537Y-88585641D01*
X154348778Y-88547100D01*
X154348777Y-88547100D01*
X154151223Y-88547100D01*
X154151222Y-88547100D01*
X153957462Y-88585641D01*
X153957461Y-88585642D01*
X153774950Y-88661240D01*
X153610682Y-88771000D01*
X153471000Y-88910682D01*
X153361240Y-89074950D01*
X153285642Y-89257461D01*
X153285641Y-89257463D01*
X153250014Y-89436571D01*
X153223328Y-89480548D01*
X153176259Y-89497100D01*
X152626038Y-89497100D01*
X152577700Y-89479507D01*
X152551980Y-89434958D01*
X152551624Y-89432743D01*
X152547885Y-89407091D01*
X152542906Y-89372912D01*
X152491179Y-89267102D01*
X152491177Y-89267100D01*
X152491177Y-89267099D01*
X152407900Y-89183822D01*
X152407898Y-89183821D01*
X152302088Y-89132094D01*
X152233502Y-89122100D01*
X152233494Y-89122100D01*
X151766506Y-89122100D01*
X151766497Y-89122100D01*
X151697911Y-89132094D01*
X151592099Y-89183822D01*
X151508822Y-89267099D01*
X151457094Y-89372911D01*
X151447100Y-89441497D01*
X150902899Y-89441497D01*
X150892906Y-89372912D01*
X150841179Y-89267102D01*
X150841177Y-89267100D01*
X150841177Y-89267099D01*
X150757900Y-89183822D01*
X150757898Y-89183821D01*
X150652088Y-89132094D01*
X150583502Y-89122100D01*
X150583494Y-89122100D01*
X150116506Y-89122100D01*
X150116497Y-89122100D01*
X150047911Y-89132094D01*
X149942099Y-89183822D01*
X149858822Y-89267099D01*
X149807094Y-89372911D01*
X149797100Y-89441497D01*
X149797100Y-90058502D01*
X149807094Y-90127088D01*
X149858822Y-90232900D01*
X149942101Y-90316179D01*
X150053159Y-90370471D01*
X150052043Y-90372753D01*
X150085084Y-90397798D01*
X150097100Y-90438576D01*
X150097100Y-90764098D01*
X150079507Y-90812436D01*
X150075074Y-90817272D01*
X145457272Y-95435074D01*
X145410652Y-95456814D01*
X145404098Y-95457100D01*
X143781024Y-95457100D01*
X143732686Y-95439507D01*
X143711548Y-95410678D01*
X143681261Y-95337558D01*
X143638759Y-95234949D01*
X143529004Y-95070688D01*
X143529001Y-95070685D01*
X143528999Y-95070682D01*
X143389317Y-94931000D01*
X143389313Y-94930997D01*
X143389312Y-94930996D01*
X143225051Y-94821241D01*
X143225049Y-94821240D01*
X143042538Y-94745642D01*
X143042537Y-94745641D01*
X142848778Y-94707100D01*
X142848777Y-94707100D01*
X142651223Y-94707100D01*
X142651222Y-94707100D01*
X142457462Y-94745641D01*
X142457461Y-94745642D01*
X142274950Y-94821240D01*
X142110682Y-94931000D01*
X141971000Y-95070682D01*
X141861240Y-95234950D01*
X141785642Y-95417461D01*
X141785641Y-95417462D01*
X141747100Y-95611222D01*
X141747100Y-95808777D01*
X141785641Y-96002537D01*
X141785642Y-96002538D01*
X141842694Y-96140274D01*
X141861241Y-96185051D01*
X141970996Y-96349312D01*
X141970997Y-96349313D01*
X141971000Y-96349317D01*
X142101409Y-96479726D01*
X142123149Y-96526346D01*
X142109835Y-96576033D01*
X142067698Y-96605538D01*
X142048235Y-96608100D01*
X141496902Y-96608100D01*
X141448564Y-96590507D01*
X141443728Y-96586074D01*
X141117871Y-96260217D01*
X141096131Y-96213597D01*
X141101568Y-96178268D01*
X141174359Y-96002535D01*
X141212900Y-95808777D01*
X141212900Y-95611223D01*
X141174359Y-95417465D01*
X141098759Y-95234949D01*
X140989004Y-95070688D01*
X140989001Y-95070685D01*
X140988999Y-95070682D01*
X140849317Y-94931000D01*
X140849313Y-94930997D01*
X140849312Y-94930996D01*
X140685051Y-94821241D01*
X140685049Y-94821240D01*
X140502538Y-94745642D01*
X140502537Y-94745641D01*
X140308778Y-94707100D01*
X140308777Y-94707100D01*
X140111223Y-94707100D01*
X140111222Y-94707100D01*
X139917462Y-94745641D01*
X139917461Y-94745642D01*
X139734950Y-94821240D01*
X139570682Y-94931000D01*
X139431000Y-95070682D01*
X139321240Y-95234950D01*
X139245642Y-95417461D01*
X139245641Y-95417462D01*
X139207100Y-95611222D01*
X138375500Y-95611222D01*
X138375500Y-93071222D01*
X139207100Y-93071222D01*
X139207100Y-93268777D01*
X139245641Y-93462537D01*
X139245642Y-93462538D01*
X139317461Y-93635926D01*
X139321241Y-93645051D01*
X139430996Y-93809312D01*
X139430997Y-93809313D01*
X139431000Y-93809317D01*
X139570682Y-93948999D01*
X139570685Y-93949001D01*
X139570688Y-93949004D01*
X139734949Y-94058759D01*
X139917461Y-94134357D01*
X139917462Y-94134358D01*
X139917463Y-94134358D01*
X139917465Y-94134359D01*
X140020978Y-94154949D01*
X140111222Y-94172900D01*
X140111223Y-94172900D01*
X140308778Y-94172900D01*
X140399022Y-94154949D01*
X140502535Y-94134359D01*
X140685051Y-94058759D01*
X140849312Y-93949004D01*
X140989004Y-93809312D01*
X141098759Y-93645051D01*
X141174359Y-93462535D01*
X141212900Y-93268777D01*
X141212900Y-93071223D01*
X141182820Y-92920000D01*
X141422770Y-92920000D01*
X141422771Y-92920001D01*
X142316990Y-92920001D01*
X142284077Y-92977008D01*
X142250002Y-93104175D01*
X142250002Y-93235827D01*
X142284077Y-93362994D01*
X142316990Y-93420001D01*
X141422771Y-93420001D01*
X141433242Y-93486122D01*
X141433246Y-93486139D01*
X141498907Y-93688220D01*
X141595381Y-93877559D01*
X141720276Y-94049462D01*
X141720288Y-94049476D01*
X141870526Y-94199714D01*
X141870540Y-94199726D01*
X142042443Y-94324621D01*
X142231782Y-94421095D01*
X142433863Y-94486756D01*
X142433880Y-94486760D01*
X142500001Y-94497232D01*
X142500002Y-94497231D01*
X142500002Y-93603013D01*
X142557009Y-93635926D01*
X142684176Y-93670001D01*
X142815828Y-93670001D01*
X142942995Y-93635926D01*
X143000002Y-93603013D01*
X143000002Y-94497232D01*
X143066123Y-94486760D01*
X143066140Y-94486756D01*
X143268221Y-94421095D01*
X143457560Y-94324621D01*
X143629463Y-94199726D01*
X143629477Y-94199714D01*
X143779715Y-94049476D01*
X143779727Y-94049462D01*
X143904622Y-93877559D01*
X144001096Y-93688220D01*
X144066757Y-93486139D01*
X144066761Y-93486122D01*
X144077233Y-93420001D01*
X143183014Y-93420001D01*
X143215927Y-93362994D01*
X143250002Y-93235827D01*
X143250002Y-93104175D01*
X143215927Y-92977008D01*
X143183014Y-92920001D01*
X144077233Y-92920001D01*
X144077233Y-92920000D01*
X144066761Y-92853879D01*
X144066757Y-92853862D01*
X144001096Y-92651781D01*
X143904622Y-92462442D01*
X143779727Y-92290539D01*
X143779715Y-92290525D01*
X143629477Y-92140287D01*
X143629463Y-92140275D01*
X143457560Y-92015380D01*
X143268221Y-91918906D01*
X143066128Y-91853243D01*
X143066125Y-91853242D01*
X143000002Y-91842768D01*
X143000002Y-92736989D01*
X142942995Y-92704076D01*
X142815828Y-92670001D01*
X142684176Y-92670001D01*
X142557009Y-92704076D01*
X142500002Y-92736989D01*
X142500002Y-91842769D01*
X142500001Y-91842768D01*
X142433878Y-91853242D01*
X142433875Y-91853243D01*
X142231782Y-91918906D01*
X142042443Y-92015380D01*
X141870540Y-92140275D01*
X141870526Y-92140287D01*
X141720288Y-92290525D01*
X141720276Y-92290539D01*
X141595381Y-92462442D01*
X141498907Y-92651781D01*
X141433246Y-92853862D01*
X141433242Y-92853879D01*
X141422770Y-92920000D01*
X141182820Y-92920000D01*
X141174359Y-92877465D01*
X141098759Y-92694949D01*
X140989004Y-92530688D01*
X140989001Y-92530685D01*
X140988999Y-92530682D01*
X140849317Y-92391000D01*
X140849313Y-92390997D01*
X140849312Y-92390996D01*
X140685051Y-92281241D01*
X140685049Y-92281240D01*
X140502538Y-92205642D01*
X140502537Y-92205641D01*
X140308778Y-92167100D01*
X140308777Y-92167100D01*
X140111223Y-92167100D01*
X140111222Y-92167100D01*
X139917462Y-92205641D01*
X139917461Y-92205642D01*
X139734950Y-92281240D01*
X139570682Y-92391000D01*
X139431000Y-92530682D01*
X139321240Y-92694950D01*
X139245642Y-92877461D01*
X139245641Y-92877462D01*
X139207100Y-93071222D01*
X138375500Y-93071222D01*
X138375500Y-91575700D01*
X138393093Y-91527362D01*
X138437642Y-91501642D01*
X138450700Y-91500500D01*
X144944683Y-91500500D01*
X144955001Y-91502809D01*
X145010420Y-91500500D01*
X145065892Y-91500500D01*
X145068074Y-91499915D01*
X145084411Y-91497417D01*
X145086671Y-91497323D01*
X145138155Y-91481201D01*
X145141093Y-91480349D01*
X145193186Y-91466392D01*
X145194381Y-91465701D01*
X145195140Y-91465264D01*
X145195144Y-91465261D01*
X145202345Y-91461103D01*
X145212434Y-91457945D01*
X145259270Y-91428237D01*
X145260631Y-91427451D01*
X145260632Y-91427451D01*
X145307307Y-91400504D01*
X145307306Y-91400504D01*
X145307314Y-91400500D01*
X145308910Y-91398902D01*
X145321806Y-91388572D01*
X145323721Y-91387359D01*
X145361279Y-91346534D01*
X145400500Y-91307314D01*
X145405786Y-91298157D01*
X149441765Y-86911224D01*
X153247100Y-86911224D01*
X153247100Y-87108779D01*
X153285641Y-87302539D01*
X153285642Y-87302540D01*
X153361240Y-87485051D01*
X153361241Y-87485053D01*
X153470996Y-87649314D01*
X153470997Y-87649315D01*
X153471000Y-87649319D01*
X153610682Y-87789001D01*
X153610685Y-87789003D01*
X153610688Y-87789006D01*
X153774949Y-87898761D01*
X153957461Y-87974359D01*
X153957462Y-87974360D01*
X153957463Y-87974360D01*
X153957465Y-87974361D01*
X154087218Y-88000170D01*
X154151222Y-88012902D01*
X154151223Y-88012902D01*
X154348778Y-88012902D01*
X154396889Y-88003331D01*
X154542535Y-87974361D01*
X154725051Y-87898761D01*
X154889312Y-87789006D01*
X155029004Y-87649314D01*
X155138759Y-87485053D01*
X155214359Y-87302537D01*
X155252900Y-87108779D01*
X155252900Y-86911225D01*
X155214359Y-86717467D01*
X155138759Y-86534951D01*
X155029004Y-86370690D01*
X155029001Y-86370687D01*
X155028999Y-86370684D01*
X154889317Y-86231002D01*
X154889313Y-86230999D01*
X154889312Y-86230998D01*
X154725051Y-86121243D01*
X154725049Y-86121242D01*
X154542538Y-86045644D01*
X154542537Y-86045643D01*
X154348778Y-86007102D01*
X154348777Y-86007102D01*
X154151223Y-86007102D01*
X154151222Y-86007102D01*
X153957462Y-86045643D01*
X153957461Y-86045644D01*
X153774950Y-86121242D01*
X153610682Y-86231002D01*
X153471000Y-86370684D01*
X153361240Y-86534952D01*
X153285642Y-86717463D01*
X153285641Y-86717464D01*
X153247100Y-86911224D01*
X149441765Y-86911224D01*
X150900447Y-85325700D01*
X150947289Y-85274785D01*
X150992964Y-85251124D01*
X151002631Y-85250500D01*
X158424300Y-85250500D01*
X158472638Y-85268093D01*
G37*
%TD.AperFunction*%
%TD*%
M02*
