%TF.GenerationSoftware,KiCad,Pcbnew,9.0.6*%
%TF.CreationDate,2026-01-23T17:12:39-05:00*%
%TF.ProjectId,TagMod,5461674d-6f64-42e6-9b69-6361645f7063,rev?*%
%TF.SameCoordinates,Original*%
%TF.FileFunction,Copper,L1,Top*%
%TF.FilePolarity,Positive*%
%FSLAX46Y46*%
G04 Gerber Fmt 4.6, Leading zero omitted, Abs format (unit mm)*
G04 Created by KiCad (PCBNEW 9.0.6) date 2026-01-23 17:12:39*
%MOMM*%
%LPD*%
G01*
G04 APERTURE LIST*
G04 Aperture macros list*
%AMRoundRect*
0 Rectangle with rounded corners*
0 $1 Rounding radius*
0 $2 $3 $4 $5 $6 $7 $8 $9 X,Y pos of 4 corners*
0 Add a 4 corners polygon primitive as box body*
4,1,4,$2,$3,$4,$5,$6,$7,$8,$9,$2,$3,0*
0 Add four circle primitives for the rounded corners*
1,1,$1+$1,$2,$3*
1,1,$1+$1,$4,$5*
1,1,$1+$1,$6,$7*
1,1,$1+$1,$8,$9*
0 Add four rect primitives between the rounded corners*
20,1,$1+$1,$2,$3,$4,$5,0*
20,1,$1+$1,$4,$5,$6,$7,0*
20,1,$1+$1,$6,$7,$8,$9,0*
20,1,$1+$1,$8,$9,$2,$3,0*%
%AMFreePoly0*
4,1,163,1.032127,0.998507,1.066155,0.990000,1.110000,0.990000,1.122127,0.988507,1.162127,0.978507,1.172361,0.974721,1.207451,0.957176,1.240971,0.948796,1.289806,0.939029,1.302361,0.934721,1.422361,0.874721,1.427735,0.871603,1.457735,0.851603,1.460000,0.850000,1.538884,0.790837,1.567735,0.771603,1.570000,0.770000,1.610000,0.740000,1.615355,0.735355,1.645355,0.705355,
1.650000,0.700000,1.677870,0.662840,1.705355,0.635355,1.714721,0.622361,1.731093,0.589617,1.755355,0.565355,1.764721,0.552361,1.782704,0.516394,1.810000,0.480000,1.814721,0.472361,1.834721,0.432361,1.839614,0.416202,1.844139,0.380000,3.500000,0.380000,3.535355,0.365355,3.550000,0.330000,3.550000,-0.330000,3.535355,-0.365355,3.500000,-0.380000,1.844139,-0.380000,
1.839614,-0.416202,1.834721,-0.432361,1.814721,-0.472361,1.810000,-0.480000,1.780837,-0.518884,1.761603,-0.547735,1.760000,-0.550000,1.730837,-0.588884,1.711603,-0.617735,1.710000,-0.620000,1.680000,-0.660000,1.675355,-0.665355,1.615355,-0.725355,1.610000,-0.730000,1.572840,-0.757870,1.545355,-0.785355,1.540000,-0.790000,1.500000,-0.820000,1.492361,-0.824721,1.455149,-0.843327,
1.428884,-0.860837,1.390000,-0.890000,1.372127,-0.898507,1.337451,-0.907176,1.302361,-0.924721,1.298570,-0.926424,1.248570,-0.946424,1.242127,-0.948507,1.122127,-0.978507,1.119806,-0.979029,1.069806,-0.989029,1.060000,-0.990000,1.024951,-0.990000,0.979806,-0.999029,0.970000,-1.000000,-0.970000,-1.000000,-0.979806,-0.999029,-1.024951,-0.990000,-1.060000,-0.990000,-1.072127,-0.988507,
-1.110971,-0.978796,-1.159806,-0.969029,-1.162127,-0.968507,-1.242127,-0.948507,-1.252361,-0.944721,-1.290495,-0.925654,-1.335421,-0.907683,-1.372127,-0.898507,-1.395355,-0.885355,-1.419617,-0.861093,-1.492361,-0.824721,-1.500000,-0.820000,-1.540000,-0.790000,-1.545355,-0.785355,-1.602840,-0.727870,-1.640000,-0.700000,-1.645355,-0.695355,-1.675355,-0.665355,-1.680000,-0.660000,-1.710000,-0.620000,
-1.711603,-0.617735,-1.730837,-0.588884,-1.760000,-0.550000,-1.761603,-0.547735,-1.781603,-0.517735,-1.784721,-0.512361,-1.844721,-0.392361,-1.846424,-0.388570,-1.866424,-0.338570,-1.868507,-0.332127,-1.887176,-0.257451,-1.904721,-0.222361,-1.910000,-0.200000,-1.910000,-0.156155,-1.918507,-0.122127,-1.920000,-0.110000,-1.920000,-0.066155,-1.928507,-0.032127,-1.930000,-0.020000,-1.930000,0.020000,
-1.929029,0.029806,-1.920000,0.074951,-1.920000,0.110000,-1.919029,0.119806,-1.910000,0.164951,-1.910000,0.200000,-1.904721,0.222361,-1.887716,0.256371,-1.879029,0.299806,-1.878507,0.302127,-1.868507,0.342127,-1.864721,0.352361,-1.764721,0.552361,-1.755355,0.565355,-1.731093,0.589617,-1.714721,0.622361,-1.705355,0.635355,-1.677870,0.662840,-1.650000,0.700000,-1.640000,0.710000,
-1.602840,0.737870,-1.575355,0.765355,-1.567735,0.771603,-1.538884,0.790837,-1.460000,0.850000,-1.452361,0.854721,-1.415149,0.873327,-1.387735,0.891603,-1.382361,0.894721,-1.342361,0.914721,-1.338570,0.916424,-1.288570,0.936424,-1.282127,0.938507,-1.207451,0.957176,-1.172361,0.974721,-1.159806,0.979029,-1.109806,0.989029,-1.100000,0.990000,-1.066155,0.990000,-1.032127,0.998507,
-1.020000,1.000000,1.020000,1.000000,1.032127,0.998507,1.032127,0.998507,$1*%
G04 Aperture macros list end*
%TA.AperFunction,SMDPad,CuDef*%
%ADD10R,1.580000X0.670000*%
%TD*%
%TA.AperFunction,SMDPad,CuDef*%
%ADD11FreePoly0,0.000000*%
%TD*%
%TA.AperFunction,SMDPad,CuDef*%
%ADD12R,0.800000X0.900000*%
%TD*%
%TA.AperFunction,SMDPad,CuDef*%
%ADD13R,1.350000X1.410000*%
%TD*%
%TA.AperFunction,SMDPad,CuDef*%
%ADD14R,0.750000X1.000000*%
%TD*%
%TA.AperFunction,SMDPad,CuDef*%
%ADD15R,0.800000X0.800000*%
%TD*%
%TA.AperFunction,SMDPad,CuDef*%
%ADD16RoundRect,0.200000X-0.275000X0.200000X-0.275000X-0.200000X0.275000X-0.200000X0.275000X0.200000X0*%
%TD*%
%TA.AperFunction,ComponentPad*%
%ADD17O,1.000000X2.100000*%
%TD*%
%TA.AperFunction,ComponentPad*%
%ADD18O,1.000000X1.800000*%
%TD*%
%TA.AperFunction,SMDPad,CuDef*%
%ADD19R,0.600000X1.120000*%
%TD*%
%TA.AperFunction,SMDPad,CuDef*%
%ADD20R,0.300000X1.240000*%
%TD*%
%TA.AperFunction,ComponentPad*%
%ADD21R,1.700000X1.700000*%
%TD*%
%TA.AperFunction,ComponentPad*%
%ADD22O,1.700000X1.700000*%
%TD*%
%TA.AperFunction,SMDPad,CuDef*%
%ADD23RoundRect,0.200000X0.275000X-0.200000X0.275000X0.200000X-0.275000X0.200000X-0.275000X-0.200000X0*%
%TD*%
%TA.AperFunction,ComponentPad*%
%ADD24C,1.700000*%
%TD*%
%TA.AperFunction,SMDPad,CuDef*%
%ADD25RoundRect,0.200000X-0.200000X-0.275000X0.200000X-0.275000X0.200000X0.275000X-0.200000X0.275000X0*%
%TD*%
%TA.AperFunction,ViaPad*%
%ADD26C,0.600000*%
%TD*%
%TA.AperFunction,Conductor*%
%ADD27C,0.152400*%
%TD*%
%TA.AperFunction,Conductor*%
%ADD28C,0.300000*%
%TD*%
G04 APERTURE END LIST*
D10*
%TO.P,U1,1,ADJ*%
%TO.N,/ADJ*%
X149210001Y-97780000D03*
D11*
%TO.P,U1,2,Vout*%
%TO.N,/VOUT*%
X146490000Y-96280000D03*
D10*
%TO.P,U1,3,Vin*%
%TO.N,Net-(D1-K)*%
X149210000Y-94780000D03*
%TD*%
D12*
%TO.P,C2,1,1*%
%TO.N,GND*%
X151630000Y-100360000D03*
%TO.P,C2,2,2*%
%TO.N,/ADJ*%
X150230000Y-100360000D03*
%TD*%
D13*
%TO.P,C1,1,1*%
%TO.N,GND*%
X151670000Y-98380000D03*
%TO.P,C1,2,2*%
%TO.N,/VOUT*%
X151670000Y-96380000D03*
%TD*%
D14*
%TO.P,D1,1,K*%
%TO.N,Net-(D1-K)*%
X151830000Y-92110000D03*
%TO.P,D1,2,A*%
%TO.N,/5V_Supply*%
X151830000Y-89770000D03*
%TD*%
D15*
%TO.P,U3,1,K*%
%TO.N,Net-(U3-K)*%
X151650000Y-87650000D03*
%TO.P,U3,2,A*%
%TO.N,Net-(D1-K)*%
X151650000Y-86050000D03*
%TD*%
D16*
%TO.P,R7,1*%
%TO.N,/VOUT*%
X151270000Y-105775000D03*
%TO.P,R7,2*%
%TO.N,Net-(J1-Pin_3)*%
X151270000Y-107425000D03*
%TD*%
D17*
%TO.P,U4,1,SHELL*%
%TO.N,unconnected-(U4-SHELL-Pad1)*%
X148119998Y-91697500D03*
%TO.P,U4,2,SHELL*%
%TO.N,unconnected-(U4-SHELL-Pad2)*%
X139479999Y-91697499D03*
D18*
%TO.P,U4,3,SHELL*%
%TO.N,unconnected-(U4-SHELL-Pad3)*%
X139480000Y-87517500D03*
%TO.P,U4,4,SHELL*%
%TO.N,unconnected-(U4-SHELL-Pad4)*%
X148120002Y-87517500D03*
D19*
%TO.P,U4,A1B12,GND*%
%TO.N,GND*%
X147000000Y-92377500D03*
%TO.P,U4,A4B9,VBUS*%
%TO.N,/USB-VBUS*%
X146200000Y-92377500D03*
D20*
%TO.P,U4,A5,CC1*%
%TO.N,Net-(U4-CC1)*%
X145050000Y-92317500D03*
%TO.P,U4,A6,DP1*%
%TO.N,unconnected-(U4-DP1-PadA6)*%
X144049999Y-92317499D03*
%TO.P,U4,A7,DN1*%
%TO.N,unconnected-(U4-DN1-PadA7)*%
X143549999Y-92317498D03*
%TO.P,U4,A8,SBU1*%
%TO.N,unconnected-(U4-SBU1-PadA8)*%
X142550000Y-92317500D03*
D19*
%TO.P,U4,B1A12,GND*%
%TO.N,GND*%
X140600000Y-92377500D03*
%TO.P,U4,B4A9,VBUS*%
%TO.N,/USB-VBUS*%
X141400000Y-92377500D03*
D20*
%TO.P,U4,B5,CC2*%
%TO.N,Net-(U4-CC2)*%
X142050001Y-92317501D03*
%TO.P,U4,B6,DP2*%
%TO.N,unconnected-(U4-DP2-PadB6)*%
X143050000Y-92317500D03*
%TO.P,U4,B7,DN2*%
%TO.N,unconnected-(U4-DN2-PadB7)*%
X144550000Y-92317500D03*
%TO.P,U4,B8,SBU2*%
%TO.N,unconnected-(U4-SBU2-PadB8)*%
X145550002Y-92317501D03*
%TD*%
D21*
%TO.P,J103,1,VTref*%
%TO.N,VCC*%
X142304999Y-107075001D03*
D22*
%TO.P,J103,2,SWDIO/TMS*%
%TO.N,/SWDIO*%
X139764996Y-107075000D03*
%TO.P,J103,3,GND*%
%TO.N,GND*%
X142305000Y-104534998D03*
%TO.P,J103,4,SWCLK/TCK*%
%TO.N,/SWCLK*%
X139764999Y-104535001D03*
%TO.P,J103,5,GND*%
%TO.N,GND*%
X142304999Y-101995001D03*
%TO.P,J103,6,SWO/TDO*%
%TO.N,/VOUT*%
X139764998Y-101995003D03*
%TO.P,J103,7,TX*%
%TO.N,/TARGET_RX*%
X142304999Y-99455001D03*
%TO.P,J103,8,NC/TDI/RX*%
%TO.N,/TARGET_TX*%
X139764999Y-99455001D03*
%TO.P,J103,9,GNDDetect*%
%TO.N,GND*%
X142305001Y-96915002D03*
%TO.P,J103,10,~{RESET}*%
%TO.N,/RESET_N*%
X139764999Y-96915001D03*
%TD*%
D23*
%TO.P,R6,1*%
%TO.N,/ADJ*%
X148480000Y-107255000D03*
%TO.P,R6,2*%
%TO.N,GND*%
X148480000Y-105605000D03*
%TD*%
D16*
%TO.P,R8,1*%
%TO.N,/VOUT*%
X145980000Y-105605000D03*
%TO.P,R8,2*%
%TO.N,Net-(J1-Pin_1)*%
X145980000Y-107255000D03*
%TD*%
D14*
%TO.P,D2,1,K*%
%TO.N,Net-(D1-K)*%
X149790000Y-88390000D03*
%TO.P,D2,2,A*%
%TO.N,/USB-VBUS*%
X149790000Y-86050000D03*
%TD*%
D21*
%TO.P,J1,1,Pin_1*%
%TO.N,Net-(J1-Pin_1)*%
X146040000Y-110000000D03*
D24*
%TO.P,J1,2,Pin_2*%
%TO.N,/ADJ*%
X148580001Y-110000001D03*
%TO.P,J1,3,Pin_3*%
%TO.N,Net-(J1-Pin_3)*%
X151120000Y-110000000D03*
%TD*%
D25*
%TO.P,R3,1*%
%TO.N,GND*%
X143495000Y-94170000D03*
%TO.P,R3,2*%
%TO.N,Net-(U4-CC1)*%
X145145000Y-94170000D03*
%TD*%
%TO.P,R2,1*%
%TO.N,GND*%
X140340000Y-94160000D03*
%TO.P,R2,2*%
%TO.N,Net-(U4-CC2)*%
X141990000Y-94160000D03*
%TD*%
D15*
%TO.P,U2,1,K*%
%TO.N,Net-(U2-K)*%
X140180000Y-110220001D03*
%TO.P,U2,2,A*%
%TO.N,/VOUT*%
X141780000Y-110220001D03*
%TD*%
D21*
%TO.P,J101,1,VTREF*%
%TO.N,VCC*%
X154250000Y-109870000D03*
D22*
%TO.P,J101,2,VCC/NC*%
%TO.N,Net-(J101-VCC{slash}NC)*%
X156790001Y-109869998D03*
%TO.P,J101,3,~{TRST}*%
%TO.N,Net-(J101-~{TRST})*%
X154249998Y-107329999D03*
%TO.P,J101,4,GND*%
%TO.N,GND*%
X156790000Y-107330000D03*
%TO.P,J101,5,TDI*%
%TO.N,/JLINK_TX*%
X154250000Y-104790000D03*
%TO.P,J101,6,GND*%
%TO.N,GND*%
X156790001Y-104790000D03*
%TO.P,J101,7,TMS/SWDIO*%
%TO.N,/SWDIO*%
X154250000Y-102250000D03*
%TO.P,J101,8,GND*%
%TO.N,GND*%
X156789999Y-102250000D03*
%TO.P,J101,9,TCK/SWCLK*%
%TO.N,/SWCLK*%
X154250000Y-99710001D03*
%TO.P,J101,10,GND*%
%TO.N,GND*%
X156790000Y-99710000D03*
%TO.P,J101,11,RTCK*%
%TO.N,Net-(J101-RTCK)*%
X154250000Y-97170001D03*
%TO.P,J101,12,GND*%
%TO.N,GND*%
X156789999Y-97170000D03*
%TO.P,J101,13,TDO/SWO*%
%TO.N,Net-(J101-TDO{slash}SWO)*%
X154250000Y-94630000D03*
%TO.P,J101,14,GND*%
%TO.N,GND*%
X156790001Y-94630000D03*
%TO.P,J101,15,~{SRST}*%
%TO.N,/RESET_N*%
X154250000Y-92090000D03*
%TO.P,J101,16,GND*%
%TO.N,GND*%
X156790000Y-92090000D03*
%TO.P,J101,17,DBGRQ/NC*%
%TO.N,/JLINK_RX*%
X154250000Y-89550000D03*
%TO.P,J101,18,GND*%
%TO.N,GND*%
X156790000Y-89550000D03*
%TO.P,J101,19,DBGACK/NC*%
%TO.N,/5V_Supply*%
X154250000Y-87010002D03*
%TO.P,J101,20,GND*%
%TO.N,GND*%
X156790001Y-87009999D03*
%TD*%
D26*
%TO.N,Net-(J101-VCC{slash}NC)*%
X158080000Y-106110000D03*
%TO.N,GND*%
X149250000Y-108660000D03*
X155480000Y-85700000D03*
X157740000Y-103460000D03*
X146600000Y-94620000D03*
X156030000Y-108680000D03*
X152720000Y-108230000D03*
X147590000Y-89170000D03*
X144650000Y-102100000D03*
X140680000Y-95630000D03*
X153750000Y-95910000D03*
X151380000Y-90820000D03*
X143230000Y-95350000D03*
X157910000Y-100950000D03*
X141080000Y-102050000D03*
X151490000Y-104100000D03*
X138930000Y-105980000D03*
X144000000Y-110660000D03*
X144930000Y-105270000D03*
X146200000Y-86000000D03*
X153190000Y-90730000D03*
X153080000Y-97960000D03*
X142120000Y-89830000D03*
X153060000Y-100680000D03*
X144020000Y-107640000D03*
X158060000Y-88380000D03*
X139250000Y-100750000D03*
X144430000Y-99250000D03*
X140860000Y-86840000D03*
%TO.N,/5V_Supply*%
X151790000Y-88610000D03*
%TO.N,/JLINK_TX*%
X149000000Y-101100000D03*
X148730000Y-104655000D03*
%TO.N,VCC*%
X149990000Y-111200000D03*
X149990000Y-106830000D03*
%TO.N,/JLINK_RX*%
X155410000Y-98410000D03*
%TO.N,/RESET_N*%
X138675000Y-102920000D03*
X139080000Y-93190000D03*
%TO.N,/SWDIO*%
X147360000Y-108490000D03*
X147280000Y-102100000D03*
%TO.N,/SWCLK*%
X155450000Y-103770000D03*
%TO.N,Net-(J101-~{TRST})*%
X152580000Y-102910000D03*
%TO.N,/USB-VBUS*%
X145973574Y-90709715D03*
X141980000Y-90760000D03*
%TO.N,Net-(U3-K)*%
X152840000Y-88740000D03*
%TO.N,Net-(U2-K)*%
X139260000Y-110160000D03*
%TO.N,/VOUT*%
X145980000Y-105605000D03*
X145980000Y-100970000D03*
X151210000Y-105750000D03*
%TD*%
D27*
%TO.N,Net-(J101-VCC{slash}NC)*%
X158080000Y-106110000D02*
X158080000Y-109410000D01*
X157620002Y-109869998D02*
X156790001Y-109869998D01*
X158080000Y-109410000D02*
X157620002Y-109869998D01*
%TO.N,GND*%
X147352198Y-92025302D02*
X147352198Y-89407802D01*
X141355147Y-89830000D02*
X142120000Y-89830000D01*
X147352198Y-89407802D02*
X147590000Y-89170000D01*
X140257799Y-90927348D02*
X141355147Y-89830000D01*
X140257799Y-92035299D02*
X140257799Y-90927348D01*
X147000000Y-92377500D02*
X147352198Y-92025302D01*
X140600000Y-92377500D02*
X140257799Y-92035299D01*
D28*
%TO.N,/5V_Supply*%
X151830000Y-89770000D02*
X151830000Y-88650000D01*
X151830000Y-88650000D02*
X151790000Y-88610000D01*
D27*
%TO.N,/JLINK_TX*%
X149000000Y-101100000D02*
X149000000Y-104400000D01*
X149000000Y-104400000D02*
X148745000Y-104655000D01*
X148745000Y-104655000D02*
X148730000Y-104655000D01*
%TO.N,VCC*%
X149990000Y-106830000D02*
X149990000Y-111200000D01*
%TO.N,/JLINK_RX*%
X155410000Y-90710000D02*
X155410000Y-98410000D01*
X154250000Y-89550000D02*
X155410000Y-90710000D01*
%TO.N,/RESET_N*%
X139764999Y-96915001D02*
X139080000Y-96230002D01*
X138675000Y-102920000D02*
X138675000Y-98005000D01*
X138675000Y-98005000D02*
X139764999Y-96915001D01*
X139080000Y-96230002D02*
X139080000Y-93190000D01*
%TO.N,/SWDIO*%
X147280000Y-102100000D02*
X147280000Y-108410000D01*
X147280000Y-108410000D02*
X147360000Y-108490000D01*
%TO.N,/SWCLK*%
X154250000Y-99710001D02*
X155450000Y-100910001D01*
X155450000Y-100910001D02*
X155450000Y-103770000D01*
%TO.N,Net-(J101-~{TRST})*%
X154249998Y-107329999D02*
X152580000Y-105660001D01*
X152580000Y-105660001D02*
X152580000Y-102910000D01*
D28*
%TO.N,Net-(D1-K)*%
X151250000Y-92110000D02*
X150200000Y-93160000D01*
X150200000Y-94180000D02*
X149600000Y-94780000D01*
X151830000Y-92110000D02*
X151250000Y-92110000D01*
X150200000Y-93160000D02*
X150200000Y-94180000D01*
X150200000Y-88630000D02*
X150030000Y-88630000D01*
X149790000Y-88390000D02*
X149790000Y-87910000D01*
X150030000Y-88630000D02*
X149790000Y-88390000D01*
X149790000Y-87910000D02*
X151650000Y-86050000D01*
X150200000Y-88630000D02*
X150200000Y-93160000D01*
X150200000Y-88410000D02*
X150200000Y-88630000D01*
%TO.N,/USB-VBUS*%
X148031323Y-86070000D02*
X150200000Y-86070000D01*
X141400000Y-91734216D02*
X141980000Y-91154216D01*
X146200000Y-92317500D02*
X146200000Y-91724220D01*
X145973998Y-88127325D02*
X148031323Y-86070000D01*
X145973998Y-91498218D02*
X145973998Y-88127325D01*
X146200000Y-91724220D02*
X145973998Y-91498218D01*
X141980000Y-91154216D02*
X141980000Y-90760000D01*
X141400000Y-92317500D02*
X141400000Y-91734216D01*
D27*
%TO.N,Net-(U4-CC2)*%
X142050001Y-94099999D02*
X141990000Y-94160000D01*
X142050001Y-92317501D02*
X142050001Y-94099999D01*
%TO.N,Net-(U4-CC1)*%
X145050000Y-94075000D02*
X145145000Y-94170000D01*
X145050000Y-92317500D02*
X145050000Y-94075000D01*
D28*
%TO.N,/ADJ*%
X150230000Y-100360000D02*
X150230000Y-98799999D01*
X148480000Y-107255000D02*
X148480000Y-109900000D01*
D27*
X150230000Y-100360000D02*
X150230000Y-105505000D01*
D28*
X150230000Y-98799999D02*
X149210001Y-97780000D01*
D27*
X150230000Y-105505000D02*
X148480000Y-107255000D01*
D28*
X148480000Y-109900000D02*
X148580001Y-110000001D01*
%TO.N,Net-(U3-K)*%
X152840000Y-88549999D02*
X151950001Y-87660000D01*
X152840000Y-88740000D02*
X152840000Y-88549999D01*
D27*
%TO.N,Net-(U2-K)*%
X140119999Y-110160000D02*
X140180000Y-110220001D01*
X139260000Y-110160000D02*
X140119999Y-110160000D01*
D28*
%TO.N,Net-(J1-Pin_3)*%
X151270000Y-109850000D02*
X151120000Y-110000000D01*
X151270000Y-107425000D02*
X151270000Y-109850000D01*
%TO.N,Net-(J1-Pin_1)*%
X145980000Y-109940000D02*
X146040000Y-110000000D01*
X145980000Y-107255000D02*
X145980000Y-109940000D01*
D27*
%TO.N,/VOUT*%
X141780000Y-110220001D02*
X140900000Y-109340001D01*
X151235000Y-105775000D02*
X151210000Y-105750000D01*
X151270000Y-105775000D02*
X151235000Y-105775000D01*
D28*
X146590000Y-96380000D02*
X146490000Y-96280000D01*
X151670000Y-96380000D02*
X146590000Y-96380000D01*
X146490000Y-96280000D02*
X146490000Y-96660000D01*
X146490000Y-96660000D02*
X145950000Y-97200000D01*
X145980000Y-100970000D02*
X145980000Y-105605000D01*
D27*
X140900000Y-103130005D02*
X139764998Y-101995003D01*
D28*
X145950000Y-97200000D02*
X145980000Y-97230000D01*
X145980000Y-97230000D02*
X145980000Y-100970000D01*
D27*
X140900000Y-109340001D02*
X140900000Y-103130005D01*
%TD*%
%TA.AperFunction,Conductor*%
%TO.N,GND*%
G36*
X158485148Y-85264852D02*
G01*
X158499500Y-85299500D01*
X158499500Y-105770707D01*
X158485148Y-105805355D01*
X158450500Y-105819707D01*
X158415852Y-105805355D01*
X158358090Y-105747593D01*
X158358087Y-105747590D01*
X158358083Y-105747588D01*
X158358081Y-105747586D01*
X158254815Y-105687964D01*
X158254812Y-105687963D01*
X158139628Y-105657100D01*
X158139625Y-105657100D01*
X158020375Y-105657100D01*
X158020372Y-105657100D01*
X157905187Y-105687963D01*
X157905184Y-105687964D01*
X157801918Y-105747586D01*
X157801909Y-105747593D01*
X157717593Y-105831909D01*
X157717586Y-105831918D01*
X157657964Y-105935184D01*
X157657963Y-105935187D01*
X157627100Y-106050371D01*
X157627100Y-106169628D01*
X157657963Y-106284812D01*
X157657964Y-106284815D01*
X157717586Y-106388081D01*
X157717588Y-106388083D01*
X157717590Y-106388087D01*
X157801913Y-106472410D01*
X157826400Y-106486548D01*
X157849230Y-106516299D01*
X157850900Y-106528982D01*
X157850900Y-106785077D01*
X157836548Y-106819725D01*
X157801900Y-106834077D01*
X157767252Y-106819725D01*
X157758241Y-106807323D01*
X157730802Y-106753472D01*
X157730800Y-106753469D01*
X157629031Y-106613396D01*
X157629028Y-106613392D01*
X157506608Y-106490972D01*
X157506603Y-106490968D01*
X157366530Y-106389199D01*
X157366527Y-106389197D01*
X157212251Y-106310589D01*
X157047580Y-106257085D01*
X157047577Y-106257084D01*
X157040000Y-106255883D01*
X157040000Y-106896988D01*
X156982993Y-106864075D01*
X156855826Y-106830000D01*
X156724174Y-106830000D01*
X156597007Y-106864075D01*
X156540000Y-106896988D01*
X156540000Y-106255884D01*
X156539999Y-106255883D01*
X156532422Y-106257084D01*
X156532419Y-106257085D01*
X156367748Y-106310589D01*
X156213472Y-106389197D01*
X156213469Y-106389199D01*
X156073396Y-106490968D01*
X155950968Y-106613396D01*
X155849199Y-106753469D01*
X155849197Y-106753472D01*
X155770589Y-106907748D01*
X155717085Y-107072416D01*
X155715885Y-107080000D01*
X156356988Y-107080000D01*
X156324075Y-107137007D01*
X156290000Y-107264174D01*
X156290000Y-107395826D01*
X156324075Y-107522993D01*
X156356988Y-107580000D01*
X155715885Y-107580000D01*
X155717085Y-107587583D01*
X155770589Y-107752251D01*
X155849197Y-107906527D01*
X155849199Y-107906530D01*
X155950968Y-108046603D01*
X155950972Y-108046608D01*
X156073392Y-108169028D01*
X156073396Y-108169031D01*
X156213469Y-108270800D01*
X156213472Y-108270802D01*
X156367748Y-108349410D01*
X156532416Y-108402914D01*
X156540000Y-108404115D01*
X156540000Y-107763012D01*
X156597007Y-107795925D01*
X156724174Y-107830000D01*
X156855826Y-107830000D01*
X156982993Y-107795925D01*
X157040000Y-107763012D01*
X157040000Y-108404114D01*
X157047583Y-108402914D01*
X157212251Y-108349410D01*
X157366527Y-108270802D01*
X157366530Y-108270800D01*
X157506603Y-108169031D01*
X157506608Y-108169028D01*
X157629028Y-108046608D01*
X157629031Y-108046603D01*
X157730800Y-107906530D01*
X157730805Y-107906522D01*
X157758241Y-107852677D01*
X157786758Y-107828320D01*
X157824145Y-107831263D01*
X157848502Y-107859780D01*
X157850900Y-107874922D01*
X157850900Y-109294806D01*
X157836548Y-109329454D01*
X157757626Y-109408375D01*
X157722978Y-109422727D01*
X157688330Y-109408375D01*
X157679761Y-109396821D01*
X157678761Y-109394950D01*
X157678760Y-109394947D01*
X157569005Y-109230686D01*
X157429313Y-109090994D01*
X157428337Y-109090342D01*
X157346466Y-109035638D01*
X157265052Y-108981239D01*
X157265049Y-108981237D01*
X157265048Y-108981237D01*
X157082537Y-108905639D01*
X157082526Y-108905636D01*
X156888783Y-108867098D01*
X156888778Y-108867098D01*
X156691224Y-108867098D01*
X156691218Y-108867098D01*
X156497475Y-108905636D01*
X156497464Y-108905639D01*
X156314953Y-108981237D01*
X156150689Y-109090993D01*
X156010996Y-109230686D01*
X155901240Y-109394950D01*
X155825642Y-109577461D01*
X155825639Y-109577472D01*
X155787101Y-109771215D01*
X155787101Y-109968780D01*
X155825639Y-110162523D01*
X155825642Y-110162534D01*
X155897002Y-110334813D01*
X155901242Y-110345049D01*
X156010997Y-110509310D01*
X156150689Y-110649002D01*
X156314950Y-110758757D01*
X156497466Y-110834357D01*
X156497472Y-110834358D01*
X156497475Y-110834359D01*
X156691218Y-110872897D01*
X156691221Y-110872897D01*
X156691224Y-110872898D01*
X156691225Y-110872898D01*
X156888777Y-110872898D01*
X156888778Y-110872898D01*
X157082536Y-110834357D01*
X157265052Y-110758757D01*
X157429313Y-110649002D01*
X157569005Y-110509310D01*
X157678760Y-110345049D01*
X157754360Y-110162533D01*
X157777009Y-110048662D01*
X157790418Y-110023577D01*
X158274221Y-109539775D01*
X158280362Y-109524949D01*
X158309100Y-109455571D01*
X158309100Y-106528982D01*
X158323452Y-106494334D01*
X158333594Y-106486550D01*
X158358087Y-106472410D01*
X158415852Y-106414645D01*
X158450500Y-106400293D01*
X158485148Y-106414645D01*
X158499500Y-106449293D01*
X158499500Y-111450500D01*
X158485148Y-111485148D01*
X158450500Y-111499500D01*
X150424918Y-111499500D01*
X150390270Y-111485148D01*
X150375918Y-111450500D01*
X150382483Y-111426000D01*
X150412035Y-111374814D01*
X150412036Y-111374813D01*
X150442899Y-111259628D01*
X150442900Y-111259628D01*
X150442900Y-111140372D01*
X150442899Y-111140371D01*
X150412036Y-111025187D01*
X150412035Y-111025184D01*
X150352413Y-110921918D01*
X150352412Y-110921917D01*
X150352410Y-110921913D01*
X150268087Y-110837590D01*
X150268082Y-110837587D01*
X150268078Y-110837584D01*
X150243599Y-110823450D01*
X150220769Y-110793697D01*
X150219100Y-110781016D01*
X150219100Y-110618412D01*
X150233452Y-110583764D01*
X150268100Y-110569412D01*
X150302748Y-110583764D01*
X150308842Y-110591190D01*
X150340992Y-110639307D01*
X150340995Y-110639311D01*
X150340996Y-110639312D01*
X150480688Y-110779004D01*
X150644949Y-110888759D01*
X150827465Y-110964359D01*
X150827471Y-110964360D01*
X150827474Y-110964361D01*
X151021217Y-111002899D01*
X151021220Y-111002899D01*
X151021223Y-111002900D01*
X151021224Y-111002900D01*
X151218776Y-111002900D01*
X151218777Y-111002900D01*
X151412535Y-110964359D01*
X151595051Y-110888759D01*
X151759312Y-110779004D01*
X151899004Y-110639312D01*
X152008759Y-110475051D01*
X152084359Y-110292535D01*
X152122900Y-110098777D01*
X152122900Y-109901223D01*
X152104403Y-109808232D01*
X152084361Y-109707474D01*
X152084358Y-109707464D01*
X152008759Y-109524949D01*
X151899004Y-109360688D01*
X151759312Y-109220996D01*
X151595052Y-109111242D01*
X151594677Y-109110991D01*
X151591888Y-109106817D01*
X151587252Y-109104897D01*
X151581782Y-109091693D01*
X151573842Y-109079809D01*
X151572900Y-109070249D01*
X151572900Y-109004939D01*
X153247100Y-109004939D01*
X153247100Y-110735053D01*
X153255972Y-110779658D01*
X153289765Y-110830234D01*
X153300779Y-110837593D01*
X153340342Y-110864028D01*
X153384943Y-110872900D01*
X155115056Y-110872899D01*
X155159658Y-110864028D01*
X155210234Y-110830234D01*
X155244028Y-110779658D01*
X155252900Y-110735057D01*
X155252899Y-109004944D01*
X155244028Y-108960342D01*
X155211751Y-108912036D01*
X155210234Y-108909765D01*
X155172386Y-108884477D01*
X155159658Y-108875972D01*
X155159657Y-108875971D01*
X155159656Y-108875971D01*
X155115058Y-108867100D01*
X153384946Y-108867100D01*
X153340341Y-108875972D01*
X153289765Y-108909765D01*
X153255971Y-108960343D01*
X153247100Y-109004939D01*
X151572900Y-109004939D01*
X151572900Y-108021093D01*
X151587252Y-107986445D01*
X151614834Y-107972605D01*
X151647088Y-107967906D01*
X151752898Y-107916179D01*
X151836179Y-107832898D01*
X151887906Y-107727088D01*
X151897900Y-107658494D01*
X151897900Y-107191506D01*
X151887906Y-107122912D01*
X151836179Y-107017102D01*
X151752898Y-106933821D01*
X151699564Y-106907748D01*
X151647091Y-106882095D01*
X151647089Y-106882094D01*
X151578496Y-106872100D01*
X151578494Y-106872100D01*
X150961506Y-106872100D01*
X150961504Y-106872100D01*
X150892910Y-106882094D01*
X150892908Y-106882095D01*
X150787104Y-106933820D01*
X150787100Y-106933822D01*
X150703822Y-107017100D01*
X150703820Y-107017104D01*
X150652095Y-107122908D01*
X150652094Y-107122910D01*
X150642100Y-107191504D01*
X150642100Y-107658495D01*
X150650233Y-107714312D01*
X150652094Y-107727088D01*
X150703821Y-107832898D01*
X150787102Y-107916179D01*
X150892912Y-107967906D01*
X150925165Y-107972605D01*
X150957382Y-107991802D01*
X150967100Y-108021093D01*
X150967100Y-108967652D01*
X150952748Y-109002300D01*
X150927660Y-109015710D01*
X150827472Y-109035638D01*
X150827465Y-109035640D01*
X150644952Y-109111239D01*
X150480688Y-109220995D01*
X150340995Y-109360688D01*
X150308842Y-109408810D01*
X150277660Y-109429645D01*
X150240877Y-109422329D01*
X150220042Y-109391147D01*
X150219100Y-109381587D01*
X150219100Y-107248982D01*
X150233452Y-107214334D01*
X150243594Y-107206550D01*
X150268087Y-107192410D01*
X150352410Y-107108087D01*
X150412036Y-107004813D01*
X150442899Y-106889628D01*
X150442900Y-106889628D01*
X150442900Y-106770372D01*
X150442899Y-106770371D01*
X150412036Y-106655187D01*
X150412035Y-106655184D01*
X150352413Y-106551918D01*
X150352412Y-106551917D01*
X150352410Y-106551913D01*
X150268087Y-106467590D01*
X150268083Y-106467588D01*
X150268081Y-106467586D01*
X150164815Y-106407964D01*
X150164812Y-106407963D01*
X150049628Y-106377100D01*
X150049625Y-106377100D01*
X149930375Y-106377100D01*
X149930372Y-106377100D01*
X149815187Y-106407963D01*
X149815184Y-106407964D01*
X149749118Y-106446108D01*
X149711936Y-106451003D01*
X149682183Y-106428173D01*
X149677288Y-106390991D01*
X149689968Y-106369027D01*
X150424222Y-105634774D01*
X150446587Y-105580779D01*
X150459100Y-105550571D01*
X150459100Y-105541504D01*
X150642100Y-105541504D01*
X150642100Y-106008495D01*
X150652094Y-106077089D01*
X150652095Y-106077091D01*
X150670514Y-106114767D01*
X150703821Y-106182898D01*
X150787102Y-106266179D01*
X150892912Y-106317906D01*
X150941516Y-106324987D01*
X150961504Y-106327900D01*
X150961506Y-106327900D01*
X151578496Y-106327900D01*
X151595941Y-106325357D01*
X151647088Y-106317906D01*
X151752898Y-106266179D01*
X151836179Y-106182898D01*
X151887906Y-106077088D01*
X151897900Y-106008494D01*
X151897900Y-105541506D01*
X151887906Y-105472912D01*
X151836179Y-105367102D01*
X151752898Y-105283821D01*
X151699993Y-105257957D01*
X151647091Y-105232095D01*
X151647089Y-105232094D01*
X151578496Y-105222100D01*
X151578494Y-105222100D01*
X150961506Y-105222100D01*
X150961504Y-105222100D01*
X150892910Y-105232094D01*
X150892908Y-105232095D01*
X150787104Y-105283820D01*
X150787100Y-105283822D01*
X150703822Y-105367100D01*
X150703820Y-105367104D01*
X150652095Y-105472908D01*
X150652094Y-105472910D01*
X150642100Y-105541504D01*
X150459100Y-105541504D01*
X150459100Y-102850371D01*
X152127100Y-102850371D01*
X152127100Y-102969628D01*
X152157963Y-103084812D01*
X152157964Y-103084815D01*
X152217586Y-103188081D01*
X152217588Y-103188083D01*
X152217590Y-103188087D01*
X152301913Y-103272410D01*
X152326400Y-103286548D01*
X152349230Y-103316299D01*
X152350900Y-103328982D01*
X152350900Y-105705571D01*
X152385778Y-105789776D01*
X152385779Y-105789778D01*
X153368737Y-106772734D01*
X153383089Y-106807382D01*
X153374831Y-106834604D01*
X153361240Y-106854944D01*
X153285639Y-107037462D01*
X153285636Y-107037473D01*
X153247098Y-107231216D01*
X153247098Y-107428781D01*
X153285636Y-107622524D01*
X153285639Y-107622535D01*
X153336853Y-107746177D01*
X153361239Y-107805050D01*
X153407926Y-107874922D01*
X153470054Y-107967905D01*
X153470994Y-107969311D01*
X153610686Y-108109003D01*
X153774947Y-108218758D01*
X153957463Y-108294358D01*
X153957469Y-108294359D01*
X153957472Y-108294360D01*
X154151215Y-108332898D01*
X154151218Y-108332898D01*
X154151221Y-108332899D01*
X154151222Y-108332899D01*
X154348774Y-108332899D01*
X154348775Y-108332899D01*
X154542533Y-108294358D01*
X154725049Y-108218758D01*
X154889310Y-108109003D01*
X155029002Y-107969311D01*
X155138757Y-107805050D01*
X155214357Y-107622534D01*
X155222818Y-107580000D01*
X155227633Y-107555794D01*
X155252897Y-107428781D01*
X155252898Y-107428774D01*
X155252898Y-107231223D01*
X155252897Y-107231218D01*
X155250803Y-107220693D01*
X155214357Y-107037464D01*
X155138757Y-106854948D01*
X155029002Y-106690687D01*
X154889310Y-106550995D01*
X154725049Y-106441240D01*
X154725046Y-106441238D01*
X154725045Y-106441238D01*
X154542534Y-106365640D01*
X154542523Y-106365637D01*
X154348780Y-106327099D01*
X154348775Y-106327099D01*
X154151221Y-106327099D01*
X154151215Y-106327099D01*
X153957472Y-106365637D01*
X153957461Y-106365640D01*
X153774943Y-106441241D01*
X153754603Y-106454832D01*
X153717821Y-106462148D01*
X153692733Y-106448738D01*
X153261643Y-106017648D01*
X152823452Y-105579456D01*
X152809100Y-105544808D01*
X152809100Y-104691217D01*
X153247100Y-104691217D01*
X153247100Y-104888782D01*
X153285638Y-105082525D01*
X153285641Y-105082536D01*
X153343450Y-105222100D01*
X153361241Y-105265051D01*
X153386539Y-105302912D01*
X153467750Y-105424455D01*
X153470996Y-105429312D01*
X153610688Y-105569004D01*
X153774949Y-105678759D01*
X153957465Y-105754359D01*
X153957471Y-105754360D01*
X153957474Y-105754361D01*
X154151217Y-105792899D01*
X154151220Y-105792899D01*
X154151223Y-105792900D01*
X154151224Y-105792900D01*
X154348776Y-105792900D01*
X154348777Y-105792900D01*
X154542535Y-105754359D01*
X154725051Y-105678759D01*
X154889312Y-105569004D01*
X155029004Y-105429312D01*
X155138759Y-105265051D01*
X155214359Y-105082535D01*
X155252900Y-104888777D01*
X155252900Y-104691223D01*
X155241474Y-104633783D01*
X155227635Y-104564208D01*
X155222820Y-104540000D01*
X155715886Y-104540000D01*
X156356989Y-104540000D01*
X156324076Y-104597007D01*
X156290001Y-104724174D01*
X156290001Y-104855826D01*
X156324076Y-104982993D01*
X156356989Y-105040000D01*
X155715886Y-105040000D01*
X155717086Y-105047583D01*
X155770590Y-105212251D01*
X155849198Y-105366527D01*
X155849200Y-105366530D01*
X155950969Y-105506603D01*
X155950973Y-105506608D01*
X156073393Y-105629028D01*
X156073397Y-105629031D01*
X156213470Y-105730800D01*
X156213473Y-105730802D01*
X156367749Y-105809410D01*
X156532417Y-105862914D01*
X156540001Y-105864115D01*
X156540001Y-105223012D01*
X156597008Y-105255925D01*
X156724175Y-105290000D01*
X156855827Y-105290000D01*
X156982994Y-105255925D01*
X157040001Y-105223012D01*
X157040001Y-105864114D01*
X157047584Y-105862914D01*
X157212252Y-105809410D01*
X157366528Y-105730802D01*
X157366531Y-105730800D01*
X157506604Y-105629031D01*
X157506609Y-105629028D01*
X157629029Y-105506608D01*
X157629032Y-105506603D01*
X157730801Y-105366530D01*
X157730803Y-105366527D01*
X157809411Y-105212251D01*
X157862915Y-105047583D01*
X157864116Y-105040000D01*
X157223013Y-105040000D01*
X157255926Y-104982993D01*
X157290001Y-104855826D01*
X157290001Y-104724174D01*
X157255926Y-104597007D01*
X157223013Y-104540000D01*
X157864116Y-104540000D01*
X157862915Y-104532416D01*
X157809411Y-104367748D01*
X157730803Y-104213472D01*
X157730801Y-104213469D01*
X157629032Y-104073396D01*
X157629029Y-104073392D01*
X157506609Y-103950972D01*
X157506604Y-103950968D01*
X157366531Y-103849199D01*
X157366528Y-103849197D01*
X157212252Y-103770589D01*
X157047581Y-103717085D01*
X157047578Y-103717084D01*
X157040001Y-103715883D01*
X157040001Y-104356988D01*
X156982994Y-104324075D01*
X156855827Y-104290000D01*
X156724175Y-104290000D01*
X156597008Y-104324075D01*
X156540001Y-104356988D01*
X156540001Y-103715884D01*
X156540000Y-103715883D01*
X156532423Y-103717084D01*
X156532420Y-103717085D01*
X156367749Y-103770589D01*
X156213473Y-103849197D01*
X156213470Y-103849199D01*
X156073397Y-103950968D01*
X155950969Y-104073396D01*
X155849200Y-104213469D01*
X155849198Y-104213472D01*
X155770590Y-104367748D01*
X155717086Y-104532416D01*
X155715886Y-104540000D01*
X155222820Y-104540000D01*
X155214359Y-104497465D01*
X155138759Y-104314949D01*
X155029004Y-104150688D01*
X154889312Y-104010996D01*
X154725051Y-103901241D01*
X154725048Y-103901239D01*
X154725047Y-103901239D01*
X154542536Y-103825641D01*
X154542525Y-103825638D01*
X154348782Y-103787100D01*
X154348777Y-103787100D01*
X154151223Y-103787100D01*
X154151217Y-103787100D01*
X153957474Y-103825638D01*
X153957463Y-103825641D01*
X153774952Y-103901239D01*
X153610688Y-104010995D01*
X153470995Y-104150688D01*
X153361239Y-104314952D01*
X153285641Y-104497463D01*
X153285638Y-104497474D01*
X153247100Y-104691217D01*
X152809100Y-104691217D01*
X152809100Y-103328982D01*
X152823452Y-103294334D01*
X152833594Y-103286550D01*
X152858087Y-103272410D01*
X152942410Y-103188087D01*
X152996261Y-103094815D01*
X153002035Y-103084815D01*
X153002036Y-103084812D01*
X153002138Y-103084434D01*
X153032899Y-102969628D01*
X153032900Y-102969628D01*
X153032900Y-102850372D01*
X153032899Y-102850371D01*
X153002036Y-102735187D01*
X153002035Y-102735184D01*
X152942413Y-102631918D01*
X152942412Y-102631917D01*
X152942410Y-102631913D01*
X152858087Y-102547590D01*
X152858083Y-102547588D01*
X152858081Y-102547586D01*
X152754815Y-102487964D01*
X152754812Y-102487963D01*
X152639628Y-102457100D01*
X152639625Y-102457100D01*
X152520375Y-102457100D01*
X152520372Y-102457100D01*
X152405187Y-102487963D01*
X152405184Y-102487964D01*
X152301918Y-102547586D01*
X152301909Y-102547593D01*
X152217593Y-102631909D01*
X152217586Y-102631918D01*
X152157964Y-102735184D01*
X152157963Y-102735187D01*
X152127100Y-102850371D01*
X150459100Y-102850371D01*
X150459100Y-101011899D01*
X150473452Y-100977251D01*
X150508100Y-100962899D01*
X150645053Y-100962899D01*
X150645056Y-100962899D01*
X150689658Y-100954028D01*
X150740234Y-100920234D01*
X150774028Y-100869658D01*
X150780996Y-100834629D01*
X150980000Y-100834629D01*
X150994503Y-100907542D01*
X151049759Y-100990240D01*
X151132457Y-101045496D01*
X151205370Y-101059999D01*
X151205376Y-101060000D01*
X151380000Y-101060000D01*
X151880000Y-101060000D01*
X152054624Y-101060000D01*
X152054629Y-101059999D01*
X152127542Y-101045496D01*
X152210240Y-100990240D01*
X152265496Y-100907542D01*
X152279999Y-100834629D01*
X152280000Y-100834624D01*
X152280000Y-100610000D01*
X151880000Y-100610000D01*
X151880000Y-101060000D01*
X151380000Y-101060000D01*
X151380000Y-100610000D01*
X150980000Y-100610000D01*
X150980000Y-100834629D01*
X150780996Y-100834629D01*
X150782900Y-100825057D01*
X150782899Y-100349313D01*
X150782899Y-99894945D01*
X150782899Y-99894944D01*
X150780995Y-99885370D01*
X150980000Y-99885370D01*
X150980000Y-100110000D01*
X151380000Y-100110000D01*
X151880000Y-100110000D01*
X152280000Y-100110000D01*
X152280000Y-99885376D01*
X152279999Y-99885370D01*
X152265496Y-99812457D01*
X152210240Y-99729759D01*
X152127542Y-99674503D01*
X152054629Y-99660000D01*
X151880000Y-99660000D01*
X151880000Y-100110000D01*
X151380000Y-100110000D01*
X151380000Y-99660000D01*
X151205370Y-99660000D01*
X151132457Y-99674503D01*
X151049759Y-99729759D01*
X150994503Y-99812457D01*
X150980000Y-99885370D01*
X150780995Y-99885370D01*
X150774028Y-99850342D01*
X150746256Y-99808778D01*
X150740234Y-99799765D01*
X150702386Y-99774477D01*
X150689658Y-99765972D01*
X150689657Y-99765971D01*
X150689656Y-99765971D01*
X150645060Y-99757100D01*
X150645057Y-99757100D01*
X150581900Y-99757100D01*
X150547252Y-99742748D01*
X150532900Y-99708100D01*
X150532900Y-99611218D01*
X153247100Y-99611218D01*
X153247100Y-99808783D01*
X153285638Y-100002526D01*
X153285641Y-100002537D01*
X153361239Y-100185047D01*
X153361241Y-100185052D01*
X153416173Y-100267264D01*
X153467285Y-100343760D01*
X153470996Y-100349313D01*
X153610688Y-100489005D01*
X153774949Y-100598760D01*
X153957465Y-100674360D01*
X153957471Y-100674361D01*
X153957474Y-100674362D01*
X154151217Y-100712900D01*
X154151220Y-100712900D01*
X154151223Y-100712901D01*
X154151224Y-100712901D01*
X154348776Y-100712901D01*
X154348777Y-100712901D01*
X154542535Y-100674360D01*
X154725051Y-100598760D01*
X154745392Y-100585167D01*
X154782172Y-100577850D01*
X154807263Y-100591261D01*
X155206548Y-100990546D01*
X155220900Y-101025194D01*
X155220900Y-101736351D01*
X155206548Y-101770999D01*
X155171900Y-101785351D01*
X155137252Y-101770999D01*
X155131160Y-101763577D01*
X155029004Y-101610688D01*
X154889312Y-101470996D01*
X154725051Y-101361241D01*
X154725048Y-101361239D01*
X154725047Y-101361239D01*
X154542536Y-101285641D01*
X154542525Y-101285638D01*
X154348782Y-101247100D01*
X154348777Y-101247100D01*
X154151223Y-101247100D01*
X154151217Y-101247100D01*
X153957474Y-101285638D01*
X153957463Y-101285641D01*
X153774952Y-101361239D01*
X153610688Y-101470995D01*
X153470995Y-101610688D01*
X153361239Y-101774952D01*
X153285641Y-101957463D01*
X153285638Y-101957474D01*
X153247100Y-102151217D01*
X153247100Y-102348782D01*
X153285638Y-102542525D01*
X153285641Y-102542536D01*
X153361239Y-102725047D01*
X153361241Y-102725051D01*
X153423453Y-102818158D01*
X153467287Y-102883762D01*
X153470996Y-102889312D01*
X153610688Y-103029004D01*
X153774949Y-103138759D01*
X153957465Y-103214359D01*
X153957471Y-103214360D01*
X153957474Y-103214361D01*
X154151217Y-103252899D01*
X154151220Y-103252899D01*
X154151223Y-103252900D01*
X154151224Y-103252900D01*
X154348776Y-103252900D01*
X154348777Y-103252900D01*
X154542535Y-103214359D01*
X154725051Y-103138759D01*
X154889312Y-103029004D01*
X155029004Y-102889312D01*
X155131160Y-102736423D01*
X155162340Y-102715590D01*
X155199123Y-102722906D01*
X155219958Y-102754088D01*
X155220900Y-102763648D01*
X155220900Y-103351016D01*
X155206548Y-103385664D01*
X155196401Y-103393450D01*
X155171921Y-103407584D01*
X155171909Y-103407593D01*
X155087593Y-103491909D01*
X155087586Y-103491918D01*
X155027964Y-103595184D01*
X155027963Y-103595187D01*
X154997100Y-103710371D01*
X154997100Y-103829628D01*
X155027963Y-103944812D01*
X155027964Y-103944815D01*
X155087586Y-104048081D01*
X155087588Y-104048083D01*
X155087590Y-104048087D01*
X155171913Y-104132410D01*
X155171917Y-104132412D01*
X155171918Y-104132413D01*
X155275184Y-104192035D01*
X155275187Y-104192036D01*
X155390371Y-104222899D01*
X155390372Y-104222900D01*
X155390375Y-104222900D01*
X155509628Y-104222900D01*
X155509628Y-104222899D01*
X155624813Y-104192036D01*
X155728087Y-104132410D01*
X155812410Y-104048087D01*
X155872036Y-103944813D01*
X155902899Y-103829628D01*
X155902900Y-103829628D01*
X155902900Y-103710372D01*
X155902899Y-103710371D01*
X155872036Y-103595187D01*
X155872035Y-103595184D01*
X155812413Y-103491918D01*
X155812412Y-103491917D01*
X155812410Y-103491913D01*
X155728087Y-103407590D01*
X155728082Y-103407587D01*
X155728078Y-103407584D01*
X155703599Y-103393450D01*
X155680769Y-103363697D01*
X155679100Y-103351016D01*
X155679100Y-102696794D01*
X155693452Y-102662146D01*
X155728100Y-102647794D01*
X155762748Y-102662146D01*
X155771759Y-102674548D01*
X155849196Y-102826527D01*
X155849198Y-102826530D01*
X155950967Y-102966603D01*
X155950971Y-102966608D01*
X156073391Y-103089028D01*
X156073395Y-103089031D01*
X156213468Y-103190800D01*
X156213471Y-103190802D01*
X156367747Y-103269410D01*
X156532415Y-103322914D01*
X156539999Y-103324115D01*
X156539999Y-102683012D01*
X156597006Y-102715925D01*
X156724173Y-102750000D01*
X156855825Y-102750000D01*
X156982992Y-102715925D01*
X157039999Y-102683012D01*
X157039999Y-103324114D01*
X157047582Y-103322914D01*
X157212250Y-103269410D01*
X157366526Y-103190802D01*
X157366529Y-103190800D01*
X157506602Y-103089031D01*
X157506607Y-103089028D01*
X157629027Y-102966608D01*
X157629030Y-102966603D01*
X157730799Y-102826530D01*
X157730801Y-102826527D01*
X157809409Y-102672251D01*
X157862913Y-102507583D01*
X157864114Y-102500000D01*
X157223011Y-102500000D01*
X157255924Y-102442993D01*
X157289999Y-102315826D01*
X157289999Y-102184174D01*
X157255924Y-102057007D01*
X157223011Y-102000000D01*
X157864114Y-102000000D01*
X157862913Y-101992416D01*
X157809409Y-101827748D01*
X157730801Y-101673472D01*
X157730799Y-101673469D01*
X157629030Y-101533396D01*
X157629027Y-101533392D01*
X157506607Y-101410972D01*
X157506602Y-101410968D01*
X157366529Y-101309199D01*
X157366526Y-101309197D01*
X157212250Y-101230589D01*
X157047579Y-101177085D01*
X157047576Y-101177084D01*
X157039999Y-101175883D01*
X157039999Y-101816988D01*
X156982992Y-101784075D01*
X156855825Y-101750000D01*
X156724173Y-101750000D01*
X156597006Y-101784075D01*
X156539999Y-101816988D01*
X156539999Y-101175884D01*
X156539998Y-101175883D01*
X156532421Y-101177084D01*
X156532418Y-101177085D01*
X156367747Y-101230589D01*
X156213471Y-101309197D01*
X156213468Y-101309199D01*
X156073395Y-101410968D01*
X155950967Y-101533396D01*
X155849198Y-101673469D01*
X155849196Y-101673472D01*
X155771759Y-101825451D01*
X155743242Y-101849807D01*
X155705854Y-101846864D01*
X155681498Y-101818347D01*
X155679100Y-101803205D01*
X155679100Y-100864432D01*
X155679099Y-100864428D01*
X155662791Y-100825057D01*
X155662791Y-100825056D01*
X155650419Y-100795187D01*
X155644222Y-100780226D01*
X155644221Y-100780225D01*
X155644220Y-100780223D01*
X155131260Y-100267264D01*
X155116908Y-100232616D01*
X155125165Y-100205394D01*
X155138759Y-100185052D01*
X155214359Y-100002536D01*
X155252900Y-99808778D01*
X155252900Y-99611224D01*
X155252899Y-99611218D01*
X155227635Y-99484206D01*
X155222820Y-99460000D01*
X155715885Y-99460000D01*
X156356988Y-99460000D01*
X156324075Y-99517007D01*
X156290000Y-99644174D01*
X156290000Y-99775826D01*
X156324075Y-99902993D01*
X156356988Y-99960000D01*
X155715885Y-99960000D01*
X155717085Y-99967583D01*
X155770589Y-100132251D01*
X155849197Y-100286527D01*
X155849199Y-100286530D01*
X155950968Y-100426603D01*
X155950972Y-100426608D01*
X156073392Y-100549028D01*
X156073396Y-100549031D01*
X156213469Y-100650800D01*
X156213472Y-100650802D01*
X156367748Y-100729410D01*
X156532416Y-100782914D01*
X156540000Y-100784115D01*
X156540000Y-100143012D01*
X156597007Y-100175925D01*
X156724174Y-100210000D01*
X156855826Y-100210000D01*
X156982993Y-100175925D01*
X157040000Y-100143012D01*
X157040000Y-100784114D01*
X157047583Y-100782914D01*
X157212251Y-100729410D01*
X157366527Y-100650802D01*
X157366530Y-100650800D01*
X157506603Y-100549031D01*
X157506608Y-100549028D01*
X157629028Y-100426608D01*
X157629031Y-100426603D01*
X157730800Y-100286530D01*
X157730802Y-100286527D01*
X157809410Y-100132251D01*
X157862914Y-99967583D01*
X157864115Y-99960000D01*
X157223012Y-99960000D01*
X157255925Y-99902993D01*
X157290000Y-99775826D01*
X157290000Y-99644174D01*
X157255925Y-99517007D01*
X157223012Y-99460000D01*
X157864115Y-99460000D01*
X157862914Y-99452416D01*
X157809410Y-99287748D01*
X157730802Y-99133472D01*
X157730800Y-99133469D01*
X157629031Y-98993396D01*
X157629028Y-98993392D01*
X157506608Y-98870972D01*
X157506603Y-98870968D01*
X157366530Y-98769199D01*
X157366527Y-98769197D01*
X157212251Y-98690589D01*
X157047580Y-98637085D01*
X157047577Y-98637084D01*
X157040000Y-98635883D01*
X157040000Y-99276988D01*
X156982993Y-99244075D01*
X156855826Y-99210000D01*
X156724174Y-99210000D01*
X156597007Y-99244075D01*
X156540000Y-99276988D01*
X156540000Y-98635884D01*
X156539999Y-98635883D01*
X156532422Y-98637084D01*
X156532419Y-98637085D01*
X156367748Y-98690589D01*
X156213472Y-98769197D01*
X156213469Y-98769199D01*
X156073396Y-98870968D01*
X155950968Y-98993396D01*
X155849199Y-99133469D01*
X155849197Y-99133472D01*
X155770589Y-99287748D01*
X155717085Y-99452416D01*
X155715885Y-99460000D01*
X155222820Y-99460000D01*
X155214361Y-99417475D01*
X155214358Y-99417464D01*
X155151305Y-99265240D01*
X155138759Y-99234950D01*
X155029004Y-99070689D01*
X154889312Y-98930997D01*
X154881031Y-98925464D01*
X154835049Y-98894740D01*
X154725051Y-98821242D01*
X154725048Y-98821240D01*
X154725047Y-98821240D01*
X154542536Y-98745642D01*
X154542525Y-98745639D01*
X154348782Y-98707101D01*
X154348777Y-98707101D01*
X154151223Y-98707101D01*
X154151217Y-98707101D01*
X153957474Y-98745639D01*
X153957463Y-98745642D01*
X153774952Y-98821240D01*
X153610688Y-98930996D01*
X153470995Y-99070689D01*
X153361239Y-99234953D01*
X153285641Y-99417464D01*
X153285638Y-99417475D01*
X153247100Y-99611218D01*
X150532900Y-99611218D01*
X150532900Y-99109629D01*
X150745000Y-99109629D01*
X150759503Y-99182542D01*
X150814759Y-99265240D01*
X150897457Y-99320496D01*
X150970370Y-99334999D01*
X150970376Y-99335000D01*
X151420000Y-99335000D01*
X151920000Y-99335000D01*
X152369624Y-99335000D01*
X152369629Y-99334999D01*
X152442542Y-99320496D01*
X152525240Y-99265240D01*
X152580496Y-99182542D01*
X152594999Y-99109629D01*
X152595000Y-99109624D01*
X152595000Y-98630000D01*
X151920000Y-98630000D01*
X151920000Y-99335000D01*
X151420000Y-99335000D01*
X151420000Y-98630000D01*
X150745000Y-98630000D01*
X150745000Y-99109629D01*
X150532900Y-99109629D01*
X150532900Y-98760118D01*
X150512259Y-98683088D01*
X150512258Y-98683084D01*
X150479226Y-98625870D01*
X150472385Y-98614020D01*
X150472382Y-98614017D01*
X150472381Y-98614014D01*
X150415985Y-98557618D01*
X150414279Y-98555912D01*
X150414268Y-98555902D01*
X150128001Y-98269635D01*
X150113649Y-98234987D01*
X150121905Y-98207767D01*
X150144029Y-98174658D01*
X150152901Y-98130057D01*
X150152900Y-97650370D01*
X150745000Y-97650370D01*
X150745000Y-98130000D01*
X151420000Y-98130000D01*
X151920000Y-98130000D01*
X152595000Y-98130000D01*
X152595000Y-97650376D01*
X152594999Y-97650370D01*
X152580496Y-97577457D01*
X152525240Y-97494759D01*
X152442542Y-97439503D01*
X152369629Y-97425000D01*
X151920000Y-97425000D01*
X151920000Y-98130000D01*
X151420000Y-98130000D01*
X151420000Y-97425000D01*
X150970370Y-97425000D01*
X150897457Y-97439503D01*
X150814759Y-97494759D01*
X150759503Y-97577457D01*
X150745000Y-97650370D01*
X150152900Y-97650370D01*
X150152900Y-97429944D01*
X150144029Y-97385342D01*
X150129096Y-97362993D01*
X150110235Y-97334765D01*
X150067622Y-97306293D01*
X150059659Y-97300972D01*
X150059658Y-97300971D01*
X150059657Y-97300971D01*
X150015059Y-97292100D01*
X148404947Y-97292100D01*
X148360342Y-97300972D01*
X148309766Y-97334765D01*
X148275972Y-97385343D01*
X148267101Y-97429939D01*
X148267101Y-98130053D01*
X148275973Y-98174658D01*
X148309766Y-98225234D01*
X148335055Y-98242131D01*
X148360343Y-98259028D01*
X148404944Y-98267900D01*
X149249238Y-98267899D01*
X149283886Y-98282251D01*
X149912748Y-98911112D01*
X149927100Y-98945760D01*
X149927100Y-99708100D01*
X149912748Y-99742748D01*
X149878101Y-99757100D01*
X149814947Y-99757100D01*
X149770341Y-99765972D01*
X149719765Y-99799765D01*
X149685971Y-99850343D01*
X149677100Y-99894939D01*
X149677100Y-100825053D01*
X149685972Y-100869658D01*
X149719765Y-100920234D01*
X149745054Y-100937131D01*
X149770342Y-100954028D01*
X149814943Y-100962900D01*
X149951900Y-100962899D01*
X149986548Y-100977251D01*
X150000900Y-101011899D01*
X150000900Y-105389807D01*
X149986548Y-105424455D01*
X148723255Y-106687748D01*
X148688607Y-106702100D01*
X148171504Y-106702100D01*
X148102910Y-106712094D01*
X148102908Y-106712095D01*
X147997104Y-106763820D01*
X147997100Y-106763822D01*
X147913822Y-106847100D01*
X147913820Y-106847104D01*
X147862095Y-106952908D01*
X147862094Y-106952910D01*
X147852742Y-107017102D01*
X147852100Y-107021506D01*
X147852100Y-107488494D01*
X147862094Y-107557088D01*
X147913821Y-107662898D01*
X147997102Y-107746179D01*
X148102912Y-107797906D01*
X148135165Y-107802605D01*
X148167382Y-107821802D01*
X148177100Y-107851093D01*
X148177100Y-109048615D01*
X148162748Y-109083263D01*
X148146852Y-109093885D01*
X148104953Y-109111240D01*
X147940689Y-109220996D01*
X147800996Y-109360689D01*
X147691243Y-109524949D01*
X147691240Y-109524952D01*
X147615642Y-109707464D01*
X147615639Y-109707475D01*
X147577101Y-109901218D01*
X147577101Y-110098783D01*
X147615639Y-110292526D01*
X147615642Y-110292537D01*
X147675932Y-110438090D01*
X147691242Y-110475052D01*
X147742449Y-110551689D01*
X147800995Y-110639311D01*
X147800997Y-110639313D01*
X147940689Y-110779005D01*
X148104950Y-110888760D01*
X148287466Y-110964360D01*
X148287472Y-110964361D01*
X148287475Y-110964362D01*
X148481218Y-111002900D01*
X148481221Y-111002900D01*
X148481224Y-111002901D01*
X148481225Y-111002901D01*
X148678777Y-111002901D01*
X148678778Y-111002901D01*
X148872536Y-110964360D01*
X149055052Y-110888760D01*
X149219313Y-110779005D01*
X149359005Y-110639313D01*
X149468760Y-110475052D01*
X149544360Y-110292536D01*
X149582901Y-110098778D01*
X149582901Y-109901224D01*
X149563750Y-109804944D01*
X149544362Y-109707475D01*
X149544359Y-109707465D01*
X149480901Y-109554260D01*
X149468761Y-109524952D01*
X149468759Y-109524949D01*
X149405079Y-109429645D01*
X149359005Y-109360689D01*
X149219313Y-109220997D01*
X149219310Y-109220995D01*
X149165050Y-109184740D01*
X149055052Y-109111242D01*
X149055049Y-109111240D01*
X149055048Y-109111240D01*
X148872537Y-109035642D01*
X148872526Y-109035639D01*
X148822341Y-109025657D01*
X148791158Y-109004822D01*
X148782900Y-108977599D01*
X148782900Y-107851093D01*
X148797252Y-107816445D01*
X148824834Y-107802605D01*
X148857088Y-107797906D01*
X148962898Y-107746179D01*
X149046179Y-107662898D01*
X149097906Y-107557088D01*
X149107900Y-107488494D01*
X149107900Y-107021506D01*
X149102490Y-106984377D01*
X149111696Y-106948023D01*
X149116323Y-106942672D01*
X149529026Y-106529969D01*
X149563673Y-106515618D01*
X149598321Y-106529970D01*
X149612673Y-106564618D01*
X149606108Y-106589118D01*
X149567964Y-106655184D01*
X149567963Y-106655187D01*
X149537100Y-106770371D01*
X149537100Y-106889628D01*
X149567963Y-107004812D01*
X149567964Y-107004815D01*
X149627586Y-107108081D01*
X149627588Y-107108083D01*
X149627590Y-107108087D01*
X149711913Y-107192410D01*
X149736400Y-107206548D01*
X149759230Y-107236299D01*
X149760900Y-107248982D01*
X149760900Y-110781016D01*
X149746548Y-110815664D01*
X149736401Y-110823450D01*
X149711921Y-110837584D01*
X149711909Y-110837593D01*
X149627593Y-110921909D01*
X149627586Y-110921918D01*
X149567964Y-111025184D01*
X149567963Y-111025187D01*
X149537100Y-111140371D01*
X149537100Y-111259628D01*
X149567963Y-111374812D01*
X149567964Y-111374814D01*
X149597517Y-111426000D01*
X149602412Y-111463182D01*
X149579582Y-111492935D01*
X149555082Y-111499500D01*
X138424500Y-111499500D01*
X138389852Y-111485148D01*
X138375500Y-111450500D01*
X138375500Y-110100371D01*
X138807100Y-110100371D01*
X138807100Y-110219628D01*
X138837963Y-110334812D01*
X138837964Y-110334815D01*
X138897586Y-110438081D01*
X138897588Y-110438083D01*
X138897590Y-110438087D01*
X138981913Y-110522410D01*
X138981917Y-110522412D01*
X138981918Y-110522413D01*
X139085184Y-110582035D01*
X139085187Y-110582036D01*
X139200371Y-110612899D01*
X139200372Y-110612900D01*
X139200375Y-110612900D01*
X139319628Y-110612900D01*
X139319628Y-110612899D01*
X139434813Y-110582036D01*
X139538087Y-110522410D01*
X139543452Y-110517044D01*
X139578097Y-110502692D01*
X139612746Y-110517041D01*
X139627100Y-110551689D01*
X139627100Y-110635053D01*
X139635972Y-110679659D01*
X139669765Y-110730235D01*
X139695054Y-110747132D01*
X139720342Y-110764029D01*
X139764943Y-110772901D01*
X140595056Y-110772900D01*
X140639658Y-110764029D01*
X140690234Y-110730235D01*
X140724028Y-110679659D01*
X140732900Y-110635058D01*
X140732899Y-109804945D01*
X140724028Y-109760343D01*
X140709074Y-109737963D01*
X140690234Y-109709766D01*
X140652386Y-109684478D01*
X140639658Y-109675973D01*
X140639657Y-109675972D01*
X140639656Y-109675972D01*
X140595058Y-109667101D01*
X139764946Y-109667101D01*
X139720341Y-109675973D01*
X139669765Y-109709766D01*
X139635971Y-109760344D01*
X139631435Y-109783145D01*
X139610598Y-109814327D01*
X139573816Y-109821642D01*
X139548729Y-109808232D01*
X139538090Y-109797593D01*
X139538087Y-109797590D01*
X139538083Y-109797588D01*
X139538081Y-109797586D01*
X139434815Y-109737964D01*
X139434812Y-109737963D01*
X139319628Y-109707100D01*
X139319625Y-109707100D01*
X139200375Y-109707100D01*
X139200372Y-109707100D01*
X139085187Y-109737963D01*
X139085184Y-109737964D01*
X138981918Y-109797586D01*
X138981909Y-109797593D01*
X138897593Y-109881909D01*
X138897586Y-109881918D01*
X138837964Y-109985184D01*
X138837963Y-109985187D01*
X138807100Y-110100371D01*
X138375500Y-110100371D01*
X138375500Y-103354918D01*
X138389852Y-103320270D01*
X138424500Y-103305918D01*
X138449000Y-103312483D01*
X138500185Y-103342035D01*
X138500187Y-103342036D01*
X138615371Y-103372899D01*
X138615372Y-103372900D01*
X138615375Y-103372900D01*
X138734628Y-103372900D01*
X138734628Y-103372899D01*
X138849813Y-103342036D01*
X138953087Y-103282410D01*
X139037410Y-103198087D01*
X139097036Y-103094813D01*
X139127899Y-102979628D01*
X139127900Y-102979628D01*
X139127900Y-102867158D01*
X139142252Y-102832510D01*
X139176900Y-102818158D01*
X139204121Y-102826415D01*
X139289947Y-102883762D01*
X139472463Y-102959362D01*
X139472469Y-102959363D01*
X139472472Y-102959364D01*
X139666215Y-102997902D01*
X139666218Y-102997902D01*
X139666221Y-102997903D01*
X139666222Y-102997903D01*
X139863774Y-102997903D01*
X139863775Y-102997903D01*
X140057533Y-102959362D01*
X140240049Y-102883762D01*
X140260390Y-102870169D01*
X140297170Y-102862852D01*
X140322261Y-102876263D01*
X140656548Y-103210550D01*
X140670900Y-103245198D01*
X140670900Y-103924073D01*
X140656548Y-103958721D01*
X140621900Y-103973073D01*
X140587252Y-103958721D01*
X140581158Y-103951296D01*
X140544003Y-103895689D01*
X140404310Y-103755996D01*
X140336026Y-103710371D01*
X140240050Y-103646242D01*
X140240047Y-103646240D01*
X140240046Y-103646240D01*
X140057535Y-103570642D01*
X140057524Y-103570639D01*
X139863781Y-103532101D01*
X139863776Y-103532101D01*
X139666222Y-103532101D01*
X139666216Y-103532101D01*
X139472473Y-103570639D01*
X139472462Y-103570642D01*
X139289951Y-103646240D01*
X139125687Y-103755996D01*
X138985994Y-103895689D01*
X138876238Y-104059953D01*
X138800640Y-104242464D01*
X138800637Y-104242475D01*
X138762099Y-104436218D01*
X138762099Y-104633783D01*
X138800637Y-104827526D01*
X138800640Y-104827537D01*
X138873174Y-105002651D01*
X138876240Y-105010052D01*
X138934341Y-105097007D01*
X138985991Y-105174308D01*
X138985995Y-105174313D01*
X139125687Y-105314005D01*
X139289948Y-105423760D01*
X139472464Y-105499360D01*
X139472470Y-105499361D01*
X139472473Y-105499362D01*
X139666216Y-105537900D01*
X139666219Y-105537900D01*
X139666222Y-105537901D01*
X139666223Y-105537901D01*
X139863775Y-105537901D01*
X139863776Y-105537901D01*
X140057534Y-105499360D01*
X140240050Y-105423760D01*
X140404311Y-105314005D01*
X140544003Y-105174313D01*
X140581158Y-105118705D01*
X140612340Y-105097870D01*
X140649122Y-105105186D01*
X140669958Y-105136368D01*
X140670900Y-105145928D01*
X140670900Y-106464076D01*
X140656548Y-106498724D01*
X140621900Y-106513076D01*
X140587252Y-106498724D01*
X140581158Y-106491299D01*
X140544000Y-106435688D01*
X140404307Y-106295995D01*
X140338684Y-106252148D01*
X140240047Y-106186241D01*
X140240044Y-106186239D01*
X140240043Y-106186239D01*
X140057532Y-106110641D01*
X140057521Y-106110638D01*
X139863778Y-106072100D01*
X139863773Y-106072100D01*
X139666219Y-106072100D01*
X139666213Y-106072100D01*
X139472470Y-106110638D01*
X139472459Y-106110641D01*
X139289948Y-106186239D01*
X139125684Y-106295995D01*
X138985991Y-106435688D01*
X138876235Y-106599952D01*
X138800637Y-106782463D01*
X138800634Y-106782474D01*
X138762096Y-106976217D01*
X138762096Y-107173782D01*
X138800634Y-107367525D01*
X138800637Y-107367536D01*
X138865029Y-107522993D01*
X138876237Y-107550051D01*
X138985992Y-107714312D01*
X139125684Y-107854004D01*
X139289945Y-107963759D01*
X139472461Y-108039359D01*
X139472467Y-108039360D01*
X139472470Y-108039361D01*
X139666213Y-108077899D01*
X139666216Y-108077899D01*
X139666219Y-108077900D01*
X139666220Y-108077900D01*
X139863772Y-108077900D01*
X139863773Y-108077900D01*
X140057531Y-108039359D01*
X140240047Y-107963759D01*
X140404308Y-107854004D01*
X140544000Y-107714312D01*
X140581158Y-107658699D01*
X140612340Y-107637865D01*
X140649123Y-107645181D01*
X140669958Y-107676363D01*
X140670900Y-107685923D01*
X140670900Y-109385572D01*
X140681115Y-109410234D01*
X140705778Y-109469776D01*
X140705779Y-109469778D01*
X141212748Y-109976746D01*
X141227100Y-110011394D01*
X141227100Y-110635054D01*
X141235972Y-110679659D01*
X141269765Y-110730235D01*
X141295054Y-110747132D01*
X141320342Y-110764029D01*
X141364943Y-110772901D01*
X142195056Y-110772900D01*
X142239658Y-110764029D01*
X142290234Y-110730235D01*
X142324028Y-110679659D01*
X142332900Y-110635058D01*
X142332899Y-109804945D01*
X142324028Y-109760343D01*
X142309074Y-109737963D01*
X142290234Y-109709766D01*
X142252386Y-109684478D01*
X142239658Y-109675973D01*
X142239657Y-109675972D01*
X142239656Y-109675972D01*
X142195060Y-109667101D01*
X142195057Y-109667101D01*
X141571393Y-109667101D01*
X141536745Y-109652749D01*
X141143452Y-109259456D01*
X141129100Y-109224808D01*
X141129100Y-109134939D01*
X145037100Y-109134939D01*
X145037100Y-110865053D01*
X145045972Y-110909658D01*
X145079765Y-110960234D01*
X145105054Y-110977131D01*
X145130342Y-110994028D01*
X145174943Y-111002900D01*
X146905056Y-111002899D01*
X146949658Y-110994028D01*
X147000234Y-110960234D01*
X147034028Y-110909658D01*
X147042900Y-110865057D01*
X147042899Y-109134944D01*
X147034028Y-109090342D01*
X147006147Y-109048615D01*
X147000234Y-109039765D01*
X146952491Y-109007865D01*
X146949658Y-109005972D01*
X146949657Y-109005971D01*
X146949656Y-109005971D01*
X146905060Y-108997100D01*
X146905057Y-108997100D01*
X146331900Y-108997100D01*
X146297252Y-108982748D01*
X146282900Y-108948100D01*
X146282900Y-107851093D01*
X146297252Y-107816445D01*
X146324834Y-107802605D01*
X146357088Y-107797906D01*
X146462898Y-107746179D01*
X146546179Y-107662898D01*
X146597906Y-107557088D01*
X146607900Y-107488494D01*
X146607900Y-107021506D01*
X146607258Y-107017102D01*
X146604987Y-107001516D01*
X146597906Y-106952912D01*
X146546179Y-106847102D01*
X146462898Y-106763821D01*
X146409993Y-106737957D01*
X146357091Y-106712095D01*
X146357089Y-106712094D01*
X146288496Y-106702100D01*
X146288494Y-106702100D01*
X145671506Y-106702100D01*
X145671504Y-106702100D01*
X145602910Y-106712094D01*
X145602908Y-106712095D01*
X145497104Y-106763820D01*
X145497100Y-106763822D01*
X145413822Y-106847100D01*
X145413820Y-106847104D01*
X145362095Y-106952908D01*
X145362094Y-106952910D01*
X145352742Y-107017102D01*
X145352100Y-107021506D01*
X145352100Y-107488494D01*
X145362094Y-107557088D01*
X145413821Y-107662898D01*
X145497102Y-107746179D01*
X145602912Y-107797906D01*
X145635165Y-107802605D01*
X145667382Y-107821802D01*
X145677100Y-107851093D01*
X145677100Y-108948100D01*
X145662748Y-108982748D01*
X145628100Y-108997100D01*
X145174946Y-108997100D01*
X145130341Y-109005972D01*
X145079765Y-109039765D01*
X145045971Y-109090343D01*
X145037100Y-109134939D01*
X141129100Y-109134939D01*
X141129100Y-106209940D01*
X141302099Y-106209940D01*
X141302099Y-107940054D01*
X141310971Y-107984659D01*
X141344764Y-108035235D01*
X141370053Y-108052132D01*
X141395341Y-108069029D01*
X141439942Y-108077901D01*
X143170055Y-108077900D01*
X143214657Y-108069029D01*
X143265233Y-108035235D01*
X143299027Y-107984659D01*
X143307899Y-107940058D01*
X143307898Y-106209945D01*
X143299027Y-106165343D01*
X143273268Y-106126792D01*
X143265233Y-106114766D01*
X143227385Y-106089478D01*
X143214657Y-106080973D01*
X143214656Y-106080972D01*
X143214655Y-106080972D01*
X143170057Y-106072101D01*
X141439945Y-106072101D01*
X141395340Y-106080973D01*
X141344764Y-106114766D01*
X141310970Y-106165344D01*
X141302099Y-106209940D01*
X141129100Y-106209940D01*
X141129100Y-104764961D01*
X141143452Y-104730313D01*
X141178100Y-104715961D01*
X141212748Y-104730313D01*
X141226497Y-104757296D01*
X141232085Y-104792579D01*
X141232086Y-104792582D01*
X141285589Y-104957249D01*
X141364197Y-105111525D01*
X141364199Y-105111528D01*
X141465968Y-105251601D01*
X141465972Y-105251606D01*
X141588392Y-105374026D01*
X141588396Y-105374029D01*
X141728469Y-105475798D01*
X141728472Y-105475800D01*
X141882748Y-105554408D01*
X142047416Y-105607912D01*
X142055000Y-105609113D01*
X142055000Y-104968010D01*
X142112007Y-105000923D01*
X142239174Y-105034998D01*
X142370826Y-105034998D01*
X142497993Y-105000923D01*
X142555000Y-104968010D01*
X142555000Y-105609112D01*
X142562583Y-105607912D01*
X142727251Y-105554408D01*
X142881527Y-105475800D01*
X142881530Y-105475798D01*
X143021603Y-105374029D01*
X143021608Y-105374026D01*
X143144028Y-105251606D01*
X143144031Y-105251601D01*
X143245800Y-105111528D01*
X143245802Y-105111525D01*
X143324410Y-104957249D01*
X143377914Y-104792581D01*
X143379115Y-104784998D01*
X142738012Y-104784998D01*
X142770925Y-104727991D01*
X142805000Y-104600824D01*
X142805000Y-104469172D01*
X142770925Y-104342005D01*
X142738012Y-104284998D01*
X143379115Y-104284998D01*
X143377914Y-104277414D01*
X143324410Y-104112746D01*
X143245802Y-103958470D01*
X143245800Y-103958467D01*
X143144031Y-103818394D01*
X143144028Y-103818390D01*
X143021608Y-103695970D01*
X143021603Y-103695966D01*
X142881530Y-103594197D01*
X142881527Y-103594195D01*
X142727251Y-103515587D01*
X142562580Y-103462083D01*
X142562577Y-103462082D01*
X142555000Y-103460881D01*
X142555000Y-104101986D01*
X142497993Y-104069073D01*
X142370826Y-104034998D01*
X142239174Y-104034998D01*
X142112007Y-104069073D01*
X142055000Y-104101986D01*
X142055000Y-103460882D01*
X142054999Y-103460881D01*
X142047422Y-103462082D01*
X142047419Y-103462083D01*
X141882748Y-103515587D01*
X141728472Y-103594195D01*
X141728469Y-103594197D01*
X141588396Y-103695966D01*
X141465968Y-103818394D01*
X141364199Y-103958467D01*
X141364197Y-103958470D01*
X141285589Y-104112746D01*
X141232086Y-104277413D01*
X141232085Y-104277416D01*
X141226497Y-104312699D01*
X141206901Y-104344676D01*
X141170435Y-104353431D01*
X141138458Y-104333835D01*
X141129100Y-104305034D01*
X141129100Y-103084436D01*
X141129099Y-103084432D01*
X141122754Y-103069115D01*
X141106140Y-103029004D01*
X141094222Y-103000230D01*
X141094220Y-103000228D01*
X141094219Y-103000226D01*
X140646258Y-102552266D01*
X140631906Y-102517618D01*
X140640163Y-102490396D01*
X140653757Y-102470054D01*
X140729357Y-102287538D01*
X140767898Y-102093780D01*
X140767898Y-101896226D01*
X140767897Y-101896220D01*
X140742633Y-101769207D01*
X140737818Y-101745001D01*
X141230884Y-101745001D01*
X141871987Y-101745001D01*
X141839074Y-101802008D01*
X141804999Y-101929175D01*
X141804999Y-102060827D01*
X141839074Y-102187994D01*
X141871987Y-102245001D01*
X141230884Y-102245001D01*
X141232084Y-102252584D01*
X141285588Y-102417252D01*
X141364196Y-102571528D01*
X141364198Y-102571531D01*
X141465967Y-102711604D01*
X141465971Y-102711609D01*
X141588391Y-102834029D01*
X141588395Y-102834032D01*
X141728468Y-102935801D01*
X141728471Y-102935803D01*
X141882747Y-103014411D01*
X142047415Y-103067915D01*
X142054999Y-103069116D01*
X142054999Y-102428013D01*
X142112006Y-102460926D01*
X142239173Y-102495001D01*
X142370825Y-102495001D01*
X142497992Y-102460926D01*
X142554999Y-102428013D01*
X142554999Y-103069115D01*
X142562582Y-103067915D01*
X142727250Y-103014411D01*
X142881526Y-102935803D01*
X142881529Y-102935801D01*
X143021602Y-102834032D01*
X143021607Y-102834029D01*
X143144027Y-102711609D01*
X143144030Y-102711604D01*
X143245799Y-102571531D01*
X143245801Y-102571528D01*
X143324409Y-102417252D01*
X143377913Y-102252584D01*
X143379114Y-102245001D01*
X142738011Y-102245001D01*
X142770924Y-102187994D01*
X142804999Y-102060827D01*
X142804999Y-101929175D01*
X142770924Y-101802008D01*
X142738011Y-101745001D01*
X143379114Y-101745001D01*
X143377913Y-101737417D01*
X143324409Y-101572749D01*
X143245801Y-101418473D01*
X143245799Y-101418470D01*
X143144030Y-101278397D01*
X143144027Y-101278393D01*
X143021607Y-101155973D01*
X143021602Y-101155969D01*
X142881529Y-101054200D01*
X142881526Y-101054198D01*
X142727250Y-100975590D01*
X142562579Y-100922086D01*
X142562576Y-100922085D01*
X142554999Y-100920884D01*
X142554999Y-101561989D01*
X142497992Y-101529076D01*
X142370825Y-101495001D01*
X142239173Y-101495001D01*
X142112006Y-101529076D01*
X142054999Y-101561989D01*
X142054999Y-100920885D01*
X142054998Y-100920884D01*
X142047421Y-100922085D01*
X142047418Y-100922086D01*
X141882747Y-100975590D01*
X141728471Y-101054198D01*
X141728468Y-101054200D01*
X141588395Y-101155969D01*
X141465967Y-101278397D01*
X141364198Y-101418470D01*
X141364196Y-101418473D01*
X141285588Y-101572749D01*
X141232084Y-101737417D01*
X141230884Y-101745001D01*
X140737818Y-101745001D01*
X140729358Y-101702475D01*
X140729357Y-101702468D01*
X140653757Y-101519952D01*
X140544002Y-101355691D01*
X140404310Y-101215999D01*
X140240049Y-101106244D01*
X140240046Y-101106242D01*
X140240045Y-101106242D01*
X140057534Y-101030644D01*
X140057523Y-101030641D01*
X139863780Y-100992103D01*
X139863775Y-100992103D01*
X139666221Y-100992103D01*
X139666215Y-100992103D01*
X139472472Y-101030641D01*
X139472461Y-101030644D01*
X139289950Y-101106242D01*
X139125686Y-101215998D01*
X138987748Y-101353937D01*
X138953100Y-101368289D01*
X138918452Y-101353937D01*
X138904100Y-101319289D01*
X138904100Y-100130714D01*
X138918452Y-100096066D01*
X138953100Y-100081714D01*
X138987748Y-100096066D01*
X139125687Y-100234005D01*
X139289948Y-100343760D01*
X139472464Y-100419360D01*
X139472470Y-100419361D01*
X139472473Y-100419362D01*
X139666216Y-100457900D01*
X139666219Y-100457900D01*
X139666222Y-100457901D01*
X139666223Y-100457901D01*
X139863775Y-100457901D01*
X139863776Y-100457901D01*
X140057534Y-100419360D01*
X140240050Y-100343760D01*
X140404311Y-100234005D01*
X140544003Y-100094313D01*
X140653758Y-99930052D01*
X140729358Y-99747536D01*
X140767899Y-99553778D01*
X140767899Y-99356224D01*
X140767898Y-99356218D01*
X141302099Y-99356218D01*
X141302099Y-99553783D01*
X141340637Y-99747526D01*
X141340640Y-99747537D01*
X141401697Y-99894943D01*
X141416240Y-99930052D01*
X141464672Y-100002536D01*
X141517576Y-100081714D01*
X141525995Y-100094313D01*
X141665687Y-100234005D01*
X141829948Y-100343760D01*
X142012464Y-100419360D01*
X142012470Y-100419361D01*
X142012473Y-100419362D01*
X142206216Y-100457900D01*
X142206219Y-100457900D01*
X142206222Y-100457901D01*
X142206223Y-100457901D01*
X142403775Y-100457901D01*
X142403776Y-100457901D01*
X142597534Y-100419360D01*
X142780050Y-100343760D01*
X142944311Y-100234005D01*
X143084003Y-100094313D01*
X143193758Y-99930052D01*
X143269358Y-99747536D01*
X143307899Y-99553778D01*
X143307899Y-99356224D01*
X143278813Y-99210000D01*
X143269360Y-99162475D01*
X143269357Y-99162464D01*
X143193759Y-98979953D01*
X143193758Y-98979950D01*
X143084003Y-98815689D01*
X142944311Y-98675997D01*
X142780050Y-98566242D01*
X142780047Y-98566240D01*
X142780046Y-98566240D01*
X142597535Y-98490642D01*
X142597524Y-98490639D01*
X142403781Y-98452101D01*
X142403776Y-98452101D01*
X142206222Y-98452101D01*
X142206216Y-98452101D01*
X142012473Y-98490639D01*
X142012462Y-98490642D01*
X141829951Y-98566240D01*
X141665687Y-98675996D01*
X141525994Y-98815689D01*
X141416238Y-98979953D01*
X141340640Y-99162464D01*
X141340637Y-99162475D01*
X141302099Y-99356218D01*
X140767898Y-99356218D01*
X140738813Y-99210000D01*
X140729360Y-99162475D01*
X140729357Y-99162464D01*
X140653759Y-98979953D01*
X140653758Y-98979950D01*
X140544003Y-98815689D01*
X140404311Y-98675997D01*
X140240050Y-98566242D01*
X140240047Y-98566240D01*
X140240046Y-98566240D01*
X140057535Y-98490642D01*
X140057524Y-98490639D01*
X139863781Y-98452101D01*
X139863776Y-98452101D01*
X139666222Y-98452101D01*
X139666216Y-98452101D01*
X139472473Y-98490639D01*
X139472462Y-98490642D01*
X139289951Y-98566240D01*
X139125687Y-98675996D01*
X138987748Y-98813936D01*
X138953100Y-98828288D01*
X138918452Y-98813936D01*
X138904100Y-98779288D01*
X138904100Y-98120191D01*
X138918451Y-98085544D01*
X139207735Y-97796259D01*
X139242382Y-97781908D01*
X139269600Y-97790164D01*
X139289948Y-97803760D01*
X139472464Y-97879360D01*
X139472470Y-97879361D01*
X139472473Y-97879362D01*
X139666216Y-97917900D01*
X139666219Y-97917900D01*
X139666222Y-97917901D01*
X139666223Y-97917901D01*
X139863775Y-97917901D01*
X139863776Y-97917901D01*
X140057534Y-97879360D01*
X140240050Y-97803760D01*
X140404311Y-97694005D01*
X140544003Y-97554313D01*
X140653758Y-97390052D01*
X140729358Y-97207536D01*
X140737819Y-97165002D01*
X140742634Y-97140796D01*
X140767898Y-97013783D01*
X140767899Y-97013776D01*
X140767899Y-96816225D01*
X140767898Y-96816220D01*
X140742634Y-96689209D01*
X140737819Y-96665002D01*
X141230886Y-96665002D01*
X141871989Y-96665002D01*
X141839076Y-96722009D01*
X141805001Y-96849176D01*
X141805001Y-96980828D01*
X141839076Y-97107995D01*
X141871989Y-97165002D01*
X141230886Y-97165002D01*
X141232086Y-97172585D01*
X141285590Y-97337253D01*
X141364198Y-97491529D01*
X141364200Y-97491532D01*
X141465969Y-97631605D01*
X141465973Y-97631610D01*
X141588393Y-97754030D01*
X141588397Y-97754033D01*
X141728470Y-97855802D01*
X141728473Y-97855804D01*
X141882749Y-97934412D01*
X142047417Y-97987916D01*
X142055001Y-97989117D01*
X142055001Y-97348014D01*
X142112008Y-97380927D01*
X142239175Y-97415002D01*
X142370827Y-97415002D01*
X142497994Y-97380927D01*
X142555001Y-97348014D01*
X142555001Y-97989116D01*
X142562584Y-97987916D01*
X142727252Y-97934412D01*
X142881528Y-97855804D01*
X142881531Y-97855802D01*
X143021604Y-97754033D01*
X143021609Y-97754030D01*
X143144029Y-97631610D01*
X143144032Y-97631605D01*
X143245801Y-97491532D01*
X143245803Y-97491529D01*
X143324411Y-97337253D01*
X143377915Y-97172585D01*
X143379116Y-97165002D01*
X142738013Y-97165002D01*
X142770926Y-97107995D01*
X142805001Y-96980828D01*
X142805001Y-96849176D01*
X142770926Y-96722009D01*
X142738013Y-96665002D01*
X143379116Y-96665002D01*
X143377915Y-96657418D01*
X143324411Y-96492750D01*
X143245804Y-96338476D01*
X143209275Y-96288198D01*
X143209274Y-96288196D01*
X143188788Y-96260000D01*
X144397100Y-96260000D01*
X144397100Y-96300000D01*
X144398283Y-96319292D01*
X144399925Y-96332631D01*
X144399926Y-96332639D01*
X144399928Y-96332651D01*
X144403456Y-96351634D01*
X144403457Y-96351641D01*
X144405637Y-96360359D01*
X144406800Y-96366832D01*
X144407100Y-96369532D01*
X144407100Y-96390000D01*
X144408283Y-96409292D01*
X144409925Y-96422631D01*
X144413456Y-96441635D01*
X144416435Y-96453554D01*
X144416800Y-96456832D01*
X144416543Y-96457718D01*
X144417100Y-96462243D01*
X144417100Y-96479998D01*
X144421323Y-96516273D01*
X144421325Y-96516281D01*
X144427130Y-96540873D01*
X144427132Y-96540878D01*
X144439577Y-96575212D01*
X144445918Y-96587896D01*
X144446718Y-96589495D01*
X144450426Y-96599519D01*
X144463461Y-96651655D01*
X144466405Y-96661930D01*
X144468694Y-96669009D01*
X144472329Y-96679073D01*
X144484428Y-96709319D01*
X144492328Y-96729069D01*
X144494891Y-96735109D01*
X144496764Y-96739280D01*
X144499577Y-96745212D01*
X144499593Y-96745244D01*
X144559577Y-96865213D01*
X144564221Y-96873823D01*
X144567668Y-96879763D01*
X144572849Y-96888086D01*
X144592875Y-96918125D01*
X144594164Y-96920000D01*
X144595351Y-96921728D01*
X144597114Y-96924219D01*
X144597122Y-96924230D01*
X144599670Y-96927728D01*
X144625317Y-96961923D01*
X144626887Y-96964143D01*
X144638011Y-96980828D01*
X144642856Y-96988096D01*
X144645351Y-96991728D01*
X144647114Y-96994219D01*
X144647122Y-96994230D01*
X144649670Y-96997727D01*
X144649680Y-96997740D01*
X144679680Y-97037740D01*
X144686711Y-97046454D01*
X144691820Y-97052345D01*
X144696531Y-97057403D01*
X144699465Y-97060552D01*
X144729447Y-97090534D01*
X144729457Y-97090543D01*
X144737655Y-97098180D01*
X144743546Y-97103289D01*
X144752260Y-97110320D01*
X144777371Y-97129153D01*
X144782612Y-97133698D01*
X144829457Y-97180543D01*
X144837655Y-97188180D01*
X144843546Y-97193289D01*
X144852260Y-97200320D01*
X144861883Y-97207537D01*
X144892255Y-97230317D01*
X144899304Y-97235124D01*
X144903991Y-97238320D01*
X144912394Y-97243513D01*
X144912409Y-97243522D01*
X144923670Y-97249799D01*
X144924788Y-97250423D01*
X144924816Y-97250437D01*
X144966774Y-97271416D01*
X144978101Y-97279580D01*
X144978211Y-97279455D01*
X144979454Y-97280540D01*
X144979457Y-97280543D01*
X144994650Y-97292100D01*
X145013308Y-97306293D01*
X145013311Y-97306294D01*
X145013313Y-97306296D01*
X145026089Y-97313529D01*
X145038866Y-97320764D01*
X145055783Y-97327521D01*
X145078367Y-97336544D01*
X145101135Y-97342235D01*
X145107425Y-97344269D01*
X145130818Y-97353626D01*
X145134524Y-97355291D01*
X145164794Y-97370426D01*
X145164796Y-97370426D01*
X145180616Y-97377283D01*
X145191874Y-97381448D01*
X145208365Y-97386544D01*
X145288365Y-97406544D01*
X145292024Y-97407412D01*
X145292066Y-97407421D01*
X145292081Y-97407425D01*
X145294576Y-97407986D01*
X145298184Y-97408753D01*
X145298215Y-97408759D01*
X145298247Y-97408766D01*
X145342157Y-97417548D01*
X145344401Y-97418053D01*
X145378365Y-97426544D01*
X145397369Y-97430075D01*
X145410708Y-97431717D01*
X145430000Y-97432900D01*
X145444067Y-97432900D01*
X145453677Y-97433852D01*
X145478245Y-97438766D01*
X145488127Y-97440239D01*
X145493655Y-97441064D01*
X145504441Y-97442132D01*
X145520000Y-97442900D01*
X145628100Y-97442900D01*
X145662748Y-97457252D01*
X145677100Y-97491900D01*
X145677100Y-100612107D01*
X145662748Y-100646755D01*
X145617593Y-100691909D01*
X145617586Y-100691918D01*
X145557964Y-100795184D01*
X145557963Y-100795187D01*
X145527100Y-100910371D01*
X145527100Y-101029628D01*
X145557963Y-101144812D01*
X145557964Y-101144815D01*
X145617586Y-101248081D01*
X145617588Y-101248083D01*
X145617590Y-101248087D01*
X145617593Y-101248090D01*
X145662748Y-101293245D01*
X145677100Y-101327893D01*
X145677100Y-105008906D01*
X145662748Y-105043554D01*
X145635166Y-105057394D01*
X145602910Y-105062094D01*
X145602908Y-105062095D01*
X145497104Y-105113820D01*
X145497100Y-105113822D01*
X145413822Y-105197100D01*
X145413820Y-105197104D01*
X145362095Y-105302908D01*
X145362094Y-105302910D01*
X145352100Y-105371504D01*
X145352100Y-105838495D01*
X145362094Y-105907089D01*
X145362095Y-105907091D01*
X145387957Y-105959993D01*
X145413821Y-106012898D01*
X145497102Y-106096179D01*
X145602912Y-106147906D01*
X145651516Y-106154987D01*
X145671504Y-106157900D01*
X145671506Y-106157900D01*
X146288496Y-106157900D01*
X146305941Y-106155357D01*
X146357088Y-106147906D01*
X146462898Y-106096179D01*
X146546179Y-106012898D01*
X146597906Y-105907088D01*
X146607900Y-105838494D01*
X146607900Y-105371506D01*
X146607258Y-105367102D01*
X146604881Y-105350784D01*
X146597906Y-105302912D01*
X146546179Y-105197102D01*
X146462898Y-105113821D01*
X146387653Y-105077036D01*
X146357091Y-105062095D01*
X146357089Y-105062094D01*
X146324834Y-105057394D01*
X146292617Y-105038195D01*
X146282900Y-105008906D01*
X146282900Y-102040371D01*
X146827100Y-102040371D01*
X146827100Y-102159628D01*
X146857963Y-102274812D01*
X146857964Y-102274815D01*
X146917586Y-102378081D01*
X146917588Y-102378083D01*
X146917590Y-102378087D01*
X147001913Y-102462410D01*
X147026400Y-102476548D01*
X147049230Y-102506299D01*
X147050900Y-102518982D01*
X147050900Y-108138307D01*
X147036548Y-108172955D01*
X146997593Y-108211909D01*
X146997586Y-108211918D01*
X146937964Y-108315184D01*
X146937963Y-108315187D01*
X146907100Y-108430371D01*
X146907100Y-108549628D01*
X146937963Y-108664812D01*
X146937964Y-108664815D01*
X146997586Y-108768081D01*
X146997588Y-108768083D01*
X146997590Y-108768087D01*
X147081913Y-108852410D01*
X147081917Y-108852412D01*
X147081918Y-108852413D01*
X147185184Y-108912035D01*
X147185187Y-108912036D01*
X147300371Y-108942899D01*
X147300372Y-108942900D01*
X147300375Y-108942900D01*
X147419628Y-108942900D01*
X147419628Y-108942899D01*
X147534813Y-108912036D01*
X147538747Y-108909765D01*
X147597277Y-108875972D01*
X147638087Y-108852410D01*
X147722410Y-108768087D01*
X147782036Y-108664813D01*
X147812899Y-108549628D01*
X147812900Y-108549628D01*
X147812900Y-108430372D01*
X147812899Y-108430371D01*
X147782036Y-108315187D01*
X147782035Y-108315184D01*
X147722413Y-108211918D01*
X147722412Y-108211917D01*
X147722410Y-108211913D01*
X147638087Y-108127590D01*
X147638083Y-108127588D01*
X147638081Y-108127586D01*
X147533600Y-108067263D01*
X147510770Y-108037510D01*
X147509100Y-108024828D01*
X147509100Y-105859191D01*
X147755001Y-105859191D01*
X147755002Y-105859215D01*
X147757850Y-105889602D01*
X147757851Y-105889608D01*
X147802651Y-106017640D01*
X147802655Y-106017648D01*
X147883207Y-106126792D01*
X147992351Y-106207344D01*
X147992359Y-106207348D01*
X148120395Y-106252149D01*
X148150785Y-106254999D01*
X148229999Y-106254999D01*
X148730000Y-106254999D01*
X148809191Y-106254999D01*
X148809215Y-106254997D01*
X148839602Y-106252149D01*
X148839608Y-106252148D01*
X148967640Y-106207348D01*
X148967648Y-106207344D01*
X149076792Y-106126792D01*
X149157344Y-106017648D01*
X149157348Y-106017640D01*
X149202149Y-105889605D01*
X149202149Y-105889603D01*
X149204998Y-105859214D01*
X149205000Y-105859193D01*
X149205000Y-105855000D01*
X148730000Y-105855000D01*
X148730000Y-106254999D01*
X148229999Y-106254999D01*
X148230000Y-106254998D01*
X148230000Y-105855000D01*
X147755001Y-105855000D01*
X147755001Y-105859191D01*
X147509100Y-105859191D01*
X147509100Y-105350806D01*
X147755000Y-105350806D01*
X147755000Y-105355000D01*
X149204999Y-105355000D01*
X149204999Y-105350808D01*
X149204997Y-105350784D01*
X149202149Y-105320397D01*
X149202148Y-105320391D01*
X149157348Y-105192359D01*
X149157344Y-105192351D01*
X149076792Y-105083207D01*
X149045217Y-105059904D01*
X149025861Y-105027782D01*
X149034889Y-104991382D01*
X149039666Y-104985831D01*
X149056830Y-104968667D01*
X149092410Y-104933087D01*
X149152036Y-104829813D01*
X149182899Y-104714628D01*
X149182900Y-104714628D01*
X149182900Y-104595374D01*
X149178751Y-104579893D01*
X149182207Y-104545391D01*
X149185770Y-104538225D01*
X149194221Y-104529775D01*
X149214761Y-104480187D01*
X149229100Y-104445571D01*
X149229100Y-101518982D01*
X149243452Y-101484334D01*
X149253594Y-101476550D01*
X149278087Y-101462410D01*
X149362410Y-101378087D01*
X149422036Y-101274813D01*
X149452899Y-101159628D01*
X149452900Y-101159628D01*
X149452900Y-101040372D01*
X149452899Y-101040371D01*
X149422036Y-100925187D01*
X149422035Y-100925184D01*
X149362413Y-100821918D01*
X149362412Y-100821917D01*
X149362410Y-100821913D01*
X149278087Y-100737590D01*
X149278083Y-100737588D01*
X149278081Y-100737586D01*
X149174815Y-100677964D01*
X149174812Y-100677963D01*
X149059628Y-100647100D01*
X149059625Y-100647100D01*
X148940375Y-100647100D01*
X148940372Y-100647100D01*
X148825187Y-100677963D01*
X148825184Y-100677964D01*
X148721918Y-100737586D01*
X148721909Y-100737593D01*
X148637593Y-100821909D01*
X148637586Y-100821918D01*
X148577964Y-100925184D01*
X148577963Y-100925187D01*
X148547100Y-101040371D01*
X148547100Y-101159628D01*
X148577963Y-101274812D01*
X148577964Y-101274815D01*
X148637586Y-101378081D01*
X148637588Y-101378083D01*
X148637590Y-101378087D01*
X148721913Y-101462410D01*
X148746400Y-101476548D01*
X148769230Y-101506299D01*
X148770900Y-101518982D01*
X148770900Y-104153100D01*
X148756548Y-104187748D01*
X148721900Y-104202100D01*
X148670372Y-104202100D01*
X148555187Y-104232963D01*
X148555184Y-104232964D01*
X148451918Y-104292586D01*
X148451909Y-104292593D01*
X148367593Y-104376909D01*
X148367586Y-104376918D01*
X148307964Y-104480184D01*
X148307963Y-104480187D01*
X148277100Y-104595371D01*
X148277100Y-104714628D01*
X148307963Y-104829812D01*
X148307964Y-104829815D01*
X148337805Y-104881500D01*
X148342700Y-104918682D01*
X148319870Y-104948435D01*
X148295370Y-104955000D01*
X148150808Y-104955000D01*
X148150784Y-104955002D01*
X148120397Y-104957850D01*
X148120391Y-104957851D01*
X147992359Y-105002651D01*
X147992351Y-105002655D01*
X147883207Y-105083207D01*
X147802655Y-105192351D01*
X147802651Y-105192359D01*
X147757850Y-105320394D01*
X147757850Y-105320396D01*
X147755001Y-105350785D01*
X147755000Y-105350806D01*
X147509100Y-105350806D01*
X147509100Y-102518982D01*
X147523452Y-102484334D01*
X147533594Y-102476550D01*
X147558087Y-102462410D01*
X147642410Y-102378087D01*
X147702036Y-102274813D01*
X147732899Y-102159628D01*
X147732900Y-102159628D01*
X147732900Y-102040372D01*
X147732899Y-102040371D01*
X147702036Y-101925187D01*
X147702035Y-101925184D01*
X147642413Y-101821918D01*
X147642412Y-101821917D01*
X147642410Y-101821913D01*
X147558087Y-101737590D01*
X147558083Y-101737588D01*
X147558081Y-101737586D01*
X147454815Y-101677964D01*
X147454812Y-101677963D01*
X147339628Y-101647100D01*
X147339625Y-101647100D01*
X147220375Y-101647100D01*
X147220372Y-101647100D01*
X147105187Y-101677963D01*
X147105184Y-101677964D01*
X147001918Y-101737586D01*
X147001909Y-101737593D01*
X146917593Y-101821909D01*
X146917586Y-101821918D01*
X146857964Y-101925184D01*
X146857963Y-101925187D01*
X146827100Y-102040371D01*
X146282900Y-102040371D01*
X146282900Y-101327893D01*
X146297252Y-101293245D01*
X146315685Y-101274812D01*
X146342410Y-101248087D01*
X146387129Y-101170631D01*
X146402035Y-101144815D01*
X146402036Y-101144812D01*
X146430020Y-101040375D01*
X146432899Y-101029628D01*
X146432900Y-101029628D01*
X146432900Y-100910372D01*
X146432899Y-100910371D01*
X146402036Y-100795187D01*
X146402035Y-100795184D01*
X146342413Y-100691918D01*
X146342412Y-100691917D01*
X146342410Y-100691913D01*
X146297252Y-100646755D01*
X146282900Y-100612107D01*
X146282900Y-97491900D01*
X146297252Y-97457252D01*
X146331900Y-97442900D01*
X147459986Y-97442900D01*
X147460000Y-97442900D01*
X147475559Y-97442132D01*
X147486345Y-97441064D01*
X147496812Y-97439502D01*
X147501754Y-97438766D01*
X147526323Y-97433852D01*
X147535933Y-97432900D01*
X147549986Y-97432900D01*
X147550000Y-97432900D01*
X147565559Y-97432132D01*
X147576345Y-97431064D01*
X147591753Y-97428766D01*
X147641753Y-97418766D01*
X147641800Y-97418755D01*
X147641815Y-97418753D01*
X147645423Y-97417986D01*
X147647918Y-97417425D01*
X147647914Y-97417425D01*
X147647976Y-97417412D01*
X147651635Y-97416544D01*
X147651640Y-97416542D01*
X147651660Y-97416538D01*
X147711651Y-97401540D01*
X147771635Y-97386544D01*
X147781927Y-97383596D01*
X147789014Y-97381304D01*
X147799069Y-97377672D01*
X147849069Y-97357672D01*
X147855109Y-97355109D01*
X147859280Y-97353236D01*
X147865212Y-97350423D01*
X147879497Y-97343279D01*
X147889518Y-97339572D01*
X147901635Y-97336544D01*
X147931200Y-97325932D01*
X147950861Y-97316574D01*
X147977740Y-97300320D01*
X148011940Y-97274669D01*
X148014126Y-97273123D01*
X148024539Y-97266181D01*
X148029787Y-97263135D01*
X148055212Y-97250423D01*
X148067606Y-97243513D01*
X148076009Y-97238320D01*
X148087740Y-97230320D01*
X148127740Y-97200320D01*
X148136454Y-97193289D01*
X148142345Y-97188180D01*
X148150543Y-97180543D01*
X148167385Y-97163700D01*
X148172619Y-97159160D01*
X148197740Y-97140320D01*
X148206454Y-97133289D01*
X148212345Y-97128180D01*
X148220543Y-97120543D01*
X148280543Y-97060543D01*
X148288180Y-97052345D01*
X148293289Y-97046454D01*
X148300320Y-97037740D01*
X148330320Y-96997740D01*
X148332886Y-96994219D01*
X148334649Y-96991728D01*
X148337144Y-96988096D01*
X148353140Y-96964100D01*
X148354009Y-96962842D01*
X148354319Y-96962408D01*
X148380320Y-96927740D01*
X148382886Y-96924219D01*
X148384649Y-96921728D01*
X148387144Y-96918096D01*
X148403574Y-96893451D01*
X148404009Y-96892842D01*
X148404050Y-96892816D01*
X148404674Y-96891933D01*
X148430320Y-96857740D01*
X148438320Y-96846009D01*
X148438339Y-96845977D01*
X148438617Y-96845551D01*
X148438627Y-96845557D01*
X148438630Y-96845554D01*
X148438797Y-96845667D01*
X148438857Y-96845707D01*
X148468635Y-96824218D01*
X148479921Y-96822900D01*
X149989997Y-96822900D01*
X149990000Y-96822900D01*
X150050425Y-96810881D01*
X150089316Y-96794772D01*
X150125015Y-96774161D01*
X150174772Y-96709316D01*
X150174777Y-96709302D01*
X150175878Y-96707399D01*
X150205632Y-96684569D01*
X150218313Y-96682900D01*
X150793101Y-96682900D01*
X150827749Y-96697252D01*
X150842101Y-96731900D01*
X150842101Y-97100056D01*
X150844143Y-97110323D01*
X150850972Y-97144658D01*
X150884765Y-97195234D01*
X150910054Y-97212131D01*
X150935342Y-97229028D01*
X150979943Y-97237900D01*
X152360056Y-97237899D01*
X152404658Y-97229028D01*
X152455234Y-97195234D01*
X152489028Y-97144658D01*
X152497900Y-97100057D01*
X152497899Y-95659944D01*
X152489028Y-95615342D01*
X152475007Y-95594358D01*
X152455234Y-95564765D01*
X152417386Y-95539477D01*
X152404658Y-95530972D01*
X152404657Y-95530971D01*
X152404656Y-95530971D01*
X152360058Y-95522100D01*
X150979946Y-95522100D01*
X150935341Y-95530972D01*
X150884765Y-95564765D01*
X150850971Y-95615343D01*
X150842100Y-95659939D01*
X150842100Y-96028100D01*
X150827748Y-96062748D01*
X150793100Y-96077100D01*
X150251900Y-96077100D01*
X150217252Y-96062748D01*
X150202900Y-96028100D01*
X150202900Y-95950003D01*
X150202900Y-95950000D01*
X150190881Y-95889575D01*
X150174772Y-95850684D01*
X150169808Y-95842087D01*
X150154161Y-95814985D01*
X150089319Y-95765230D01*
X150089316Y-95765228D01*
X150050425Y-95749119D01*
X149990000Y-95737100D01*
X149989997Y-95737100D01*
X148479921Y-95737100D01*
X148476112Y-95735522D01*
X148472102Y-95736472D01*
X148461820Y-95729602D01*
X148445273Y-95722748D01*
X148440188Y-95716775D01*
X148439161Y-95715352D01*
X148438320Y-95713991D01*
X148430319Y-95702259D01*
X148414244Y-95680826D01*
X148413953Y-95680423D01*
X148413900Y-95680200D01*
X148409861Y-95673664D01*
X148400424Y-95654790D01*
X148395856Y-95647239D01*
X148387298Y-95633092D01*
X148387294Y-95633087D01*
X148387292Y-95633084D01*
X148387290Y-95633080D01*
X148376988Y-95618786D01*
X148360543Y-95599457D01*
X148360533Y-95599447D01*
X148359887Y-95598747D01*
X148359916Y-95598719D01*
X148359904Y-95598705D01*
X148359973Y-95598646D01*
X148351416Y-95586774D01*
X148350423Y-95584788D01*
X148337290Y-95563080D01*
X148326988Y-95548786D01*
X148310543Y-95529457D01*
X148293704Y-95512618D01*
X148289153Y-95507371D01*
X148270320Y-95482260D01*
X148263289Y-95473546D01*
X148258180Y-95467655D01*
X148250543Y-95459457D01*
X148250534Y-95459447D01*
X148220552Y-95429465D01*
X148217403Y-95426531D01*
X148212345Y-95421820D01*
X148206454Y-95416711D01*
X148197740Y-95409680D01*
X148161012Y-95382134D01*
X148157727Y-95379670D01*
X148154230Y-95377122D01*
X148154219Y-95377114D01*
X148151728Y-95375351D01*
X148148096Y-95372856D01*
X148148082Y-95372846D01*
X148124143Y-95356887D01*
X148121923Y-95355317D01*
X148047728Y-95299670D01*
X148044230Y-95297122D01*
X148044219Y-95297114D01*
X148041728Y-95295351D01*
X148040466Y-95294484D01*
X148038125Y-95292875D01*
X148008086Y-95272849D01*
X147999763Y-95267668D01*
X147999754Y-95267663D01*
X147999748Y-95267659D01*
X147996041Y-95265508D01*
X147993823Y-95264221D01*
X147985213Y-95259577D01*
X147865232Y-95199586D01*
X147865204Y-95199573D01*
X147845858Y-95191460D01*
X147845848Y-95191456D01*
X147832023Y-95186712D01*
X147811761Y-95181236D01*
X147811756Y-95181234D01*
X147811753Y-95181234D01*
X147811749Y-95181233D01*
X147811731Y-95181229D01*
X147767883Y-95172460D01*
X147765601Y-95171947D01*
X147759513Y-95170424D01*
X147749493Y-95166717D01*
X147735204Y-95159573D01*
X147719403Y-95152725D01*
X147719392Y-95152720D01*
X147719384Y-95152717D01*
X147719378Y-95152715D01*
X147719364Y-95152709D01*
X147708124Y-95148551D01*
X147691653Y-95143461D01*
X147691643Y-95143458D01*
X147691635Y-95143456D01*
X147651635Y-95133456D01*
X147647723Y-95132729D01*
X147632651Y-95129928D01*
X147632639Y-95129926D01*
X147632631Y-95129925D01*
X147621780Y-95128589D01*
X147619293Y-95128283D01*
X147600004Y-95127100D01*
X147600000Y-95127100D01*
X147582243Y-95127100D01*
X147570359Y-95125637D01*
X147561641Y-95123457D01*
X147561636Y-95123456D01*
X147561635Y-95123456D01*
X147557723Y-95122729D01*
X147542651Y-95119928D01*
X147542639Y-95119926D01*
X147542631Y-95119925D01*
X147531780Y-95118589D01*
X147529293Y-95118283D01*
X147510004Y-95117100D01*
X147510000Y-95117100D01*
X145470000Y-95117100D01*
X145469995Y-95117100D01*
X145450706Y-95118283D01*
X145445731Y-95118895D01*
X145437369Y-95119925D01*
X145437362Y-95119926D01*
X145437348Y-95119928D01*
X145418365Y-95123456D01*
X145418358Y-95123457D01*
X145409641Y-95125637D01*
X145397757Y-95127100D01*
X145390000Y-95127100D01*
X145382019Y-95127493D01*
X145374448Y-95127867D01*
X145363662Y-95128935D01*
X145363636Y-95128938D01*
X145348245Y-95131233D01*
X145298268Y-95141229D01*
X145298238Y-95141236D01*
X145277976Y-95146712D01*
X145264151Y-95151456D01*
X145264141Y-95151460D01*
X145244795Y-95159573D01*
X145230505Y-95166718D01*
X145220478Y-95170427D01*
X145168351Y-95183459D01*
X145158069Y-95186405D01*
X145150990Y-95188694D01*
X145140926Y-95192329D01*
X145090939Y-95212324D01*
X145084909Y-95214883D01*
X145080736Y-95216756D01*
X145074754Y-95219593D01*
X145034786Y-95239577D01*
X145026176Y-95244221D01*
X145020236Y-95247668D01*
X145011898Y-95252859D01*
X144995466Y-95263814D01*
X144990199Y-95266871D01*
X144964816Y-95279562D01*
X144964763Y-95279590D01*
X144952409Y-95286477D01*
X144943998Y-95291675D01*
X144943987Y-95291682D01*
X144932255Y-95299682D01*
X144858076Y-95355317D01*
X144855856Y-95356887D01*
X144831934Y-95372834D01*
X144831917Y-95372846D01*
X144819374Y-95382134D01*
X144819367Y-95382140D01*
X144811015Y-95388987D01*
X144811004Y-95388996D01*
X144810999Y-95389001D01*
X144807543Y-95392131D01*
X144799448Y-95399464D01*
X144799438Y-95399474D01*
X144782619Y-95416294D01*
X144777372Y-95420845D01*
X144752253Y-95439685D01*
X144735333Y-95454361D01*
X144724361Y-95465333D01*
X144709685Y-95482253D01*
X144690845Y-95507372D01*
X144686295Y-95512618D01*
X144669463Y-95529450D01*
X144669442Y-95529473D01*
X144653014Y-95548783D01*
X144642707Y-95563084D01*
X144629576Y-95584788D01*
X144628584Y-95586774D01*
X144620026Y-95598646D01*
X144620096Y-95598705D01*
X144620083Y-95598719D01*
X144620113Y-95598747D01*
X144619442Y-95599473D01*
X144603014Y-95618783D01*
X144592707Y-95633084D01*
X144579577Y-95654787D01*
X144479569Y-95854803D01*
X144472725Y-95870596D01*
X144472709Y-95870635D01*
X144468551Y-95881875D01*
X144463461Y-95898346D01*
X144453458Y-95938356D01*
X144452579Y-95942063D01*
X144452011Y-95944587D01*
X144451234Y-95948243D01*
X144448111Y-95963859D01*
X144443892Y-95976158D01*
X144439578Y-95984787D01*
X144427133Y-96019118D01*
X144427128Y-96019135D01*
X144421325Y-96043718D01*
X144421323Y-96043726D01*
X144417100Y-96080001D01*
X144417100Y-96094066D01*
X144416148Y-96103676D01*
X144411233Y-96128245D01*
X144408938Y-96143636D01*
X144408935Y-96143662D01*
X144407867Y-96154448D01*
X144407493Y-96162019D01*
X144407100Y-96170000D01*
X144407100Y-96170014D01*
X144407100Y-96184066D01*
X144406518Y-96189932D01*
X144406674Y-96190514D01*
X144406463Y-96192099D01*
X144401234Y-96218247D01*
X144398936Y-96233655D01*
X144397868Y-96244441D01*
X144397100Y-96260000D01*
X143188788Y-96260000D01*
X143144032Y-96198398D01*
X143144029Y-96198394D01*
X143021609Y-96075974D01*
X143021604Y-96075970D01*
X142881531Y-95974201D01*
X142881528Y-95974199D01*
X142727252Y-95895591D01*
X142562581Y-95842087D01*
X142562578Y-95842086D01*
X142555001Y-95840885D01*
X142555001Y-96481990D01*
X142497994Y-96449077D01*
X142370827Y-96415002D01*
X142239175Y-96415002D01*
X142112008Y-96449077D01*
X142055001Y-96481990D01*
X142055001Y-95840886D01*
X142055000Y-95840885D01*
X142047423Y-95842086D01*
X142047420Y-95842087D01*
X141882749Y-95895591D01*
X141728473Y-95974199D01*
X141728470Y-95974201D01*
X141588397Y-96075970D01*
X141465969Y-96198398D01*
X141364200Y-96338471D01*
X141364198Y-96338474D01*
X141285590Y-96492750D01*
X141232086Y-96657418D01*
X141230886Y-96665002D01*
X140737819Y-96665002D01*
X140729358Y-96622466D01*
X140653758Y-96439950D01*
X140544003Y-96275689D01*
X140404311Y-96135997D01*
X140392712Y-96128247D01*
X140350048Y-96099740D01*
X140240050Y-96026242D01*
X140240047Y-96026240D01*
X140240046Y-96026240D01*
X140057535Y-95950642D01*
X140057524Y-95950639D01*
X139863781Y-95912101D01*
X139863776Y-95912101D01*
X139666222Y-95912101D01*
X139666216Y-95912101D01*
X139472473Y-95950639D01*
X139472462Y-95950642D01*
X139376851Y-95990245D01*
X139339348Y-95990245D01*
X139312830Y-95963726D01*
X139309100Y-95944975D01*
X139309100Y-94489191D01*
X139690001Y-94489191D01*
X139690002Y-94489215D01*
X139692850Y-94519602D01*
X139692851Y-94519608D01*
X139737651Y-94647640D01*
X139737655Y-94647648D01*
X139818207Y-94756792D01*
X139927351Y-94837344D01*
X139927359Y-94837348D01*
X140055395Y-94882149D01*
X140085795Y-94884999D01*
X140590000Y-94884999D01*
X140594191Y-94884999D01*
X140594215Y-94884997D01*
X140624602Y-94882149D01*
X140624608Y-94882148D01*
X140752640Y-94837348D01*
X140752648Y-94837344D01*
X140861792Y-94756792D01*
X140942344Y-94647648D01*
X140942348Y-94647640D01*
X140987149Y-94519605D01*
X140987149Y-94519603D01*
X140989998Y-94489214D01*
X140990000Y-94489193D01*
X140990000Y-94410000D01*
X140590000Y-94410000D01*
X140590000Y-94884999D01*
X140085795Y-94884999D01*
X140090000Y-94884998D01*
X140090000Y-94410000D01*
X139690001Y-94410000D01*
X139690001Y-94489191D01*
X139309100Y-94489191D01*
X139309100Y-93830806D01*
X139690000Y-93830806D01*
X139690000Y-93910000D01*
X140090000Y-93910000D01*
X140590000Y-93910000D01*
X140989999Y-93910000D01*
X140989999Y-93830808D01*
X140989997Y-93830784D01*
X140987149Y-93800397D01*
X140987148Y-93800391D01*
X140942348Y-93672359D01*
X140942344Y-93672351D01*
X140861792Y-93563207D01*
X140752648Y-93482655D01*
X140752640Y-93482651D01*
X140624604Y-93437850D01*
X140594214Y-93435001D01*
X140594193Y-93435000D01*
X140590000Y-93435000D01*
X140590000Y-93910000D01*
X140090000Y-93910000D01*
X140090000Y-93434999D01*
X140085796Y-93435000D01*
X140055397Y-93437850D01*
X140055391Y-93437851D01*
X139927359Y-93482651D01*
X139927351Y-93482655D01*
X139818207Y-93563207D01*
X139737655Y-93672351D01*
X139737651Y-93672359D01*
X139692850Y-93800394D01*
X139692850Y-93800396D01*
X139690001Y-93830785D01*
X139690000Y-93830806D01*
X139309100Y-93830806D01*
X139309100Y-93608982D01*
X139323452Y-93574334D01*
X139333594Y-93566550D01*
X139358087Y-93552410D01*
X139442410Y-93468087D01*
X139502036Y-93364813D01*
X139532899Y-93249628D01*
X139532900Y-93249628D01*
X139532900Y-93130372D01*
X139532899Y-93130371D01*
X139522859Y-93092900D01*
X139502036Y-93015187D01*
X139478197Y-92973898D01*
X139473302Y-92936717D01*
X139496132Y-92906964D01*
X139520633Y-92900399D01*
X139544304Y-92900399D01*
X139547487Y-92899765D01*
X139670434Y-92875310D01*
X139670436Y-92875309D01*
X139670443Y-92875308D01*
X139789263Y-92826091D01*
X139896198Y-92754639D01*
X139966352Y-92684485D01*
X140001000Y-92670133D01*
X140035648Y-92684485D01*
X140050000Y-92719133D01*
X140050000Y-92962129D01*
X140064503Y-93035042D01*
X140119759Y-93117740D01*
X140202457Y-93172996D01*
X140275370Y-93187499D01*
X140275376Y-93187500D01*
X140350000Y-93187500D01*
X140350000Y-92426500D01*
X140364352Y-92391852D01*
X140399000Y-92377500D01*
X140801000Y-92377500D01*
X140835648Y-92391852D01*
X140850000Y-92426500D01*
X140850000Y-93187500D01*
X140924624Y-93187500D01*
X140924629Y-93187499D01*
X140997542Y-93172996D01*
X141080237Y-93117742D01*
X141080238Y-93117740D01*
X141083956Y-93112177D01*
X141115138Y-93091341D01*
X141124689Y-93090399D01*
X141715056Y-93090399D01*
X141759658Y-93081528D01*
X141759660Y-93081526D01*
X141762342Y-93080993D01*
X141799124Y-93088310D01*
X141819960Y-93119493D01*
X141820901Y-93129052D01*
X141820901Y-93483100D01*
X141806549Y-93517748D01*
X141771901Y-93532100D01*
X141756504Y-93532100D01*
X141687910Y-93542094D01*
X141687908Y-93542095D01*
X141582104Y-93593820D01*
X141582100Y-93593822D01*
X141498822Y-93677100D01*
X141498820Y-93677104D01*
X141447095Y-93782908D01*
X141447094Y-93782910D01*
X141437100Y-93851504D01*
X141437100Y-94468495D01*
X141447094Y-94537089D01*
X141447095Y-94537091D01*
X141451983Y-94547089D01*
X141498821Y-94642898D01*
X141582102Y-94726179D01*
X141687912Y-94777906D01*
X141736516Y-94784987D01*
X141756504Y-94787900D01*
X141756506Y-94787900D01*
X142223496Y-94787900D01*
X142240941Y-94785357D01*
X142292088Y-94777906D01*
X142397898Y-94726179D01*
X142481179Y-94642898D01*
X142532906Y-94537088D01*
X142538428Y-94499191D01*
X142845001Y-94499191D01*
X142845002Y-94499215D01*
X142847850Y-94529602D01*
X142847851Y-94529608D01*
X142892651Y-94657640D01*
X142892655Y-94657648D01*
X142973207Y-94766792D01*
X143082351Y-94847344D01*
X143082359Y-94847348D01*
X143210395Y-94892149D01*
X143240795Y-94894999D01*
X143745000Y-94894999D01*
X143749191Y-94894999D01*
X143749215Y-94894997D01*
X143779602Y-94892149D01*
X143779608Y-94892148D01*
X143907640Y-94847348D01*
X143907648Y-94847344D01*
X144016792Y-94766792D01*
X144097344Y-94657648D01*
X144097348Y-94657640D01*
X144142149Y-94529605D01*
X144142149Y-94529603D01*
X144144998Y-94499214D01*
X144145000Y-94499193D01*
X144145000Y-94420000D01*
X143745000Y-94420000D01*
X143745000Y-94894999D01*
X143240795Y-94894999D01*
X143245000Y-94894998D01*
X143245000Y-94420000D01*
X142845001Y-94420000D01*
X142845001Y-94499191D01*
X142538428Y-94499191D01*
X142542900Y-94468494D01*
X142542900Y-93851506D01*
X142541341Y-93840806D01*
X142845000Y-93840806D01*
X142845000Y-93920000D01*
X143245000Y-93920000D01*
X143745000Y-93920000D01*
X144144999Y-93920000D01*
X144144999Y-93840808D01*
X144144997Y-93840784D01*
X144142149Y-93810397D01*
X144142148Y-93810391D01*
X144097348Y-93682359D01*
X144097344Y-93682351D01*
X144016792Y-93573207D01*
X143907648Y-93492655D01*
X143907640Y-93492651D01*
X143779604Y-93447850D01*
X143749214Y-93445001D01*
X143749193Y-93445000D01*
X143745000Y-93445000D01*
X143745000Y-93920000D01*
X143245000Y-93920000D01*
X143245000Y-93444999D01*
X143240796Y-93445000D01*
X143210397Y-93447850D01*
X143210391Y-93447851D01*
X143082359Y-93492651D01*
X143082351Y-93492655D01*
X142973207Y-93573207D01*
X142892655Y-93682351D01*
X142892651Y-93682359D01*
X142847850Y-93810394D01*
X142847850Y-93810396D01*
X142845001Y-93840785D01*
X142845000Y-93840806D01*
X142541341Y-93840806D01*
X142532906Y-93782912D01*
X142481179Y-93677102D01*
X142397898Y-93593821D01*
X142397896Y-93593820D01*
X142397893Y-93593818D01*
X142306581Y-93549179D01*
X142281756Y-93521068D01*
X142279101Y-93505158D01*
X142279101Y-93129053D01*
X142293453Y-93094405D01*
X142328101Y-93080053D01*
X142337661Y-93080995D01*
X142353476Y-93084140D01*
X142384943Y-93090400D01*
X142715056Y-93090399D01*
X142759658Y-93081528D01*
X142772777Y-93072761D01*
X142809558Y-93065444D01*
X142827221Y-93072760D01*
X142840342Y-93081528D01*
X142884943Y-93090400D01*
X143215056Y-93090399D01*
X143259658Y-93081528D01*
X143272775Y-93072762D01*
X143309557Y-93065444D01*
X143327221Y-93072759D01*
X143340341Y-93081526D01*
X143384942Y-93090398D01*
X143715055Y-93090397D01*
X143759657Y-93081526D01*
X143772774Y-93072760D01*
X143809555Y-93065443D01*
X143827222Y-93072761D01*
X143840339Y-93081526D01*
X143840341Y-93081527D01*
X143884942Y-93090399D01*
X144215055Y-93090398D01*
X144259657Y-93081527D01*
X144272774Y-93072761D01*
X144309555Y-93065444D01*
X144327219Y-93072759D01*
X144340342Y-93081528D01*
X144384943Y-93090400D01*
X144715056Y-93090399D01*
X144759658Y-93081528D01*
X144759660Y-93081526D01*
X144762341Y-93080993D01*
X144799123Y-93088310D01*
X144819959Y-93119493D01*
X144820900Y-93129052D01*
X144820900Y-93532266D01*
X144806548Y-93566914D01*
X144793421Y-93576287D01*
X144737105Y-93603818D01*
X144737100Y-93603822D01*
X144653822Y-93687100D01*
X144653820Y-93687104D01*
X144602095Y-93792908D01*
X144602094Y-93792910D01*
X144592100Y-93861504D01*
X144592100Y-94478495D01*
X144602094Y-94547089D01*
X144602095Y-94547091D01*
X144627957Y-94599993D01*
X144653821Y-94652898D01*
X144737102Y-94736179D01*
X144842912Y-94787906D01*
X144891516Y-94794987D01*
X144911504Y-94797900D01*
X144911506Y-94797900D01*
X145378496Y-94797900D01*
X145395941Y-94795357D01*
X145447088Y-94787906D01*
X145552898Y-94736179D01*
X145636179Y-94652898D01*
X145687906Y-94547088D01*
X145697900Y-94478494D01*
X145697900Y-94429939D01*
X148267100Y-94429939D01*
X148267100Y-95130053D01*
X148275972Y-95174658D01*
X148309765Y-95225234D01*
X148331232Y-95239577D01*
X148360342Y-95259028D01*
X148404943Y-95267900D01*
X150015056Y-95267899D01*
X150059658Y-95259028D01*
X150110234Y-95225234D01*
X150144028Y-95174658D01*
X150152900Y-95130057D01*
X150152899Y-94675761D01*
X150167251Y-94641114D01*
X150288763Y-94519602D01*
X150442381Y-94365985D01*
X150482258Y-94296915D01*
X150493037Y-94256687D01*
X150502900Y-94219880D01*
X150502900Y-93305760D01*
X150517251Y-93271113D01*
X151218453Y-92569910D01*
X151253100Y-92555559D01*
X151287748Y-92569911D01*
X151302100Y-92604557D01*
X151302100Y-92625052D01*
X151310972Y-92669658D01*
X151344765Y-92720234D01*
X151358352Y-92729312D01*
X151395342Y-92754028D01*
X151439943Y-92762900D01*
X152220056Y-92762899D01*
X152264658Y-92754028D01*
X152315234Y-92720234D01*
X152349028Y-92669658D01*
X152357900Y-92625057D01*
X152357899Y-91594944D01*
X152349028Y-91550342D01*
X152326406Y-91516486D01*
X152315234Y-91499765D01*
X152277386Y-91474477D01*
X152264658Y-91465972D01*
X152264657Y-91465971D01*
X152264656Y-91465971D01*
X152220058Y-91457100D01*
X151439946Y-91457100D01*
X151395341Y-91465972D01*
X151344765Y-91499765D01*
X151310971Y-91550343D01*
X151302100Y-91594939D01*
X151302100Y-91758100D01*
X151287748Y-91792748D01*
X151253100Y-91807100D01*
X151210119Y-91807100D01*
X151133089Y-91827740D01*
X151133085Y-91827742D01*
X151064018Y-91867616D01*
X151064012Y-91867621D01*
X150586548Y-92345086D01*
X150551900Y-92359438D01*
X150517252Y-92345086D01*
X150502900Y-92310438D01*
X150502900Y-88370119D01*
X150482259Y-88293089D01*
X150482258Y-88293085D01*
X150442381Y-88224015D01*
X150385985Y-88167619D01*
X150385982Y-88167617D01*
X150385978Y-88167614D01*
X150342399Y-88142454D01*
X150319569Y-88112701D01*
X150317899Y-88100019D01*
X150317899Y-87874945D01*
X150317898Y-87874940D01*
X150317898Y-87874939D01*
X150312311Y-87846849D01*
X150319627Y-87810068D01*
X150325716Y-87802648D01*
X150893425Y-87234939D01*
X151097100Y-87234939D01*
X151097100Y-88065053D01*
X151105972Y-88109658D01*
X151139765Y-88160234D01*
X151150818Y-88167619D01*
X151190342Y-88194028D01*
X151234943Y-88202900D01*
X151438308Y-88202899D01*
X151472955Y-88217251D01*
X151487307Y-88251899D01*
X151472956Y-88286547D01*
X151427590Y-88331913D01*
X151427586Y-88331918D01*
X151367964Y-88435184D01*
X151367963Y-88435187D01*
X151337100Y-88550371D01*
X151337100Y-88669628D01*
X151367963Y-88784812D01*
X151367964Y-88784815D01*
X151427586Y-88888081D01*
X151427588Y-88888083D01*
X151427590Y-88888087D01*
X151427593Y-88888090D01*
X151512748Y-88973245D01*
X151527100Y-89007893D01*
X151527100Y-89068100D01*
X151512748Y-89102748D01*
X151478101Y-89117100D01*
X151439947Y-89117100D01*
X151395341Y-89125972D01*
X151344765Y-89159765D01*
X151310971Y-89210343D01*
X151302100Y-89254939D01*
X151302100Y-90285053D01*
X151310972Y-90329658D01*
X151344765Y-90380234D01*
X151370054Y-90397131D01*
X151395342Y-90414028D01*
X151439943Y-90422900D01*
X152220056Y-90422899D01*
X152264658Y-90414028D01*
X152315234Y-90380234D01*
X152349028Y-90329658D01*
X152357900Y-90285057D01*
X152357899Y-89451217D01*
X153247100Y-89451217D01*
X153247100Y-89648782D01*
X153285638Y-89842525D01*
X153285641Y-89842536D01*
X153357461Y-90015925D01*
X153361241Y-90025051D01*
X153470996Y-90189312D01*
X153610688Y-90329004D01*
X153774949Y-90438759D01*
X153957465Y-90514359D01*
X153957471Y-90514360D01*
X153957474Y-90514361D01*
X154151217Y-90552899D01*
X154151220Y-90552899D01*
X154151223Y-90552900D01*
X154151224Y-90552900D01*
X154348776Y-90552900D01*
X154348777Y-90552900D01*
X154542535Y-90514359D01*
X154725051Y-90438759D01*
X154745392Y-90425166D01*
X154782174Y-90417849D01*
X154807264Y-90431260D01*
X155166548Y-90790544D01*
X155180900Y-90825192D01*
X155180900Y-91516486D01*
X155166548Y-91551134D01*
X155131900Y-91565486D01*
X155097252Y-91551134D01*
X155091158Y-91543709D01*
X155086997Y-91537482D01*
X155029004Y-91450688D01*
X154889312Y-91310996D01*
X154725051Y-91201241D01*
X154725048Y-91201239D01*
X154725047Y-91201239D01*
X154542536Y-91125641D01*
X154542525Y-91125638D01*
X154348782Y-91087100D01*
X154348777Y-91087100D01*
X154151223Y-91087100D01*
X154151217Y-91087100D01*
X153957474Y-91125638D01*
X153957463Y-91125641D01*
X153774952Y-91201239D01*
X153610688Y-91310995D01*
X153470995Y-91450688D01*
X153361239Y-91614952D01*
X153285641Y-91797463D01*
X153285638Y-91797474D01*
X153247100Y-91991217D01*
X153247100Y-92188782D01*
X153285638Y-92382525D01*
X153285641Y-92382536D01*
X153357806Y-92556758D01*
X153361241Y-92565051D01*
X153408841Y-92636290D01*
X153464194Y-92719133D01*
X153470996Y-92729312D01*
X153610688Y-92869004D01*
X153774949Y-92978759D01*
X153957465Y-93054359D01*
X153957471Y-93054360D01*
X153957474Y-93054361D01*
X154151217Y-93092899D01*
X154151220Y-93092899D01*
X154151223Y-93092900D01*
X154151224Y-93092900D01*
X154348776Y-93092900D01*
X154348777Y-93092900D01*
X154542535Y-93054359D01*
X154725051Y-92978759D01*
X154889312Y-92869004D01*
X155029004Y-92729312D01*
X155091159Y-92636288D01*
X155122340Y-92615455D01*
X155159123Y-92622771D01*
X155179958Y-92653953D01*
X155180900Y-92663513D01*
X155180900Y-94056486D01*
X155166548Y-94091134D01*
X155131900Y-94105486D01*
X155097252Y-94091134D01*
X155091158Y-94083709D01*
X155072968Y-94056486D01*
X155029004Y-93990688D01*
X154889312Y-93850996D01*
X154882906Y-93846716D01*
X154813576Y-93800391D01*
X154725051Y-93741241D01*
X154725048Y-93741239D01*
X154725047Y-93741239D01*
X154542536Y-93665641D01*
X154542525Y-93665638D01*
X154348782Y-93627100D01*
X154348777Y-93627100D01*
X154151223Y-93627100D01*
X154151217Y-93627100D01*
X153957474Y-93665638D01*
X153957463Y-93665641D01*
X153774952Y-93741239D01*
X153610688Y-93850995D01*
X153470995Y-93990688D01*
X153361239Y-94154952D01*
X153285641Y-94337463D01*
X153285638Y-94337474D01*
X153247100Y-94531217D01*
X153247100Y-94728782D01*
X153285638Y-94922525D01*
X153285641Y-94922536D01*
X153357461Y-95095925D01*
X153361241Y-95105051D01*
X153418974Y-95191455D01*
X153470052Y-95267900D01*
X153470996Y-95269312D01*
X153610688Y-95409004D01*
X153774949Y-95518759D01*
X153957465Y-95594359D01*
X153957471Y-95594360D01*
X153957474Y-95594361D01*
X154151217Y-95632899D01*
X154151220Y-95632899D01*
X154151223Y-95632900D01*
X154151224Y-95632900D01*
X154348776Y-95632900D01*
X154348777Y-95632900D01*
X154542535Y-95594359D01*
X154725051Y-95518759D01*
X154889312Y-95409004D01*
X155029004Y-95269312D01*
X155091159Y-95176288D01*
X155122340Y-95155455D01*
X155159123Y-95162771D01*
X155179958Y-95193953D01*
X155180900Y-95203513D01*
X155180900Y-96596487D01*
X155166548Y-96631135D01*
X155131900Y-96645487D01*
X155097252Y-96631135D01*
X155091158Y-96623710D01*
X155090325Y-96622464D01*
X155029004Y-96530689D01*
X154889312Y-96390997D01*
X154876857Y-96382675D01*
X154801990Y-96332651D01*
X154725051Y-96281242D01*
X154725048Y-96281240D01*
X154725047Y-96281240D01*
X154542536Y-96205642D01*
X154542525Y-96205639D01*
X154348782Y-96167101D01*
X154348777Y-96167101D01*
X154151223Y-96167101D01*
X154151217Y-96167101D01*
X153957474Y-96205639D01*
X153957463Y-96205642D01*
X153774952Y-96281240D01*
X153610688Y-96390996D01*
X153470995Y-96530689D01*
X153361239Y-96694953D01*
X153285641Y-96877464D01*
X153285638Y-96877475D01*
X153247100Y-97071218D01*
X153247100Y-97268783D01*
X153285638Y-97462526D01*
X153285641Y-97462537D01*
X153361239Y-97645048D01*
X153361241Y-97645052D01*
X153394920Y-97695456D01*
X153467285Y-97803760D01*
X153470996Y-97809313D01*
X153610688Y-97949005D01*
X153774949Y-98058760D01*
X153957465Y-98134360D01*
X153957471Y-98134361D01*
X153957474Y-98134362D01*
X154151217Y-98172900D01*
X154151220Y-98172900D01*
X154151223Y-98172901D01*
X154151224Y-98172901D01*
X154348776Y-98172901D01*
X154348777Y-98172901D01*
X154542535Y-98134360D01*
X154725051Y-98058760D01*
X154889312Y-97949005D01*
X155029004Y-97809313D01*
X155091159Y-97716289D01*
X155122340Y-97695456D01*
X155159123Y-97702772D01*
X155179958Y-97733954D01*
X155180900Y-97743514D01*
X155180900Y-97991016D01*
X155166548Y-98025664D01*
X155156401Y-98033450D01*
X155131921Y-98047584D01*
X155131909Y-98047593D01*
X155047593Y-98131909D01*
X155047586Y-98131918D01*
X154987964Y-98235184D01*
X154987963Y-98235187D01*
X154957100Y-98350371D01*
X154957100Y-98469628D01*
X154987963Y-98584812D01*
X154987964Y-98584815D01*
X155047586Y-98688081D01*
X155047588Y-98688083D01*
X155047590Y-98688087D01*
X155131913Y-98772410D01*
X155131917Y-98772412D01*
X155131918Y-98772413D01*
X155235184Y-98832035D01*
X155235187Y-98832036D01*
X155350371Y-98862899D01*
X155350372Y-98862900D01*
X155350375Y-98862900D01*
X155469628Y-98862900D01*
X155469628Y-98862899D01*
X155584813Y-98832036D01*
X155688087Y-98772410D01*
X155772410Y-98688087D01*
X155832036Y-98584813D01*
X155862899Y-98469628D01*
X155862900Y-98469628D01*
X155862900Y-98350372D01*
X155862899Y-98350371D01*
X155832036Y-98235187D01*
X155832035Y-98235184D01*
X155772413Y-98131918D01*
X155772412Y-98131917D01*
X155772410Y-98131913D01*
X155688087Y-98047590D01*
X155688082Y-98047587D01*
X155688078Y-98047584D01*
X155663599Y-98033450D01*
X155640769Y-98003697D01*
X155639100Y-97991016D01*
X155639100Y-97496945D01*
X155653452Y-97462297D01*
X155688100Y-97447945D01*
X155722748Y-97462297D01*
X155734702Y-97481803D01*
X155770588Y-97592251D01*
X155849196Y-97746527D01*
X155849198Y-97746530D01*
X155950967Y-97886603D01*
X155950971Y-97886608D01*
X156073391Y-98009028D01*
X156073395Y-98009031D01*
X156213468Y-98110800D01*
X156213471Y-98110802D01*
X156367747Y-98189410D01*
X156532415Y-98242914D01*
X156539999Y-98244115D01*
X156539999Y-97603012D01*
X156597006Y-97635925D01*
X156724173Y-97670000D01*
X156855825Y-97670000D01*
X156982992Y-97635925D01*
X157039999Y-97603012D01*
X157039999Y-98244114D01*
X157047582Y-98242914D01*
X157212250Y-98189410D01*
X157366526Y-98110802D01*
X157366529Y-98110800D01*
X157506602Y-98009031D01*
X157506607Y-98009028D01*
X157629027Y-97886608D01*
X157629030Y-97886603D01*
X157730799Y-97746530D01*
X157730801Y-97746527D01*
X157809409Y-97592251D01*
X157862913Y-97427583D01*
X157864114Y-97420000D01*
X157223011Y-97420000D01*
X157255924Y-97362993D01*
X157289999Y-97235826D01*
X157289999Y-97104174D01*
X157255924Y-96977007D01*
X157223011Y-96920000D01*
X157864114Y-96920000D01*
X157862913Y-96912416D01*
X157809409Y-96747748D01*
X157730801Y-96593472D01*
X157730799Y-96593469D01*
X157629030Y-96453396D01*
X157629027Y-96453392D01*
X157506607Y-96330972D01*
X157506602Y-96330968D01*
X157366529Y-96229199D01*
X157366526Y-96229197D01*
X157212250Y-96150589D01*
X157047579Y-96097085D01*
X157047576Y-96097084D01*
X157039999Y-96095883D01*
X157039999Y-96736988D01*
X156982992Y-96704075D01*
X156855825Y-96670000D01*
X156724173Y-96670000D01*
X156597006Y-96704075D01*
X156539999Y-96736988D01*
X156539999Y-96095884D01*
X156539998Y-96095883D01*
X156532421Y-96097084D01*
X156532418Y-96097085D01*
X156367747Y-96150589D01*
X156213471Y-96229197D01*
X156213468Y-96229199D01*
X156073395Y-96330968D01*
X155950967Y-96453396D01*
X155849198Y-96593469D01*
X155849196Y-96593472D01*
X155770588Y-96747748D01*
X155734702Y-96858196D01*
X155710346Y-96886713D01*
X155672958Y-96889656D01*
X155644441Y-96865300D01*
X155639100Y-96843054D01*
X155639100Y-94956939D01*
X155653452Y-94922291D01*
X155688100Y-94907939D01*
X155722748Y-94922291D01*
X155734702Y-94941797D01*
X155770590Y-95052251D01*
X155849198Y-95206527D01*
X155849200Y-95206530D01*
X155950969Y-95346603D01*
X155950973Y-95346608D01*
X156073393Y-95469028D01*
X156073397Y-95469031D01*
X156213470Y-95570800D01*
X156213473Y-95570802D01*
X156367749Y-95649410D01*
X156532417Y-95702914D01*
X156540001Y-95704115D01*
X156540001Y-95063012D01*
X156597008Y-95095925D01*
X156724175Y-95130000D01*
X156855827Y-95130000D01*
X156982994Y-95095925D01*
X157040001Y-95063012D01*
X157040001Y-95704114D01*
X157047584Y-95702914D01*
X157212252Y-95649410D01*
X157366528Y-95570802D01*
X157366531Y-95570800D01*
X157506604Y-95469031D01*
X157506609Y-95469028D01*
X157629029Y-95346608D01*
X157629032Y-95346603D01*
X157730801Y-95206530D01*
X157730803Y-95206527D01*
X157809411Y-95052251D01*
X157862915Y-94887583D01*
X157864116Y-94880000D01*
X157223013Y-94880000D01*
X157255926Y-94822993D01*
X157290001Y-94695826D01*
X157290001Y-94564174D01*
X157255926Y-94437007D01*
X157223013Y-94380000D01*
X157864116Y-94380000D01*
X157862915Y-94372416D01*
X157809411Y-94207748D01*
X157730803Y-94053472D01*
X157730801Y-94053469D01*
X157629032Y-93913396D01*
X157629029Y-93913392D01*
X157506609Y-93790972D01*
X157506604Y-93790968D01*
X157366531Y-93689199D01*
X157366528Y-93689197D01*
X157212252Y-93610589D01*
X157047581Y-93557085D01*
X157047578Y-93557084D01*
X157040001Y-93555883D01*
X157040001Y-94196988D01*
X156982994Y-94164075D01*
X156855827Y-94130000D01*
X156724175Y-94130000D01*
X156597008Y-94164075D01*
X156540001Y-94196988D01*
X156540001Y-93555884D01*
X156540000Y-93555883D01*
X156532423Y-93557084D01*
X156532420Y-93557085D01*
X156367749Y-93610589D01*
X156213473Y-93689197D01*
X156213470Y-93689199D01*
X156073397Y-93790968D01*
X155950969Y-93913396D01*
X155849200Y-94053469D01*
X155849198Y-94053472D01*
X155770590Y-94207748D01*
X155734702Y-94318202D01*
X155710346Y-94346719D01*
X155672958Y-94349662D01*
X155644441Y-94325306D01*
X155639100Y-94303060D01*
X155639100Y-92416942D01*
X155653452Y-92382294D01*
X155688100Y-92367942D01*
X155722748Y-92382294D01*
X155734702Y-92401800D01*
X155770589Y-92512251D01*
X155849197Y-92666527D01*
X155849199Y-92666530D01*
X155950968Y-92806603D01*
X155950972Y-92806608D01*
X156073392Y-92929028D01*
X156073396Y-92929031D01*
X156213469Y-93030800D01*
X156213472Y-93030802D01*
X156367748Y-93109410D01*
X156532416Y-93162914D01*
X156540000Y-93164115D01*
X156540000Y-92523012D01*
X156597007Y-92555925D01*
X156724174Y-92590000D01*
X156855826Y-92590000D01*
X156982993Y-92555925D01*
X157040000Y-92523012D01*
X157040000Y-93164114D01*
X157047583Y-93162914D01*
X157212251Y-93109410D01*
X157366527Y-93030802D01*
X157366530Y-93030800D01*
X157506603Y-92929031D01*
X157506608Y-92929028D01*
X157629028Y-92806608D01*
X157629031Y-92806603D01*
X157730800Y-92666530D01*
X157730802Y-92666527D01*
X157809410Y-92512251D01*
X157862914Y-92347583D01*
X157864115Y-92340000D01*
X157223012Y-92340000D01*
X157255925Y-92282993D01*
X157290000Y-92155826D01*
X157290000Y-92024174D01*
X157255925Y-91897007D01*
X157223012Y-91840000D01*
X157864115Y-91840000D01*
X157862914Y-91832416D01*
X157809410Y-91667748D01*
X157730802Y-91513472D01*
X157730800Y-91513469D01*
X157629031Y-91373396D01*
X157629028Y-91373392D01*
X157506608Y-91250972D01*
X157506603Y-91250968D01*
X157366530Y-91149199D01*
X157366527Y-91149197D01*
X157212251Y-91070589D01*
X157047580Y-91017085D01*
X157047577Y-91017084D01*
X157040000Y-91015883D01*
X157040000Y-91656988D01*
X156982993Y-91624075D01*
X156855826Y-91590000D01*
X156724174Y-91590000D01*
X156597007Y-91624075D01*
X156540000Y-91656988D01*
X156540000Y-91015884D01*
X156539999Y-91015883D01*
X156532422Y-91017084D01*
X156532419Y-91017085D01*
X156367748Y-91070589D01*
X156213472Y-91149197D01*
X156213469Y-91149199D01*
X156073396Y-91250968D01*
X155950968Y-91373396D01*
X155849199Y-91513469D01*
X155849197Y-91513472D01*
X155770589Y-91667748D01*
X155734702Y-91778199D01*
X155710346Y-91806716D01*
X155672958Y-91809659D01*
X155644441Y-91785303D01*
X155639100Y-91763057D01*
X155639100Y-90664431D01*
X155639099Y-90664427D01*
X155637769Y-90661217D01*
X155621524Y-90621998D01*
X155604222Y-90580226D01*
X155604221Y-90580225D01*
X155604220Y-90580223D01*
X155131260Y-90107264D01*
X155116908Y-90072616D01*
X155125167Y-90045392D01*
X155138759Y-90025051D01*
X155169805Y-89950099D01*
X155214359Y-89842535D01*
X155252900Y-89648777D01*
X155252900Y-89451223D01*
X155222820Y-89300000D01*
X155715885Y-89300000D01*
X156356988Y-89300000D01*
X156324075Y-89357007D01*
X156290000Y-89484174D01*
X156290000Y-89615826D01*
X156324075Y-89742993D01*
X156356988Y-89800000D01*
X155715885Y-89800000D01*
X155717085Y-89807583D01*
X155770589Y-89972251D01*
X155849197Y-90126527D01*
X155849199Y-90126530D01*
X155950968Y-90266603D01*
X155950972Y-90266608D01*
X156073392Y-90389028D01*
X156073396Y-90389031D01*
X156213469Y-90490800D01*
X156213472Y-90490802D01*
X156367748Y-90569410D01*
X156532416Y-90622914D01*
X156540000Y-90624115D01*
X156540000Y-89983012D01*
X156597007Y-90015925D01*
X156724174Y-90050000D01*
X156855826Y-90050000D01*
X156982993Y-90015925D01*
X157040000Y-89983012D01*
X157040000Y-90624114D01*
X157047583Y-90622914D01*
X157212251Y-90569410D01*
X157366527Y-90490802D01*
X157366530Y-90490800D01*
X157506603Y-90389031D01*
X157506608Y-90389028D01*
X157629028Y-90266608D01*
X157629031Y-90266603D01*
X157730800Y-90126530D01*
X157730802Y-90126527D01*
X157809410Y-89972251D01*
X157862914Y-89807583D01*
X157864115Y-89800000D01*
X157223012Y-89800000D01*
X157255925Y-89742993D01*
X157290000Y-89615826D01*
X157290000Y-89484174D01*
X157255925Y-89357007D01*
X157223012Y-89300000D01*
X157864115Y-89300000D01*
X157862914Y-89292416D01*
X157809410Y-89127748D01*
X157730802Y-88973472D01*
X157730800Y-88973469D01*
X157629031Y-88833396D01*
X157629028Y-88833392D01*
X157506608Y-88710972D01*
X157506603Y-88710968D01*
X157366530Y-88609199D01*
X157366527Y-88609197D01*
X157212251Y-88530589D01*
X157047580Y-88477085D01*
X157047577Y-88477084D01*
X157040000Y-88475883D01*
X157040000Y-89116988D01*
X156982993Y-89084075D01*
X156855826Y-89050000D01*
X156724174Y-89050000D01*
X156597007Y-89084075D01*
X156540000Y-89116988D01*
X156540000Y-88475884D01*
X156539999Y-88475883D01*
X156532422Y-88477084D01*
X156532419Y-88477085D01*
X156367748Y-88530589D01*
X156213472Y-88609197D01*
X156213469Y-88609199D01*
X156073396Y-88710968D01*
X155950968Y-88833396D01*
X155849199Y-88973469D01*
X155849197Y-88973472D01*
X155770589Y-89127748D01*
X155717085Y-89292416D01*
X155715885Y-89300000D01*
X155222820Y-89300000D01*
X155214359Y-89257465D01*
X155138759Y-89074949D01*
X155029004Y-88910688D01*
X154889312Y-88770996D01*
X154725051Y-88661241D01*
X154725048Y-88661239D01*
X154725047Y-88661239D01*
X154542536Y-88585641D01*
X154542525Y-88585638D01*
X154348782Y-88547100D01*
X154348777Y-88547100D01*
X154151223Y-88547100D01*
X154151217Y-88547100D01*
X153957474Y-88585638D01*
X153957463Y-88585641D01*
X153774952Y-88661239D01*
X153610688Y-88770995D01*
X153470995Y-88910688D01*
X153361239Y-89074952D01*
X153285641Y-89257463D01*
X153285638Y-89257474D01*
X153247100Y-89451217D01*
X152357899Y-89451217D01*
X152357899Y-89254944D01*
X152349028Y-89210342D01*
X152316751Y-89162036D01*
X152315234Y-89159765D01*
X152267316Y-89127748D01*
X152264658Y-89125972D01*
X152264657Y-89125971D01*
X152264656Y-89125971D01*
X152220060Y-89117100D01*
X152220057Y-89117100D01*
X152181900Y-89117100D01*
X152147252Y-89102748D01*
X152132900Y-89068100D01*
X152132900Y-88927893D01*
X152147252Y-88893245D01*
X152152410Y-88888087D01*
X152197129Y-88810631D01*
X152212035Y-88784815D01*
X152212036Y-88784812D01*
X152240020Y-88680375D01*
X152242899Y-88669628D01*
X152242900Y-88669628D01*
X152242900Y-88550372D01*
X152242899Y-88550371D01*
X152228332Y-88496004D01*
X152233227Y-88458822D01*
X152262980Y-88435992D01*
X152300162Y-88440887D01*
X152310310Y-88448674D01*
X152399831Y-88538195D01*
X152414183Y-88572843D01*
X152412514Y-88585525D01*
X152387100Y-88680375D01*
X152387100Y-88799628D01*
X152417963Y-88914812D01*
X152417964Y-88914815D01*
X152477586Y-89018081D01*
X152477588Y-89018083D01*
X152477590Y-89018087D01*
X152561913Y-89102410D01*
X152561917Y-89102412D01*
X152561918Y-89102413D01*
X152665184Y-89162035D01*
X152665187Y-89162036D01*
X152780371Y-89192899D01*
X152780372Y-89192900D01*
X152780375Y-89192900D01*
X152899628Y-89192900D01*
X152899628Y-89192899D01*
X153014813Y-89162036D01*
X153018747Y-89159765D01*
X153040631Y-89147129D01*
X153118087Y-89102410D01*
X153202410Y-89018087D01*
X153262036Y-88914813D01*
X153292899Y-88799628D01*
X153292900Y-88799628D01*
X153292900Y-88680372D01*
X153292899Y-88680371D01*
X153262036Y-88565187D01*
X153262035Y-88565184D01*
X153202413Y-88461918D01*
X153202412Y-88461917D01*
X153202410Y-88461913D01*
X153118087Y-88377590D01*
X153071311Y-88350583D01*
X153061167Y-88342800D01*
X153025985Y-88307618D01*
X153025982Y-88307616D01*
X152659703Y-87941337D01*
X152217251Y-87498884D01*
X152202899Y-87464236D01*
X152202899Y-87234946D01*
X152202899Y-87234944D01*
X152194028Y-87190342D01*
X152182813Y-87173559D01*
X152160234Y-87139765D01*
X152113856Y-87108777D01*
X152109658Y-87105972D01*
X152109657Y-87105971D01*
X152109656Y-87105971D01*
X152065058Y-87097100D01*
X151234946Y-87097100D01*
X151190341Y-87105972D01*
X151139765Y-87139765D01*
X151105971Y-87190343D01*
X151097100Y-87234939D01*
X150893425Y-87234939D01*
X151217144Y-86911219D01*
X153247100Y-86911219D01*
X153247100Y-87108784D01*
X153285638Y-87302527D01*
X153285641Y-87302538D01*
X153361025Y-87484532D01*
X153361241Y-87485053D01*
X153470996Y-87649314D01*
X153610688Y-87789006D01*
X153774949Y-87898761D01*
X153957465Y-87974361D01*
X153957471Y-87974362D01*
X153957474Y-87974363D01*
X154151217Y-88012901D01*
X154151220Y-88012901D01*
X154151223Y-88012902D01*
X154151224Y-88012902D01*
X154348776Y-88012902D01*
X154348777Y-88012902D01*
X154413363Y-88000055D01*
X154542525Y-87974363D01*
X154542525Y-87974362D01*
X154542535Y-87974361D01*
X154725051Y-87898761D01*
X154889312Y-87789006D01*
X155029004Y-87649314D01*
X155138759Y-87485053D01*
X155214359Y-87302537D01*
X155222820Y-87259999D01*
X155227636Y-87235792D01*
X155227636Y-87235791D01*
X155252899Y-87108784D01*
X155252900Y-87108777D01*
X155252900Y-86911228D01*
X155252900Y-86911225D01*
X155227634Y-86784204D01*
X155227634Y-86784202D01*
X155222819Y-86759999D01*
X155715886Y-86759999D01*
X156356989Y-86759999D01*
X156324076Y-86817006D01*
X156290001Y-86944173D01*
X156290001Y-87075825D01*
X156324076Y-87202992D01*
X156356989Y-87259999D01*
X155715886Y-87259999D01*
X155717086Y-87267582D01*
X155770590Y-87432250D01*
X155849198Y-87586526D01*
X155849200Y-87586529D01*
X155950969Y-87726602D01*
X155950973Y-87726607D01*
X156073393Y-87849027D01*
X156073397Y-87849030D01*
X156213470Y-87950799D01*
X156213473Y-87950801D01*
X156367749Y-88029409D01*
X156532417Y-88082913D01*
X156540001Y-88084114D01*
X156540001Y-87443011D01*
X156597008Y-87475924D01*
X156724175Y-87509999D01*
X156855827Y-87509999D01*
X156982994Y-87475924D01*
X157040001Y-87443011D01*
X157040001Y-88084113D01*
X157047584Y-88082913D01*
X157212252Y-88029409D01*
X157366528Y-87950801D01*
X157366531Y-87950799D01*
X157506604Y-87849030D01*
X157506609Y-87849027D01*
X157629029Y-87726607D01*
X157629032Y-87726602D01*
X157730801Y-87586529D01*
X157730803Y-87586526D01*
X157809411Y-87432250D01*
X157862915Y-87267582D01*
X157864116Y-87259999D01*
X157223013Y-87259999D01*
X157255926Y-87202992D01*
X157290001Y-87075825D01*
X157290001Y-86944173D01*
X157255926Y-86817006D01*
X157223013Y-86759999D01*
X157864116Y-86759999D01*
X157862915Y-86752415D01*
X157809411Y-86587747D01*
X157730803Y-86433471D01*
X157730801Y-86433468D01*
X157629032Y-86293395D01*
X157629029Y-86293391D01*
X157506609Y-86170971D01*
X157506604Y-86170967D01*
X157366531Y-86069198D01*
X157366528Y-86069196D01*
X157212252Y-85990588D01*
X157047581Y-85937084D01*
X157047578Y-85937083D01*
X157040001Y-85935882D01*
X157040001Y-86576987D01*
X156982994Y-86544074D01*
X156855827Y-86509999D01*
X156724175Y-86509999D01*
X156597008Y-86544074D01*
X156540001Y-86576987D01*
X156540001Y-85935883D01*
X156540000Y-85935882D01*
X156532423Y-85937083D01*
X156532420Y-85937084D01*
X156367749Y-85990588D01*
X156213473Y-86069196D01*
X156213470Y-86069198D01*
X156073397Y-86170967D01*
X155950969Y-86293395D01*
X155849200Y-86433468D01*
X155849198Y-86433471D01*
X155770590Y-86587747D01*
X155717086Y-86752415D01*
X155715886Y-86759999D01*
X155222819Y-86759999D01*
X155219971Y-86745683D01*
X155214359Y-86717467D01*
X155138759Y-86534951D01*
X155029004Y-86370690D01*
X154889312Y-86230998D01*
X154725051Y-86121243D01*
X154725048Y-86121241D01*
X154725047Y-86121241D01*
X154542536Y-86045643D01*
X154542525Y-86045640D01*
X154348782Y-86007102D01*
X154348777Y-86007102D01*
X154151223Y-86007102D01*
X154151217Y-86007102D01*
X153957474Y-86045640D01*
X153957463Y-86045643D01*
X153774952Y-86121241D01*
X153610688Y-86230997D01*
X153470995Y-86370690D01*
X153361239Y-86534954D01*
X153285641Y-86717465D01*
X153285638Y-86717476D01*
X153247100Y-86911219D01*
X151217144Y-86911219D01*
X151511113Y-86617250D01*
X151545761Y-86602899D01*
X152065053Y-86602899D01*
X152065056Y-86602899D01*
X152109658Y-86594028D01*
X152160234Y-86560234D01*
X152194028Y-86509658D01*
X152202900Y-86465057D01*
X152202899Y-85634944D01*
X152194028Y-85590342D01*
X152182813Y-85573559D01*
X152160234Y-85539765D01*
X152122386Y-85514477D01*
X152109658Y-85505972D01*
X152109657Y-85505971D01*
X152109656Y-85505971D01*
X152065058Y-85497100D01*
X151234946Y-85497100D01*
X151190341Y-85505972D01*
X151139765Y-85539765D01*
X151105971Y-85590343D01*
X151097100Y-85634939D01*
X151097100Y-86154238D01*
X151082748Y-86188886D01*
X149548885Y-87722748D01*
X149514237Y-87737100D01*
X149399947Y-87737100D01*
X149355341Y-87745972D01*
X149304765Y-87779765D01*
X149270971Y-87830343D01*
X149262100Y-87874939D01*
X149262100Y-88905053D01*
X149270972Y-88949658D01*
X149304765Y-89000234D01*
X149316228Y-89007893D01*
X149355342Y-89034028D01*
X149399943Y-89042900D01*
X149848100Y-89042899D01*
X149882748Y-89057251D01*
X149897100Y-89091899D01*
X149897100Y-93120118D01*
X149897099Y-93120122D01*
X149897099Y-93199878D01*
X149897100Y-93199881D01*
X149897100Y-94034237D01*
X149882748Y-94068885D01*
X149673885Y-94277748D01*
X149639237Y-94292100D01*
X148404946Y-94292100D01*
X148360341Y-94300972D01*
X148309765Y-94334765D01*
X148275971Y-94385343D01*
X148267100Y-94429939D01*
X145697900Y-94429939D01*
X145697900Y-93861506D01*
X145687906Y-93792912D01*
X145636179Y-93687102D01*
X145552898Y-93603821D01*
X145477403Y-93566914D01*
X145447091Y-93552095D01*
X145447089Y-93552094D01*
X145378496Y-93542100D01*
X145378494Y-93542100D01*
X145328100Y-93542100D01*
X145293452Y-93527748D01*
X145279100Y-93493100D01*
X145279100Y-93129053D01*
X145293452Y-93094405D01*
X145328100Y-93080053D01*
X145337660Y-93080995D01*
X145340343Y-93081528D01*
X145340344Y-93081529D01*
X145384945Y-93090401D01*
X145715058Y-93090400D01*
X145759660Y-93081529D01*
X145772777Y-93072763D01*
X145809558Y-93065446D01*
X145827222Y-93072761D01*
X145840342Y-93081528D01*
X145884943Y-93090400D01*
X146475299Y-93090399D01*
X146509947Y-93104751D01*
X146516039Y-93112174D01*
X146519757Y-93117738D01*
X146519758Y-93117739D01*
X146602457Y-93172996D01*
X146675370Y-93187499D01*
X146675376Y-93187500D01*
X146750000Y-93187500D01*
X146750000Y-92426500D01*
X146764352Y-92391852D01*
X146799000Y-92377500D01*
X147201000Y-92377500D01*
X147235648Y-92391852D01*
X147250000Y-92426500D01*
X147250000Y-93187500D01*
X147324624Y-93187500D01*
X147324629Y-93187499D01*
X147397542Y-93172996D01*
X147480240Y-93117740D01*
X147535496Y-93035042D01*
X147549999Y-92962129D01*
X147550000Y-92962124D01*
X147550000Y-92719137D01*
X147564352Y-92684489D01*
X147599000Y-92670137D01*
X147633648Y-92684489D01*
X147703801Y-92754642D01*
X147739204Y-92778297D01*
X147810734Y-92826092D01*
X147814358Y-92827593D01*
X147929551Y-92875308D01*
X147929552Y-92875308D01*
X147929554Y-92875309D01*
X147929556Y-92875309D01*
X147929562Y-92875311D01*
X148055687Y-92900399D01*
X148055693Y-92900400D01*
X148184303Y-92900400D01*
X148187486Y-92899766D01*
X148310433Y-92875311D01*
X148310435Y-92875310D01*
X148310442Y-92875309D01*
X148429262Y-92826092D01*
X148536197Y-92754640D01*
X148627138Y-92663699D01*
X148698590Y-92556764D01*
X148747807Y-92437944D01*
X148750084Y-92426500D01*
X148772897Y-92311810D01*
X148772898Y-92311805D01*
X148772898Y-91083195D01*
X148772897Y-91083189D01*
X148747809Y-90957064D01*
X148747806Y-90957053D01*
X148698592Y-90838241D01*
X148698592Y-90838240D01*
X148698591Y-90838238D01*
X148698590Y-90838236D01*
X148652555Y-90769340D01*
X148627140Y-90731303D01*
X148536194Y-90640357D01*
X148483088Y-90604874D01*
X148429262Y-90568908D01*
X148429258Y-90568906D01*
X148429256Y-90568905D01*
X148310444Y-90519691D01*
X148310433Y-90519688D01*
X148184308Y-90494600D01*
X148184303Y-90494600D01*
X148055693Y-90494600D01*
X148055687Y-90494600D01*
X147929562Y-90519688D01*
X147929551Y-90519691D01*
X147810739Y-90568905D01*
X147810738Y-90568905D01*
X147703801Y-90640357D01*
X147612855Y-90731303D01*
X147541403Y-90838240D01*
X147541403Y-90838241D01*
X147492189Y-90957053D01*
X147492186Y-90957064D01*
X147467098Y-91083189D01*
X147467098Y-91537481D01*
X147452746Y-91572129D01*
X147418098Y-91586481D01*
X147399346Y-91582751D01*
X147397541Y-91582003D01*
X147324629Y-91567500D01*
X147235779Y-91567500D01*
X147201131Y-91553148D01*
X147186779Y-91518500D01*
X147193344Y-91494000D01*
X147236278Y-91419636D01*
X147236278Y-91419635D01*
X147236279Y-91419634D01*
X147275497Y-91273268D01*
X147275498Y-91273268D01*
X147275498Y-91121730D01*
X147275497Y-91121729D01*
X147247136Y-91015883D01*
X147236279Y-90975364D01*
X147236278Y-90975363D01*
X147236278Y-90975361D01*
X147160512Y-90844133D01*
X147053363Y-90736984D01*
X146922135Y-90661218D01*
X146922131Y-90661217D01*
X146775767Y-90621999D01*
X146775764Y-90621999D01*
X146624232Y-90621999D01*
X146624229Y-90621999D01*
X146480029Y-90660637D01*
X146442847Y-90655742D01*
X146420017Y-90625989D01*
X146395610Y-90534903D01*
X146395609Y-90534899D01*
X146335987Y-90431633D01*
X146335986Y-90431632D01*
X146335984Y-90431628D01*
X146291250Y-90386894D01*
X146276898Y-90352246D01*
X146276898Y-88273087D01*
X146291250Y-88238439D01*
X147383454Y-87146235D01*
X147418102Y-87131883D01*
X147452750Y-87146235D01*
X147467102Y-87180883D01*
X147467102Y-87981810D01*
X147492190Y-88107935D01*
X147492193Y-88107946D01*
X147541407Y-88226758D01*
X147541407Y-88226759D01*
X147612859Y-88333696D01*
X147703805Y-88424642D01*
X147720792Y-88435992D01*
X147810738Y-88496092D01*
X147810743Y-88496094D01*
X147929555Y-88545308D01*
X147929556Y-88545308D01*
X147929558Y-88545309D01*
X147929560Y-88545309D01*
X147929566Y-88545311D01*
X148055691Y-88570399D01*
X148055697Y-88570400D01*
X148184307Y-88570400D01*
X148210529Y-88565184D01*
X148310437Y-88545311D01*
X148310439Y-88545310D01*
X148310446Y-88545309D01*
X148429266Y-88496092D01*
X148536201Y-88424640D01*
X148627142Y-88333699D01*
X148698594Y-88226764D01*
X148747811Y-88107944D01*
X148749388Y-88100019D01*
X148772901Y-87981810D01*
X148772902Y-87981805D01*
X148772902Y-87053195D01*
X148772901Y-87053189D01*
X148747813Y-86927064D01*
X148747810Y-86927053D01*
X148698596Y-86808241D01*
X148698596Y-86808240D01*
X148698595Y-86808238D01*
X148698594Y-86808236D01*
X148637944Y-86717467D01*
X148627144Y-86701303D01*
X148536198Y-86610357D01*
X148468405Y-86565060D01*
X148429266Y-86538908D01*
X148429262Y-86538906D01*
X148429260Y-86538905D01*
X148310448Y-86489691D01*
X148310437Y-86489688D01*
X148211246Y-86469958D01*
X148180063Y-86449123D01*
X148172747Y-86412341D01*
X148193582Y-86381158D01*
X148220805Y-86372900D01*
X149213101Y-86372900D01*
X149247749Y-86387252D01*
X149262101Y-86421900D01*
X149262101Y-86565056D01*
X149269628Y-86602899D01*
X149270972Y-86609658D01*
X149304765Y-86660234D01*
X149330054Y-86677131D01*
X149355342Y-86694028D01*
X149399943Y-86702900D01*
X150180056Y-86702899D01*
X150224658Y-86694028D01*
X150275234Y-86660234D01*
X150309028Y-86609658D01*
X150317900Y-86565057D01*
X150317899Y-86379978D01*
X150332251Y-86345331D01*
X150342395Y-86337546D01*
X150385985Y-86312381D01*
X150442381Y-86255985D01*
X150482258Y-86186915D01*
X150499855Y-86121243D01*
X150502900Y-86109880D01*
X150502900Y-86030119D01*
X150482259Y-85953089D01*
X150482258Y-85953085D01*
X150442381Y-85884015D01*
X150385985Y-85827619D01*
X150385982Y-85827617D01*
X150385978Y-85827614D01*
X150342399Y-85802454D01*
X150319569Y-85772701D01*
X150317899Y-85760019D01*
X150317899Y-85534946D01*
X150317899Y-85534944D01*
X150309028Y-85490342D01*
X150297813Y-85473559D01*
X150275234Y-85439765D01*
X150237386Y-85414477D01*
X150224658Y-85405972D01*
X150224657Y-85405971D01*
X150224656Y-85405971D01*
X150180058Y-85397100D01*
X149399946Y-85397100D01*
X149355341Y-85405972D01*
X149304765Y-85439765D01*
X149270971Y-85490343D01*
X149262100Y-85534939D01*
X149262100Y-85718100D01*
X149247748Y-85752748D01*
X149213100Y-85767100D01*
X148074214Y-85767100D01*
X148074198Y-85767099D01*
X148071201Y-85767099D01*
X147991445Y-85767099D01*
X147991443Y-85767099D01*
X147914409Y-85787741D01*
X147914405Y-85787743D01*
X147845344Y-85827614D01*
X147845335Y-85827621D01*
X145731619Y-87941337D01*
X145731612Y-87941346D01*
X145691741Y-88010407D01*
X145691739Y-88010411D01*
X145671097Y-88087445D01*
X145671097Y-88171146D01*
X145671098Y-88171159D01*
X145671098Y-90351398D01*
X145656746Y-90386046D01*
X145611167Y-90431624D01*
X145611160Y-90431633D01*
X145551538Y-90534899D01*
X145551537Y-90534902D01*
X145520674Y-90650086D01*
X145520674Y-90769343D01*
X145551537Y-90884527D01*
X145551538Y-90884530D01*
X145611160Y-90987796D01*
X145611162Y-90987798D01*
X145611164Y-90987802D01*
X145611167Y-90987805D01*
X145656746Y-91033384D01*
X145671098Y-91068032D01*
X145671098Y-91458336D01*
X145671097Y-91458340D01*
X145671097Y-91494000D01*
X145671097Y-91495602D01*
X145666642Y-91506356D01*
X145656745Y-91530249D01*
X145656744Y-91530249D01*
X145656744Y-91530250D01*
X145636448Y-91538656D01*
X145622097Y-91544601D01*
X145384949Y-91544601D01*
X145362645Y-91549037D01*
X145340344Y-91553473D01*
X145340343Y-91553473D01*
X145340341Y-91553474D01*
X145327221Y-91562240D01*
X145290439Y-91569554D01*
X145272780Y-91562239D01*
X145259657Y-91553471D01*
X145215058Y-91544600D01*
X144884946Y-91544600D01*
X144852097Y-91551134D01*
X144840342Y-91553472D01*
X144840341Y-91553472D01*
X144840338Y-91553473D01*
X144827220Y-91562238D01*
X144790438Y-91569553D01*
X144772778Y-91562238D01*
X144759658Y-91553472D01*
X144759655Y-91553471D01*
X144715058Y-91544600D01*
X144384946Y-91544600D01*
X144352097Y-91551134D01*
X144340342Y-91553472D01*
X144340341Y-91553472D01*
X144340338Y-91553473D01*
X144327220Y-91562238D01*
X144290438Y-91569553D01*
X144272776Y-91562237D01*
X144272775Y-91562236D01*
X144259657Y-91553471D01*
X144259656Y-91553470D01*
X144259655Y-91553470D01*
X144215057Y-91544599D01*
X143884945Y-91544599D01*
X143858229Y-91549913D01*
X143840341Y-91553471D01*
X143840340Y-91553471D01*
X143840338Y-91553472D01*
X143827222Y-91562236D01*
X143790439Y-91569552D01*
X143772776Y-91562236D01*
X143770829Y-91560935D01*
X143759657Y-91553470D01*
X143759656Y-91553469D01*
X143759655Y-91553469D01*
X143715057Y-91544598D01*
X143384945Y-91544598D01*
X143340339Y-91553470D01*
X143340338Y-91553471D01*
X143327219Y-91562237D01*
X143290437Y-91569552D01*
X143272777Y-91562237D01*
X143259657Y-91553471D01*
X143215058Y-91544600D01*
X142884946Y-91544600D01*
X142852097Y-91551134D01*
X142840342Y-91553472D01*
X142840341Y-91553472D01*
X142840338Y-91553473D01*
X142827220Y-91562238D01*
X142790438Y-91569553D01*
X142772778Y-91562238D01*
X142759658Y-91553472D01*
X142759655Y-91553471D01*
X142715058Y-91544600D01*
X142384946Y-91544600D01*
X142358230Y-91549914D01*
X142340342Y-91553472D01*
X142340341Y-91553472D01*
X142340339Y-91553473D01*
X142327219Y-91562239D01*
X142290437Y-91569553D01*
X142272778Y-91562238D01*
X142259658Y-91553472D01*
X142215061Y-91544601D01*
X142215058Y-91544601D01*
X142136276Y-91544601D01*
X142101628Y-91530249D01*
X142087276Y-91495601D01*
X142101628Y-91460953D01*
X142111893Y-91450688D01*
X142222381Y-91340201D01*
X142262258Y-91271131D01*
X142280986Y-91201241D01*
X142282901Y-91194095D01*
X142282901Y-91117892D01*
X142297253Y-91083244D01*
X142318665Y-91061832D01*
X142342410Y-91038087D01*
X142402036Y-90934813D01*
X142432899Y-90819628D01*
X142432900Y-90819628D01*
X142432900Y-90700372D01*
X142432899Y-90700371D01*
X142402036Y-90585187D01*
X142402035Y-90585184D01*
X142342413Y-90481918D01*
X142342412Y-90481917D01*
X142342410Y-90481913D01*
X142258087Y-90397590D01*
X142258083Y-90397588D01*
X142258081Y-90397586D01*
X142154815Y-90337964D01*
X142154812Y-90337963D01*
X142039628Y-90307100D01*
X142039625Y-90307100D01*
X141920375Y-90307100D01*
X141920372Y-90307100D01*
X141805187Y-90337963D01*
X141805184Y-90337964D01*
X141701918Y-90397586D01*
X141701909Y-90397593D01*
X141617593Y-90481909D01*
X141617586Y-90481918D01*
X141557964Y-90585184D01*
X141557963Y-90585187D01*
X141527100Y-90700371D01*
X141527100Y-90819628D01*
X141557963Y-90934812D01*
X141557964Y-90934815D01*
X141617154Y-91037333D01*
X141618823Y-91050013D01*
X141623719Y-91061832D01*
X141621184Y-91067950D01*
X141622049Y-91074515D01*
X141609367Y-91096481D01*
X141566352Y-91139497D01*
X141531705Y-91153849D01*
X141497056Y-91139498D01*
X141484374Y-91117531D01*
X141446280Y-90975363D01*
X141446279Y-90975360D01*
X141393836Y-90884527D01*
X141370514Y-90844133D01*
X141263364Y-90736983D01*
X141253521Y-90731300D01*
X141132136Y-90661217D01*
X141132132Y-90661216D01*
X140985768Y-90621998D01*
X140985765Y-90621998D01*
X140834233Y-90621998D01*
X140834230Y-90621998D01*
X140687865Y-90661216D01*
X140687861Y-90661217D01*
X140556633Y-90736983D01*
X140556633Y-90736984D01*
X140449485Y-90844132D01*
X140449484Y-90844132D01*
X140373718Y-90975360D01*
X140373717Y-90975364D01*
X140334499Y-91121728D01*
X140334499Y-91273267D01*
X140373717Y-91419631D01*
X140373718Y-91419635D01*
X140416654Y-91494000D01*
X140421549Y-91531182D01*
X140398719Y-91560935D01*
X140374219Y-91567500D01*
X140275370Y-91567500D01*
X140202458Y-91582003D01*
X140200649Y-91582753D01*
X140198691Y-91582752D01*
X140197721Y-91582946D01*
X140197682Y-91582752D01*
X140163146Y-91582752D01*
X140136628Y-91556232D01*
X140132899Y-91537482D01*
X140132899Y-91083194D01*
X140132898Y-91083188D01*
X140107810Y-90957063D01*
X140107807Y-90957052D01*
X140058593Y-90838240D01*
X140058593Y-90838239D01*
X140058591Y-90838236D01*
X140058591Y-90838235D01*
X140012557Y-90769340D01*
X139987141Y-90731302D01*
X139896195Y-90640356D01*
X139843089Y-90604873D01*
X139789263Y-90568907D01*
X139789259Y-90568905D01*
X139789257Y-90568904D01*
X139670445Y-90519690D01*
X139670434Y-90519687D01*
X139544309Y-90494599D01*
X139544304Y-90494599D01*
X139415694Y-90494599D01*
X139415688Y-90494599D01*
X139289563Y-90519687D01*
X139289552Y-90519690D01*
X139170740Y-90568904D01*
X139170739Y-90568904D01*
X139063802Y-90640356D01*
X138972856Y-90731302D01*
X138901404Y-90838239D01*
X138901404Y-90838240D01*
X138852190Y-90957052D01*
X138852187Y-90957063D01*
X138827099Y-91083188D01*
X138827099Y-92311809D01*
X138852187Y-92437934D01*
X138852190Y-92437945D01*
X138901404Y-92556757D01*
X138901404Y-92556758D01*
X138972856Y-92663695D01*
X138980777Y-92671616D01*
X138995129Y-92706264D01*
X138980777Y-92740912D01*
X138958812Y-92753594D01*
X138905186Y-92767964D01*
X138905184Y-92767964D01*
X138801918Y-92827586D01*
X138801909Y-92827593D01*
X138717593Y-92911909D01*
X138717586Y-92911918D01*
X138657964Y-93015184D01*
X138657963Y-93015187D01*
X138627100Y-93130371D01*
X138627100Y-93249628D01*
X138657963Y-93364812D01*
X138657964Y-93364815D01*
X138717586Y-93468081D01*
X138717588Y-93468083D01*
X138717590Y-93468087D01*
X138801913Y-93552410D01*
X138826400Y-93566548D01*
X138849230Y-93596299D01*
X138850900Y-93608982D01*
X138850900Y-96275573D01*
X138861018Y-96300000D01*
X138885778Y-96359777D01*
X138890045Y-96364044D01*
X138893726Y-96372173D01*
X138894067Y-96382675D01*
X138898089Y-96392385D01*
X138894741Y-96403422D01*
X138894944Y-96409657D01*
X138891848Y-96412960D01*
X138889833Y-96419606D01*
X138876237Y-96439955D01*
X138800640Y-96622464D01*
X138800637Y-96622475D01*
X138762099Y-96816218D01*
X138762099Y-97013783D01*
X138800637Y-97207526D01*
X138800640Y-97207537D01*
X138874289Y-97385342D01*
X138876240Y-97390052D01*
X138889832Y-97410394D01*
X138897148Y-97447176D01*
X138883738Y-97472264D01*
X138480780Y-97875221D01*
X138480777Y-97875226D01*
X138469771Y-97901800D01*
X138443253Y-97928320D01*
X138405750Y-97928321D01*
X138379230Y-97901803D01*
X138375500Y-97883050D01*
X138375500Y-87053189D01*
X138827100Y-87053189D01*
X138827100Y-87981810D01*
X138852188Y-88107935D01*
X138852191Y-88107946D01*
X138901405Y-88226758D01*
X138901405Y-88226759D01*
X138972857Y-88333696D01*
X139063803Y-88424642D01*
X139080790Y-88435992D01*
X139170736Y-88496092D01*
X139170741Y-88496094D01*
X139289553Y-88545308D01*
X139289554Y-88545308D01*
X139289556Y-88545309D01*
X139289558Y-88545309D01*
X139289564Y-88545311D01*
X139415689Y-88570399D01*
X139415695Y-88570400D01*
X139544305Y-88570400D01*
X139570527Y-88565184D01*
X139670435Y-88545311D01*
X139670437Y-88545310D01*
X139670444Y-88545309D01*
X139789264Y-88496092D01*
X139896199Y-88424640D01*
X139987140Y-88333699D01*
X140058592Y-88226764D01*
X140107809Y-88107944D01*
X140109386Y-88100019D01*
X140132899Y-87981810D01*
X140132900Y-87981805D01*
X140132900Y-87053195D01*
X140132899Y-87053189D01*
X140107811Y-86927064D01*
X140107808Y-86927053D01*
X140058594Y-86808241D01*
X140058594Y-86808240D01*
X140058593Y-86808238D01*
X140058592Y-86808236D01*
X139997942Y-86717467D01*
X139987142Y-86701303D01*
X139896196Y-86610357D01*
X139828403Y-86565060D01*
X139789264Y-86538908D01*
X139789260Y-86538906D01*
X139789258Y-86538905D01*
X139670446Y-86489691D01*
X139670435Y-86489688D01*
X139544310Y-86464600D01*
X139544305Y-86464600D01*
X139415695Y-86464600D01*
X139415689Y-86464600D01*
X139289564Y-86489688D01*
X139289553Y-86489691D01*
X139170741Y-86538905D01*
X139170740Y-86538905D01*
X139063803Y-86610357D01*
X138972857Y-86701303D01*
X138901405Y-86808240D01*
X138901405Y-86808241D01*
X138852191Y-86927053D01*
X138852188Y-86927064D01*
X138827100Y-87053189D01*
X138375500Y-87053189D01*
X138375500Y-85299500D01*
X138389852Y-85264852D01*
X138424500Y-85250500D01*
X158450500Y-85250500D01*
X158485148Y-85264852D01*
G37*
%TD.AperFunction*%
%TD*%
M02*
