M48
; DRILL file {KiCad 9.0.0-rc3-5ca7abf2c1~182~ubuntu24.04.1} date 2025-03-09T20:59:27-0400
; FORMAT={-:-/ absolute / inch / decimal}
; #@! TF.CreationDate,2025-03-09T20:59:27-04:00
; #@! TF.GenerationSoftware,Kicad,Pcbnew,9.0.0-rc3-5ca7abf2c1~182~ubuntu24.04.1
; #@! TF.FileFunction,MixedPlating,1,2
FMAT,2
INCH
; #@! TA.AperFunction,Plated,PTH,ViaDrill
T1C0.0118
; #@! TA.AperFunction,Plated,PTH,ComponentDrill
T2C0.0394
%
G90
G05
T1
X5.7087Y-3.7106
X5.7087Y-3.8091
X5.7087Y-3.9567
X5.7579Y-3.9665
X5.7874Y-3.5827
X5.8071Y-4.1831
X5.8268Y-3.7598
X5.9154Y-3.9469
X5.9843Y-3.5925
X6.0039Y-3.7598
X6.0433Y-4.0748
T2
X5.5201Y-4.0681
X5.5201Y-3.8681
X5.5201Y-3.6681
X5.5201Y-3.7681
X5.5201Y-3.9681
X5.6201Y-3.7681
X5.6201Y-3.8681
X5.6201Y-4.0681
X5.6201Y-3.9681
X5.6201Y-3.6681
X6.0728Y-4.2256
X6.0728Y-3.4256
X6.0728Y-3.5256
X6.0728Y-3.6256
X6.0728Y-3.7256
X6.0728Y-3.8256
X6.0728Y-3.9256
X6.0728Y-4.0256
X6.0728Y-4.1256
X6.0728Y-4.3256
X6.1728Y-3.8256
X6.1728Y-4.0256
X6.1728Y-3.5256
X6.1728Y-3.6256
X6.1728Y-3.9256
X6.1728Y-4.2256
X6.1728Y-3.4256
X6.1728Y-3.7256
X6.1728Y-4.1256
X6.1728Y-4.3256
M30
