%TF.GenerationSoftware,KiCad,Pcbnew,9.0.6*%
%TF.CreationDate,2026-01-23T17:12:39-05:00*%
%TF.ProjectId,TagMod,5461674d-6f64-42e6-9b69-6361645f7063,rev?*%
%TF.SameCoordinates,Original*%
%TF.FileFunction,Legend,Bot*%
%TF.FilePolarity,Positive*%
%FSLAX46Y46*%
G04 Gerber Fmt 4.6, Leading zero omitted, Abs format (unit mm)*
G04 Created by KiCad (PCBNEW 9.0.6) date 2026-01-23 17:12:39*
%MOMM*%
%LPD*%
G01*
G04 APERTURE LIST*
%ADD10C,0.100000*%
%ADD11C,0.120000*%
%ADD12C,0.000000*%
G04 APERTURE END LIST*
D10*
X146015714Y-100392371D02*
X146215714Y-100106657D01*
X146358571Y-100392371D02*
X146358571Y-99792371D01*
X146358571Y-99792371D02*
X146130000Y-99792371D01*
X146130000Y-99792371D02*
X146072857Y-99820942D01*
X146072857Y-99820942D02*
X146044286Y-99849514D01*
X146044286Y-99849514D02*
X146015714Y-99906657D01*
X146015714Y-99906657D02*
X146015714Y-99992371D01*
X146015714Y-99992371D02*
X146044286Y-100049514D01*
X146044286Y-100049514D02*
X146072857Y-100078085D01*
X146072857Y-100078085D02*
X146130000Y-100106657D01*
X146130000Y-100106657D02*
X146358571Y-100106657D01*
X145501429Y-99792371D02*
X145615714Y-99792371D01*
X145615714Y-99792371D02*
X145672857Y-99820942D01*
X145672857Y-99820942D02*
X145701429Y-99849514D01*
X145701429Y-99849514D02*
X145758571Y-99935228D01*
X145758571Y-99935228D02*
X145787143Y-100049514D01*
X145787143Y-100049514D02*
X145787143Y-100278085D01*
X145787143Y-100278085D02*
X145758571Y-100335228D01*
X145758571Y-100335228D02*
X145730000Y-100363800D01*
X145730000Y-100363800D02*
X145672857Y-100392371D01*
X145672857Y-100392371D02*
X145558571Y-100392371D01*
X145558571Y-100392371D02*
X145501429Y-100363800D01*
X145501429Y-100363800D02*
X145472857Y-100335228D01*
X145472857Y-100335228D02*
X145444286Y-100278085D01*
X145444286Y-100278085D02*
X145444286Y-100135228D01*
X145444286Y-100135228D02*
X145472857Y-100078085D01*
X145472857Y-100078085D02*
X145501429Y-100049514D01*
X145501429Y-100049514D02*
X145558571Y-100020942D01*
X145558571Y-100020942D02*
X145672857Y-100020942D01*
X145672857Y-100020942D02*
X145730000Y-100049514D01*
X145730000Y-100049514D02*
X145758571Y-100078085D01*
X145758571Y-100078085D02*
X145787143Y-100135228D01*
X145158571Y-100392371D02*
X145044285Y-100392371D01*
X145044285Y-100392371D02*
X144987142Y-100363800D01*
X144987142Y-100363800D02*
X144958571Y-100335228D01*
X144958571Y-100335228D02*
X144901428Y-100249514D01*
X144901428Y-100249514D02*
X144872857Y-100135228D01*
X144872857Y-100135228D02*
X144872857Y-99906657D01*
X144872857Y-99906657D02*
X144901428Y-99849514D01*
X144901428Y-99849514D02*
X144930000Y-99820942D01*
X144930000Y-99820942D02*
X144987142Y-99792371D01*
X144987142Y-99792371D02*
X145101428Y-99792371D01*
X145101428Y-99792371D02*
X145158571Y-99820942D01*
X145158571Y-99820942D02*
X145187142Y-99849514D01*
X145187142Y-99849514D02*
X145215714Y-99906657D01*
X145215714Y-99906657D02*
X145215714Y-100049514D01*
X145215714Y-100049514D02*
X145187142Y-100106657D01*
X145187142Y-100106657D02*
X145158571Y-100135228D01*
X145158571Y-100135228D02*
X145101428Y-100163800D01*
X145101428Y-100163800D02*
X144987142Y-100163800D01*
X144987142Y-100163800D02*
X144930000Y-100135228D01*
X144930000Y-100135228D02*
X144901428Y-100106657D01*
X144901428Y-100106657D02*
X144872857Y-100049514D01*
X143199999Y-110482371D02*
X143399999Y-110196657D01*
X143542856Y-110482371D02*
X143542856Y-109882371D01*
X143542856Y-109882371D02*
X143314285Y-109882371D01*
X143314285Y-109882371D02*
X143257142Y-109910942D01*
X143257142Y-109910942D02*
X143228571Y-109939514D01*
X143228571Y-109939514D02*
X143199999Y-109996657D01*
X143199999Y-109996657D02*
X143199999Y-110082371D01*
X143199999Y-110082371D02*
X143228571Y-110139514D01*
X143228571Y-110139514D02*
X143257142Y-110168085D01*
X143257142Y-110168085D02*
X143314285Y-110196657D01*
X143314285Y-110196657D02*
X143542856Y-110196657D01*
X142657142Y-109882371D02*
X142942856Y-109882371D01*
X142942856Y-109882371D02*
X142971428Y-110168085D01*
X142971428Y-110168085D02*
X142942856Y-110139514D01*
X142942856Y-110139514D02*
X142885714Y-110110942D01*
X142885714Y-110110942D02*
X142742856Y-110110942D01*
X142742856Y-110110942D02*
X142685714Y-110139514D01*
X142685714Y-110139514D02*
X142657142Y-110168085D01*
X142657142Y-110168085D02*
X142628571Y-110225228D01*
X142628571Y-110225228D02*
X142628571Y-110368085D01*
X142628571Y-110368085D02*
X142657142Y-110425228D01*
X142657142Y-110425228D02*
X142685714Y-110453800D01*
X142685714Y-110453800D02*
X142742856Y-110482371D01*
X142742856Y-110482371D02*
X142885714Y-110482371D01*
X142885714Y-110482371D02*
X142942856Y-110453800D01*
X142942856Y-110453800D02*
X142971428Y-110425228D01*
X148925714Y-107022371D02*
X149125714Y-106736657D01*
X149268571Y-107022371D02*
X149268571Y-106422371D01*
X149268571Y-106422371D02*
X149040000Y-106422371D01*
X149040000Y-106422371D02*
X148982857Y-106450942D01*
X148982857Y-106450942D02*
X148954286Y-106479514D01*
X148954286Y-106479514D02*
X148925714Y-106536657D01*
X148925714Y-106536657D02*
X148925714Y-106622371D01*
X148925714Y-106622371D02*
X148954286Y-106679514D01*
X148954286Y-106679514D02*
X148982857Y-106708085D01*
X148982857Y-106708085D02*
X149040000Y-106736657D01*
X149040000Y-106736657D02*
X149268571Y-106736657D01*
X148411429Y-106422371D02*
X148525714Y-106422371D01*
X148525714Y-106422371D02*
X148582857Y-106450942D01*
X148582857Y-106450942D02*
X148611429Y-106479514D01*
X148611429Y-106479514D02*
X148668571Y-106565228D01*
X148668571Y-106565228D02*
X148697143Y-106679514D01*
X148697143Y-106679514D02*
X148697143Y-106908085D01*
X148697143Y-106908085D02*
X148668571Y-106965228D01*
X148668571Y-106965228D02*
X148640000Y-106993800D01*
X148640000Y-106993800D02*
X148582857Y-107022371D01*
X148582857Y-107022371D02*
X148468571Y-107022371D01*
X148468571Y-107022371D02*
X148411429Y-106993800D01*
X148411429Y-106993800D02*
X148382857Y-106965228D01*
X148382857Y-106965228D02*
X148354286Y-106908085D01*
X148354286Y-106908085D02*
X148354286Y-106765228D01*
X148354286Y-106765228D02*
X148382857Y-106708085D01*
X148382857Y-106708085D02*
X148411429Y-106679514D01*
X148411429Y-106679514D02*
X148468571Y-106650942D01*
X148468571Y-106650942D02*
X148582857Y-106650942D01*
X148582857Y-106650942D02*
X148640000Y-106679514D01*
X148640000Y-106679514D02*
X148668571Y-106708085D01*
X148668571Y-106708085D02*
X148697143Y-106765228D01*
X148154285Y-106422371D02*
X147754285Y-106422371D01*
X147754285Y-106422371D02*
X148011428Y-107022371D01*
X148575714Y-102772371D02*
X148775714Y-102486657D01*
X148918571Y-102772371D02*
X148918571Y-102172371D01*
X148918571Y-102172371D02*
X148690000Y-102172371D01*
X148690000Y-102172371D02*
X148632857Y-102200942D01*
X148632857Y-102200942D02*
X148604286Y-102229514D01*
X148604286Y-102229514D02*
X148575714Y-102286657D01*
X148575714Y-102286657D02*
X148575714Y-102372371D01*
X148575714Y-102372371D02*
X148604286Y-102429514D01*
X148604286Y-102429514D02*
X148632857Y-102458085D01*
X148632857Y-102458085D02*
X148690000Y-102486657D01*
X148690000Y-102486657D02*
X148918571Y-102486657D01*
X148061429Y-102172371D02*
X148175714Y-102172371D01*
X148175714Y-102172371D02*
X148232857Y-102200942D01*
X148232857Y-102200942D02*
X148261429Y-102229514D01*
X148261429Y-102229514D02*
X148318571Y-102315228D01*
X148318571Y-102315228D02*
X148347143Y-102429514D01*
X148347143Y-102429514D02*
X148347143Y-102658085D01*
X148347143Y-102658085D02*
X148318571Y-102715228D01*
X148318571Y-102715228D02*
X148290000Y-102743800D01*
X148290000Y-102743800D02*
X148232857Y-102772371D01*
X148232857Y-102772371D02*
X148118571Y-102772371D01*
X148118571Y-102772371D02*
X148061429Y-102743800D01*
X148061429Y-102743800D02*
X148032857Y-102715228D01*
X148032857Y-102715228D02*
X148004286Y-102658085D01*
X148004286Y-102658085D02*
X148004286Y-102515228D01*
X148004286Y-102515228D02*
X148032857Y-102458085D01*
X148032857Y-102458085D02*
X148061429Y-102429514D01*
X148061429Y-102429514D02*
X148118571Y-102400942D01*
X148118571Y-102400942D02*
X148232857Y-102400942D01*
X148232857Y-102400942D02*
X148290000Y-102429514D01*
X148290000Y-102429514D02*
X148318571Y-102458085D01*
X148318571Y-102458085D02*
X148347143Y-102515228D01*
X147661428Y-102429514D02*
X147718571Y-102400942D01*
X147718571Y-102400942D02*
X147747142Y-102372371D01*
X147747142Y-102372371D02*
X147775714Y-102315228D01*
X147775714Y-102315228D02*
X147775714Y-102286657D01*
X147775714Y-102286657D02*
X147747142Y-102229514D01*
X147747142Y-102229514D02*
X147718571Y-102200942D01*
X147718571Y-102200942D02*
X147661428Y-102172371D01*
X147661428Y-102172371D02*
X147547142Y-102172371D01*
X147547142Y-102172371D02*
X147490000Y-102200942D01*
X147490000Y-102200942D02*
X147461428Y-102229514D01*
X147461428Y-102229514D02*
X147432857Y-102286657D01*
X147432857Y-102286657D02*
X147432857Y-102315228D01*
X147432857Y-102315228D02*
X147461428Y-102372371D01*
X147461428Y-102372371D02*
X147490000Y-102400942D01*
X147490000Y-102400942D02*
X147547142Y-102429514D01*
X147547142Y-102429514D02*
X147661428Y-102429514D01*
X147661428Y-102429514D02*
X147718571Y-102458085D01*
X147718571Y-102458085D02*
X147747142Y-102486657D01*
X147747142Y-102486657D02*
X147775714Y-102543800D01*
X147775714Y-102543800D02*
X147775714Y-102658085D01*
X147775714Y-102658085D02*
X147747142Y-102715228D01*
X147747142Y-102715228D02*
X147718571Y-102743800D01*
X147718571Y-102743800D02*
X147661428Y-102772371D01*
X147661428Y-102772371D02*
X147547142Y-102772371D01*
X147547142Y-102772371D02*
X147490000Y-102743800D01*
X147490000Y-102743800D02*
X147461428Y-102715228D01*
X147461428Y-102715228D02*
X147432857Y-102658085D01*
X147432857Y-102658085D02*
X147432857Y-102543800D01*
X147432857Y-102543800D02*
X147461428Y-102486657D01*
X147461428Y-102486657D02*
X147490000Y-102458085D01*
X147490000Y-102458085D02*
X147547142Y-102429514D01*
X145805714Y-98472371D02*
X146005714Y-98186657D01*
X146148571Y-98472371D02*
X146148571Y-97872371D01*
X146148571Y-97872371D02*
X145920000Y-97872371D01*
X145920000Y-97872371D02*
X145862857Y-97900942D01*
X145862857Y-97900942D02*
X145834286Y-97929514D01*
X145834286Y-97929514D02*
X145805714Y-97986657D01*
X145805714Y-97986657D02*
X145805714Y-98072371D01*
X145805714Y-98072371D02*
X145834286Y-98129514D01*
X145834286Y-98129514D02*
X145862857Y-98158085D01*
X145862857Y-98158085D02*
X145920000Y-98186657D01*
X145920000Y-98186657D02*
X146148571Y-98186657D01*
X145605714Y-97872371D02*
X145205714Y-97872371D01*
X145205714Y-97872371D02*
X145462857Y-98472371D01*
X144862857Y-97872371D02*
X144805714Y-97872371D01*
X144805714Y-97872371D02*
X144748571Y-97900942D01*
X144748571Y-97900942D02*
X144720000Y-97929514D01*
X144720000Y-97929514D02*
X144691428Y-97986657D01*
X144691428Y-97986657D02*
X144662857Y-98100942D01*
X144662857Y-98100942D02*
X144662857Y-98243800D01*
X144662857Y-98243800D02*
X144691428Y-98358085D01*
X144691428Y-98358085D02*
X144720000Y-98415228D01*
X144720000Y-98415228D02*
X144748571Y-98443800D01*
X144748571Y-98443800D02*
X144805714Y-98472371D01*
X144805714Y-98472371D02*
X144862857Y-98472371D01*
X144862857Y-98472371D02*
X144920000Y-98443800D01*
X144920000Y-98443800D02*
X144948571Y-98415228D01*
X144948571Y-98415228D02*
X144977142Y-98358085D01*
X144977142Y-98358085D02*
X145005714Y-98243800D01*
X145005714Y-98243800D02*
X145005714Y-98100942D01*
X145005714Y-98100942D02*
X144977142Y-97986657D01*
X144977142Y-97986657D02*
X144948571Y-97929514D01*
X144948571Y-97929514D02*
X144920000Y-97900942D01*
X144920000Y-97900942D02*
X144862857Y-97872371D01*
X151702371Y-90120000D02*
X151416657Y-89920000D01*
X151702371Y-89777143D02*
X151102371Y-89777143D01*
X151102371Y-89777143D02*
X151102371Y-90005714D01*
X151102371Y-90005714D02*
X151130942Y-90062857D01*
X151130942Y-90062857D02*
X151159514Y-90091428D01*
X151159514Y-90091428D02*
X151216657Y-90120000D01*
X151216657Y-90120000D02*
X151302371Y-90120000D01*
X151302371Y-90120000D02*
X151359514Y-90091428D01*
X151359514Y-90091428D02*
X151388085Y-90062857D01*
X151388085Y-90062857D02*
X151416657Y-90005714D01*
X151416657Y-90005714D02*
X151416657Y-89777143D01*
X151302371Y-90634286D02*
X151702371Y-90634286D01*
X151073800Y-90491428D02*
X151502371Y-90348571D01*
X151502371Y-90348571D02*
X151502371Y-90720000D01*
D11*
%TO.C,R69*%
X148417258Y-99607500D02*
X147942742Y-99607500D01*
X148417258Y-100652500D02*
X147942742Y-100652500D01*
%TO.C,TP103*%
X149590000Y-92800000D02*
X149590000Y-95200000D01*
X149590000Y-95200000D02*
X151990000Y-95200000D01*
X151990000Y-92800000D02*
X149590000Y-92800000D01*
X151990000Y-95200000D02*
X151990000Y-92800000D01*
%TO.C,R5*%
X140762742Y-109737500D02*
X141237258Y-109737500D01*
X140762742Y-110782500D02*
X141237258Y-110782500D01*
%TO.C,R67*%
X151142258Y-106157500D02*
X150667742Y-106157500D01*
X151142258Y-107202500D02*
X150667742Y-107202500D01*
%TO.C,J101*%
X152919998Y-85679998D02*
X158120000Y-85680000D01*
X152919998Y-109869999D02*
X152920000Y-111200000D01*
X152920000Y-111200000D02*
X154249999Y-111200002D01*
X152920001Y-108600000D02*
X152919998Y-85679998D01*
X152920001Y-108600000D02*
X155519999Y-108600000D01*
X155519999Y-108600000D02*
X155520001Y-111200002D01*
X155520001Y-111200002D02*
X158120001Y-111199999D01*
X158120001Y-111199999D02*
X158120000Y-85680000D01*
%TO.C,TP101*%
X149650000Y-96040000D02*
X149650000Y-98440000D01*
X149650000Y-98440000D02*
X152050000Y-98440000D01*
X152050000Y-96040000D02*
X149650000Y-96040000D01*
X152050000Y-98440000D02*
X152050000Y-96040000D01*
%TO.C,R68*%
X150582742Y-101997500D02*
X151057258Y-101997500D01*
X150582742Y-103042500D02*
X151057258Y-103042500D01*
D12*
%TO.C,G\u002A\u002A\u002A*%
G36*
X142948491Y-85711774D02*
G01*
X142948491Y-85774470D01*
X142704663Y-85774472D01*
X142460833Y-85774471D01*
X142460831Y-85711771D01*
X142460835Y-85649074D01*
X142704662Y-85649074D01*
X142948491Y-85649073D01*
X142948491Y-85711774D01*
G37*
G36*
X143756609Y-92218519D02*
G01*
X143756609Y-92323018D01*
X143707843Y-92323017D01*
X143659078Y-92323018D01*
X143659078Y-92218517D01*
X143659078Y-92114021D01*
X143707843Y-92114020D01*
X143756608Y-92114020D01*
X143756609Y-92218519D01*
G37*
G36*
X144752824Y-92016490D02*
G01*
X144801593Y-92016490D01*
X144801591Y-92120990D01*
X144801590Y-92225488D01*
X144752824Y-92225486D01*
X144704057Y-92225485D01*
X144704058Y-92120987D01*
X144704059Y-92016488D01*
X144752824Y-92016490D01*
G37*
G36*
X145818703Y-93333165D02*
G01*
X145818705Y-93437664D01*
X145762974Y-93437664D01*
X145707242Y-93437664D01*
X145707239Y-93333165D01*
X145707240Y-93228668D01*
X145762972Y-93228668D01*
X145818705Y-93228668D01*
X145818703Y-93333165D01*
G37*
G36*
X145797805Y-93033604D02*
G01*
X146041635Y-93033606D01*
X146041634Y-93096303D01*
X146041634Y-93159002D01*
X145797806Y-93159004D01*
X145553977Y-93159004D01*
X145553975Y-93096301D01*
X145553977Y-93033603D01*
X145797805Y-93033604D01*
G37*
G36*
X144662259Y-85558508D02*
G01*
X144662259Y-85663007D01*
X144843387Y-85663007D01*
X145024518Y-85663006D01*
X145024521Y-85718738D01*
X145024518Y-85774471D01*
X144787657Y-85774470D01*
X144550795Y-85774471D01*
X144550797Y-85614242D01*
X144550795Y-85454010D01*
X144606526Y-85454012D01*
X144662259Y-85454010D01*
X144662259Y-85558508D01*
G37*
G36*
X141959242Y-86512924D02*
G01*
X142014976Y-86512924D01*
X142014975Y-86714952D01*
X142014975Y-86916984D01*
X141959242Y-86916984D01*
X141903510Y-86916982D01*
X141903511Y-86847318D01*
X141903511Y-86777651D01*
X141715414Y-86777653D01*
X141527318Y-86777654D01*
X141527317Y-86714953D01*
X141527317Y-86652255D01*
X141715413Y-86652255D01*
X141903510Y-86652255D01*
X141903512Y-86582589D01*
X141903510Y-86512923D01*
X141959242Y-86512924D01*
G37*
G36*
X141973175Y-91194438D02*
G01*
X142028908Y-91194438D01*
X142028907Y-91396466D01*
X142028910Y-91598496D01*
X141973175Y-91598498D01*
X141917443Y-91598498D01*
X141917445Y-91528834D01*
X141917443Y-91459167D01*
X141729346Y-91459164D01*
X141541250Y-91459167D01*
X141541251Y-91396469D01*
X141541248Y-91333770D01*
X141729344Y-91333770D01*
X141917443Y-91333769D01*
X141917441Y-91264105D01*
X141917445Y-91194437D01*
X141973175Y-91194438D01*
G37*
G36*
X145985904Y-91180505D02*
G01*
X146041634Y-91180505D01*
X146041634Y-91382535D01*
X146041633Y-91584563D01*
X145985903Y-91584563D01*
X145930170Y-91584564D01*
X145930169Y-91514897D01*
X145930169Y-91445236D01*
X145742074Y-91445234D01*
X145553975Y-91445235D01*
X145553976Y-91382535D01*
X145553977Y-91319835D01*
X145742074Y-91319835D01*
X145930170Y-91319838D01*
X145930169Y-91250170D01*
X145930169Y-91180503D01*
X145985904Y-91180505D01*
G37*
G36*
X142028909Y-93340132D02*
G01*
X142028908Y-93402833D01*
X142028910Y-93465530D01*
X141893059Y-93465875D01*
X141757215Y-93466217D01*
X141892962Y-93539025D01*
X142028713Y-93611825D01*
X142028812Y-93684974D01*
X142028907Y-93758126D01*
X141785079Y-93758125D01*
X141541249Y-93758123D01*
X141541250Y-93702864D01*
X141541249Y-93647603D01*
X141691028Y-93643649D01*
X141840810Y-93639694D01*
X141694513Y-93561223D01*
X141548215Y-93482751D01*
X141544006Y-93411442D01*
X141539793Y-93340132D01*
X141784351Y-93340130D01*
X142028909Y-93340132D01*
G37*
G36*
X143059955Y-91779126D02*
G01*
X143059955Y-91834351D01*
X142925201Y-91838339D01*
X142790448Y-91842326D01*
X142921719Y-91912884D01*
X143052987Y-91983446D01*
X143057199Y-92055700D01*
X143061413Y-92127955D01*
X142816854Y-92127955D01*
X142572296Y-92127954D01*
X142572297Y-92072224D01*
X142572297Y-92016491D01*
X142722079Y-92016088D01*
X142871859Y-92015686D01*
X142722261Y-91935976D01*
X142572667Y-91856258D01*
X142572481Y-91790075D01*
X142572296Y-91723895D01*
X142816127Y-91723895D01*
X143059955Y-91723895D01*
X143059955Y-91779126D01*
G37*
G36*
X143707844Y-86429326D02*
G01*
X143951669Y-86429328D01*
X143951671Y-86492025D01*
X143951672Y-86554724D01*
X143815825Y-86555019D01*
X143679977Y-86555317D01*
X143815822Y-86627848D01*
X143951673Y-86700378D01*
X143951672Y-86773848D01*
X143951672Y-86847318D01*
X143707843Y-86847318D01*
X143464014Y-86847320D01*
X143464014Y-86791587D01*
X143464015Y-86735854D01*
X143620762Y-86735607D01*
X143777510Y-86735363D01*
X143620762Y-86651375D01*
X143464013Y-86567391D01*
X143464016Y-86498356D01*
X143464015Y-86429324D01*
X143707844Y-86429326D01*
G37*
G36*
X146027700Y-86450227D02*
G01*
X146027701Y-86512924D01*
X145891853Y-86513221D01*
X145756006Y-86513517D01*
X145891852Y-86586050D01*
X146027703Y-86658580D01*
X146027699Y-86732048D01*
X146027703Y-86805519D01*
X145783873Y-86805520D01*
X145540044Y-86805518D01*
X145540044Y-86742819D01*
X145540045Y-86680121D01*
X145682857Y-86679839D01*
X145825672Y-86679555D01*
X145682857Y-86602379D01*
X145540043Y-86525204D01*
X145540044Y-86456366D01*
X145540043Y-86387527D01*
X145783872Y-86387528D01*
X146027700Y-86387525D01*
X146027700Y-86450227D01*
G37*
G36*
X146041633Y-92532015D02*
G01*
X146041634Y-92594713D01*
X146041634Y-92657411D01*
X145905786Y-92657895D01*
X145769939Y-92658379D01*
X145905554Y-92731044D01*
X146041172Y-92803709D01*
X146041405Y-92876859D01*
X146041634Y-92950006D01*
X145797807Y-92950007D01*
X145553976Y-92950006D01*
X145553976Y-92887812D01*
X145553979Y-92825617D01*
X145688728Y-92821629D01*
X145823482Y-92817643D01*
X145692211Y-92747083D01*
X145560944Y-92676521D01*
X145556729Y-92604267D01*
X145552522Y-92532013D01*
X145797077Y-92532013D01*
X146041633Y-92532015D01*
G37*
G36*
X144648324Y-92685277D02*
G01*
X144648326Y-92796745D01*
X144648327Y-92908208D01*
X144690125Y-92908205D01*
X144731925Y-92908207D01*
X144731925Y-92810675D01*
X144731925Y-92713144D01*
X144780688Y-92713142D01*
X144829456Y-92713144D01*
X144829458Y-92810674D01*
X144829457Y-92908207D01*
X144871254Y-92908205D01*
X144913056Y-92908207D01*
X144913055Y-92796744D01*
X144913056Y-92685277D01*
X144968786Y-92685277D01*
X145024519Y-92685278D01*
X145024519Y-92859441D01*
X145024520Y-93033602D01*
X144780689Y-93033603D01*
X144536862Y-93033606D01*
X144536862Y-92859441D01*
X144536860Y-92685277D01*
X144592594Y-92685276D01*
X144648324Y-92685277D01*
G37*
G36*
X141853800Y-86276080D02*
G01*
X141886660Y-86278574D01*
X141900608Y-86288801D01*
X141903511Y-86311809D01*
X141900545Y-86338988D01*
X141889086Y-86374510D01*
X141881780Y-86392931D01*
X141889086Y-86401460D01*
X141890981Y-86401880D01*
X141899887Y-86417994D01*
X141903508Y-86450223D01*
X141903510Y-86498991D01*
X141715415Y-86498990D01*
X141527316Y-86498990D01*
X141527315Y-86443260D01*
X141527316Y-86387525D01*
X141628716Y-86387526D01*
X141698346Y-86383726D01*
X141751679Y-86370180D01*
X141782272Y-86345943D01*
X141792046Y-86310104D01*
X141792058Y-86307803D01*
X141795862Y-86286990D01*
X141811838Y-86278000D01*
X141847777Y-86276064D01*
X141853800Y-86276080D01*
G37*
G36*
X141855151Y-89301738D02*
G01*
X141937120Y-89333517D01*
X142008867Y-89382260D01*
X142062952Y-89444945D01*
X142094168Y-89507772D01*
X142114962Y-89595863D01*
X142112401Y-89683083D01*
X142088419Y-89765373D01*
X142044936Y-89838662D01*
X141983887Y-89898891D01*
X141907194Y-89942002D01*
X141816787Y-89963922D01*
X141777516Y-89965591D01*
X141685965Y-89951479D01*
X141601481Y-89914352D01*
X141529748Y-89857230D01*
X141476451Y-89783137D01*
X141460757Y-89741070D01*
X141448597Y-89671271D01*
X141447160Y-89596903D01*
X141457387Y-89530380D01*
X141489408Y-89457492D01*
X141545448Y-89387521D01*
X141618038Y-89332541D01*
X141701481Y-89297971D01*
X141770402Y-89289950D01*
X141855151Y-89301738D01*
G37*
G36*
X145009597Y-92226971D02*
G01*
X145020740Y-92243380D01*
X145024521Y-92285616D01*
X145024519Y-92345746D01*
X144863253Y-92394404D01*
X144701987Y-92443062D01*
X144863230Y-92491021D01*
X145024475Y-92538980D01*
X145024496Y-92606652D01*
X145023697Y-92635061D01*
X145018306Y-92662822D01*
X145007103Y-92667836D01*
X144994943Y-92663632D01*
X144959291Y-92651634D01*
X144905542Y-92633706D01*
X144838425Y-92611420D01*
X144762662Y-92586353D01*
X144535638Y-92511361D01*
X144539733Y-92443701D01*
X144543828Y-92376041D01*
X144766758Y-92302087D01*
X144822316Y-92283798D01*
X144891460Y-92261448D01*
X144948484Y-92243508D01*
X144988618Y-92231465D01*
X145007102Y-92226809D01*
X145009597Y-92226971D01*
G37*
G36*
X142908033Y-88352875D02*
G01*
X142982986Y-88391707D01*
X143045188Y-88447180D01*
X143092199Y-88515723D01*
X143121569Y-88593766D01*
X143130855Y-88677745D01*
X143117611Y-88764081D01*
X143079392Y-88849210D01*
X143054262Y-88884553D01*
X142989432Y-88944922D01*
X142913531Y-88984409D01*
X142831136Y-89003371D01*
X142746813Y-89002155D01*
X142665135Y-88981124D01*
X142590678Y-88940635D01*
X142528008Y-88881041D01*
X142481701Y-88802696D01*
X142480750Y-88800356D01*
X142466181Y-88740516D01*
X142461630Y-88668050D01*
X142467059Y-88595715D01*
X142482441Y-88536257D01*
X142505754Y-88491204D01*
X142564737Y-88421203D01*
X142641180Y-88369257D01*
X142730109Y-88339328D01*
X142822780Y-88334252D01*
X142908033Y-88352875D01*
G37*
G36*
X141958876Y-88347766D02*
G01*
X142037255Y-88389600D01*
X142102409Y-88450696D01*
X142149450Y-88529288D01*
X142154102Y-88542058D01*
X142165600Y-88603701D01*
X142167153Y-88676070D01*
X142159098Y-88747149D01*
X142141770Y-88804917D01*
X142099892Y-88870400D01*
X142038963Y-88930081D01*
X141970140Y-88971406D01*
X141909762Y-88987657D01*
X141830845Y-88992892D01*
X141751757Y-88984871D01*
X141685016Y-88963922D01*
X141635918Y-88934809D01*
X141572131Y-88874389D01*
X141528220Y-88801702D01*
X141504194Y-88721250D01*
X141500073Y-88637551D01*
X141515869Y-88555113D01*
X141551601Y-88478451D01*
X141607283Y-88412074D01*
X141682927Y-88360497D01*
X141693285Y-88355553D01*
X141781998Y-88328974D01*
X141872162Y-88326970D01*
X141958876Y-88347766D01*
G37*
G36*
X142932277Y-89336666D02*
G01*
X143008442Y-89375797D01*
X143068485Y-89432716D01*
X143085756Y-89459093D01*
X143114724Y-89521077D01*
X143135561Y-89588391D01*
X143143555Y-89647551D01*
X143142193Y-89674865D01*
X143121169Y-89760737D01*
X143078044Y-89840573D01*
X143017107Y-89907795D01*
X142942649Y-89955823D01*
X142892735Y-89971787D01*
X142816601Y-89981034D01*
X142738986Y-89977400D01*
X142672865Y-89960654D01*
X142607840Y-89921915D01*
X142547012Y-89864366D01*
X142501151Y-89797693D01*
X142474512Y-89726634D01*
X142465050Y-89637696D01*
X142478957Y-89550376D01*
X142514586Y-89469829D01*
X142570290Y-89401214D01*
X142644412Y-89349694D01*
X142669983Y-89338328D01*
X142756755Y-89316698D01*
X142846284Y-89316556D01*
X142932277Y-89336666D01*
G37*
G36*
X144898754Y-88319902D02*
G01*
X144977134Y-88361733D01*
X145042291Y-88422830D01*
X145089329Y-88501423D01*
X145093981Y-88514192D01*
X145105478Y-88575836D01*
X145107033Y-88648205D01*
X145098977Y-88719283D01*
X145081646Y-88777049D01*
X145078541Y-88783573D01*
X145026156Y-88861283D01*
X144956007Y-88918231D01*
X144870162Y-88953163D01*
X144770688Y-88964840D01*
X144750024Y-88964367D01*
X144660288Y-88950120D01*
X144585462Y-88914570D01*
X144520905Y-88855679D01*
X144477225Y-88791453D01*
X144446118Y-88706591D01*
X144438379Y-88618829D01*
X144453090Y-88532853D01*
X144489344Y-88453366D01*
X144546219Y-88385057D01*
X144622806Y-88332633D01*
X144633162Y-88327689D01*
X144721879Y-88301110D01*
X144812039Y-88299104D01*
X144898754Y-88319902D01*
G37*
G36*
X143841537Y-88332917D02*
G01*
X143923741Y-88360497D01*
X143995629Y-88406533D01*
X144052345Y-88469047D01*
X144089033Y-88546071D01*
X144098503Y-88588834D01*
X144104256Y-88661425D01*
X144099823Y-88732546D01*
X144085390Y-88789891D01*
X144064597Y-88829075D01*
X144017702Y-88888865D01*
X143960782Y-88939793D01*
X143902752Y-88972910D01*
X143894910Y-88975763D01*
X143816332Y-88992100D01*
X143732247Y-88991543D01*
X143652494Y-88975016D01*
X143586919Y-88943434D01*
X143559028Y-88922440D01*
X143496150Y-88857792D01*
X143457286Y-88783546D01*
X143439738Y-88695144D01*
X143438190Y-88656705D01*
X143450271Y-88559445D01*
X143485731Y-88476150D01*
X143543795Y-88408253D01*
X143623676Y-88357202D01*
X143665611Y-88340993D01*
X143753875Y-88325758D01*
X143841537Y-88332917D01*
G37*
G36*
X145837420Y-89307995D02*
G01*
X145923301Y-89336600D01*
X146000181Y-89384720D01*
X146061682Y-89450250D01*
X146072930Y-89466984D01*
X146092606Y-89505203D01*
X146103476Y-89548164D01*
X146109006Y-89607398D01*
X146109876Y-89637016D01*
X146098547Y-89736093D01*
X146064092Y-89819773D01*
X146006187Y-89888661D01*
X145924501Y-89943352D01*
X145871222Y-89962080D01*
X145793917Y-89971774D01*
X145713329Y-89967072D01*
X145640830Y-89947794D01*
X145591741Y-89919484D01*
X145535104Y-89868948D01*
X145488007Y-89808728D01*
X145458898Y-89748091D01*
X145445989Y-89688828D01*
X145445234Y-89593666D01*
X145468357Y-89505033D01*
X145513446Y-89426955D01*
X145578607Y-89363460D01*
X145661929Y-89318564D01*
X145664205Y-89317727D01*
X145748929Y-89301001D01*
X145837420Y-89307995D01*
G37*
G36*
X142028907Y-92462348D02*
G01*
X142028906Y-92636512D01*
X142028910Y-92810674D01*
X141785079Y-92810675D01*
X141541252Y-92810673D01*
X141541251Y-92636514D01*
X141541251Y-92462349D01*
X141596984Y-92462348D01*
X141652715Y-92462348D01*
X141652715Y-92573813D01*
X141652715Y-92685278D01*
X141694516Y-92685278D01*
X141736313Y-92685278D01*
X141736313Y-92587747D01*
X141736312Y-92490211D01*
X141792045Y-92490214D01*
X141847778Y-92490214D01*
X141847780Y-92587747D01*
X141847841Y-92613753D01*
X141849194Y-92654152D01*
X141853997Y-92675493D01*
X141864412Y-92683842D01*
X141882610Y-92685278D01*
X141897290Y-92684601D01*
X141908771Y-92678802D01*
X141914776Y-92662196D01*
X141917072Y-92629097D01*
X141917444Y-92573811D01*
X141917443Y-92462348D01*
X141973175Y-92462347D01*
X142028907Y-92462348D01*
G37*
G36*
X141652715Y-91626364D02*
G01*
X141652715Y-91737830D01*
X141652717Y-91849291D01*
X141694514Y-91849293D01*
X141736313Y-91849293D01*
X141736315Y-91751762D01*
X141736313Y-91654230D01*
X141792044Y-91654231D01*
X141847777Y-91654232D01*
X141847778Y-91751761D01*
X141847843Y-91777766D01*
X141849196Y-91818169D01*
X141853995Y-91839508D01*
X141864412Y-91847859D01*
X141882610Y-91849293D01*
X141897288Y-91848618D01*
X141908772Y-91842819D01*
X141914772Y-91826211D01*
X141917072Y-91793108D01*
X141917444Y-91737827D01*
X141917443Y-91626362D01*
X141973175Y-91626363D01*
X142028910Y-91626364D01*
X142028908Y-91800527D01*
X142028908Y-91974691D01*
X141785082Y-91974689D01*
X141541250Y-91974691D01*
X141541250Y-91800526D01*
X141541252Y-91626362D01*
X141596981Y-91626362D01*
X141652715Y-91626364D01*
G37*
G36*
X143603345Y-92768876D02*
G01*
X143603344Y-92880340D01*
X143603343Y-92991804D01*
X143645144Y-92991803D01*
X143686945Y-92991807D01*
X143686944Y-92894274D01*
X143686944Y-92796742D01*
X143742676Y-92796744D01*
X143798411Y-92796742D01*
X143798407Y-92894275D01*
X143798472Y-92920281D01*
X143799827Y-92960681D01*
X143804626Y-92982020D01*
X143815042Y-92990373D01*
X143833240Y-92991807D01*
X143847921Y-92991129D01*
X143859402Y-92985333D01*
X143865405Y-92968724D01*
X143867703Y-92935624D01*
X143868074Y-92880343D01*
X143868075Y-92768876D01*
X143923808Y-92768876D01*
X143979540Y-92768877D01*
X143979536Y-92943040D01*
X143979539Y-93117201D01*
X143735708Y-93117205D01*
X143491881Y-93117203D01*
X143491881Y-92943039D01*
X143491880Y-92768875D01*
X143547614Y-92768875D01*
X143603345Y-92768876D01*
G37*
G36*
X144817880Y-89316291D02*
G01*
X144871873Y-89319569D01*
X144914648Y-89326654D01*
X144948862Y-89340082D01*
X144984687Y-89362682D01*
X145002189Y-89375533D01*
X145071232Y-89442733D01*
X145114592Y-89519111D01*
X145133310Y-89606383D01*
X145134908Y-89652832D01*
X145124375Y-89741765D01*
X145093065Y-89817382D01*
X145039161Y-89885070D01*
X145010403Y-89910755D01*
X144929671Y-89958556D01*
X144840654Y-89981342D01*
X144747487Y-89978413D01*
X144654303Y-89949090D01*
X144599347Y-89916795D01*
X144536788Y-89856515D01*
X144493924Y-89784032D01*
X144470778Y-89703798D01*
X144467372Y-89620267D01*
X144483721Y-89537889D01*
X144519851Y-89461119D01*
X144575782Y-89394409D01*
X144651533Y-89342214D01*
X144672809Y-89332251D01*
X144710803Y-89320339D01*
X144755714Y-89315556D01*
X144817880Y-89316291D01*
G37*
G36*
X145803618Y-88311052D02*
G01*
X145853031Y-88315958D01*
X145894402Y-88328716D01*
X145940600Y-88352494D01*
X145951159Y-88358787D01*
X146022874Y-88417903D01*
X146073060Y-88490308D01*
X146101344Y-88571641D01*
X146107348Y-88657536D01*
X146090692Y-88743633D01*
X146051003Y-88825571D01*
X145987897Y-88898987D01*
X145964106Y-88918360D01*
X145885647Y-88960076D01*
X145799198Y-88978998D01*
X145710769Y-88975121D01*
X145626360Y-88948450D01*
X145551979Y-88898988D01*
X145542716Y-88890345D01*
X145482586Y-88815611D01*
X145445822Y-88732910D01*
X145432047Y-88646597D01*
X145440882Y-88561036D01*
X145471953Y-88480591D01*
X145524874Y-88409622D01*
X145599277Y-88352495D01*
X145625033Y-88338384D01*
X145667081Y-88320815D01*
X145711095Y-88312591D01*
X145769940Y-88310552D01*
X145803618Y-88311052D01*
G37*
G36*
X143976949Y-92368940D02*
G01*
X143977584Y-92379935D01*
X143976204Y-92415459D01*
X143969982Y-92435152D01*
X143963770Y-92438761D01*
X143934846Y-92450332D01*
X143889138Y-92466024D01*
X143833240Y-92483505D01*
X143803270Y-92492666D01*
X143752002Y-92509334D01*
X143714417Y-92522885D01*
X143697070Y-92531029D01*
X143702761Y-92537452D01*
X143730177Y-92550257D01*
X143775194Y-92566995D01*
X143832918Y-92585699D01*
X143979536Y-92630377D01*
X143979538Y-92692658D01*
X143979075Y-92710999D01*
X143975344Y-92742488D01*
X143969099Y-92754945D01*
X143956570Y-92751750D01*
X143921260Y-92740978D01*
X143867852Y-92723968D01*
X143800805Y-92702143D01*
X143724566Y-92676919D01*
X143490468Y-92598894D01*
X143494656Y-92535197D01*
X143498847Y-92471499D01*
X143735712Y-92392521D01*
X143972572Y-92313540D01*
X143976949Y-92368940D01*
G37*
G36*
X142007651Y-86934613D02*
G01*
X142012900Y-86956389D01*
X142014975Y-86993426D01*
X142014975Y-87055935D01*
X141869036Y-87100601D01*
X141818624Y-87116668D01*
X141770949Y-87133383D01*
X141739910Y-87146149D01*
X141730570Y-87153044D01*
X141738587Y-87157128D01*
X141768847Y-87168580D01*
X141815668Y-87184585D01*
X141873029Y-87203027D01*
X142008008Y-87245244D01*
X142012327Y-87312823D01*
X142013398Y-87348689D01*
X142009322Y-87370835D01*
X141998395Y-87373590D01*
X141986224Y-87369370D01*
X141950469Y-87357325D01*
X141896631Y-87339360D01*
X141829466Y-87317048D01*
X141753729Y-87291989D01*
X141527317Y-87217197D01*
X141527317Y-87153865D01*
X141527317Y-87090532D01*
X141760697Y-87011896D01*
X141826743Y-86989737D01*
X141895181Y-86967001D01*
X141950593Y-86948842D01*
X141988526Y-86936717D01*
X142004527Y-86932089D01*
X142007651Y-86934613D01*
G37*
G36*
X143848232Y-89294539D02*
G01*
X143936976Y-89321641D01*
X144010310Y-89371548D01*
X144069735Y-89445113D01*
X144069879Y-89445350D01*
X144092137Y-89484768D01*
X144104839Y-89519880D01*
X144110567Y-89561389D01*
X144111903Y-89619999D01*
X144111903Y-89620370D01*
X144110551Y-89678864D01*
X144104794Y-89720310D01*
X144092047Y-89755421D01*
X144069733Y-89794888D01*
X144049696Y-89824103D01*
X143982830Y-89890159D01*
X143900846Y-89933057D01*
X143805279Y-89951880D01*
X143776654Y-89953060D01*
X143693412Y-89946070D01*
X143623325Y-89920377D01*
X143558716Y-89873548D01*
X143540117Y-89855915D01*
X143485325Y-89786786D01*
X143454631Y-89710361D01*
X143445058Y-89620001D01*
X143445354Y-89605264D01*
X143462107Y-89510733D01*
X143502704Y-89426830D01*
X143564579Y-89357595D01*
X143645145Y-89307061D01*
X143651185Y-89304523D01*
X143710642Y-89291047D01*
X143792801Y-89289072D01*
X143848232Y-89294539D01*
G37*
G36*
X142844501Y-91213590D02*
G01*
X142892758Y-91223495D01*
X142954827Y-91245312D01*
X143003327Y-91282327D01*
X143035900Y-91336467D01*
X143054221Y-91410574D01*
X143059955Y-91507485D01*
X143059957Y-91626364D01*
X142816126Y-91626365D01*
X142572300Y-91626363D01*
X142572298Y-91507485D01*
X142574328Y-91465217D01*
X142574328Y-91465216D01*
X142683760Y-91465216D01*
X142683762Y-91514899D01*
X142816127Y-91514899D01*
X142948491Y-91514897D01*
X142948492Y-91460712D01*
X142948483Y-91459462D01*
X142941371Y-91412967D01*
X142924106Y-91377060D01*
X142893560Y-91354965D01*
X142837028Y-91340829D01*
X142829957Y-91340130D01*
X142764220Y-91342349D01*
X142718732Y-91363298D01*
X142692307Y-91403932D01*
X142683760Y-91465216D01*
X142574328Y-91465216D01*
X142576139Y-91427506D01*
X142592625Y-91347621D01*
X142623361Y-91288691D01*
X142669696Y-91248317D01*
X142732992Y-91224114D01*
X142769513Y-91216074D01*
X142808193Y-91211099D01*
X142844501Y-91213590D01*
G37*
G36*
X144847907Y-93098710D02*
G01*
X144910042Y-93117038D01*
X144938590Y-93132589D01*
X144978331Y-93169519D01*
X145004746Y-93221380D01*
X145019488Y-93292050D01*
X145024213Y-93385414D01*
X145024519Y-93507327D01*
X144780688Y-93507331D01*
X144536862Y-93507329D01*
X144536860Y-93381930D01*
X144648325Y-93381930D01*
X144780690Y-93381931D01*
X144913055Y-93381929D01*
X144913055Y-93332532D01*
X144907608Y-93294716D01*
X144878856Y-93248933D01*
X144868142Y-93239119D01*
X144832456Y-93220071D01*
X144783203Y-93214733D01*
X144746630Y-93217428D01*
X144692834Y-93236692D01*
X144659660Y-93273625D01*
X144648326Y-93327210D01*
X144648325Y-93381930D01*
X144536860Y-93381930D01*
X144536860Y-93380553D01*
X144538190Y-93327210D01*
X144538495Y-93314990D01*
X144545804Y-93250588D01*
X144559479Y-93206118D01*
X144582280Y-93169868D01*
X144629352Y-93125336D01*
X144683159Y-93099546D01*
X144702694Y-93095552D01*
X144774005Y-93091178D01*
X144847907Y-93098710D01*
G37*
G36*
X143762025Y-85933856D02*
G01*
X143840738Y-85959083D01*
X143883066Y-85985034D01*
X143916415Y-86020233D01*
X143937471Y-86067134D01*
X143948469Y-86130941D01*
X143951651Y-86216848D01*
X143951673Y-86345729D01*
X143707842Y-86345729D01*
X143464014Y-86345727D01*
X143464347Y-86244713D01*
X143466085Y-86188946D01*
X143467003Y-86177614D01*
X143575476Y-86177614D01*
X143575479Y-86220328D01*
X143707845Y-86220329D01*
X143840209Y-86220331D01*
X143839994Y-86168081D01*
X143839952Y-86163023D01*
X143835525Y-86118612D01*
X143820221Y-86090663D01*
X143788875Y-86069152D01*
X143754638Y-86058265D01*
X143712242Y-86054017D01*
X143664731Y-86058939D01*
X143614436Y-86080381D01*
X143585045Y-86119621D01*
X143575476Y-86177614D01*
X143467003Y-86177614D01*
X143470710Y-86131901D01*
X143477165Y-86089893D01*
X143481359Y-86075087D01*
X143511511Y-86017791D01*
X143556977Y-85970665D01*
X143609787Y-85942557D01*
X143674723Y-85930474D01*
X143762025Y-85933856D01*
G37*
G36*
X143827555Y-93195480D02*
G01*
X143878652Y-93214657D01*
X143912078Y-93238185D01*
X143944887Y-93274583D01*
X143965572Y-93321437D01*
X143976361Y-93384372D01*
X143979486Y-93469013D01*
X143979536Y-93604861D01*
X143734089Y-93604861D01*
X143488640Y-93604861D01*
X143494108Y-93468671D01*
X143496384Y-93432577D01*
X143496384Y-93432576D01*
X143603345Y-93432576D01*
X143603345Y-93479465D01*
X143735710Y-93479463D01*
X143868074Y-93479463D01*
X143868074Y-93418923D01*
X143863062Y-93372178D01*
X143843692Y-93337092D01*
X143834176Y-93330322D01*
X143792143Y-93314094D01*
X143739985Y-93305893D01*
X143690705Y-93308175D01*
X143676348Y-93312726D01*
X143640132Y-93340563D01*
X143613627Y-93383604D01*
X143603345Y-93432576D01*
X143496384Y-93432576D01*
X143497788Y-93410238D01*
X143509348Y-93335329D01*
X143529561Y-93280274D01*
X143560397Y-93240462D01*
X143603819Y-93211273D01*
X143628367Y-93201372D01*
X143691482Y-93188702D01*
X143761525Y-93186781D01*
X143827555Y-93195480D01*
G37*
G36*
X146041635Y-91689062D02*
G01*
X146041634Y-91751761D01*
X145868467Y-91751763D01*
X145796327Y-91752555D01*
X145733847Y-91756311D01*
X145692008Y-91764417D01*
X145666922Y-91778252D01*
X145654714Y-91799188D01*
X145651509Y-91828600D01*
X145652307Y-91841511D01*
X145662307Y-91867430D01*
X145686447Y-91885598D01*
X145728103Y-91897152D01*
X145790671Y-91903248D01*
X145877537Y-91905025D01*
X146041634Y-91905025D01*
X146041636Y-91969305D01*
X146041634Y-92033585D01*
X145849103Y-92028298D01*
X145828166Y-92027680D01*
X145741840Y-92023519D01*
X145678038Y-92016294D01*
X145632341Y-92004428D01*
X145600341Y-91986353D01*
X145577624Y-91960498D01*
X145559778Y-91925290D01*
X145545781Y-91879683D01*
X145541467Y-91807772D01*
X145556626Y-91740147D01*
X145589414Y-91683412D01*
X145637991Y-91644188D01*
X145649260Y-91640097D01*
X145693958Y-91632753D01*
X145763811Y-91628199D01*
X145857020Y-91626568D01*
X146041635Y-91626366D01*
X146041635Y-91689062D01*
G37*
G36*
X145806832Y-85891363D02*
G01*
X145860295Y-85897034D01*
X145925332Y-85917396D01*
X145972802Y-85954068D01*
X146004496Y-86009432D01*
X146022196Y-86085873D01*
X146027699Y-86185779D01*
X146027698Y-86303927D01*
X145782605Y-86303928D01*
X145537506Y-86303926D01*
X145541646Y-86178530D01*
X145651508Y-86178530D01*
X145783872Y-86178530D01*
X145916236Y-86178529D01*
X145916236Y-86123809D01*
X145915704Y-86107043D01*
X145905966Y-86069170D01*
X145879524Y-86040210D01*
X145846955Y-86022031D01*
X145783872Y-86011334D01*
X145749705Y-86013856D01*
X145696261Y-86033149D01*
X145662971Y-86070275D01*
X145651509Y-86123810D01*
X145651508Y-86178530D01*
X145541646Y-86178530D01*
X145542258Y-86159982D01*
X145542284Y-86159179D01*
X145543774Y-86123809D01*
X145545067Y-86092955D01*
X145549238Y-86047485D01*
X145556372Y-86015728D01*
X145568044Y-85990641D01*
X145585832Y-85965184D01*
X145595683Y-85953427D01*
X145632783Y-85920461D01*
X145669429Y-85900561D01*
X145699685Y-85894838D01*
X145750995Y-85891041D01*
X145806832Y-85891363D01*
G37*
G36*
X142725561Y-85837862D02*
G01*
X142727452Y-85838207D01*
X142756905Y-85843368D01*
X142796269Y-85850062D01*
X142844625Y-85869006D01*
X142893944Y-85909747D01*
X142932853Y-85965137D01*
X142936440Y-85975673D01*
X142942624Y-86013567D01*
X142946897Y-86067295D01*
X142948491Y-86128849D01*
X142948490Y-86262131D01*
X142703043Y-86262128D01*
X142457594Y-86262130D01*
X142463477Y-86126281D01*
X142465690Y-86088326D01*
X142466357Y-86083428D01*
X142572298Y-86083428D01*
X142572298Y-86136733D01*
X142704661Y-86136729D01*
X142837026Y-86136731D01*
X142837026Y-86076192D01*
X142832061Y-86029662D01*
X142812279Y-85993257D01*
X142785348Y-85978233D01*
X142739939Y-85965549D01*
X142692245Y-85960253D01*
X142655896Y-85964819D01*
X142621312Y-85984352D01*
X142585215Y-86027959D01*
X142572298Y-86083428D01*
X142466357Y-86083428D01*
X142466357Y-86083427D01*
X142477539Y-86000917D01*
X142499498Y-85935970D01*
X142533695Y-85890221D01*
X142582235Y-85860407D01*
X142647254Y-85843259D01*
X142659055Y-85841502D01*
X142699069Y-85837542D01*
X142725561Y-85837862D01*
G37*
G36*
X145922419Y-94554314D02*
G01*
X145977069Y-94581005D01*
X146015559Y-94625322D01*
X146019798Y-94636941D01*
X146027591Y-94675783D01*
X146034294Y-94730289D01*
X146038811Y-94792519D01*
X146045359Y-94928504D01*
X145799666Y-94928505D01*
X145553976Y-94928501D01*
X145553976Y-94865806D01*
X145553975Y-94803103D01*
X145637576Y-94803107D01*
X145721172Y-94803107D01*
X145721203Y-94761306D01*
X145818705Y-94761306D01*
X145818793Y-94770282D01*
X145822815Y-94792510D01*
X145838701Y-94801453D01*
X145874437Y-94803105D01*
X145890345Y-94803002D01*
X145917823Y-94799519D01*
X145928420Y-94785921D01*
X145930168Y-94755335D01*
X145930154Y-94753577D01*
X145923469Y-94714327D01*
X145908274Y-94685669D01*
X145903845Y-94681259D01*
X145885649Y-94666665D01*
X145870287Y-94669762D01*
X145846569Y-94691640D01*
X145828153Y-94720395D01*
X145818705Y-94761306D01*
X145721203Y-94761306D01*
X145721226Y-94729955D01*
X145722800Y-94698046D01*
X145739448Y-94630625D01*
X145772951Y-94581800D01*
X145821657Y-94554447D01*
X145858975Y-94547940D01*
X145922419Y-94554314D01*
G37*
G36*
X145915135Y-92075170D02*
G01*
X145963565Y-92091602D01*
X145998987Y-92125354D01*
X146022777Y-92178814D01*
X146036333Y-92254358D01*
X146041024Y-92354367D01*
X146041634Y-92448417D01*
X145797803Y-92448416D01*
X145553976Y-92448415D01*
X145553976Y-92385718D01*
X145553976Y-92323018D01*
X145637575Y-92323018D01*
X145721172Y-92323019D01*
X145721173Y-92287269D01*
X145721173Y-92287267D01*
X145818705Y-92287267D01*
X145818733Y-92291128D01*
X145822621Y-92312208D01*
X145838565Y-92321156D01*
X145874437Y-92323018D01*
X145889304Y-92322926D01*
X145917354Y-92319578D01*
X145928304Y-92306487D01*
X145930167Y-92277037D01*
X145930165Y-92276007D01*
X145925134Y-92239193D01*
X145913452Y-92214340D01*
X145906333Y-92208060D01*
X145875417Y-92197241D01*
X145847210Y-92209374D01*
X145826656Y-92240654D01*
X145818705Y-92287267D01*
X145721173Y-92287267D01*
X145721173Y-92252660D01*
X145721329Y-92242660D01*
X145731079Y-92175532D01*
X145754007Y-92121448D01*
X145787354Y-92087270D01*
X145796436Y-92083401D01*
X145832356Y-92075846D01*
X145877143Y-92072646D01*
X145915135Y-92075170D01*
G37*
G36*
X141998545Y-85608675D02*
G01*
X142028795Y-85623888D01*
X142041094Y-85657695D01*
X142036676Y-85712379D01*
X142030991Y-85731620D01*
X142005141Y-85773099D01*
X141968447Y-85804090D01*
X141929499Y-85816271D01*
X141913504Y-85820657D01*
X141903508Y-85844137D01*
X141901915Y-85856718D01*
X141888353Y-85868884D01*
X141854744Y-85872005D01*
X141832728Y-85871091D01*
X141811430Y-85863345D01*
X141805978Y-85844137D01*
X141805967Y-85842644D01*
X141803567Y-85830462D01*
X141793478Y-85822737D01*
X141770659Y-85818473D01*
X141730062Y-85816653D01*
X141666648Y-85816269D01*
X141527317Y-85816270D01*
X141527316Y-85753574D01*
X141527315Y-85690873D01*
X141666646Y-85690873D01*
X141805978Y-85690873D01*
X141805979Y-85649072D01*
X141808542Y-85621425D01*
X141821982Y-85609604D01*
X141854744Y-85607274D01*
X141887433Y-85609555D01*
X141900903Y-85621388D01*
X141903508Y-85650237D01*
X141907642Y-85680217D01*
X141920926Y-85687029D01*
X141931867Y-85673484D01*
X141935720Y-85644069D01*
X141936277Y-85621634D01*
X141948275Y-85609767D01*
X141980063Y-85607274D01*
X141998545Y-85608675D01*
G37*
G36*
X144569121Y-84988761D02*
G01*
X144597388Y-85005400D01*
X144640251Y-85030825D01*
X144692058Y-85061691D01*
X144726814Y-85082168D01*
X144773445Y-85108657D01*
X144807563Y-85126812D01*
X144823528Y-85133550D01*
X144840455Y-85124518D01*
X144876564Y-85097902D01*
X144930294Y-85054877D01*
X145000136Y-84996604D01*
X145012484Y-84987641D01*
X145020523Y-84990034D01*
X145023859Y-85010667D01*
X145024519Y-85054348D01*
X145024517Y-85132732D01*
X144932609Y-85206289D01*
X144840700Y-85279847D01*
X144932610Y-85283967D01*
X145024519Y-85288087D01*
X145024521Y-85343182D01*
X145024519Y-85398278D01*
X144787657Y-85398279D01*
X144550794Y-85398276D01*
X144550795Y-85342546D01*
X144550920Y-85324261D01*
X144554768Y-85298096D01*
X144569736Y-85288294D01*
X144603428Y-85286811D01*
X144634585Y-85283388D01*
X144674821Y-85270618D01*
X144705675Y-85252407D01*
X144717993Y-85233050D01*
X144717976Y-85232838D01*
X144706028Y-85220823D01*
X144676133Y-85199957D01*
X144634544Y-85174626D01*
X144551097Y-85126583D01*
X144550946Y-85052612D01*
X144551770Y-85023377D01*
X144555498Y-84993530D01*
X144561244Y-84984240D01*
X144569121Y-84988761D01*
G37*
G36*
X142795961Y-85154945D02*
G01*
X142851177Y-85172897D01*
X142884288Y-85195940D01*
X142927143Y-85249538D01*
X142953089Y-85316415D01*
X142958315Y-85388865D01*
X142948752Y-85439754D01*
X142916438Y-85502837D01*
X142859526Y-85557648D01*
X142850854Y-85563239D01*
X142802751Y-85579962D01*
X142740023Y-85587812D01*
X142672096Y-85586783D01*
X142608399Y-85576861D01*
X142558366Y-85558033D01*
X142517309Y-85525573D01*
X142480098Y-85469682D01*
X142461757Y-85404418D01*
X142461972Y-85355699D01*
X142461972Y-85355698D01*
X142572986Y-85355698D01*
X142579889Y-85401181D01*
X142610615Y-85440437D01*
X142630776Y-85452550D01*
X142681351Y-85465859D01*
X142737518Y-85465559D01*
X142788968Y-85452302D01*
X142825408Y-85426744D01*
X142847928Y-85382993D01*
X142844490Y-85339750D01*
X142814249Y-85301756D01*
X142795660Y-85290291D01*
X142745736Y-85275043D01*
X142689529Y-85271673D01*
X142637515Y-85280221D01*
X142600165Y-85300749D01*
X142590493Y-85311928D01*
X142572986Y-85355698D01*
X142461972Y-85355698D01*
X142462061Y-85335892D01*
X142480783Y-85270221D01*
X142517693Y-85213512D01*
X142572573Y-85171887D01*
X142591841Y-85163879D01*
X142654624Y-85150394D01*
X142726553Y-85147429D01*
X142795961Y-85154945D01*
G37*
G36*
X141781813Y-85906228D02*
G01*
X141837605Y-85933505D01*
X141879292Y-85977224D01*
X141904616Y-86031865D01*
X141911315Y-86091915D01*
X141897128Y-86151856D01*
X141859793Y-86206171D01*
X141819866Y-86235340D01*
X141756425Y-86256117D01*
X141688123Y-86257017D01*
X141623112Y-86238217D01*
X141569549Y-86199893D01*
X141549489Y-86169134D01*
X141532765Y-86113244D01*
X141529695Y-86051687D01*
X141541838Y-85995981D01*
X141542184Y-85995158D01*
X141567598Y-85957007D01*
X141602838Y-85926106D01*
X141645750Y-85899908D01*
X141650187Y-85958785D01*
X141650839Y-85972575D01*
X141648182Y-86006778D01*
X141639737Y-86022626D01*
X141626900Y-86036234D01*
X141624226Y-86065022D01*
X141632179Y-86098115D01*
X141648127Y-86125389D01*
X141669433Y-86136731D01*
X141671492Y-86134699D01*
X141676137Y-86112750D01*
X141678680Y-86080562D01*
X141678680Y-86080560D01*
X141764179Y-86080560D01*
X141765085Y-86106254D01*
X141771082Y-86126861D01*
X141784547Y-86128042D01*
X141806510Y-86108239D01*
X141815259Y-86075787D01*
X141805422Y-86045497D01*
X141799500Y-86038788D01*
X141779631Y-86026395D01*
X141767980Y-86040216D01*
X141764179Y-86080560D01*
X141678680Y-86080560D01*
X141679370Y-86071819D01*
X141680581Y-86018300D01*
X141680579Y-85899871D01*
X141734252Y-85899871D01*
X141781813Y-85906228D01*
G37*
G36*
X141757169Y-88062143D02*
G01*
X141813411Y-88065606D01*
X141849460Y-88073381D01*
X141868721Y-88086587D01*
X141874599Y-88106357D01*
X141870500Y-88133828D01*
X141870164Y-88135149D01*
X141864337Y-88149967D01*
X141852466Y-88159852D01*
X141829109Y-88166390D01*
X141788813Y-88171159D01*
X141726128Y-88175736D01*
X141703251Y-88177169D01*
X141626803Y-88181048D01*
X141551182Y-88183775D01*
X141489861Y-88184822D01*
X141389707Y-88184893D01*
X141385364Y-88443187D01*
X141383630Y-88528728D01*
X141381227Y-88600852D01*
X141378010Y-88651919D01*
X141373642Y-88685517D01*
X141367792Y-88705239D01*
X141360120Y-88714669D01*
X141351215Y-88719797D01*
X141316795Y-88726440D01*
X141284701Y-88706607D01*
X141279347Y-88699656D01*
X141273517Y-88684412D01*
X141269575Y-88659548D01*
X141267342Y-88621424D01*
X141266636Y-88566389D01*
X141267282Y-88490802D01*
X141269093Y-88391004D01*
X141269728Y-88362593D01*
X141272286Y-88277155D01*
X141275463Y-88202509D01*
X141279012Y-88142926D01*
X141282703Y-88102676D01*
X141286290Y-88086020D01*
X141299787Y-88080625D01*
X141334617Y-88074310D01*
X141381022Y-88069860D01*
X141383602Y-88069706D01*
X141431701Y-88067554D01*
X141498544Y-88065411D01*
X141575640Y-88063523D01*
X141654492Y-88062130D01*
X141677336Y-88061855D01*
X141757169Y-88062143D01*
G37*
G36*
X144885735Y-85835188D02*
G01*
X144897488Y-85837879D01*
X144960544Y-85867147D01*
X145005707Y-85916220D01*
X145031218Y-85982407D01*
X145035306Y-86063017D01*
X145025150Y-86116131D01*
X144991987Y-86177769D01*
X144937483Y-86221710D01*
X144862270Y-86247279D01*
X144819922Y-86253403D01*
X144731239Y-86252218D01*
X144656339Y-86231027D01*
X144597782Y-86191300D01*
X144558128Y-86134512D01*
X144539934Y-86062131D01*
X144538642Y-86025512D01*
X144550459Y-85953848D01*
X144583639Y-85898920D01*
X144639048Y-85858955D01*
X144657278Y-85850099D01*
X144697219Y-85834019D01*
X144719740Y-85834611D01*
X144729687Y-85853645D01*
X144731925Y-85892902D01*
X144731626Y-85906886D01*
X144726402Y-85942630D01*
X144715605Y-85955601D01*
X144710962Y-85955946D01*
X144681681Y-85971474D01*
X144658045Y-86002655D01*
X144648325Y-86039199D01*
X144651014Y-86062847D01*
X144673412Y-86099930D01*
X144718833Y-86121999D01*
X144787656Y-86129302D01*
X144820871Y-86127865D01*
X144879749Y-86113905D01*
X144915161Y-86085133D01*
X144926988Y-86041621D01*
X144926559Y-86034070D01*
X144914095Y-85997258D01*
X144890063Y-85967711D01*
X144862131Y-85955601D01*
X144856829Y-85954286D01*
X144846631Y-85935095D01*
X144843390Y-85891159D01*
X144843704Y-85860607D01*
X144847595Y-85837607D01*
X144859968Y-85831301D01*
X144885735Y-85835188D01*
G37*
G36*
X143857114Y-91656905D02*
G01*
X143906814Y-91670808D01*
X143941799Y-91699379D01*
X143964172Y-91745747D01*
X143976049Y-91813025D01*
X143979538Y-91904334D01*
X143979538Y-92044356D01*
X143735710Y-92044356D01*
X143491879Y-92044358D01*
X143491882Y-91981656D01*
X143491881Y-91918958D01*
X143575477Y-91918960D01*
X143620703Y-91918210D01*
X143646368Y-91914227D01*
X143656987Y-91904474D01*
X143659078Y-91886409D01*
X143658231Y-91876823D01*
X143652421Y-91866014D01*
X143770543Y-91866014D01*
X143770676Y-91883512D01*
X143774750Y-91908298D01*
X143790600Y-91917568D01*
X143826275Y-91918958D01*
X143838943Y-91918886D01*
X143868198Y-91915795D01*
X143879885Y-91903624D01*
X143882007Y-91876243D01*
X143878214Y-91840375D01*
X143867584Y-91806578D01*
X143850813Y-91788037D01*
X143818892Y-91780602D01*
X143787261Y-91796348D01*
X143784942Y-91799179D01*
X143774700Y-91827003D01*
X143770543Y-91866014D01*
X143652421Y-91866014D01*
X143652420Y-91866012D01*
X143648170Y-91858112D01*
X143622397Y-91839917D01*
X143575481Y-91817785D01*
X143491881Y-91781713D01*
X143491881Y-91717972D01*
X143493159Y-91683513D01*
X143500304Y-91662389D01*
X143517909Y-91657886D01*
X143550564Y-91669059D01*
X143602855Y-91694955D01*
X143678999Y-91734366D01*
X143716428Y-91694298D01*
X143728697Y-91682050D01*
X143764113Y-91660089D01*
X143810310Y-91654230D01*
X143857114Y-91656905D01*
G37*
G36*
X141563926Y-92872261D02*
G01*
X141596868Y-92887558D01*
X141640339Y-92908991D01*
X141724698Y-92951577D01*
X141757183Y-92916522D01*
X141779339Y-92897074D01*
X141833556Y-92872834D01*
X141892490Y-92869898D01*
X141948196Y-92887936D01*
X141992740Y-92926599D01*
X141999017Y-92935695D01*
X142010884Y-92960368D01*
X142018661Y-92993545D01*
X142023536Y-93041675D01*
X142026693Y-93111212D01*
X142031444Y-93256534D01*
X141786349Y-93256534D01*
X141541250Y-93256534D01*
X141541252Y-93193835D01*
X141541250Y-93131136D01*
X141624848Y-93131136D01*
X141664074Y-93130563D01*
X141693006Y-93127046D01*
X141705655Y-93118341D01*
X141708449Y-93102229D01*
X141708343Y-93099531D01*
X141699558Y-93080070D01*
X141697033Y-93078190D01*
X141819908Y-93078190D01*
X141819967Y-93089723D01*
X141823189Y-93118217D01*
X141836896Y-93129277D01*
X141868677Y-93131138D01*
X141879299Y-93131077D01*
X141905546Y-93127577D01*
X141915732Y-93112695D01*
X141917443Y-93078190D01*
X141917281Y-93070680D01*
X141911730Y-93032702D01*
X141900721Y-93008523D01*
X141891168Y-93000741D01*
X141868677Y-92991805D01*
X141846682Y-92999281D01*
X141827015Y-93029289D01*
X141819908Y-93078190D01*
X141697033Y-93078190D01*
X141697030Y-93078188D01*
X141673288Y-93060524D01*
X141624848Y-93037245D01*
X141541251Y-93001177D01*
X141541251Y-92933793D01*
X141541692Y-92910817D01*
X141544352Y-92878924D01*
X141548613Y-92866407D01*
X141548624Y-92866406D01*
X141563926Y-92872261D01*
G37*
G36*
X142837027Y-92316052D02*
G01*
X142837026Y-92434482D01*
X142788260Y-92434482D01*
X142773265Y-92434342D01*
X142749877Y-92430177D01*
X142740935Y-92414147D01*
X142739495Y-92378260D01*
X142739459Y-92369133D01*
X142737441Y-92339024D01*
X142729684Y-92330002D01*
X142712572Y-92336446D01*
X142691008Y-92353103D01*
X142672430Y-92389904D01*
X142673821Y-92431623D01*
X142694198Y-92470329D01*
X142732576Y-92498099D01*
X142771697Y-92510664D01*
X142830580Y-92516134D01*
X142882920Y-92506604D01*
X142924464Y-92484660D01*
X142950964Y-92452898D01*
X142958171Y-92413915D01*
X142941838Y-92370306D01*
X142923143Y-92347450D01*
X142906369Y-92336950D01*
X142901575Y-92332524D01*
X142895240Y-92307679D01*
X142892757Y-92268258D01*
X142892758Y-92199565D01*
X142938040Y-92212279D01*
X142991820Y-92240217D01*
X143032746Y-92287657D01*
X143058177Y-92348470D01*
X143066606Y-92416829D01*
X143056519Y-92486914D01*
X143026409Y-92552905D01*
X143003185Y-92579925D01*
X142948522Y-92614639D01*
X142880741Y-92634961D01*
X142806733Y-92640637D01*
X142733415Y-92631438D01*
X142667689Y-92607110D01*
X142616461Y-92567412D01*
X142603605Y-92551312D01*
X142571884Y-92486381D01*
X142565041Y-92416833D01*
X142584003Y-92348911D01*
X142596991Y-92320384D01*
X142601040Y-92300596D01*
X142591447Y-92295150D01*
X142577372Y-92283360D01*
X142572297Y-92246384D01*
X142572298Y-92197620D01*
X142704662Y-92197620D01*
X142837026Y-92197620D01*
X142837027Y-92316052D01*
G37*
G36*
X140923294Y-88766066D02*
G01*
X141017155Y-88793096D01*
X141102214Y-88841482D01*
X141173297Y-88908584D01*
X141225247Y-88991765D01*
X141246697Y-89062970D01*
X141254789Y-89150468D01*
X141247641Y-89238333D01*
X141225249Y-89314718D01*
X141223365Y-89318819D01*
X141173602Y-89396771D01*
X141105214Y-89464420D01*
X141026972Y-89512994D01*
X140952775Y-89535392D01*
X140865394Y-89543158D01*
X140778705Y-89535117D01*
X140703875Y-89511330D01*
X140652872Y-89482151D01*
X140575815Y-89415235D01*
X140520076Y-89333223D01*
X140487118Y-89239518D01*
X140481175Y-89169810D01*
X140481175Y-89169808D01*
X140597731Y-89169808D01*
X140609845Y-89227471D01*
X140644868Y-89300451D01*
X140696643Y-89358698D01*
X140760807Y-89399680D01*
X140832988Y-89420865D01*
X140908820Y-89419719D01*
X140983929Y-89393709D01*
X141049699Y-89346337D01*
X141099315Y-89282999D01*
X141127410Y-89211107D01*
X141133636Y-89135437D01*
X141117643Y-89060767D01*
X141079081Y-88991877D01*
X141017601Y-88933542D01*
X140968801Y-88906984D01*
X140893274Y-88886971D01*
X140877034Y-88885339D01*
X140835319Y-88885525D01*
X140796458Y-88895816D01*
X140747545Y-88919053D01*
X140681823Y-88966472D01*
X140632415Y-89028228D01*
X140603153Y-89098069D01*
X140597731Y-89169808D01*
X140481175Y-89169808D01*
X140478421Y-89137508D01*
X140495451Y-89030592D01*
X140510193Y-88990558D01*
X140557376Y-88915165D01*
X140623489Y-88849547D01*
X140702619Y-88798980D01*
X140788863Y-88768731D01*
X140825798Y-88763039D01*
X140923294Y-88766066D01*
G37*
G36*
X145920010Y-93482564D02*
G01*
X145966480Y-93500064D01*
X146000522Y-93535060D01*
X146023430Y-93589911D01*
X146036499Y-93666965D01*
X146041025Y-93768575D01*
X146041635Y-93869591D01*
X145797805Y-93869589D01*
X145553978Y-93869588D01*
X145553976Y-93806890D01*
X145553976Y-93744191D01*
X145637573Y-93744190D01*
X145677062Y-93743611D01*
X145705851Y-93740077D01*
X145718412Y-93731334D01*
X145721173Y-93715151D01*
X145721076Y-93712530D01*
X145712302Y-93692873D01*
X145710156Y-93691248D01*
X145818705Y-93691248D01*
X145818837Y-93708745D01*
X145822911Y-93733533D01*
X145838764Y-93742799D01*
X145874436Y-93744189D01*
X145892857Y-93744064D01*
X145918947Y-93740195D01*
X145928704Y-93725139D01*
X145930167Y-93691245D01*
X145930008Y-93683735D01*
X145924453Y-93645756D01*
X145913450Y-93621580D01*
X145903692Y-93614156D01*
X145874438Y-93604862D01*
X145849058Y-93611175D01*
X145826410Y-93640027D01*
X145818705Y-93691248D01*
X145710156Y-93691248D01*
X145710153Y-93691246D01*
X145686017Y-93672974D01*
X145637575Y-93649162D01*
X145553976Y-93612214D01*
X145553977Y-93545838D01*
X145554401Y-93523788D01*
X145557078Y-93491968D01*
X145561406Y-93479463D01*
X145570302Y-93482447D01*
X145598456Y-93495102D01*
X145637575Y-93514296D01*
X145665814Y-93527958D01*
X145701656Y-93543199D01*
X145722182Y-93549126D01*
X145725444Y-93548630D01*
X145748853Y-93536846D01*
X145779446Y-93514297D01*
X145781841Y-93512311D01*
X145826510Y-93486882D01*
X145881696Y-93479463D01*
X145920010Y-93482564D01*
G37*
G36*
X146034221Y-93920947D02*
G01*
X146039867Y-93939731D01*
X146038952Y-93970561D01*
X146034668Y-94029734D01*
X145884459Y-94058097D01*
X145734250Y-94086462D01*
X145828725Y-94111215D01*
X145878842Y-94124340D01*
X145934513Y-94138912D01*
X145976217Y-94149818D01*
X145994116Y-94154695D01*
X146018065Y-94165611D01*
X146026153Y-94184758D01*
X146024982Y-94221894D01*
X146020732Y-94280119D01*
X145888956Y-94316071D01*
X145851421Y-94326794D01*
X145805833Y-94341531D01*
X145777190Y-94353098D01*
X145770525Y-94359656D01*
X145777351Y-94362160D01*
X145807754Y-94369954D01*
X145855170Y-94380372D01*
X145912755Y-94391865D01*
X146041634Y-94416436D01*
X146041634Y-94477407D01*
X146041508Y-94486895D01*
X146036383Y-94525190D01*
X146024218Y-94538514D01*
X146013465Y-94537050D01*
X145978429Y-94530330D01*
X145924625Y-94519093D01*
X145856974Y-94504378D01*
X145780390Y-94487214D01*
X145553976Y-94435774D01*
X145553976Y-94369033D01*
X145553976Y-94302293D01*
X145634093Y-94279706D01*
X145666644Y-94270535D01*
X145725613Y-94253956D01*
X145774746Y-94240169D01*
X145835287Y-94223222D01*
X145753849Y-94200860D01*
X145719593Y-94191502D01*
X145661178Y-94175676D01*
X145613194Y-94162838D01*
X145553977Y-94147178D01*
X145553976Y-94079192D01*
X145553978Y-94011205D01*
X145682859Y-93982429D01*
X145703273Y-93977858D01*
X145773968Y-93961911D01*
X145842095Y-93946375D01*
X145895337Y-93934062D01*
X145932733Y-93925426D01*
X145985167Y-93914941D01*
X146017490Y-93913065D01*
X146034221Y-93920947D01*
G37*
G36*
X146797424Y-89558951D02*
G01*
X146891129Y-89588468D01*
X146974930Y-89638869D01*
X147044234Y-89708102D01*
X147094448Y-89794088D01*
X147101154Y-89813107D01*
X147113525Y-89880938D01*
X147115633Y-89958658D01*
X147107660Y-90034451D01*
X147089789Y-90096489D01*
X147077495Y-90122278D01*
X147020268Y-90207829D01*
X146947575Y-90270286D01*
X146858777Y-90310082D01*
X146753241Y-90327654D01*
X146671803Y-90326817D01*
X146585034Y-90307911D01*
X146509136Y-90266990D01*
X146438245Y-90201710D01*
X146426478Y-90187997D01*
X146374987Y-90105483D01*
X146346562Y-90015812D01*
X146343741Y-89975449D01*
X146463085Y-89975449D01*
X146473216Y-90022234D01*
X146507696Y-90090578D01*
X146559958Y-90146350D01*
X146624894Y-90186710D01*
X146697381Y-90208824D01*
X146772312Y-90209859D01*
X146844564Y-90186976D01*
X146856115Y-90180482D01*
X146913124Y-90133813D01*
X146960751Y-90072306D01*
X146990214Y-90006826D01*
X146997862Y-89956980D01*
X146989100Y-89879888D01*
X146958484Y-89807342D01*
X146909194Y-89745963D01*
X146844401Y-89702388D01*
X146826052Y-89694802D01*
X146746027Y-89677889D01*
X146668560Y-89684865D01*
X146597757Y-89712799D01*
X146537711Y-89758760D01*
X146492517Y-89819809D01*
X146466275Y-89893018D01*
X146463085Y-89975449D01*
X146343741Y-89975449D01*
X146343741Y-89975447D01*
X146340097Y-89923334D01*
X146354488Y-89832387D01*
X146388631Y-89747327D01*
X146441420Y-89672492D01*
X146511757Y-89612234D01*
X146598528Y-89570896D01*
X146598658Y-89570855D01*
X146698405Y-89552393D01*
X146797424Y-89558951D01*
G37*
G36*
X146849239Y-87975841D02*
G01*
X146936493Y-88015633D01*
X147010016Y-88074401D01*
X147066623Y-88149572D01*
X147103126Y-88238567D01*
X147116335Y-88338818D01*
X147115260Y-88373280D01*
X147109268Y-88429649D01*
X147099712Y-88473867D01*
X147095868Y-88485043D01*
X147051002Y-88570534D01*
X146986383Y-88641104D01*
X146906790Y-88694232D01*
X146816999Y-88727408D01*
X146721788Y-88738104D01*
X146625935Y-88723801D01*
X146604184Y-88716903D01*
X146509401Y-88671018D01*
X146434235Y-88605440D01*
X146379296Y-88520838D01*
X146345197Y-88417872D01*
X146339005Y-88375617D01*
X146341100Y-88330559D01*
X146461597Y-88330559D01*
X146467311Y-88404744D01*
X146493125Y-88472165D01*
X146535623Y-88529856D01*
X146591392Y-88574860D01*
X146657018Y-88604220D01*
X146729092Y-88614974D01*
X146804199Y-88604169D01*
X146878930Y-88568839D01*
X146890214Y-88560525D01*
X146930734Y-88518271D01*
X146966859Y-88464084D01*
X146992810Y-88407748D01*
X147002803Y-88359057D01*
X147002696Y-88352073D01*
X146987600Y-88276795D01*
X146950370Y-88204743D01*
X146895869Y-88143194D01*
X146828972Y-88099414D01*
X146826097Y-88098128D01*
X146748710Y-88078217D01*
X146671108Y-88083523D01*
X146598485Y-88112043D01*
X146536027Y-88161774D01*
X146488918Y-88230716D01*
X146479392Y-88252562D01*
X146461597Y-88330559D01*
X146341100Y-88330559D01*
X146343407Y-88280936D01*
X146370806Y-88190663D01*
X146418214Y-88109256D01*
X146482642Y-88041165D01*
X146561105Y-87990847D01*
X146650609Y-87962751D01*
X146751448Y-87957599D01*
X146849239Y-87975841D01*
G37*
G36*
X143742676Y-87035415D02*
G01*
X143742678Y-87153845D01*
X143693911Y-87153844D01*
X143678277Y-87153692D01*
X143655308Y-87149413D01*
X143646545Y-87133201D01*
X143645145Y-87097092D01*
X143643720Y-87065112D01*
X143636616Y-87046967D01*
X143620867Y-87045011D01*
X143605059Y-87051779D01*
X143581691Y-87079982D01*
X143570385Y-87119581D01*
X143575247Y-87160198D01*
X143586886Y-87180552D01*
X143624447Y-87210468D01*
X143675398Y-87227753D01*
X143731740Y-87231358D01*
X143785465Y-87220241D01*
X143828571Y-87193348D01*
X143845740Y-87167083D01*
X143852518Y-87126411D01*
X143842207Y-87088405D01*
X143815825Y-87063461D01*
X143815085Y-87063132D01*
X143795792Y-87049579D01*
X143786732Y-87025905D01*
X143784477Y-86983345D01*
X143786582Y-86941617D01*
X143796629Y-86921465D01*
X143819944Y-86921669D01*
X143861867Y-86939178D01*
X143898720Y-86964964D01*
X143936635Y-87016999D01*
X143958885Y-87082912D01*
X143962270Y-87155798D01*
X143954336Y-87202114D01*
X143925216Y-87267408D01*
X143876210Y-87313643D01*
X143806817Y-87341223D01*
X143716542Y-87350540D01*
X143678359Y-87349511D01*
X143595276Y-87335962D01*
X143533146Y-87306171D01*
X143490289Y-87259458D01*
X143486657Y-87253011D01*
X143470086Y-87202884D01*
X143464242Y-87143994D01*
X143469366Y-87087731D01*
X143485704Y-87045481D01*
X143496333Y-87029522D01*
X143499606Y-87017032D01*
X143485702Y-87014514D01*
X143482270Y-87014262D01*
X143468273Y-87001303D01*
X143464016Y-86965747D01*
X143464014Y-86916984D01*
X143603345Y-86916985D01*
X143742677Y-86916983D01*
X143742676Y-87035415D01*
G37*
G36*
X145804774Y-86986651D02*
G01*
X145804774Y-87098115D01*
X145756007Y-87098113D01*
X145752292Y-87098106D01*
X145721567Y-87095434D01*
X145709398Y-87082032D01*
X145707239Y-87049347D01*
X145707025Y-87035223D01*
X145702395Y-87007273D01*
X145688948Y-87004115D01*
X145663055Y-87023641D01*
X145653856Y-87033530D01*
X145638212Y-87073087D01*
X145645281Y-87115799D01*
X145674287Y-87152837D01*
X145686903Y-87161345D01*
X145738585Y-87179699D01*
X145797660Y-87183344D01*
X145853623Y-87172531D01*
X145895970Y-87147514D01*
X145899108Y-87144301D01*
X145925645Y-87102784D01*
X145924392Y-87062504D01*
X145895338Y-87022701D01*
X145885357Y-87012613D01*
X145865902Y-86978695D01*
X145860504Y-86931290D01*
X145860654Y-86910748D01*
X145863770Y-86884927D01*
X145874820Y-86877344D01*
X145898820Y-86881479D01*
X145932969Y-86894489D01*
X145981530Y-86934160D01*
X146015437Y-86991245D01*
X146031982Y-87060413D01*
X146028448Y-87136321D01*
X146023318Y-87158371D01*
X145991987Y-87223283D01*
X145939829Y-87269782D01*
X145866996Y-87297758D01*
X145773654Y-87307111D01*
X145773590Y-87307112D01*
X145684874Y-87297460D01*
X145614855Y-87268072D01*
X145561890Y-87218257D01*
X145550547Y-87197744D01*
X145537453Y-87149112D01*
X145533489Y-87093852D01*
X145539036Y-87042808D01*
X145554472Y-87006824D01*
X145555040Y-87006134D01*
X145566855Y-86985950D01*
X145557459Y-86976255D01*
X145555827Y-86975499D01*
X145544628Y-86956435D01*
X145540043Y-86922789D01*
X145540043Y-86875184D01*
X145672408Y-86875185D01*
X145804771Y-86875184D01*
X145804774Y-86986651D01*
G37*
G36*
X144728467Y-86921713D02*
G01*
X144779670Y-86946271D01*
X144817647Y-86990617D01*
X144824742Y-87007312D01*
X144837624Y-87048906D01*
X144849106Y-87097739D01*
X144849807Y-87101215D01*
X144865149Y-87151060D01*
X144884478Y-87177306D01*
X144905827Y-87178550D01*
X144927232Y-87153389D01*
X144930521Y-87146470D01*
X144936855Y-87106441D01*
X144925430Y-87070575D01*
X144899089Y-87049337D01*
X144884017Y-87041101D01*
X144873925Y-87019708D01*
X144871255Y-86978743D01*
X144873668Y-86942715D01*
X144885434Y-86920011D01*
X144910737Y-86918878D01*
X144953667Y-86937269D01*
X144987695Y-86964284D01*
X145018841Y-87015439D01*
X145035573Y-87079104D01*
X145036197Y-87148078D01*
X145019026Y-87215170D01*
X145018145Y-87217241D01*
X144983751Y-87269691D01*
X144938917Y-87300213D01*
X144888782Y-87309831D01*
X144838503Y-87299558D01*
X144793235Y-87270413D01*
X144758113Y-87223420D01*
X144738304Y-87159594D01*
X144735492Y-87141609D01*
X144722141Y-87084787D01*
X144704822Y-87052557D01*
X144682324Y-87042382D01*
X144670414Y-87044982D01*
X144652192Y-87065406D01*
X144644371Y-87098904D01*
X144646914Y-87136745D01*
X144659788Y-87170196D01*
X144682950Y-87190526D01*
X144686415Y-87192265D01*
X144699779Y-87214833D01*
X144704059Y-87261345D01*
X144703822Y-87287436D01*
X144700419Y-87311931D01*
X144689261Y-87318820D01*
X144665742Y-87314501D01*
X144615003Y-87290443D01*
X144573543Y-87246148D01*
X144546519Y-87188664D01*
X144534971Y-87124069D01*
X144539924Y-87058441D01*
X144562417Y-86997860D01*
X144603485Y-86948404D01*
X144617722Y-86938117D01*
X144671872Y-86918481D01*
X144728467Y-86921713D01*
G37*
G36*
X141915706Y-92031761D02*
G01*
X141952401Y-92050803D01*
X141988858Y-92086625D01*
X142018583Y-92131820D01*
X142035077Y-92178967D01*
X142039089Y-92223513D01*
X142029210Y-92294818D01*
X141999881Y-92353513D01*
X141953614Y-92395402D01*
X141892923Y-92416294D01*
X141859148Y-92418512D01*
X141827609Y-92409763D01*
X141793696Y-92383804D01*
X141791651Y-92381938D01*
X141764526Y-92350919D01*
X141747131Y-92312878D01*
X141734592Y-92257386D01*
X141721565Y-92199015D01*
X141704891Y-92161261D01*
X141684983Y-92149645D01*
X141661155Y-92163300D01*
X141653518Y-92172313D01*
X141639176Y-92212740D01*
X141646206Y-92256302D01*
X141673614Y-92292662D01*
X141685841Y-92303488D01*
X141703625Y-92333227D01*
X141708447Y-92377536D01*
X141708334Y-92395089D01*
X141705361Y-92421815D01*
X141694368Y-92430047D01*
X141670131Y-92426453D01*
X141635273Y-92411708D01*
X141590429Y-92374234D01*
X141554455Y-92324360D01*
X141534868Y-92270746D01*
X141532023Y-92243994D01*
X141537600Y-92175197D01*
X141558903Y-92111629D01*
X141593003Y-92063706D01*
X141607663Y-92051639D01*
X141644271Y-92035061D01*
X141695312Y-92030424D01*
X141747754Y-92037885D01*
X141793426Y-92065966D01*
X141824197Y-92116236D01*
X141841344Y-92190093D01*
X141848201Y-92230067D01*
X141863907Y-92273130D01*
X141884905Y-92290499D01*
X141910477Y-92281217D01*
X141920982Y-92268792D01*
X141931048Y-92232689D01*
X141924961Y-92194253D01*
X141903510Y-92166520D01*
X141895039Y-92160157D01*
X141879988Y-92134174D01*
X141875645Y-92089772D01*
X141875646Y-92087899D01*
X141877758Y-92051071D01*
X141886304Y-92034361D01*
X141904901Y-92030423D01*
X141915706Y-92031761D01*
G37*
G36*
X143979538Y-91267183D02*
G01*
X143978618Y-91308585D01*
X143971858Y-91335020D01*
X143953264Y-91353435D01*
X143916838Y-91374045D01*
X143894072Y-91386715D01*
X143865363Y-91405065D01*
X143854143Y-91415923D01*
X143858871Y-91422050D01*
X143881617Y-91439635D01*
X143916839Y-91462410D01*
X143948776Y-91482633D01*
X143969952Y-91502836D01*
X143978163Y-91528540D01*
X143979537Y-91570287D01*
X143979010Y-91595672D01*
X143976210Y-91627753D01*
X143971808Y-91640296D01*
X143971703Y-91640292D01*
X143956664Y-91632731D01*
X143925465Y-91613500D01*
X143884725Y-91586683D01*
X143861020Y-91570609D01*
X143810346Y-91536986D01*
X143773654Y-91517364D01*
X143743854Y-91511276D01*
X143713841Y-91518245D01*
X143676519Y-91537807D01*
X143624793Y-91569492D01*
X143593863Y-91588270D01*
X143548444Y-91615049D01*
X143515499Y-91633455D01*
X143500607Y-91640299D01*
X143497711Y-91636519D01*
X143493526Y-91612608D01*
X143491880Y-91573963D01*
X143491928Y-91558924D01*
X143494292Y-91528031D01*
X143504326Y-91507227D01*
X143527611Y-91488671D01*
X143569720Y-91464512D01*
X143647563Y-91421391D01*
X143569721Y-91377461D01*
X143491879Y-91333531D01*
X143491882Y-91263987D01*
X143492399Y-91239028D01*
X143495201Y-91206975D01*
X143499618Y-91194438D01*
X143504472Y-91196386D01*
X143528684Y-91209966D01*
X143567718Y-91233663D01*
X143615959Y-91264104D01*
X143624638Y-91269660D01*
X143679970Y-91303828D01*
X143718781Y-91323814D01*
X143746644Y-91331223D01*
X143769134Y-91327656D01*
X143791824Y-91314727D01*
X143814690Y-91299427D01*
X143854027Y-91273784D01*
X143899424Y-91244636D01*
X143979538Y-91193582D01*
X143979538Y-91267183D01*
G37*
G36*
X142935455Y-86309811D02*
G01*
X142945022Y-86320025D01*
X142947266Y-86337437D01*
X142945809Y-86362281D01*
X142941524Y-86420637D01*
X142795225Y-86448284D01*
X142648928Y-86475927D01*
X142795227Y-86512524D01*
X142941524Y-86549121D01*
X142945781Y-86607042D01*
X142950033Y-86664963D01*
X142869147Y-86687770D01*
X142850656Y-86692999D01*
X142766785Y-86717077D01*
X142709397Y-86734322D01*
X142678074Y-86744857D01*
X142672402Y-86748816D01*
X142674777Y-86749158D01*
X142698534Y-86753572D01*
X142739533Y-86761688D01*
X142789836Y-86771890D01*
X142841503Y-86782551D01*
X142886585Y-86792056D01*
X142917140Y-86798774D01*
X142918568Y-86799117D01*
X142937658Y-86808247D01*
X142946399Y-86828625D01*
X142948491Y-86868485D01*
X142948017Y-86887021D01*
X142944277Y-86918214D01*
X142938042Y-86930234D01*
X142927887Y-86928364D01*
X142894040Y-86921212D01*
X142841268Y-86909674D01*
X142774251Y-86894782D01*
X142697695Y-86877562D01*
X142467800Y-86825569D01*
X142467799Y-86757352D01*
X142467801Y-86689132D01*
X142603794Y-86654124D01*
X142644506Y-86643078D01*
X142691265Y-86628576D01*
X142721208Y-86616894D01*
X142729194Y-86609852D01*
X142722550Y-86606547D01*
X142693038Y-86596554D01*
X142646581Y-86583077D01*
X142589714Y-86568079D01*
X142460833Y-86535568D01*
X142460835Y-86468778D01*
X142460893Y-86458022D01*
X142463640Y-86421431D01*
X142472944Y-86402916D01*
X142492182Y-86394473D01*
X142494474Y-86393928D01*
X142523202Y-86387342D01*
X142571950Y-86376347D01*
X142634504Y-86362337D01*
X142704660Y-86346706D01*
X142751578Y-86336284D01*
X142826628Y-86320037D01*
X142879877Y-86310053D01*
X142914947Y-86306568D01*
X142935455Y-86309811D01*
G37*
G36*
X142852960Y-86952409D02*
G01*
X142893590Y-86981801D01*
X142928604Y-87027171D01*
X142953162Y-87081854D01*
X142962424Y-87139183D01*
X142959108Y-87179426D01*
X142939131Y-87241157D01*
X142904828Y-87289491D01*
X142860548Y-87321729D01*
X142810634Y-87335185D01*
X142759426Y-87327159D01*
X142711271Y-87294962D01*
X142701385Y-87284797D01*
X142682372Y-87261030D01*
X142669384Y-87233587D01*
X142659289Y-87194476D01*
X142648964Y-87135697D01*
X142646912Y-87124894D01*
X142631229Y-87086795D01*
X142607761Y-87072639D01*
X142579088Y-87084326D01*
X142573825Y-87089339D01*
X142559515Y-87123119D01*
X142566294Y-87164008D01*
X142593198Y-87203878D01*
X142596066Y-87206813D01*
X142620876Y-87245224D01*
X142628032Y-87295320D01*
X142627929Y-87311938D01*
X142625032Y-87338701D01*
X142614073Y-87346728D01*
X142589713Y-87342617D01*
X142583551Y-87340780D01*
X142546690Y-87321668D01*
X142510536Y-87293009D01*
X142502373Y-87284657D01*
X142481233Y-87255872D01*
X142469645Y-87220699D01*
X142463575Y-87168415D01*
X142462845Y-87156645D01*
X142466553Y-87077666D01*
X142487649Y-87017398D01*
X142527296Y-86972242D01*
X142562368Y-86953965D01*
X142617046Y-86944852D01*
X142646678Y-86948198D01*
X142699149Y-86973027D01*
X142738674Y-87018079D01*
X142760171Y-87078600D01*
X142763869Y-87101082D01*
X142773132Y-87151039D01*
X142781502Y-87181144D01*
X142790975Y-87197212D01*
X142803545Y-87205058D01*
X142810886Y-87207166D01*
X142835231Y-87201353D01*
X142850132Y-87178349D01*
X142854258Y-87145810D01*
X142846268Y-87111401D01*
X142824836Y-87082789D01*
X142805907Y-87057429D01*
X142794995Y-87021445D01*
X142793754Y-86984789D01*
X142802416Y-86956308D01*
X142821214Y-86944851D01*
X142852960Y-86952409D01*
G37*
G36*
X145011557Y-86282066D02*
G01*
X145021127Y-86292270D01*
X145023331Y-86309888D01*
X145021838Y-86335175D01*
X145017553Y-86394292D01*
X144872612Y-86421841D01*
X144727669Y-86449389D01*
X144872611Y-86485395D01*
X145017553Y-86521402D01*
X145017552Y-86582175D01*
X145017552Y-86642947D01*
X144878225Y-86681318D01*
X144834040Y-86693680D01*
X144787092Y-86707390D01*
X144756856Y-86716949D01*
X144748432Y-86720806D01*
X144751188Y-86721227D01*
X144775746Y-86725862D01*
X144817291Y-86734140D01*
X144867813Y-86744420D01*
X144919305Y-86755073D01*
X144963761Y-86764447D01*
X144993171Y-86770910D01*
X144996090Y-86771628D01*
X145014267Y-86780991D01*
X145022550Y-86801818D01*
X145024520Y-86842244D01*
X145024352Y-86862625D01*
X145021529Y-86890987D01*
X145012455Y-86900730D01*
X144993617Y-86898220D01*
X144985795Y-86896295D01*
X144951260Y-86888327D01*
X144897694Y-86876303D01*
X144830762Y-86861484D01*
X144756119Y-86845143D01*
X144549525Y-86800148D01*
X144553643Y-86730590D01*
X144557763Y-86661029D01*
X144674562Y-86629318D01*
X144695593Y-86623584D01*
X144747534Y-86609176D01*
X144787066Y-86597871D01*
X144806928Y-86591720D01*
X144809572Y-86590616D01*
X144813487Y-86586029D01*
X144804635Y-86579983D01*
X144779436Y-86571174D01*
X144734330Y-86558289D01*
X144665741Y-86540030D01*
X144550793Y-86509873D01*
X144550795Y-86441998D01*
X144550896Y-86427736D01*
X144553853Y-86392399D01*
X144563458Y-86374509D01*
X144583140Y-86366006D01*
X144583982Y-86365796D01*
X144611079Y-86359356D01*
X144658518Y-86348359D01*
X144719861Y-86334291D01*
X144788653Y-86318638D01*
X144826106Y-86310146D01*
X144901890Y-86293313D01*
X144955613Y-86282846D01*
X144990944Y-86279010D01*
X145011557Y-86282066D01*
G37*
G36*
X145020101Y-91212814D02*
G01*
X145023275Y-91237702D01*
X145024519Y-91277167D01*
X145024517Y-91283248D01*
X145023007Y-91320143D01*
X145014679Y-91343314D01*
X144993618Y-91361740D01*
X144953925Y-91384388D01*
X144883327Y-91422810D01*
X144915607Y-91447475D01*
X144945073Y-91466937D01*
X144986203Y-91488241D01*
X145024519Y-91504347D01*
X145024521Y-91781318D01*
X145024519Y-92058289D01*
X144968787Y-92058289D01*
X144913054Y-92058288D01*
X144913055Y-91988624D01*
X144913056Y-91918960D01*
X144724956Y-91918958D01*
X144536862Y-91918961D01*
X144536862Y-91856259D01*
X144536862Y-91793561D01*
X144724958Y-91793561D01*
X144913056Y-91793559D01*
X144913055Y-91723895D01*
X144913057Y-91654230D01*
X144965301Y-91654208D01*
X145017555Y-91654189D01*
X144900089Y-91579059D01*
X144782621Y-91503929D01*
X144677158Y-91569583D01*
X144656602Y-91582364D01*
X144609734Y-91611446D01*
X144573451Y-91633852D01*
X144554278Y-91645552D01*
X144544855Y-91645961D01*
X144538677Y-91627634D01*
X144536862Y-91585384D01*
X144536863Y-91579964D01*
X144538280Y-91541698D01*
X144546381Y-91517896D01*
X144567090Y-91499282D01*
X144606326Y-91476579D01*
X144635790Y-91459680D01*
X144664715Y-91441234D01*
X144675977Y-91431301D01*
X144669317Y-91424536D01*
X144644107Y-91407456D01*
X144606513Y-91385214D01*
X144600827Y-91382018D01*
X144564019Y-91359875D01*
X144545011Y-91340946D01*
X144537919Y-91315982D01*
X144536861Y-91275744D01*
X144536859Y-91271589D01*
X144537367Y-91239174D01*
X144541628Y-91220255D01*
X144553611Y-91215091D01*
X144577300Y-91223938D01*
X144616665Y-91247046D01*
X144675681Y-91284676D01*
X144694182Y-91296243D01*
X144739764Y-91322190D01*
X144775224Y-91338783D01*
X144794114Y-91342858D01*
X144798169Y-91340972D01*
X144823548Y-91326611D01*
X144863424Y-91302383D01*
X144911143Y-91272296D01*
X144928893Y-91260987D01*
X144972100Y-91234096D01*
X145003653Y-91215386D01*
X145017695Y-91208370D01*
X145020101Y-91212814D01*
G37*
G36*
X147549892Y-87735602D02*
G01*
X147797202Y-87967730D01*
X147797202Y-89141500D01*
X147797202Y-89147500D01*
X147797117Y-89363584D01*
X147796857Y-89553317D01*
X147796397Y-89718179D01*
X147795718Y-89859647D01*
X147794799Y-89979195D01*
X147793614Y-90078301D01*
X147792151Y-90158444D01*
X147790375Y-90221101D01*
X147788275Y-90267749D01*
X147785822Y-90299868D01*
X147782999Y-90318926D01*
X147779783Y-90326410D01*
X147772885Y-90332371D01*
X147748121Y-90356523D01*
X147708943Y-90396110D01*
X147658241Y-90448177D01*
X147598916Y-90509758D01*
X147533852Y-90577900D01*
X147305342Y-90818245D01*
X144338883Y-90818247D01*
X141372421Y-90818246D01*
X141320986Y-90777959D01*
X141302560Y-90764221D01*
X141261793Y-90734936D01*
X141203226Y-90693456D01*
X141129242Y-90641444D01*
X141042238Y-90580552D01*
X140944598Y-90512439D01*
X140838721Y-90438755D01*
X140726997Y-90361158D01*
X140611812Y-90281304D01*
X140495568Y-90200848D01*
X140380649Y-90121441D01*
X140269449Y-90044741D01*
X140164359Y-89972403D01*
X140067771Y-89906083D01*
X139982077Y-89847434D01*
X139909668Y-89798112D01*
X139852934Y-89759774D01*
X139814270Y-89734071D01*
X139796063Y-89722664D01*
X139753974Y-89700899D01*
X139755874Y-89594251D01*
X139877242Y-89594251D01*
X139877342Y-89595621D01*
X139882532Y-89605259D01*
X139896572Y-89620209D01*
X139920879Y-89641512D01*
X139956873Y-89670211D01*
X140005961Y-89707341D01*
X140069570Y-89753949D01*
X140149104Y-89811070D01*
X140245992Y-89879746D01*
X140361642Y-89961015D01*
X140497472Y-90055926D01*
X140654894Y-90165504D01*
X141433542Y-90706781D01*
X142898119Y-90706773D01*
X143021068Y-90706744D01*
X143275838Y-90706520D01*
X143550073Y-90706098D01*
X143838523Y-90705493D01*
X144135923Y-90704721D01*
X144437013Y-90703798D01*
X144736536Y-90702741D01*
X145029231Y-90701566D01*
X145309841Y-90700293D01*
X145573101Y-90698939D01*
X145813758Y-90697516D01*
X147264811Y-90688266D01*
X147475275Y-90465092D01*
X147685739Y-90241920D01*
X147684679Y-89133292D01*
X147683619Y-88024663D01*
X147463197Y-87819152D01*
X147242778Y-87613637D01*
X146861652Y-87617083D01*
X146840626Y-87617252D01*
X146774310Y-87617647D01*
X146682548Y-87618069D01*
X146567001Y-87618512D01*
X146429342Y-87618974D01*
X146271238Y-87619450D01*
X146094355Y-87619934D01*
X145900368Y-87620424D01*
X145690940Y-87620919D01*
X145467741Y-87621409D01*
X145232436Y-87621894D01*
X144986697Y-87622367D01*
X144732190Y-87622832D01*
X144470589Y-87623273D01*
X144203553Y-87623693D01*
X143932758Y-87624089D01*
X141384989Y-87627645D01*
X140634101Y-88160279D01*
X139883216Y-88692913D01*
X139880724Y-89128592D01*
X139880438Y-89177980D01*
X139879788Y-89283580D01*
X139879148Y-89379551D01*
X139878545Y-89462256D01*
X139878010Y-89528040D01*
X139877566Y-89573253D01*
X139877242Y-89594251D01*
X139755874Y-89594251D01*
X139763578Y-89162341D01*
X139765088Y-89079390D01*
X139767521Y-88956441D01*
X139769856Y-88857206D01*
X139772261Y-88779049D01*
X139774888Y-88719345D01*
X139777894Y-88675467D01*
X139781434Y-88644776D01*
X139785670Y-88624647D01*
X139790754Y-88612447D01*
X139796850Y-88605550D01*
X139800870Y-88602592D01*
X139825486Y-88584915D01*
X139870044Y-88553134D01*
X139932595Y-88508629D01*
X140011198Y-88452783D01*
X140103901Y-88386978D01*
X140208762Y-88312591D01*
X140323836Y-88231010D01*
X140447175Y-88143614D01*
X140576833Y-88051783D01*
X141333151Y-87516252D01*
X142624996Y-87512621D01*
X142753599Y-87512269D01*
X142965999Y-87511716D01*
X143199673Y-87511141D01*
X143450686Y-87510548D01*
X143715092Y-87509948D01*
X143988944Y-87509347D01*
X144268307Y-87508756D01*
X144549231Y-87508183D01*
X144827774Y-87507636D01*
X145099997Y-87507121D01*
X145361956Y-87506654D01*
X145609708Y-87506233D01*
X147302579Y-87503477D01*
X147549892Y-87735602D01*
G37*
D11*
%TO.C,R70*%
X147572742Y-97657500D02*
X148047258Y-97657500D01*
X147572742Y-98702500D02*
X148047258Y-98702500D01*
%TO.C,R4*%
X149547500Y-89892742D02*
X149547500Y-90367258D01*
X150592500Y-89892742D02*
X150592500Y-90367258D01*
%TO.C,TP102*%
X149540000Y-85830000D02*
X149540000Y-88230000D01*
X149540000Y-88230000D02*
X151940000Y-88230000D01*
X151940000Y-85830000D02*
X149540000Y-85830000D01*
X151940000Y-88230000D02*
X151940000Y-85830000D01*
%TD*%
M02*
